/* XPM */
static char *Hurt1697131615[] = {
/* columns rows colors chars-per-pixel */
"192 96 22 1 ",
"  c None",
". c black",
"X c #1B1F21",
"o c #14182E",
"O c #3B2027",
"+ c #52333F",
"@ c #7D3833",
"# c #2B2B45",
"$ c #283540",
"% c #3A3F5E",
"& c #2F5753",
"* c #3B7D4F",
"= c #AB5130",
"- c #8F4D57",
"; c #BD6A62",
": c #FFAE70",
"> c #4C6885",
", c #686F99",
"< c #FFEE83",
"1 c #FFC2A1",
"2 c #A3A7C2",
"3 c #FFDADA",
/* pixels */
"                                                                                                                                                                                                ",
"                                                                                                                                                                                                ",
"                                                                                                                                                                                                ",
"                                                                                                                                                                                                ",
"                                                                                                                                                                                                ",
"                                                                                                                                                                                                ",
"                                                                                                                                                                                                ",
"                                                                                                                                                                                                ",
"                                                                                                                                                                                                ",
"                                                                                                                                                                                                ",
"                                                                                                                                                                                                ",
"                                                                                                                                                                                                ",
"                                                                                                                                                                                                ",
"                                                                                                                                                                                                ",
"                                                                                                                                                                                                ",
"                                                                                                                                                                                                ",
"                                                                                                                                                                                                ",
"                                                                                                                                                                                                ",
"                                                                                                                                                                                                ",
"                                                                                                                                                                                                ",
"                                                                                                                                                                                                ",
"                                                                                                                                                                                                ",
"                                                                                                                                                                                                ",
"                                                                                                                                                                                                ",
"                                                                                                                                                                                                ",
"                                                                                                                                                                                                ",
"                                                                                                                                                                                                ",
"                                                                                                                                                                                                ",
"                                                                                                                                                                                                ",
"                                                                                                                                                                                                ",
"                                                                                                                                                                                                ",
"                                                                                                                                                                                                ",
"                                                                                                                                                                                                ",
"                                                                                                                                                                                                ",
"                                                                                                                                                                                                ",
"                                                                                                                                                                                                ",
"                                                                                                                                                                                                ",
"                                                                                                                                                                                                ",
"                                                                                                                                                                                                ",
"                                                                                                                                                                                                ",
"                                                                                                                                                                                                ",
"                                                                                                                                                                                                ",
"                                                                                                                                                                                                ",
"                                                                                                                                                                                                ",
"                                                                                                                                                                                                ",
"                                                                                                                                                                                                ",
"                                                                                                                                                                                                ",
"                                                                                                                                                                                                ",
"                                                                                                                                                                                                ",
"                                                                                                                                                                                                ",
"                                                                                                                                                                                                ",
"                                         ......                                                                                         ......                                                  ",
"                                       ..<<<<::...                                                                                    ..<<<<::...                                               ",
"                                     ..<<::::<<:<<.                                                                                 ..<<::::<<:<<.                                              ",
"                                    .<:::::::::<::<.                                                                               .<:::::::::<::<.                                             ",
"                                  ..::;:::::::::<:<.                                                                             ..::;:::::::::<:<.                                             ",
"                                 .:....-;;;:::::<...                                                                            .:....-;;;:::::<...                                             ",
"                                .<.<:::...-;;;...11.                                                                           .<.<:::...-;;;...11.                                             ",
"                                .:.<::::<<..-.111%%%.                                                                          .:.<::::<<..-.111%%%.                                            ",
"                                ...<::::::<<.11..%11.                                                                          ...<::::::<<.11..%11.                                            ",
"                               .oo.::::::::.11.;:..1.                                                                         .oo.::::::::.11.;:..1.                                            ",
"                               .o..;:::;:::.11...:<.1..                                                                       .o..;:::;:::.11...:<.1..                                          ",
"                               ..;.;:::-::.111%1%.:<.@=.                                                                      ..;.;:::-::.111%1%.:<.@=.                                         ",
"                              .<;-.;;:::;;.11%1.1%...@=.                                                                     .<;-.;;:::;;.11%1.1%...@=.                                         ",
"                              .:;..-;;::;-.;1%1.1%11.O@=.                                                                    .:;..-;;::;-.;1%1.1%11.O@=.                                        ",
"                               ..  .-;;:-.;.11%1%111;.@=.                                                                     ..  .-;;:-.;.11%1%111;.@=.                                        ",
"                                    .--;.;:.;111......O@=.                                                                         .--;.;:.;111......O@=.                                       ",
"                                     ..-.;;:.;..:::::<.@@.                                                                          ..-.;;:.;..:::::<.@@.                                       ",
"                                 .......-;-;:.::::...<...1.                                                                     .......-;-;:.::::...<...1.                                      ",
"                               ..1111111.-;::::::.33.<.111.                                                                   ..1111111.-;::::::.33.<.111.                                      ",
"                             ..111111111.-;;:::::....<.;11.                                                                 ..111111111.-;;:::::....<.;11.                                      ",
"                           ..11111111111;.-;;;:::::::<.;;..                                                               ..11111111111;.-;;;:::::::<.;;..                                      ",
"                          .11111;;;11111;-.-;-:::::::<...                                                                .11111;;;11111;-.-;-:::::::<...                                        ",
"                         .1111;;..;11111;;.--.;:::::::.                                                                 .1111;;..;11111;;.--.;:::::::.                                          ",
"                         ...1;..;;;111111;;.-.-:;:::::.                                                                 ...1;..;;;111111;;.-.-:;:::::.                                          ",
"                        .=@@..  .;;;111111;-..-;.;::::.                                                                .=@@..  .;;;111111;-..-;.;::::.                                          ",
"                        .=@.    .1-;1111111;;-.-.;;::.                                                                 .=@.    .1-;1111111;;-.-.;;::.                                           ",
"                  ...  .=@.     .11-;;1111;;;. ..-;:;.                                                           ...  .=@.     .11-;;1111;;;. ..-;:;.                                           ",
"                 .@@@. .=@.     .11....;;;;;..   .-;.                                                           .@@@. .=@.     .11....;;;;;..   .-;.                                            ",
"                  ...@.=@.@........,>>>.;;..O.    ..                                                             ...@.=@.@........,>>>.;;..O.    ..                                             ",
"                     ..=@..@@@@@@@.%,,>...@OO.                                                                      ..=@..@@@@@@@.%,,>...@OO.                                                   ",
"                       ..  ........#%,>.@@OO..                                                                        ..  ........#%,>.@@OO..                                                   ",
"                              .*&..#%,>.OO..&.                                                                                .&..#%,>.OO..&.                                                   ",
"                              .*&$$.%,>...$$&*.                                                                              .*&$$.%,>...$$&*.                                                  ",
"                              .&$$$.%,.$$$$$&*.                                                                              .*&$$.%,.$$$$$$&*.                                                 ",
"                             .*&$$$.%,.$$$$.$&*.                                                                             .*&$$.%,.$$$$$.$&*.                                                ",
"                           . .*&$$.#%>.$$$X.$$&*.                                                                         .  .*&$.#%>.$$$$X.$$&*.                                               ",
"                          .2..&$..#%,>.$XX.XX$&*.                                                                        .2..*&..#%,>.$$XX.XX$&*.                                               ",
"                          .2%#..##%,,>.XX.XXXX$&*.                                                                       .2%#..##%,,>.XXX.XXXX$&*.                                              ",
"                           .2%##%%,,,,>....XXXX$&.                                                                        .2%##%%,,,,>.....XXXX$&.                                              ",
"                          ..22,,,,,,,,,>>. ...X..+.                                                                       .22,,,,,,,,,>>.  ...X..+.                                             ",
"                         .+...222,,,,,,,,.    .+++.                                                                      .+..222,,,,,,,,.     .+++.                                             ",
"                        .+++.X...22222222.    .+++.                                                                     .+++....22222222.     .+++.                                             ",
"                       .+++++..  ........      .++.                                                                    .+++++.. ........       .++.                                             ",
"                       .+++..                  .++.                                                                    .+++..                  .++.                                             ",
"                       ....                     ...                                                                    ....                     ...                                             "
};
