/* XPM */
static char * gate_1_xpm[] = {
"64 64 75 1",
" 	c #000000",
".	c #070606",
"+	c #0B0A0A",
"@	c #0F0D0D",
"#	c #4E4936",
"$	c #635C43",
"%	c #4B4633",
"&	c #777052",
"*	c #7F7855",
"=	c #56523C",
"-	c #29271D",
";	c #89815F",
">	c #534E39",
",	c #353429",
"'	c #2A2A1E",
")	c #7B7455",
"!	c #8C8362",
"~	c #A59B71",
"{	c #A99E72",
"]	c #BEB281",
"^	c #938966",
"/	c #4E4A38",
"(	c #827A5A",
"_	c #9D936C",
":	c #635F49",
"<	c #3D3A2A",
"[	c #343224",
"}	c #736C4D",
"|	c #66614A",
"1	c #696346",
"2	c #A4996E",
"3	c #5A543E",
"4	c #6E694E",
"5	c #6A6449",
"6	c #968D69",
"7	c #504C36",
"8	c #46412F",
"9	c #423E2D",
"0	c #756E51",
"a	c #807856",
"b	c #312F22",
"c	c #242319",
"d	c #14120C",
"e	c #2E2D20",
"f	c #1E1B12",
"g	c #393527",
"h	c #3A3729",
"i	c #908765",
"j	c #222117",
"k	c #19160F",
"l	c #434132",
"m	c #201E14",
"n	c #A1976E",
"o	c #C3B783",
"p	c #ADA275",
"q	c #5F5A43",
"r	c #676246",
"s	c #B9AC7B",
"t	c #CCBD84",
"u	c #998F66",
"v	c #B6AB7C",
"w	c #C6B985",
"x	c #7F7759",
"y	c #131111",
"z	c #575340",
"A	c #595641",
"B	c #403F32",
"C	c #CBC093",
"D	c #E4D6A3",
"E	c #D9CA93",
"F	c #D0C086",
"G	c #EEE1B1",
"H	c #3B3B30",
"I	c #E7D9A6",
"J	c #BFB17D",
"      ..++@@@@@@+++..  .++@+. .     .++..++++++...              ",
" ..... ..+++++++@+++. ..+@++.       ..+.+++.++++..... ......... ",
" .+++..+.++....+++++..+++++#$    %&***=.++.......+++. ..++++++. ",
" .++++.+....++...++..++@+-*;*>,')!~~{{]^)'.+++++++++.  ..++@+.. ",
"  .++..++..++++...+...+/(_(:%<[<!!}|1|!2_(<+@@@@+++..   ..+++.  ",
"  ...  ..+..++..+.+. .3{(4=#<[%13===$555)6},+++++...  .   ....  ",
" .     .+.+....+.... 3!}3789['8%8888%$1|50(a'.....  .....       ",
" .... ..++.   ... ...99899bbcdccbb[,98%$$$|a4'     ..+++++.  ...",
"..++. .++++.     ..+a3b<,becddddfffcbg889%33h[...  .++@+... ....",
"+.+.  .++++.   ...+i)3['jkkkddddddddj'<8888g[,e+. ..+@++.+..++.+",
"+..+. ...++.   ..+*_39'dddddddddddddddj'bbb%%%[+...++++..+.+++.+",
"+...     ..  .. .<!*l<'ddddddddddddddddkmmf1n$%-+..+++..+..+@+.+",
"..          ..+..%(=9[mddddddddddddddddddddjo)#-+...++. .+++@+.+",
".  ..    ....+++.<}%['kddddddddddddddddddddd8*%[+. .++. .+@@@+..",
"  ..+...   .+@@@+[8h'fdddddddddddddddddddddd8&%b.  .... .+++++..",
"  .++++..  .+@++-1['dddddddddddddddddddddddd[/8[.       ..+++.. ",
"...++++..  .++..p}[cddddddddddddddddddddddddk,8e         ..... .",
"++....+.   ....$~q,ddddddddddddddddddddkkdddkcge             ...",
"++.  ...       r($gkddddddddddddddddddfffkdddd-[' .....      .++",
"++.           l^}$gfdddddddddddddddddfffffddddj9['.++++..... ..+",
"........     .8!4$<'ddddddddddddddddffffffkdddj;l[++@@+++++.  .+",
". ..+++..    .8(5%<'ddddddddddddddddfffffffdddjs&%'++@@@@@+.  ..",
". ..++++... ..<0$8h'dddddddddddddddffffffffkddjt(#-.+++++++. .++",
".  ........   e%%8<'ddddddddddddddfffffmmfffddjp(#b ........ .++",
"..             e99,'dddddddddddddffffffffffffdci}#b.         .++",
"+.    ....... [%[9[cddddddddddddffffffffffmfkdj;|7b.        .+++",
"+.   ..+++++..l64b'fddddddddddddfffffffffffffkj;$%b. ...   .++@+",
".  ...++@++++.7pug'kddddddddddkffffffffffffffkk738b...+..  ..+@+",
".  .+++@@+....1v!<fdddddddddddkffffffffmfffffkd[>gb.+++++.  .+++",
". ..+@++++.  '~v&9cdddddddddddmmffffffffffffffdblg'++@@@+.. .++.",
"  .++@+....  -]_09'fddddddddddffffffffffffffffkm[,'+@@@@++. .++.",
"  .++@+.    .'wx58gmddddddddddffffffffffffffffdke')@@@@++..  .+.",
"  ..+++..  ..'wx589'dddddddddfffffmfffffffffffkkc=_9@+++..   .. ",
".  ..+++.  .+-w(|3h'dddddddddfffffffffffffffmfdddhs%++...       ",
"+.  .....  .+)o)$$9[cddddddddfffffffffffffffffkddj!3b..    ... .",
"++.        .+)n51%9b[mdddddddfffmffffffffffffmkddc!>'     ..+  .",
".++. ...   ..)!5199bbmddddddkfffffffffffffmfffdddj;7'   ..+++. .",
".+. ..+..   $655$%9[mdddddddffffffmmmfffffffffdddc;%' ...++@+.. ",
".. ..+++.. .$6157%9[mkddddddffffmffffffffffffkdddc:h' .+++@@++. ",
"   .++@++.  q6|q999[mdddddddkfffffffffffffffffdddjg<' .+@@@@@+. ",
"   .+++++.  q6r>99b-ddddddddffffffffffffffffffddf)',' .+@@yy@+. ",
"    ......  q6$999[mddddddddfffffffffffffffffkdd9;9[' .++@@@@+. ",
"      ..  ..91#899ekddddddddkffffffffffffffffkdf$xze'...+++@++. ",
".. ..   ..+++b989[-dddddddddkffffffffffffffffdd3u0Ab'. ...+++.. ",
".+....  .++@@'b99bmdddddddddffffffffmfmffffffk7p(}$g..   .....  ",
".+.++.  .++++4|bbemdddddddddkffffmffffffffffffn2(|$[            ",
".+.++.  ..+..(]|[emdddddddddfffffffffffffffff$ou(1$<e         ..",
".+..+.   ... {u(7bkdddddddddkfffffffmffffffff9np(5$9[..    .....",
"......       p(}:9mdddddddddffffffffffffffffkmao(5$8,'+..  ..+++",
"+.  .. ......ai119mdddddddddffmffffffffffffmfdma(|$8gb++..  .+++",
"+..     ..++.)!538gkddddddddffffffffffmfffffkddB60$9gb@++.  ...+",
".+. ...  .+++)}578g-ddddddddfffffffffffffmffdddm40#%gb@@++.   ..",
"++...+....+.A05:79<'ddddddddkffffffmfmffffffdddk7099gb@@@+.   .+",
"...+++++....(7=#89g'ddddddddfffffffffffffffmddddm)%9gb@@++.   .+",
".+..++@+..+qCs[889['ddddddddkmmfffffffffffffddddf788gb+++.. ....",
".++..+@++.+|DE2[99['ddddddddkfffffmfffffffffdddcbg9h,b.... ..++.",
"..++.++++++|Es2=,9['ddddddddfffffffffffffmffddc(((0g[b       .++",
"+......++@<CFnu2%,['ddddddddkffffffffffffffmdm!GDF(g,b....... .+",
"...+++..++Ht{^^(}9bh$r|fddddffffffffffffmmckeuIt{^^4<e++++++.. .",
" .++@++...){^^()}189sE]Afdddkfmffffffmfff9&,$tv{6i!)q,@@@@@++. .",
" ..+@++. x~^6(}}&}$>|n6!zfddd,,jffb[b,b',{_4qs6ii6)}}<@@@++++.  ",
"  .+++.. (6(}}}}}553#=}}}/B#:JnAmgassu5luiaAqni6i)}}}$B+++....  ",
"  ....../)}}}&1$:>>>77$$:3l4u}$$%7$$$1$==413>$(()}}}1=%....     ",
"      .++#3333>>>>lBlHlllB+%llBlBBlllBll.B73##3q3333==>B        "};
