/* XPM */
static char * gate_3_xpm[] = {
"64 64 304 2",
"  	c #000000",
". 	c #070606",
"+ 	c #0B0A0A",
"@ 	c #0F0D0D",
"# 	c #4E4936",
"$ 	c #2B291F",
"% 	c #4B4633",
"& 	c #3F3C2F",
"* 	c #4B4734",
"= 	c #29271D",
"- 	c #534E39",
"; 	c #282424",
"> 	c #2A2A1E",
", 	c #524E3B",
"' 	c #333122",
") 	c #4E4A38",
"! 	c #1C1A12",
"~ 	c #343125",
"{ 	c #504C36",
"] 	c #3F3A2A",
"^ 	c #201E14",
"/ 	c #29281C",
"( 	c #242319",
"_ 	c #14120C",
": 	c #2E2D20",
"< 	c #1E1B12",
"[ 	c #222117",
"} 	c #19160F",
"| 	c #29281E",
"1 	c #36352E",
"2 	c #010101",
"3 	c #080804",
"4 	c #CDB15C",
"5 	c #EFDF6E",
"6 	c #837A3D",
"7 	c #1A160D",
"8 	c #978B45",
"9 	c #FFE474",
"0 	c #FFC26C",
"a 	c #FFB269",
"b 	c #FFDA71",
"c 	c #FFCB6E",
"d 	c #FFEE76",
"e 	c #6B6131",
"f 	c #8F8041",
"g 	c #1D1B12",
"h 	c #845B3C",
"i 	c #FFBD6C",
"j 	c #AF7A48",
"k 	c #AE904D",
"l 	c #DBB660",
"m 	c #282412",
"n 	c #1C1917",
"o 	c #231615",
"p 	c #AB4B47",
"q 	c #E77561",
"r 	c #F99366",
"s 	c #B4794A",
"t 	c #976A3E",
"u 	c #664E40",
"v 	c #695142",
"w 	c #502F2E",
"x 	c #282730",
"y 	c #775848",
"z 	c #DB995A",
"A 	c #776E37",
"B 	c #222010",
"C 	c #725532",
"D 	c #6A2728",
"E 	c #8C463B",
"F 	c #836452",
"G 	c #1C1D38",
"H 	c #978081",
"I 	c #AF9088",
"J 	c #CAA190",
"K 	c #7B6C75",
"L 	c #C6987D",
"M 	c #E7A15F",
"N 	c #120D08",
"O 	c #2B2A1F",
"P 	c #875D4E",
"Q 	c #7E614F",
"R 	c #604A3D",
"S 	c #324363",
"T 	c #A88B86",
"U 	c #87757C",
"V 	c #FFC4A1",
"W 	c #574439",
"X 	c #4B3727",
"Y 	c #E7D76B",
"Z 	c #211E1C",
"` 	c #130605",
" .	c #B25649",
"..	c #876949",
"+.	c #AE7147",
"@.	c #161726",
"#.	c #D8AB95",
"$.	c #646475",
"%.	c #AB836C",
"&.	c #595229",
"*.	c #17150D",
"=.	c #F16C62",
"-.	c #8F643B",
";.	c #876955",
">.	c #25100F",
",.	c #34251B",
"'.	c #C38B53",
").	c #B4A854",
"!.	c #E5AE8F",
"~.	c #BA8A73",
"{.	c #7B4432",
"].	c #0C0505",
"^.	c #1C1910",
"/.	c #1B1910",
"(.	c #0C090B",
"_.	c #C8555A",
":.	c #F28D64",
"<.	c #F6BD9B",
"[.	c #AC8A7D",
"}.	c #4A4D5E",
"|.	c #281F19",
"1.	c #A7816A",
"2.	c #E7A861",
"3.	c #403B2A",
"4.	c #1F1C13",
"5.	c #14120D",
"6.	c #9C4540",
"7.	c #CA9E87",
"8.	c #FCB395",
"9.	c #2C291C",
"0.	c #2B281C",
"a.	c #242117",
"b.	c #D65C5B",
"c.	c #723030",
"d.	c #89555F",
"e.	c #BE937B",
"f.	c #371409",
"g.	c #C95909",
"h.	c #2A271C",
"i.	c #2D2A1E",
"j.	c #2A271B",
"k.	c #190808",
"l.	c #793738",
"m.	c #977B7D",
"n.	c #83383A",
"o.	c #2A0D0A",
"p.	c #E5551E",
"q.	c #323024",
"r.	c #2D2C1F",
"s.	c #3A1415",
"t.	c #B7684B",
"u.	c #D8816F",
"v.	c #A97E68",
"w.	c #5C4527",
"x.	c #583D24",
"y.	c #565128",
"z.	c #E8B293",
"A.	c #A7322B",
"B.	c #CA4525",
"C.	c #F36711",
"D.	c #492201",
"E.	c #302D1F",
"F.	c #531D20",
"G.	c #604327",
"H.	c #F7AA66",
"I.	c #FFD470",
"J.	c #1C0C10",
"K.	c #962D28",
"L.	c #AC342A",
"M.	c #974703",
"N.	c #3F3C30",
"O.	c #343022",
"P.	c #15130E",
"Q.	c #552327",
"R.	c #E2615F",
"S.	c #73231E",
"T.	c #E35320",
"U.	c #562802",
"V.	c #373324",
"W.	c #FCA568",
"X.	c #431317",
"Y.	c #393526",
"Z.	c #1B1810",
"`.	c #9C7862",
" +	c #E06A5F",
".+	c #FB9C67",
"++	c #64280B",
"@+	c #413C2B",
"#+	c #3E3A29",
"$+	c #762C26",
"%+	c #D85D0E",
"&+	c #3C3828",
"*+	c #28281D",
"=+	c #F58575",
"-+	c #662C37",
";+	c #F47965",
">+	c #403C1E",
",+	c #862824",
"'+	c #571919",
")+	c #471A0A",
"!+	c #433E2D",
"~+	c #29291D",
"{+	c #D6706C",
"]+	c #44121B",
"^+	c #E76460",
"/+	c #DD615A",
"(+	c #7D2521",
"_+	c #3E3A2A",
":+	c #3B3727",
"<+	c #1B0807",
"[+	c #916F5C",
"}+	c #9D6A41",
"|+	c #360F13",
"1+	c #250D19",
"2+	c #3F3B2B",
"3+	c #333123",
"4+	c #3A110F",
"5+	c #68592E",
"6+	c #413D2C",
"7+	c #403C2B",
"8+	c #032C19",
"9+	c #3D3929",
"0+	c #852C1B",
"a+	c #EA9281",
"b+	c #012429",
"c+	c #007944",
"d+	c #230B0C",
"e+	c #651E1A",
"f+	c #9A3618",
"g+	c #6A463C",
"h+	c #0A0E18",
"i+	c #001D26",
"j+	c #004747",
"k+	c #B93B29",
"l+	c #702812",
"m+	c #423E2D",
"n+	c #38434B",
"o+	c #02465C",
"p+	c #023744",
"q+	c #012935",
"r+	c #002E3C",
"s+	c #004D4D",
"t+	c #423D2C",
"u+	c #343123",
"v+	c #2A3558",
"w+	c #466D98",
"x+	c #00556F",
"y+	c #000B0C",
"z+	c #131111",
"A+	c #15130D",
"B+	c #5A709E",
"C+	c #000D11",
"D+	c #413C2C",
"E+	c #464334",
"F+	c #3F3B2A",
"G+	c #171510",
"H+	c #004A62",
"I+	c #3B392B",
"J+	c #333022",
"K+	c #50608B",
"L+	c #041418",
"M+	c #00514F",
"N+	c #323022",
"O+	c #37678D",
"P+	c #383425",
"Q+	c #002733",
"R+	c #222745",
"S+	c #414E77",
"T+	c #005E7C",
"U+	c #00634D",
"V+	c #312F21",
"W+	c #8C95AF",
"X+	c #0A1722",
"Y+	c #60719F",
"Z+	c #003D23",
"`+	c #646C86",
" @	c #5A6C99",
".@	c #2E1C23",
"+@	c #3A1825",
"@@	c #949EBD",
"#@	c #6D789A",
"$@	c #4E5A85",
"%@	c #403B2B",
"&@	c #2F2C1F",
"*@	c #9AA4C1",
"=@	c #1C1A17",
"-@	c #18161B",
";@	c #272419",
">@	c #232016",
",@	c #262319",
"'@	c #29271B",
")@	c #15120D",
"!@	c #3F3D2E",
"~@	c #242218",
"{@	c #28251A",
"]@	c #1A1810",
"^@	c #262418",
"/@	c #222016",
"(@	c #181610",
"_@	c #211F15",
":@	c #232116",
"<@	c #2A291D",
"[@	c #222015",
"}@	c #171511",
"            . . + + @ @ @ @ @ @ + + + . .     . + + @ + .   .           . + + . . + + + + + + . . .                             ",
"  . . . . .   . . + + + + + + + @ + + + .   . . + @ + + .               . . + . + + + . + + + + . . . . .   . . . . . . . . .   ",
"  . + + + . . + . + + . . . . + + + + + . . + + + + # $ .       % $ & & & * + . + + . . . . . . . + + + .   . . + + + + + + .   ",
"  . + + + + . + . . . . + + . . . + + . . + + @ = & & & - ; > , & ' ' ' ' & & , > . . + + + + + + + + + .     . . + + @ + . .   ",
"    . + + . . + + . . + + + + . . . + . . . ) & $ & $ % ; ! ; & & $ $ $ $ & ' $ & ; . + @ @ @ @ + + + . .       . . + + + .     ",
"    . . .     . . + . . + + . . + . + .   ~ ' & $ * # ; ! % $ ~ * * * $ $ $ $ , & $ ; + + + + + + . . .     .       . . . .     ",
"  .           . + . + . . . . + . . . . ~ & $ ~ { ] ^ ! > ] % ] ] ] ] % $ $ $ $ $ & & > . . . . . .     . . . . .               ",
"  . . . .   . . + + .       . . .   . . ^ ^ ] ^ ^ / / ( _ ( ( / / ! ; ^ ] % $ $ $ $ & $ >             . . + + + + + .     . . . ",
". . + + .   . + + + + .           . . & ~ / ; ; / : ( _ _ _ _ < < < ( / ; ] ] ^ % ~ ~ ; !   . . .     . + + @ + . . .   . . . . ",
"+ . + .     . + + + + .       . . . & , ~ ! > [ } } } _ _ _ _ _ _ _ _ [ > ; ] ] ] ] ; ! ; : . + .   . . + @ + + . + . . + + . + ",
"+ . . + .   . . . + + .       . . & $ ~ ^ > _ _ _ _ _ _ _ _ _ _ _ _ _ _ _ [ > / / / % % % ! + + . . . + + + + . . + . + + + . + ",
"+ . . .           . .     . .   ; & & | ; > _ _ _ _ _ _ _ _ _ _ _ _ _ _ _ _ } ^ ^ < $ 1 $ % = + + . . + + + . . + . . + @ + . + ",
". .                     . . + . % & * ^ ! ^ _ _ _ _ _ _ _ _ _ 2 2 2 2 2 2 _ _ _ _ _ [ & , # = @ + . . . + + .   . + + + @ + . + ",
".     . .         . . . . + + + ; $ % ! > } _ _ _ _ _ _ 3 3 3 4 5 5 5 5 5 6 3 _ _ _ _ ] & % ! + + .   . + + .   . + @ @ @ + . . ",
"    . . + . . .       . + @ @ @ ! ] ; > < _ _ _ _ _ _ 7 8 9 9 0 a a a 0 b c d e _ _ _ ] $ % / + .     . . . .   . + + + + + . . ",
"    . + + + + . .     . + @ + = $ ! > _ _ _ _ _ _ _ _ f c a a b 0 a a a c c a c e _ _ _ ) ] ! . .               . . + + + . .   ",
". . . + + + + . .     . + + . ' $ g ( _ _ _ _ _ _ _ h i a a a a d j j j k l a a d m _ } ; ] : .                   . . . . .   . ",
"+ + . . . . + .       . . . $ ' $ ; n _ _ _ _ _ _ o p q r r s t 8 u v w x y t z c A _ } ( ; : .                           . . . ",
"+ + .     . . .             $ & $ ; } _ _ _ _ _ B A C D p E y F G H I J K L F C M 9 N n n = ! >     . . . . .             . + + ",
"+ + .                     O & $ $ ; < _ _ _ _ _ m c l 8 C P Q R S T T U J V V W X Y N n n [ ^ ! > . . + + + + . . . . .   . . + ",
". . . . . . . .           ] & $ $ Z > _ _ _ _ `  .a i k ..y E +.@.R #.$.V %.X ..j &.k 2 n [ & | ! . + + @ @ + + + + + .     . + ",
".   . . + + + . .         ] & $ % *.> _ _ _ _ ` =.a a -.;.W >.,.'.).w !.~.{.'.e ,.].Y 2 n [ & $ % > . + + @ @ @ @ @ + .     . . ",
".   . . + + + + . . .   . ^.$ $ ] /.> _ _ _ _ (._.:.j y <.K [.}.|.7 ,.V 1.3 7 1.!.o 2.2 n [ & & # = . . + + + + + + + .   . + + ",
".     . . . . . . . .     : % % 3.4.> _ 5._ _ _ o =.6.v H I X 7.S <.8. .W <.<.W L |.M 2 N [ ' & # /     . . . . . . . .   . + + ",
". .                         : 9.0.a.> _ _ _ _ _ >.b.c.c.d.T W e.$.V 8.p W V V y L |.'.f.g.2 & $ # / . .                   . + + ",
"+ .         . . . . . . . h.% h.i.j.( _ _ _ _ _ k.l.l.E P m.#.K ~.e.~.n.X e.!.V V |.o.p.g.f.& $ { / + .                 . + + + ",
"+ .       . . + + + + + . q.& $ r.> < _ _ _ _ _ _ s.t.+.{.u.L v.w.x.x.w.y.y...1.z.m A.B.C.g.D.$ % / + .   . . .       . + + @ + ",
".     . . . + + @ + + + + { ' & E.> } _ _ _ _ _ _ 2 F.q +.E {.G.H.a a i I.9 ).A ;.J.K.L.p.C.M.~ ] / + . . . + . .     . . + @ + ",
".     . + + + @ @ + . . . $ N.& O.< P._ _ _ Q ;.;.u Q.R.:.s z a a a a a a 0 9 d k N S.A.B.T.g.U.; / . . + + + + + .     . + + + ",
".   . . + @ + + + + .   > ' N.$ V.( _ _ _ 2 #.V V !.P 6.r r W.a a G.G.G.t a i 9 d m X.A.L.B.T.g.U.> . + + @ @ @ + . .   . + + . ",
"    . + + @ + . . . .   = & $ $ Y.> Z._ _ `.<.V V V v.Q. +=..+a a s p  .z a a b d B X.A.A.L.B.C.++> + + @ @ @ @ + + .   . + + . ",
"    . + + @ + .         > & & $ @+#+g _ 2 L V V V V v.Q.b.b.M a a a W.W.a a a b e $+N D A.A.L.B.%+D.+ @ @ @ @ + + . .     . + . ",
"    . . + + + . .     . > & & $ @+&+*+_ 2 L V V <.=+<.;.-+Q. .W.;+a a a a a a b >+,+].'+A.A.A.L.B.)+^ @ @ + + + . .       . .   ",
".     . . + + + .     . = & & $ ~ !+~+_ 2 L V !.b.{+V `.-+]+n.^+/+a W.;+H.H.I.&.(+A.k.]+F.K.(+]+k.& % + + + . . .               ",
"+ .     . . . . .     . , & , $ $ _+:+[ <+v.7.].o ;+V V [+,.l.b.N =..+;+}+C l w.,+A.K.2 ` |+1+].[ & ~ / . . .         . . .   . ",
"+ + .                 . , 1 $ $ % 2+3+2 S.4+2 _ o ;+8.V V V Q l.` R.=.;+}+&.5+(+A.K.|+2 ^ 2 |+|+( & - >             . . +     . ",
". + + .   . . .       . , & $ $ 6+7+3+2 S.'+]._ >.R.=+V V V V Q R l.R.b.c.4+S.K.,+|+8+2 < k.S.'+[ & { >         . . + + + .   . ",
". + .   . . + . .     $ & $ $ $ % 6+9+2 0+,+` _ o {+{+a+8.V 1.;.;.].-+$+S.K.(+X.o.b+c+2 < d+K.e+( & % >     . . . + + @ + . .   ",
". .   . . + + + . .   $ & $ $ <+e+'+4+2 f+L.k.2 |.g+Q.Q.g+y D ].2 2 ].(+,+|+<+h+i+j+c+2 } f.k+l+( $ ; >     . + + + @ @ + + .   ",
"      . + + @ + + .   $ & $ $ m+4+4+'+o.f+k+` e+2 2 2 2 2 2 o.n+o+o+p+4+o i+i+q+r+s+c+2 < |+k+l+[ ; ; >     . + @ @ @ @ @ + .   ",
"      . + + + + + .   $ & $ - t+t+u+d+` f+k+` o.0+S.,+S.(+(+d+v+w+w+x+y+q+p+r+r+r+s+c+2 < f.k+l+, > ; > .   . + @ @ z+z+@ + .   ",
"        . . . . . .   $ & $ 6+6+6+9+^ A+d+<+_ _ k.<+<+<+<+<+].G S B+x+C+r+r+r+r+p+s+c+2 } n d+<+& ^ ! > .   . + + @ @ @ @ + .   ",
"            . .     . ] $ # D+7+7+: } A+_ _ _ _ C+j+r+r+q+q+C+G v+B+x+C+r+r+r+r+q+s+c+2 } n < $ & E+: > . . . . + + + @ + + .   ",
". .   . .       . . + + 3+F+D+2+&+= G+P._ _ _ _ y+s+r+r+r+r+r+y+v+B+H+C+r+r+r+r+r+s+c+2 n n ~ & $ I+/ > + .   . . . + + + . .   ",
". + . . . .     . + + @ > J+_+_+J+^ 5.5._ _ 5._ C+s+r+r+r+r+r+y+v+K+2 L+r+r+r+r+p+M+c+2 } { ' & $ $ ; . . .       . . . . .     ",
". + . + + .     . + + + $ $ N+N+: ^ 5._ _ _ _ _ y+s+r+r+r+q+i+h+v+O+2 y+L+q+r+r+p+M+c+2 < 1 ' & $ $ !                           ",
". + . + + .     . . + . & & $ P+: ^ 5._ _ _ _ _ n+q+Q+r+Q+h+h+R+S+T+2 < 3 L+q+r+j+U+c+2 $ & & & $ $ ; :                     . . ",
". + . . + .       . . . ' & & { V+} _ _ _ _ _ (.W+@.X+b+X+X+R+S+Y+T+2 ^ < y+i+p+Q+Z+Z+2 ^ 1 ' & $ $ ^ ! . . .         . . . . . ",
". . . . . .             ' & $ $ V.^ _ _ _ _ _ _ }.`+R+@.G v+S+ @Y+O+p+2 < < C+b+.@+@+@2 ^ & & & $ $ ] ; > + + . .     . . + + + ",
"+ .     . .   . . . . . & & $ $ u+^ _ _ _ _ _ _ @.@@#@$@K+K+ @Y+Y+Y+O+H+p+2 2 1+w -+-+2 n ^ & & $ $ ] ; / @ + + . .     . + + + ",
"+ . .           . . + + , & $ ~ %@&@_ _ 5._ 5._ 3 x }.*@*@#@Y+Y+Y+Y+B+w+S 2 < (.+@-+J.} n n =@& $ $ ^ ; / @ @ + + .     . . . + ",
". + .   . . .     . + + , $ $ { %@0.= _ _ _ _ _ 2 1+1+-@-@`+*@*@*@*@*@*@$.2 < 2 1++@2 n n n ^ $ $ # % ; / z+@ @ + + .       . . ",
"+ + . . . + . . . . + I+$ $ $ { i.;@> _ _ _ _ _ 2 2 2 } < 3 3 3 y+].3 3 3 < < < 2 2 < n n n } { $ ^ ^ ; / @ @ @ @ + .       . + ",
". . . + + + + + . . . & { * # 3.0.>@~+_ _ _ _ _ _ _ _ < < < < < < < < < < < < < < < ^ n n n n ^ , % ^ ; / + @ @ + + .       . + ",
". + . . + + @ + . . $ & & ,@3.3.'@,@> _ _ _ _ )@_ _ )@} ^ ^ < < < < < < < < < < < < < n n n n < { ] ] ; / + + + + . .   . . . . ",
". + + . . + @ + + . $ !@$ ' ~@{@{@~@> _ _ _ _ _ _ _ )@} < < < < < ^ < < < < < < < < < n n n ( / ; ^ ; ; / . . . . .   . . + + . ",
". . + + . + + + + + $ $ & ' * ]@^@/@> _ _ _ _ _ _ _ _ < < < < < < < < < < < < < ^ < < n n ( & & & $ ; ! /                 . + + ",
"+ . . . . . . + + ; & & 1 & ' % (@_@> _ _ _ _ _ _ _ _ } < < < < < < < < < < < < < < ^ n ^ & !@!@& & ; ; / . . . . . . . .   . + ",
". . . + + + . . + ; & ' & & & $ :@<@; $ $ $ < _ _ _ _ < < < < < < < < < < < < ^ ^ ( } : & !@& ' & & $ ; : + + + + + + + . .   . ",
"  . + + @ + + . . , ' & & & , $ $ ] [@& $ & I+< _ _ }@} < ^ < < < < < < ^ < < < ^ $ ; $ & N.' & & & , $ ; + @ @ @ @ @ + + .   . ",
"  . . + @ + + . & ' & & & $ $ $ $ $ - $ 1 & & E+< 5.A+n ; ; [ < < / ! / ; / > ; ' $ $ $ & & & & & , $ $ ; + @ @ @ + + + + .     ",
"    . + + + . . & & & $ $ $ $ $ $ $ ~ # * $ $ $ ) A+# $ & 1 I+^ ; & & & & $ | & & & I+$ 1 & & & , $ $ $ $ =@+ + + + . . . .     ",
"    . . . . . ) , $ $ $ $ $ $ $ - - - { { $ $ $ ~ | $ & $ $ $ % { $ $ $ $ $ * * $ $ ~ - $ & & , $ $ $ $ * % . . . . .           ",
"            . + # ~ ~ ~ ~ - - - - | =@| ; | | | =@+ % | | =@| =@=@| | | =@| | + =@{ ~ # # ~ $ ~ ~ ~ ~ * * - =@                  "};
