/* XPM */
static char *door1697129307[] = {
/* columns rows colors chars-per-pixel */
"128 128 15 1 ",
"  c None",
". c #14120C",
"X c #1E1B12",
"o c #28281C",
"O c #343124",
"+ c #3B3B30",
"@ c #46412F",
"# c #554F3A",
"$ c #6A6349",
"% c #756D4C",
"& c #928967",
"* c #968D69",
"= c #D0C086",
"- c #D6C88E",
"; c #F8ECBF",
/* pixels */
"                                                                                                                                ",
"                                                                                                                                ",
"                                                                                                                                ",
"                                                                                                                                ",
"                                                                                                                                ",
"                                                                                                                                ",
"                                                                                                                                ",
"                                                                                                                                ",
"                                                                                                                                ",
"                                                                                                                                ",
"                                                                                                                                ",
"                                                                                                                                ",
"                                                                                                                                ",
"                                                                                                                                ",
"                                                                                                                                ",
"                                                                                                                                ",
"                                                                                                                                ",
"                                                                                                                                ",
"                                                                                                                                ",
"                                                                                                                                ",
"                                                                                                                                ",
"                                                          oo      ooooooo                                                       ",
"                                                        oo**ooo oo*-----*ooo                                                    ",
"                                                      oo***$$@Oo********--**o                                                   ",
"                                                    oo-**$$@@OOo***$$$$$**-**o                                                  ",
"                                                   o-**$$$@@OOo*$$$$$$$$$$$***o                                                 ",
"                                                  o**$$$@@@OOo*@@@@@@@$$$$$$**$o                                                ",
"                                                 o**$$@@@@OOoO@@@@@@@@@$$$$$$$**o                                               ",
"                                                 o@@@@@@OOOo.oooOOOOO@@@@$$$$$$**o                                              ",
"                                                o*oO@@OOOOo.....oooooOO@@@@@@$$$@@o                                             ",
"                                               o-$@oOOoooo...........oOO@@@@@@@@OOo                                             ",
"                                              o-$$@Ooo................ooO@@@@@@OOo@o                                            ",
"                                             o-*$@@o....................ooOOOOOoo@@o                                            ",
"                                             o-$@@Oo......................ooooo-*$@@o                                           ",
"                                            o**$@@Oo...........................o-$$@o                                           ",
"                                            o*$@@Oo............................o-*$@o                                           ",
"                                            o*$@OOo.............................o*$@Oo                                          ",
"                                            o@@OOo..............................o*$@Oo                                          ",
"                                            o@@Oo...............................o*@@Oo                                          ",
"                                           o*oOo................................o@@@Oo                                          ",
"                                          o-*oOo.................................o@@Oo                                          ",
"                                          o-$@o..................................oO@Oo                                          ",
"                                         o-*$@o..........................XXX......oOOo                                          ",
"                                         o*$$@o.........................XXXXX......oOOo                                         ",
"                                        o**$$@o........................XXXXXX......ooOOo                                        ",
"                                        o**$$@Oo......................XXXXXXXX.....o*oOo                                        ",
"                                        o*$$$@Oo.....................XXXXXXXXX.....o**o@o                                       ",
"                                        o*$$@@Oo.....................XXXXXXXXXX....o-*$@o                                       ",
"                                        o*$$@@Oo....................XXXXXXXXXXX....o-*$@o                                       ",
"                                        o@$@@@Oo...................XXXXXXXXXXXXX...o-*$@Oo                                      ",
"                                         o@@@@Oo..................XXXXXXXXXXXXXX...o**$@Oo                                      ",
"                                         oO@@OOo.................XXXXXXXXXXXXXXXX..o*$$@Oo                                      ",
"                                        oOoO@OOo................XXXXXXXXXXXXXXXXX..o*$$@Oo                                      ",
"                                        o**oOOo.................XXXXXXXXXXXXXXXXX..o*$$@Oo                                      ",
"                                        o***oOo................XXXXXXXXXXXXXXXXXXX.o*$@@Oo                                      ",
"                                        o-**@oo...............XXXXXXXXXXXXXXXXXXXX..o$@@Oo                                      ",
"                                        o-**@o................XXXXXXXXXXXXXXXXXXXX..o$@OOo                                      ",
"                                       o*-*$@o...............XXXXXXXXXXXXXXXXXXXXX..o@@OOo                                      ",
"                                       o*-*$@Oo..............XXXXXXXXXXXXXXXXXXXXXX.o@@Oo                                       ",
"                                       o-**$@Oo..............XXXXXXXXXXXXXXXXXXXXXX..oOOo                                       ",
"                                       o-*$$@@o..............XXXXXXXXXXXXXXXXXXXXXX..oOo*o                                      ",
"                                       o-*$$@@Oo............XXXXXXXXXXXXXXXXXXXXXXX..oOo*o                                      ",
"                                       o-*$$@@Oo............XXXXXXXXXXXXXXXXXXXXXXX...o*-$o                                     ",
"                                       o-*$$$@Oo............XXXXXXXXXXXXXXXXXXXXXXX....o-$o                                     ",
"                                      o*-*$$$@OOo...........XXXXXXXXXXXXXXXXXXXXXXX....o*$@o                                    ",
"                                      o*-$$$$@OOOo..........XXXXXXXXXXXXXXXXXXXXXXX....o*$@o                                    ",
"                                      o**$$$@@OOOo..........XXXXXXXXXXXXXXXXXXXXXXX....o*$Oo                                    ",
"                                      o**$$$@@OOOo.........XXXXXXXXXXXXXXXXXXXXXXXX....o*$Oo                                    ",
"                                     o**$$$$@@OOo..........XXXXXXXXXXXXXXXXXXXXXXXX....o*$Oo                                    ",
"                                     o**$$$@@@OOo..........XXXXXXXXXXXXXXXXXXXXXXX.....o*@Oo                                    ",
"                                     o**$$$@@@OOo..........XXXXXXXXXXXXXXXXXXXXXXX.....o@@Oo                                    ",
"                                     o**$$@@@@OOo..........XXXXXXXXXXXXXXXXXXXXXXX.....oO@Oo                                    ",
"                                     o**$$@@@OOo...........XXXXXXXXXXXXXXXXXXXXXXX....o*oOOo                                    ",
"                                     o**$@@@@OOo...........XXXXXXXXXXXXXXXXXXXXXXX....o*oOOo                                    ",
"                                     o**$@@@@Oo............XXXXXXXXXXXXXXXXXXXXXXX...o**$oOo                                    ",
"                                      o$@@@@OOo............XXXXXXXXXXXXXXXXXXXXXXX...o*$$oOo                                    ",
"                                      oO@@@@OOo............XXXXXXXXXXXXXXXXXXXXXX...o**$$oOo                                    ",
"                                      oOO@@OOo.............XXXXXXXXXXXXXXXXXXXXXX..o***$$@o                                     ",
"                                       ooO@OOo.............XXXXXXXXXXXXXXXXXXXXXX.o*-*$$$@o                                     ",
"                                      o**oOOOo.............XXXXXXXXXXXXXXXXXXXXXX.o-**$$$@o                                     ",
"                                      o*-*oOOo.............XXXXXXXXXXXXXXXXXXXXXXo*-**$$$@Oo                                    ",
"                                      o-**$oo..............XXXXXXXXXXXXXXXXXXXXXXo*-**$$$@@o                                    ",
"                                      o-**$$@o.............XXXXXXXXXXXXXXXXXXXXXX.o*-*$$$@@Oo                                   ",
"                                      o-*$$$@o.............XXXXXXXXXXXXXXXXXXXXXX.o*-*$$$@@Oo                                   ",
"                                      o**$$$@o.............XXXXXXXXXXXXXXXXXXXXXX..o**$$$@@OOo                                  ",
"                                      o**$$$@@o............XXXXXXXXXXXXXXXXXXXXXX...o**$$@@OOo                                  ",
"                                      o**$$@@@o............XXXXXXXXXXXXXXXXXXXXX....o**$$@@OOo                                  ",
"                                      o*$$$@@@Oo...........XXXXXXXXXXXXXXXXXXXXX.....o*$@@@OOo                                  ",
"                                      +*$$$@@@Oo...........XXXXXXXXXXXXXXXXXXXXX.....o*$@@@OOo                                  ",
"                                     +=o$$@@@@Oo...........XXXXXXXXXXXXXXXXXXXXX......o*@@@OOo                                  ",
"                                     +=o@@@@@OOo...........XXXXXXXXXXXXXXXXXXXXX......o*@@@OOo                                  ",
"                                    +=;=o@@@@OOo...........XXXXXXXXXXXXXXXXXXXXX......o@@@@OOo                                  ",
"                                    +=;==o@@@OOo...........XXXXXXXXXXXXXXXXXXXXX.....oOO@@OOOo                                  ",
"                                    +;===oO@@OOo...........XXXXXXXXXXXXXXXXXXXXX....+++++OOOOo                                  ",
"                                    +==&&=oO@OOo...........XXXXXXXXXXXXXXXXXXXXX...+=====+OOOo                                  ",
"                                   +;==&&&=oOOOo...........XXXXXXXXXXXXXXXXXXXXX..+=;;==&+OOOo                                  ",
"                                   +==&&&&%%oOO+++++.......XXXXXXXXXXXXXXXXXXXX..+=;==&&&&+OOo                                  ",
"                                   +=&&&&&%%%oo+==;=+......XXXXXXXXXXXXXXXXXX++.+====&&&&&%+Oo                                  ",
"                                  +=&&&&%%%%%%#+&==&&+.....XXXXXXXXXXXXXXXXX+=&++==&&&&&&%%%+o                                  ",
"                                 +=&&&&%%%%%%%##+&&&&&+.....+++XXXX++++++X++=&&%+=&&&&&&%%%%+                                   ",
"                                 +=&&%%%%%%%%%%##+%%%%%+++++==&+XX+&===&%++=&&%#+=&&&&&%%%%%%+                                  ",
"                                +&%%%%%%%%%%#####+%%%%%##+==&%%%++%%%%%%%%+%&%%##+&&&&%%%%%%##+                                 ",
"                                +%%%%%%%#########+######++%######+#########+##%##+%%%%%%%%%###+                                 ",
"                                 ++##########+++++++++++  +++++++ +++++++++ ++###+#############+                                ",
"                                   ++++++++++                                 +++ ++#########++                                 ",
"                                                                                    +++++++++                                   ",
"                                                                                                                                ",
"                                                                                                                                ",
"                                                                                                                                ",
"                                                                                                                                ",
"                                                                                                                                ",
"                                                                                                                                ",
"                                                                                                                                ",
"                                                                                                                                ",
"                                                                                                                                ",
"                                                                                                                                ",
"                                                                                                                                ",
"                                                                                                                                ",
"                                                                                                                                ",
"                                                                                                                                ",
"                                                                                                                                ",
"                                                                                                                                ",
"                                                                                                                                ",
"                                                                                                                                ",
"                                                                                                                                ",
"                                                                                                                                ",
"                                                                                                                                ",
"                                                                                                                                "
};
