/* XPM */
static char * gate_6_xpm[] = {
"64 64 215 2",
"  	c #000000",
". 	c #070606",
"+ 	c #0B0A0A",
"@ 	c #0F0D0D",
"# 	c #4E4936",
"$ 	c #2B291F",
"% 	c #4B4633",
"& 	c #3F3C2F",
"* 	c #4B4734",
"= 	c #29271D",
"- 	c #534E39",
"; 	c #282424",
"> 	c #2A2A1E",
", 	c #524E3B",
"' 	c #333122",
") 	c #4E4A38",
"! 	c #1C1A12",
"~ 	c #343125",
"{ 	c #504C36",
"] 	c #3F3A2A",
"^ 	c #201E14",
"/ 	c #29281C",
"( 	c #242319",
"_ 	c #14120C",
": 	c #2E2D20",
"< 	c #1E1B12",
"[ 	c #222117",
"} 	c #19160F",
"| 	c #29281E",
"1 	c #36352E",
"2 	c #1D1B12",
"3 	c #1C1917",
"4 	c #2B2A1F",
"5 	c #211E1C",
"6 	c #17150D",
"7 	c #1C1910",
"8 	c #1B1910",
"9 	c #403B2A",
"0 	c #1F1C13",
"a 	c #14120D",
"b 	c #2C291C",
"c 	c #2B281C",
"d 	c #242117",
"e 	c #2A271C",
"f 	c #2D2A1E",
"g 	c #2A271B",
"h 	c #323024",
"i 	c #2D2C1F",
"j 	c #302D1F",
"k 	c #555027",
"l 	c #80783B",
"m 	c #FFD170",
"n 	c #FFE073",
"o 	c #BFA455",
"p 	c #3F3C30",
"q 	c #343022",
"r 	c #15130E",
"s 	c #FFC16C",
"t 	c #FFB269",
"u 	c #373324",
"v 	c #A74847",
"w 	c #F88E66",
"x 	c #BC744D",
"y 	c #806838",
"z 	c #806251",
"A 	c #4B4040",
"B 	c #805E43",
"C 	c #BF864F",
"D 	c #393526",
"E 	c #1B1810",
"F 	c #6E4F33",
"G 	c #574F58",
"H 	c #978081",
"I 	c #FFC4A1",
"J 	c #413C2B",
"K 	c #3E3A29",
"L 	c #15120D",
"M 	c #3C1B19",
"N 	c #805935",
"O 	c #806D46",
"P 	c #CBA291",
"Q 	c #7C4C41",
"R 	c #402D1A",
"S 	c #3C3828",
"T 	c #28281D",
"U 	c #15130D",
"V 	c #7C4733",
"W 	c #8B7169",
"X 	c #BC7D69",
"Y 	c #433E2D",
"Z 	c #29291D",
"` 	c #6B2D2E",
" .	c #885A59",
"..	c #793531",
"+.	c #BF9379",
"@.	c #784023",
"#.	c #803C03",
"$.	c #3E3A2A",
"%.	c #3B3727",
"&.	c #B8624B",
"*.	c #B53929",
"=.	c #F06314",
"-.	c #552802",
";.	c #3F3B2B",
">.	c #333123",
",.	c #FFEF76",
"'.	c #403C1E",
").	c #8F2A28",
"!.	c #D24825",
"~.	c #B84F0B",
"{.	c #413D2C",
"].	c #403C2B",
"^.	c #554136",
"/.	c #E77461",
"(.	c #782324",
"_.	c #A7322B",
":.	c #3D3929",
"<.	c #1A1714",
"[.	c #FCAE91",
"}.	c #994044",
"|.	c #AA5A49",
"1.	c #FCA067",
"2.	c #541916",
"3.	c #240A0F",
"4.	c #DA521E",
"5.	c #17140E",
"6.	c #6E443E",
"7.	c #5D262C",
"8.	c #B5504A",
"9.	c #3C1112",
"0.	c #4E1619",
"a.	c #18060A",
"b.	c #423E2D",
"c.	c #423D2C",
"d.	c #16140E",
"e.	c #661E1D",
"f.	c #2E1316",
"g.	c #E3625F",
"h.	c #F57C64",
"i.	c #7D2620",
"j.	c #120507",
"k.	c #343123",
"l.	c #191613",
"m.	c #9E3226",
"n.	c #D9716C",
"o.	c #662723",
"p.	c #121A1C",
"q.	c #004023",
"r.	c #131111",
"s.	c #38110E",
"t.	c #2A0D0B",
"u.	c #C44127",
"v.	c #18364A",
"w.	c #003445",
"x.	c #00171E",
"y.	c #00232D",
"z.	c #004247",
"A.	c #413C2C",
"B.	c #622014",
"C.	c #384269",
"D.	c #306D94",
"E.	c #002E3C",
"F.	c #464334",
"G.	c #3F3B2A",
"H.	c #171510",
"I.	c #002B29",
"J.	c #202641",
"K.	c #3B392B",
"L.	c #333022",
"M.	c #171E30",
"N.	c #303950",
"O.	c #031519",
"P.	c #323022",
"Q.	c #294046",
"R.	c #002C32",
"S.	c #0A0D16",
"T.	c #00604E",
"U.	c #383425",
"V.	c #5D647B",
"W.	c #1D203A",
"X.	c #60719F",
"Y.	c #18506C",
"Z.	c #022528",
"`.	c #34161E",
" +	c #1A0B0F",
".+	c #312F21",
"++	c #292B32",
"@+	c #69728B",
"#+	c #818EB3",
"$+	c #180A10",
"%+	c #5F2938",
"&+	c #220F14",
"*+	c #0B0409",
"=+	c #0E050C",
"-+	c #515663",
";+	c #150812",
">+	c #403B2B",
",+	c #2F2C1F",
"'+	c #1C1A17",
")+	c #272419",
"!+	c #232016",
"~+	c #262319",
"{+	c #29271B",
"]+	c #3F3D2E",
"^+	c #242218",
"/+	c #28251A",
"(+	c #1A1810",
"_+	c #262418",
":+	c #222016",
"<+	c #181610",
"[+	c #211F15",
"}+	c #232116",
"|+	c #2A291D",
"1+	c #222015",
"2+	c #171511",
"            . . + + @ @ @ @ @ @ + + + . .     . + + @ + .   .           . + + . . + + + + + + . . .                             ",
"  . . . . .   . . + + + + + + + @ + + + .   . . + @ + + .               . . + . + + + . + + + + . . . . .   . . . . . . . . .   ",
"  . + + + . . + . + + . . . . + + + + + . . + + + + # $ .       % $ & & & * + . + + . . . . . . . + + + .   . . + + + + + + .   ",
"  . + + + + . + . . . . + + . . . + + . . + + @ = & & & - ; > , & ' ' ' ' & & , > . . + + + + + + + + + .     . . + + @ + . .   ",
"    . + + . . + + . . + + + + . . . + . . . ) & $ & $ % ; ! ; & & $ $ $ $ & ' $ & ; . + @ @ @ @ + + + . .       . . + + + .     ",
"    . . .     . . + . . + + . . + . + .   ~ ' & $ * # ; ! % $ ~ * * * $ $ $ $ , & $ ; + + + + + + . . .     .       . . . .     ",
"  .           . + . + . . . . + . . . . ~ & $ ~ { ] ^ ! > ] % ] ] ] ] % $ $ $ $ $ & & > . . . . . .     . . . . .               ",
"  . . . .   . . + + .       . . .   . . ^ ^ ] ^ ^ / / ( _ ( ( / / ! ; ^ ] % $ $ $ $ & $ >             . . + + + + + .     . . . ",
". . + + .   . + + + + .           . . & ~ / ; ; / : ( _ _ _ _ < < < ( / ; ] ] ^ % ~ ~ ; !   . . .     . + + @ + . . .   . . . . ",
"+ . + .     . + + + + .       . . . & , ~ ! > [ } } } _ _ _ _ _ _ _ _ [ > ; ] ] ] ] ; ! ; : . + .   . . + @ + + . + . . + + . + ",
"+ . . + .   . . . + + .       . . & $ ~ ^ > _ _ _ _ _ _ _ _ _ _ _ _ _ _ _ [ > / / / % % % ! + + . . . + + + + . . + . + + + . + ",
"+ . . .           . .     . .   ; & & | ; > _ _ _ _ _ _ _ _ _ _ _ _ _ _ _ _ } ^ ^ < $ 1 $ % = + + . . + + + . . + . . + @ + . + ",
". .                     . . + . % & * ^ ! ^ _ _ _ _ _ _ _ _ _ _ _ _ _ _ _ _ _ _ _ _ [ & , # = @ + . . . + + .   . + + + @ + . + ",
".     . .         . . . . + + + ; $ % ! > } _ _ _ _ _ _ _ _ _ _ _ _ _ _ _ _ _ _ _ _ _ ] & % ! + + .   . + + .   . + @ @ @ + . . ",
"    . . + . . .       . + @ @ @ ! ] ; > < _ _ _ _ _ _ _ _ _ _ _ _ _ _ _ _ _ _ _ _ _ _ ] $ % / + .     . . . .   . + + + + + . . ",
"    . + + + + . .     . + @ + = $ ! > _ _ _ _ _ _ _ _ _ _ _ _ _ _ _ _ _ _ _ _ _ _ _ _ _ ) ] ! . .               . . + + + . .   ",
". . . + + + + . .     . + + . ' $ 2 ( _ _ _ _ _ _ _ _ _ _ _ _ _ _ _ _ _ _ _ _ _ _ _ _ } ; ] : .                   . . . . .   . ",
"+ + . . . . + .       . . . $ ' $ ; 3 _ _ _ _ _ _ _ _ _ _ _ _ _ _ _ _ _ _ _ } } _ _ _ } ( ; : .                           . . . ",
"+ + .     . . .             $ & $ ; } _ _ _ _ _ _ _ _ _ _ _ _ _ _ _ _ _ _ < < < } _ _ 3 3 = ! >     . . . . .             . + + ",
"+ + .                     4 & $ $ ; < _ _ _ _ _ _ _ _ _ _ _ _ _ _ _ _ _ < < < < < _ _ 3 3 [ ^ ! > . . + + + + . . . . .   . . + ",
". . . . . . . .           ] & $ $ 5 > _ _ _ _ _ _ _ _ _ _ _ _ _ _ _ _ < < < < < < } _ 3 3 [ & | ! . + + @ @ + + + + + .     . + ",
".   . . + + + . .         ] & $ % 6 > _ _ _ _ _ _ _ _ _ _ _ _ _ _ _ _ < < < < < < < _ 3 3 [ & $ % > . + + @ @ @ @ @ + .     . . ",
".   . . + + + + . . .   . 7 $ $ ] 8 > _ _ _ _ _ _ _ _ _ _ _ _ _ _ _ < < < < < < < < } 3 3 [ & & # = . . + + + + + + + .   . + + ",
".     . . . . . . . .     : % % 9 0 > _ a _ _ _ _ _ _ _ _ _ _ _ _ < < < < < ^ ^ < < < 3 3 [ ' & # /     . . . . . . . .   . + + ",
". .                         : b c d > _ _ _ _ _ _ _ _ _ _ _ _ _ < < < < < < < < < < < < 3 ( & $ # / . .                   . + + ",
"+ .         . . . . . . . e % e f g ( _ _ _ _ _ _ _ _ _ _ _ _ < < < < < < < < < < ^ < } 3 [ & $ { / + .                 . + + + ",
"+ .       . . + + + + + . h & $ i > < _ _ _ _ _ _ _ _ _ _ _ _ < < < < < < < < < < < < < } [ & $ % / + .   . . .       . + + @ + ",
".     . . . + + @ + + + + { ' & j > } _ _ _ _ _ _ _ _ _ _ } < < < k l m m n o k < < < < } } { ~ ] / + . . . + . .     . . + @ + ",
".     . + + + @ @ + . . . $ p & q < r _ _ _ _ _ _ _ _ _ _ } < < k s t m t t m s k < < < } 3 ! - ; / . . + + + + + .     . + + + ",
".   . . + @ + + + + .   > ' p $ u ( _ _ _ _ _ _ _ _ _ _ _ ^ ^ < v w x y z A B C o < < < < 3 / | ; > . + + @ @ @ + . .   . + + . ",
"    . + + @ + . . . .   = & $ $ D > E _ _ _ _ _ _ _ _ _ _ < < y o F z G H H I z o < < < < } ^ ! ; > + + @ @ @ @ + + .   . + + . ",
"    . + + @ + .         > & & $ J K 2 _ _ _ _ _ _ _ L _ _ < < w t z M N O P Q y R l < < < 3 } : > , + @ @ @ @ + + . .     . + . ",
"    . . + + + . .     . > & & $ J S T _ _ _ _ _ _ U _ _ < < < v V P W G z X z z z N < < < } } ( * $ ^ @ @ + + + . .       . .   ",
".     . . + + + .     . = & & $ ~ Y Z _ _ _ _ _ _ a _ _ < < < ` `  .W H I ..I +.z @.#.^ < 3 3 3 ; & % + + + . . .               ",
"+ .     . . . . .     . , & , $ $ $.%.[ _ _ _ _ _ a _ _ < < < < &.V X B N y l z z *.=.-.< } 3 3 [ & ~ / . . .         . . .   . ",
"+ + .                 . , 1 $ $ % ;.>.%.! a _ _ _ _ _ _ < < z z ` w C t t t s ,.'.).!.~.^ } 3 3 ( & - >             . . +     . ",
". + + .   . . .       . , & $ $ {.].>.>.^ r _ _ _ _ _ _ < ^.I I z /.w t V V t m l (._.!.#.3 3 3 [ & { >         . . + + + .   . ",
". + .   . . + . .     $ & $ $ $ % {.:.^ <.U _ _ _ _ _ < < z I [.+.}.|.1.t t t m 2.3._._.4.3 3 3 ( & % >     . . . + + @ + . .   ",
". .   . . + + + . .   $ & $ $ { % {.:.^ 5.a _ _ _ _ _ < < z +.v I 6.7.8.1.w C l _.9.0.0.a.3 3 3 ( $ ; >     . + + + @ @ + + .   ",
"      . + + @ + + .   $ & $ $ b.c.{.:.^ d._ _ _ _ _ _ } < e.< ..[.I +.f.g.h.'.i.).j.< 0.< 3 3 3 [ ; ; >     . + @ @ @ @ @ + .   ",
"      . + + + + + .   $ & $ - c.c.k.= l.a _ _ _ _ _ _ < < m.< 6.n.[.+.z f.o.).0.p.q.< m.< 3 3 < , > ; > .   . + @ @ r.r.@ + .   ",
"        . . . . . .   $ & $ {.{.{.:.^ U _ _ _ _ _ _ s.2.t.u.t.      t.v.w.2.x.y.z.q.< u.} 3 3 ^ & ^ ! > .   . + + @ @ @ @ + .   ",
"            . .     . ] $ # A.].].: } U _ _ _ _ _ _ _ } < B.< 2.2.2.t.C.D.x.E.E.z.q.< B.} 3 < $ & F.: > . . . . + + + @ + + .   ",
". .   . .       . . + + >.G.A.;.S = H.r _ _ _ _ _ _ _ } < < < I.E.E.y.J.D.x.E.E.z.q.< < 3 3 ~ & $ K./ > + .   . . . + + + . .   ",
". + . . . .     . + + @ > L.$.$.L.^ a a _ _ a _ a _ _ < < < < I.E.E.E.M.N.O.E.E.z.q.< < } { ' & $ $ ; . . .       . . . . .     ",
". + . + + .     . + + + $ $ P.P.: ^ a _ _ _ _ _ a _ _ } < < < Q.R.y.S.C.w.< O.E.T.q.< < < 1 ' & $ $ !                           ",
". + . + + .     . . + . & & $ U.: ^ a _ _ _ _ _ _ _ _ < < < < V.W.W.C.X.Y.< < Z.`. +< < $ & & & $ $ ; :                     . . ",
". + . . + .       . . . ' & & { .+} _ _ _ _ _ _ _ _ _ } < < < ++@+#+X.X.X.D.< $+%+&+< < ^ 1 ' & $ $ ^ ! . . .         . . . . . ",
". . . . . .             ' & $ $ u ^ _ _ _ _ _ _ _ _ _ < < < < *+=+< -+-+-+-+< < ;+< < } ^ & & & $ $ ] ; > + + . .     . . + + + ",
"+ .     . .   . . . . . & & $ $ k.^ _ _ _ _ _ _ _ _ _ < < ^ < < < < < < < < < < < < ^ < 3 ^ & & $ $ ] ; / @ + + . .     . + + + ",
"+ . .           . . + + , & $ ~ >+,+_ _ a _ a _ _ _ _ < < < < < < < < < < ^ < < < < < } 3 3 '+& $ $ ^ ; / @ @ + + .     . . . + ",
". + .   . . .     . + + , $ $ { >+c = _ _ _ _ _ _ _ _ < < < < < < < < < < < < < ^ < < 3 3 3 ^ $ $ # % ; / r.@ @ + + .       . . ",
"+ + . . . + . . . . + K.$ $ $ { f )+> _ _ _ _ _ a _ _ } < < < < < < ^ < ^ < < < < < < 3 3 3 } { $ ^ ^ ; / @ @ @ @ + .       . + ",
". . . + + + + + . . . & { * # 9 c !+Z _ _ _ _ _ _ _ _ < < < < < < < < < < < < < < < ^ 3 3 3 3 ^ , % ^ ; / + @ @ + + .       . + ",
". + . . + + @ + . . $ & & ~+9 9 {+~+> _ _ _ _ L _ _ L } ^ ^ < < < < < < < < < < < < < 3 3 3 3 < { ] ] ; / + + + + . .   . . . . ",
". + + . . + @ + + . $ ]+$ ' ^+/+/+^+> _ _ _ _ _ _ _ L } < < < < < ^ < < < < < < < < < 3 3 3 ( / ; ^ ; ; / . . . . .   . . + + . ",
". . + + . + + + + + $ $ & ' * (+_+:+> _ _ _ _ _ _ _ _ < < < < < < < < < < < < < ^ < < 3 3 ( & & & $ ; ! /                 . + + ",
"+ . . . . . . + + ; & & 1 & ' % <+[+> _ _ _ _ _ _ _ _ } < < < < < < < < < < < < < < ^ 3 ^ & ]+]+& & ; ; / . . . . . . . .   . + ",
". . . + + + . . + ; & ' & & & $ }+|+; $ $ $ < _ _ _ _ < < < < < < < < < < < < ^ ^ ( } : & ]+& ' & & $ ; : + + + + + + + . .   . ",
"  . + + @ + + . . , ' & & & , $ $ ] 1+& $ & K.< _ _ 2+} < ^ < < < < < < ^ < < < ^ $ ; $ & p ' & & & , $ ; + @ @ @ @ @ + + .   . ",
"  . . + @ + + . & ' & & & $ $ $ $ $ - $ 1 & & F.< a U 3 ; ; [ < < / ! / ; / > ; ' $ $ $ & & & & & , $ $ ; + @ @ @ + + + + .     ",
"    . + + + . . & & & $ $ $ $ $ $ $ ~ # * $ $ $ ) U # $ & 1 K.^ ; & & & & $ | & & & K.$ 1 & & & , $ $ $ $ '++ + + + . . . .     ",
"    . . . . . ) , $ $ $ $ $ $ $ - - - { { $ $ $ ~ | $ & $ $ $ % { $ $ $ $ $ * * $ $ ~ - $ & & , $ $ $ $ * % . . . . .           ",
"            . + # ~ ~ ~ ~ - - - - | '+| ; | | | '++ % | | '+| '+'+| | | '+| | + '+{ ~ # # ~ $ ~ ~ ~ ~ * * - '+                  "};
