/* XPM */
static char * gate_4_xpm[] = {
"64 64 272 2",
"  	c #000000",
". 	c #070606",
"+ 	c #0B0A0A",
"@ 	c #0F0D0D",
"# 	c #4E4936",
"$ 	c #2B291F",
"% 	c #4B4633",
"& 	c #3F3C2F",
"* 	c #4B4734",
"= 	c #29271D",
"- 	c #534E39",
"; 	c #282424",
"> 	c #2A2A1E",
", 	c #524E3B",
"' 	c #333122",
") 	c #4E4A38",
"! 	c #1C1A12",
"~ 	c #343125",
"{ 	c #504C36",
"] 	c #3F3A2A",
"^ 	c #201E14",
"/ 	c #29281C",
"( 	c #242319",
"_ 	c #14120C",
": 	c #2E2D20",
"< 	c #1E1B12",
"[ 	c #222117",
"} 	c #19160F",
"| 	c #29281E",
"1 	c #36352E",
"2 	c #1D1B12",
"3 	c #1C1917",
"4 	c #555027",
"5 	c #80783B",
"6 	c #6D6633",
"7 	c #2B2A1F",
"8 	c #978D47",
"9 	c #BFB359",
"0 	c #DFBA62",
"a 	c #FFC16C",
"b 	c #FFE073",
"c 	c #EFBE67",
"d 	c #CFB75D",
"e 	c #38351A",
"f 	c #211E1C",
"g 	c #9D8C47",
"h 	c #FFBC6B",
"i 	c #FFB269",
"j 	c #FFC96E",
"k 	c #FFD871",
"l 	c #FFD270",
"m 	c #17150D",
"n 	c #985340",
"o 	c #FDAB69",
"p 	c #805935",
"q 	c #1C1910",
"r 	c #1B1910",
"s 	c #582527",
"t 	c #DE675F",
"u 	c #F88D65",
"v 	c #C76651",
"w 	c #402D1A",
"x 	c #BF9379",
"y 	c #464855",
"z 	c #9F7A64",
"A 	c #3F281A",
"B 	c #CF9155",
"C 	c #403B2A",
"D 	c #1F1C13",
"E 	c #14120D",
"F 	c #CFA059",
"G 	c #773734",
"H 	c #6D5445",
"I 	c #4A4D6C",
"J 	c #625D70",
"K 	c #978081",
"L 	c #7A6C74",
"M 	c #FFC4A1",
"N 	c #403128",
"O 	c #80674B",
"P 	c #2C291C",
"Q 	c #2B281C",
"R 	c #242117",
"S 	c #4F2025",
"T 	c #DE975B",
"U 	c #BFA556",
"V 	c #7E5749",
"W 	c #7C4733",
"X 	c #312C31",
"Y 	c #A78073",
"Z 	c #D1A693",
"` 	c #DFAC8D",
" .	c #756032",
"..	c #2A271C",
"+.	c #2D2A1E",
"@.	c #2A271B",
"#.	c #FCA067",
"$.	c #0D0505",
"%.	c #F8BD9D",
"&.	c #592F33",
"*.	c #BA8151",
"=.	c #604E2A",
"-.	c #372217",
";.	c #403A1D",
">.	c #323024",
",.	c #2D2C1F",
"'.	c #806251",
").	c #917875",
"!.	c #21222E",
"~.	c #9E6F5D",
"{.	c #CE9A7F",
"].	c #806136",
"^.	c #302D1F",
"/.	c #B5504A",
"(.	c #98474A",
"_.	c #615268",
":.	c #F7917E",
"<.	c #3B1A18",
"[.	c #713008",
"}.	c #3F3C30",
"|.	c #343022",
"1.	c #15130E",
"2.	c #B19189",
"3.	c #CF9F83",
"4.	c #2C130E",
"5.	c #91331C",
"6.	c #CE590D",
"7.	c #373324",
"8.	c #9E6941",
"9.	c #98473E",
"0.	c #EFB897",
"a.	c #604839",
"b.	c #C44226",
"c.	c #E5561E",
"d.	c #9F4A03",
"e.	c #393526",
"f.	c #1B1810",
"g.	c #381415",
"h.	c #E37260",
"i.	c #541916",
"j.	c #A6322B",
"k.	c #F76D0D",
"l.	c #401E01",
"m.	c #413C2B",
"n.	c #3E3A29",
"o.	c #EE6861",
"p.	c #FFEF76",
"q.	c #2A0D0B",
"r.	c #962D28",
"s.	c #C03F28",
"t.	c #3C3828",
"u.	c #28281D",
"v.	c #3B2D25",
"w.	c #F89466",
"x.	c #F47B64",
"y.	c #230A0D",
"z.	c #8F2A28",
"A.	c #B93B29",
"B.	c #D54A25",
"C.	c #BF5904",
"D.	c #433E2D",
"E.	c #29291D",
"F.	c #FCA568",
"G.	c #661E1D",
"H.	c #552802",
"I.	c #3E3A2A",
"J.	c #3B3727",
"K.	c #765245",
"L.	c #953E43",
"M.	c #652D2C",
"N.	c #702812",
"O.	c #3F3B2B",
"P.	c #333123",
"Q.	c #BA7161",
"R.	c #C35453",
"S.	c #2B1116",
"T.	c #D55B5B",
"U.	c #320E12",
"V.	c #4D1D1A",
"W.	c #4C151A",
"X.	c #413D2C",
"Y.	c #403C2B",
"Z.	c #F37363",
"`.	c #5F311F",
" +	c #1C0A0C",
".+	c #3D3929",
"++	c #1A1714",
"@+	c #15130D",
"#+	c #F89782",
"$+	c #13090B",
"%+	c #A03227",
"&+	c #752223",
"*+	c #17140E",
"=+	c #5A1B18",
"-+	c #E6736B",
";+	c #F0A88E",
">+	c #004A2D",
",+	c #03151A",
"'+	c #423E2D",
")+	c #423D2C",
"!+	c #481513",
"~+	c #01232C",
"{+	c #006A4C",
"]+	c #002012",
"^+	c #343123",
"/+	c #191613",
"(+	c #15506C",
"_+	c #004E67",
":+	c #1B253B",
"<+	c #002E3C",
"[+	c #003A3A",
"}+	c #131111",
"|+	c #60220F",
"1+	c #7C2521",
"2+	c #131627",
"3+	c #4B5A84",
"4+	c #486F9A",
"5+	c #003942",
"6+	c #413C2C",
"7+	c #00201E",
"8+	c #01161D",
"9+	c #293254",
"0+	c #003445",
"a+	c #464334",
"b+	c #3F3B2A",
"c+	c #171510",
"d+	c #00403D",
"e+	c #051923",
"f+	c #232B49",
"g+	c #3B392B",
"h+	c #333022",
"i+	c #47547A",
"j+	c #020809",
"k+	c #323022",
"l+	c #24516F",
"m+	c #004649",
"n+	c #383425",
"o+	c #1E3034",
"p+	c #080911",
"q+	c #005D4F",
"r+	c #007A47",
"s+	c #312F21",
"t+	c #5A6585",
"u+	c #60719F",
"v+	c #125673",
"w+	c #190B14",
"x+	c #7A8095",
"y+	c #54709C",
"z+	c #672C3B",
"A+	c #1E2025",
"B+	c #929DBC",
"C+	c #401C25",
"D+	c #403B2B",
"E+	c #2F2C1F",
"F+	c #1C1A17",
"G+	c #272419",
"H+	c #232016",
"I+	c #262319",
"J+	c #29271B",
"K+	c #15120D",
"L+	c #3F3D2E",
"M+	c #242218",
"N+	c #28251A",
"O+	c #1A1810",
"P+	c #262418",
"Q+	c #222016",
"R+	c #181610",
"S+	c #211F15",
"T+	c #232116",
"U+	c #2A291D",
"V+	c #222015",
"W+	c #171511",
"            . . + + @ @ @ @ @ @ + + + . .     . + + @ + .   .           . + + . . + + + + + + . . .                             ",
"  . . . . .   . . + + + + + + + @ + + + .   . . + @ + + .               . . + . + + + . + + + + . . . . .   . . . . . . . . .   ",
"  . + + + . . + . + + . . . . + + + + + . . + + + + # $ .       % $ & & & * + . + + . . . . . . . + + + .   . . + + + + + + .   ",
"  . + + + + . + . . . . + + . . . + + . . + + @ = & & & - ; > , & ' ' ' ' & & , > . . + + + + + + + + + .     . . + + @ + . .   ",
"    . + + . . + + . . + + + + . . . + . . . ) & $ & $ % ; ! ; & & $ $ $ $ & ' $ & ; . + @ @ @ @ + + + . .       . . + + + .     ",
"    . . .     . . + . . + + . . + . + .   ~ ' & $ * # ; ! % $ ~ * * * $ $ $ $ , & $ ; + + + + + + . . .     .       . . . .     ",
"  .           . + . + . . . . + . . . . ~ & $ ~ { ] ^ ! > ] % ] ] ] ] % $ $ $ $ $ & & > . . . . . .     . . . . .               ",
"  . . . .   . . + + .       . . .   . . ^ ^ ] ^ ^ / / ( _ ( ( / / ! ; ^ ] % $ $ $ $ & $ >             . . + + + + + .     . . . ",
". . + + .   . + + + + .           . . & ~ / ; ; / : ( _ _ _ _ < < < ( / ; ] ] ^ % ~ ~ ; !   . . .     . + + @ + . . .   . . . . ",
"+ . + .     . + + + + .       . . . & , ~ ! > [ } } } _ _ _ _ _ _ _ _ [ > ; ] ] ] ] ; ! ; : . + .   . . + @ + + . + . . + + . + ",
"+ . . + .   . . . + + .       . . & $ ~ ^ > _ _ _ _ _ _ _ _ _ _ _ _ _ _ _ [ > / / / % % % ! + + . . . + + + + . . + . + + + . + ",
"+ . . .           . .     . .   ; & & | ; > _ _ _ _ _ _ _ _ _ _ _ _ _ _ _ _ } ^ ^ < $ 1 $ % = + + . . + + + . . + . . + @ + . + ",
". .                     . . + . % & * ^ ! ^ _ _ _ _ _ _ _ _ _ _ _ _ _ _ _ _ _ _ _ _ [ & , # = @ + . . . + + .   . + + + @ + . + ",
".     . .         . . . . + + + ; $ % ! > } _ _ _ _ _ _ _ _ _ _ _ _ _ _ _ _ _ _ _ _ _ ] & % ! + + .   . + + .   . + @ @ @ + . . ",
"    . . + . . .       . + @ @ @ ! ] ; > < _ _ _ _ _ _ _ _ _ _ _ _ _ _ _ _ _ _ _ _ _ _ ] $ % / + .     . . . .   . + + + + + . . ",
"    . + + + + . .     . + @ + = $ ! > _ _ _ _ _ _ _ _ _ _ _ _ _ _ _ _ _ _ _ _ _ _ _ _ _ ) ] ! . .               . . + + + . .   ",
". . . + + + + . .     . + + . ' $ 2 ( _ _ _ _ _ _ _ _ _ _ _ _ _ _ _ _ _ _ _ _ _ _ _ _ } ; ] : .                   . . . . .   . ",
"+ + . . . . + .       . . . $ ' $ ; 3 _ _ _ _ _ _ _ _ _ _ _ _ _ _ _ _ _ _ _ } } _ _ _ } ( ; : .                           . . . ",
"+ + .     . . .             $ & $ ; } _ _ _ _ _ _ _ _ _ _ _ _ _ 4 5 5 5 5 6 < < } _ _ 3 3 = ! >     . . . . .             . + + ",
"+ + .                     7 & $ $ ; < _ _ _ _ _ _ _ _ _ _ _ 8 9 0 a a a b c d e < _ _ 3 3 [ ^ ! > . . + + + + . . . . .   . . + ",
". . . . . . . .           ] & $ $ f > _ _ _ _ _ _ _ _ _ _ g h i j j i i i k i l e } _ 3 3 [ & | ! . + + @ @ + + + + + .     . + ",
".   . . + + + . .         ] & $ % m > _ _ _ _ _ _ _ _ _ n o i i i b p p p g i i d < _ 3 3 [ & $ % > . + + @ @ @ @ @ + .     . . ",
".   . . + + + + . . .   . q $ $ ] r > _ _ _ _ _ _ _ _   s t u v w e x x y z A B c 6 } 3 3 [ & & # = . . + + + + + + + .   . + + ",
".     . . . . . . . .     : % % C D > _ E _ _ _ _ _ _ F d e G H x I J K L M M N F O < 3 3 [ ' & # /     . . . . . . . .   . + + ",
". .                         : P Q R > _ _ _ _ _ _ _ S T a U V V W X Y Y Z ` V  .5 5 e < 3 ( & $ # / . .                   . + + ",
"+ .         . . . . . . . ..% ..+.@.( _ _ _ _ _ _ _ G #.i  .x $.w 5 8 L %.&.*.=.-.6 ;.} 3 [ & $ { / + .                 . + + + ",
"+ .       . . + + + + + . >.& $ ,.> < _ _ _ _ _ _ _ S t v '.Z ).z !.e ~.{.N N z {.].w < } [ & $ % / + .   . . .       . + + @ + ",
".     . . . + + @ + + + + { ' & ^.> } _ _ _ _ _ _ _ _ /.(.W _.{.V J %.:.<.M M N x p e [.} } { ~ ] / + . . . + . .     . . + @ + ",
".     . + + + @ @ + . . . $ }.& |.< 1._ _ _ _ _ _ _ _ (.S G Y L Y 2.M :.<.M M 3.x 4.5.6.} 3 ! - ; / . . + + + + + .     . + + + ",
".   . . + @ + + + + .   > ' }.$ 7.( _ _ _ _ _ _ _ _ _   v 8.9.0.{.a.e A ;.;.V {.x w b.c.d.3 / | ; > . + + @ @ @ + . .   . + + . ",
"    . + + @ + . . . .   = & $ $ e.> f._ _ _ _ _ _ _ _ _ g.h.9.G  .T c i j k 9 5 a.i.j.c.k.l.^ ! ; > + + @ @ @ @ + + .   . + + . ",
"    . + + @ + .         > & & $ m.n.2 _ _ _ _ _   x {.x g.o.#.B i i i i i i k p.8 q.r.s.c.6.  : > , + @ @ @ @ + + . .     . + . ",
"    . . + + + . .     . > & & $ m.t.u._ _ _ _ _ v.M M %.x G w.x.i i A <.A i i b 9 y.z.j.A.B.C.( * $ ^ @ @ + + + . .       . .   ",
".     . . + + + .     . = & & $ ~ D.E._ _ _ _ _ x M M M x s t h.o i o u F.i i b  .g.G.j.j.s.6.H.; & % + + + . . .               ",
"+ .     . . . . .     . , & , $ $ I.J.[ _ _ _ _ x M M :.0.K.L.M.w.u i i i i i b q.i.g.j.j.j.b.N.[ & ~ / . . .         . . .   . ",
"+ + .                 . , 1 $ $ % O.P.J.! E _ _ x 0.Q.R.M z G S.T.R.F.u F.B l e j.G.U.V.z.W.U.3 ( & - >             . . +     . ",
". + + .   . . .       . , & $ $ X.Y.P.P.^ 1._ g.K.H   /.M M z K.(.g.Z.x.F.e F `.j.z. +$.y.y.  3 [ & { >         . . + + + .   . ",
". + .   . . + . .     $ & $ $ $ % X..+^ ++@+_ i.i.  _ /.#+M M 0.H $.T.o.x.$+`.%+r.g.  <  +&+  3 ( & % >     . . . + + @ + . .   ",
". .   . . + + + . .   $ & $ $ { % X..+^ *+E _ =+&+  _ (.-+;+%.0.x {.y.(.i.%+z.W.S.>+,+< U.%+  3 ( $ ; >     . + + + @ @ + + .   ",
"      . + + @ + + .   $ & $ $ '+)+X..+y.i.i.  N.A.  _ H &.M.V K.q.    q.z.!+y.,+~+{+]+< i.B.  3 [ ; ; >     . + @ @ @ @ @ + .   ",
"      . + + + + + .   $ & $ - )+)+^+= /+q.q.=+N.A. +W.        $.X (+_+:+q.~+~+<+[+{+]+< i.B.  < , > ; > .   . + @ @ }+}+@ + .   ",
"        . . . . . .   $ & $ X.X.X..+^ @+_ _   |+z.  !+1+z.&+1+=+2+3+4+5+~+<+<+<+5+{+]+< !+%+  ^ & ^ ! > .   . + + @ @ @ @ + .   ",
"            . .     . ] $ # 6+Y.Y.: } @+_ _ _ _ _ _ _ 7+8+8+8+,+2+9+4+0+~+<+<+<+5+{+]+< } 3 < $ & a+: > . . . . + + + @ + + .   ",
". .   . .       . . + + P.b+6+O.t.= c+1._ _ _ _ _ _ _ d+<+<+<+<+e+f+4+0+~+<+<+<+5+{+,+< 3 3 ~ & $ g+/ > + .   . . . + + + . .   ",
". + . . . .     . + + @ > h+I.I.h+^ E E _ _ E _ E _ _ d+<+<+<+<+8+f+i+j+e+<+<+<+5+{+]+< } { ' & $ $ ; . . .       . . . . .     ",
". + . + + .     . + + + $ $ k+k+: ^ E _ _ _ _ _ E _ _ [+<+0+<+~+,+f+l+  j+~+0+<+m+{+]+< < 1 ' & $ $ !                           ",
". + . + + .     . . + . & & $ n+: ^ E _ _ _ _ _ _ _ y o+8+5+8+p+f+3+_+< < p+e+<+q+r+]+< $ & & & $ $ ; :                     . . ",
". + . . + .       . . . ' & & { s+} _ _ _ _ _ _ _ _ y t+:+p+:+9+3+u+v+8+< < ,+[+w+w+j+< ^ 1 ' & $ $ ^ ! . . .         . . . . . ",
". . . . . .             ' & $ $ 7.^ _ _ _ _ _ _ _ _ _ x+t+I i+3+u+u+y+(+0+< j+w+z+z+ +} ^ & & & $ $ ] ; > + + . .     . . + + + ",
"+ .     . .   . . . . . & & $ $ ^+^ _ _ _ _ _ _ _ _ _ A+y B+B+u+u+u+u+y+4+  < $+&.C+^ < 3 ^ & & $ $ ] ; / @ + + . .     . + + + ",
"+ . .           . . + + , & $ ~ D+E+_ _ E _ E _ _ _ _ w+w+$.$.u+x+x+x+x+x+  <   w+$+< } 3 3 F+& $ $ ^ ; / @ @ + + .     . . . + ",
". + .   . . .     . + + , $ $ { D+Q = _ _ _ _ _ _ _ _ < < < < < < < < < < < < < ^ < < 3 3 3 ^ $ $ # % ; / }+@ @ + + .       . . ",
"+ + . . . + . . . . + g+$ $ $ { +.G+> _ _ _ _ _ E _ _ } < < < < < < ^ < ^ < < < < < < 3 3 3 } { $ ^ ^ ; / @ @ @ @ + .       . + ",
". . . + + + + + . . . & { * # C Q H+E._ _ _ _ _ _ _ _ < < < < < < < < < < < < < < < ^ 3 3 3 3 ^ , % ^ ; / + @ @ + + .       . + ",
". + . . + + @ + . . $ & & I+C C J+I+> _ _ _ _ K+_ _ K+} ^ ^ < < < < < < < < < < < < < 3 3 3 3 < { ] ] ; / + + + + . .   . . . . ",
". + + . . + @ + + . $ L+$ ' M+N+N+M+> _ _ _ _ _ _ _ K+} < < < < < ^ < < < < < < < < < 3 3 3 ( / ; ^ ; ; / . . . . .   . . + + . ",
". . + + . + + + + + $ $ & ' * O+P+Q+> _ _ _ _ _ _ _ _ < < < < < < < < < < < < < ^ < < 3 3 ( & & & $ ; ! /                 . + + ",
"+ . . . . . . + + ; & & 1 & ' % R+S+> _ _ _ _ _ _ _ _ } < < < < < < < < < < < < < < ^ 3 ^ & L+L+& & ; ; / . . . . . . . .   . + ",
". . . + + + . . + ; & ' & & & $ T+U+; $ $ $ < _ _ _ _ < < < < < < < < < < < < ^ ^ ( } : & L+& ' & & $ ; : + + + + + + + . .   . ",
"  . + + @ + + . . , ' & & & , $ $ ] V+& $ & g+< _ _ W+} < ^ < < < < < < ^ < < < ^ $ ; $ & }.' & & & , $ ; + @ @ @ @ @ + + .   . ",
"  . . + @ + + . & ' & & & $ $ $ $ $ - $ 1 & & a+< E @+3 ; ; [ < < / ! / ; / > ; ' $ $ $ & & & & & , $ $ ; + @ @ @ + + + + .     ",
"    . + + + . . & & & $ $ $ $ $ $ $ ~ # * $ $ $ ) @+# $ & 1 g+^ ; & & & & $ | & & & g+$ 1 & & & , $ $ $ $ F++ + + + . . . .     ",
"    . . . . . ) , $ $ $ $ $ $ $ - - - { { $ $ $ ~ | $ & $ $ $ % { $ $ $ $ $ * * $ $ ~ - $ & & , $ $ $ $ * % . . . . .           ",
"            . + # ~ ~ ~ ~ - - - - | F+| ; | | | F++ % | | F+| F+F+| | | F+| | + F+{ ~ # # ~ $ ~ ~ ~ ~ * * - F+                  "};
