/* XPM */
static char *_00_0033_speed31697129301[] = {
/* columns rows colors chars-per-pixel */
"32 32 19 1 ",
"  c None",
". c #141F0F",
"X c #1C3C1A",
"o c #414D1A",
"O c #696112",
"+ c #A06F1F",
"@ c #A89714",
"# c #AFB917",
"$ c #C3CE22",
"% c #D4CB29",
"& c #C8D121",
"* c #CFC233",
"= c #EAF039",
"- c #FFFF73",
"; c #FFFF7B",
": c #FFFF8C",
"> c #FFFFA4",
", c #FFFFBC",
"< c #FFFFD0",
/* pixels */
"                                ",
"                                ",
"             .                  ",
"             ..                 ",
"             .o.                ",
"             .oo.               ",
"             .oo+.              ",
"             .oo+=.             ",
"    ..........o%%%*.            ",
"    .ooooo++%%%%:,,-.           ",
"    .oooX+%%%>::**--;.          ",
"    .oooO%=,,***--==;<.         ",
"    .@@O#::+***==%>><==.        ",
"    .@$#X+++%%%%>>>%**+$.       ",
"    .$oXX%%%>>>>%++*,:#O@.      ",
"    .ooOO>>>>%+++*,#OOXooo.     ",
"    .@&###%%+++,<>OOXXXoo.      ",
"    .&&#OOXXX##OXXXXXXoo.       ",
"    .@@oXX###XXXXXXXXoo.        ",
"    .oo@&&XXXXXXXXXXoo.         ",
"    .@&&oooooooooXXoo.          ",
"    .ooooooooooooXoo.           ",
"    ..........ooXoo.            ",
"             .oooo.             ",
"             .ooo.              ",
"             .oo.               ",
"             .o.                ",
"             ..                 ",
"             .                  ",
"                                ",
"                                ",
"                                "
};
