/* XPM */
static char *_00_0024_speed121697129300[] = {
/* columns rows colors chars-per-pixel */
"32 32 7 1 ",
"  c None",
". c #141F0F",
"X c #1C3C1A",
"o c #414D1A",
"O c #A06F1F",
"+ c #CFC233",
"@ c #FFFF73",
/* pixels */
"                                ",
"                                ",
"                ...             ",
"               .X..             ",
"              .X.+.             ",
"              .X.+.             ",
"             .X.O+.             ",
"            .X.oO+.             ",
"            .X.OO+.......       ",
"           .X.oOOO+@@@@@.       ",
"          .X.ooOOOO++@++.       ",
"          .o.oXOOOOO++O+.       ",
"         .X.ooXOO+++OOO+.       ",
"        .X.oooXOOOOOOOO+.       ",
"        .X.oooXXOOOOOOO+.       ",
"       .X.ooooXXOOOOOOO+.       ",
"        .X.oOooXXOOOOOO+.       ",
"        .X.ooOooXXXOOOO+.       ",
"         .X.oOoooXXXXXXO.       ",
"          .X.oOOooXXXXXX.       ",
"          .X.ooOOooooooX.       ",
"           .X.ooOOoooooo.       ",
"            .X.ooo.......       ",
"            .X.ooo.             ",
"             .X.oo.             ",
"              .X.o.             ",
"              .X.o.             ",
"               .X..             ",
"                ...             ",
"                                ",
"                                ",
"                                "
};
