/* XPM */
static char *_00_0023_speed131697129300[] = {
/* columns rows colors chars-per-pixel */
"32 32 7 1 ",
"  c None",
". c #141F0F",
"X c #1C3C1A",
"o c #414D1A",
"O c #A06F1F",
"+ c #CFC233",
"@ c #FFFF73",
/* pixels */
"                                ",
"                                ",
"                 ...            ",
"                .oX.            ",
"               .oX..            ",
"              .oo.@.            ",
"              .oX.+.            ",
"              .oX.+.            ",
"             .oX.O+...          ",
"             .oX.O+@@.          ",
"             .oX.OO+@.          ",
"            .oX.oOO+@.          ",
"            .oX.oO+O+.          ",
"            .XX.XOOO+.          ",
"           .XX.oXOOO+.          ",
"          .XX.ooXXOO+.          ",
"           .XX.ooXOO+.          ",
"            .XX.oXOOO.          ",
"            .oX.oXXOO.          ",
"            .oX.ooXOO.          ",
"             .oX.oXXO.          ",
"             .oX.ooXX.          ",
"             .oX.oo...          ",
"              .oX.o.            ",
"              .oX.o.            ",
"              .XX.o.            ",
"               .XX..            ",
"                .XX.            ",
"                 ...            ",
"                                ",
"                                ",
"                                "
};
