/* XPM */
static char *_00_0034_speed21697129301[] = {
/* columns rows colors chars-per-pixel */
"32 32 18 1 ",
"  c None",
". c #141F0F",
"X c #1C3C1A",
"o c #414D1A",
"O c #696112",
"+ c #A06F1F",
"@ c #A89714",
"# c #AFB917",
"$ c #D4CB29",
"% c #C8D121",
"& c #CFC233",
"* c #EAF039",
"= c #FFFF73",
"- c #FFFF8C",
"; c #FFFFA4",
": c #FFFFBC",
"> c #FFFFD0",
", c #FFFFEE",
/* pixels */
"                                ",
"                                ",
"             .                  ",
"             ..                 ",
"             .o.                ",
"             .o@.               ",
"             .@@;.              ",
"             .@%$*.             ",
"    ..........%$++&.            ",
"    .oooo@$$;$$++**,.           ",
"    .oo@O$;;$+++*>,==.          ",
"    .o@@O;*&&&**,=&&=&.         ",
"    .@@##$++**>:&+++&&&.        ",
"    .%%OX++$;-++++++&&+o.       ",
"    .@oXX$;-+++++++&&+XXo.      ",
"    .ooO#;+++++++&&XXXXooo.     ",
"    .o%#XX+++++&&+XXXXXoo.      ",
"    .%oXXXXXXXXXXXXXXXoo.       ",
"    .oooXXXXXXXXXXXXXoo.        ",
"    .oooooXXXXXXXXXXoo.         ",
"    .ooooooooooooXXoo.          ",
"    .ooooooooooooXoo.           ",
"    ..........ooXoo.            ",
"             .oooo.             ",
"             .ooo.              ",
"             .oo.               ",
"             .o.                ",
"             ..                 ",
"             .                  ",
"                                ",
"                                ",
"                                "
};
