/* XPM */
static char *_00_0030_speed61697129301[] = {
/* columns rows colors chars-per-pixel */
"32 32 7 1 ",
"  c None",
". c #141F0F",
"X c #1C3C1A",
"o c #414D1A",
"O c #A06F1F",
"+ c #CFC233",
"@ c #FFFF73",
/* pixels */
"                                ",
"                                ",
"               .                ",
"              ...               ",
"             .o.+.              ",
"             .X.+.              ",
"             .X.O+.             ",
"             .X.O+@.            ",
"        ........O+@.            ",
"       .o.oooXOOO++@.           ",
"       .o.ooXOOOO+O@@.          ",
"       .o.ooXOOO+OO+@.          ",
"       .X.ooXXOOOOOO+@.         ",
"       .X.ooXXOOOOOO++@.        ",
"       .X.ooXXOOOOOOO+@.        ",
"       .X.ooXXXOOOOO+@@X.       ",
"       .X.oooXXXO+++@+X.        ",
"       .X.oooXXXXXXXXXo.        ",
"       .X.oooXXXXXXXXo.         ",
"       .X.ooooXXXXXXo.          ",
"       .X.ooooooXXXoo.          ",
"       ...oooooooooo.           ",
"       .........ooo.            ",
"             .X.ooo.            ",
"             .X.oo.             ",
"             .X.o.              ",
"             .X.o.              ",
"              ...               ",
"               .                ",
"                                ",
"                                ",
"                                "
};
