/* XPM */
static char *_00_0025_speed111697129300[] = {
/* columns rows colors chars-per-pixel */
"32 32 7 1 ",
"  c None",
". c #141F0F",
"X c #1C3C1A",
"o c #414D1A",
"O c #A06F1F",
"+ c #CFC233",
"@ c #FFFF73",
/* pixels */
"                                ",
"                                ",
"                 .              ",
"                ..              ",
"               .o.              ",
"              .oo.              ",
"             .ooO.              ",
"            .oXO+.              ",
"           .XoXO+..........     ",
"          .XoXOOOO++++@@@@.     ",
"         .XooXOOOOOOOO+@+@.     ",
"        .XooXXOOOOOO+@@++@.     ",
"       .XoooXXOO+++++++OO+.     ",
"      .XooooXXOOOOOOOOOOO+.     ",
"     .XXoooooXXOOOOOOOOOO+.     ",
"    .XXXXoooooXXOOOOOOOOO+.     ",
"     .XXXooooooXXXOOOOOOO+.     ",
"      .XXXoOooooXXXXOOOOO+.     ",
"       .XXXoOOoooXXXXOOOO+.     ",
"        .XXXoOOooooXXXXXO+.     ",
"         .XXXoOOOooooXXXXO.     ",
"          .XXXoOOOOooooXXX.     ",
"           .XXXoO..........     ",
"            .XXXo.              ",
"             .XXX.              ",
"              .XX.              ",
"               .X.              ",
"                ..              ",
"                 .              ",
"                                ",
"                                ",
"                                "
};
