/* XPM */
static char *_00_0020_speed161697129299[] = {
/* columns rows colors chars-per-pixel */
"32 32 7 1 ",
"  c None",
". c #141F0F",
"X c #1C3C1A",
"o c #414D1A",
"O c #A06F1F",
"+ c #CFC233",
"@ c #FFFF73",
/* pixels */
"                                ",
"                                ",
"             ...                ",
"             ..@.               ",
"             .@.+.              ",
"             .+.O.              ",
"             .+@.O.             ",
"             .++@.+.            ",
"       .......+O+.O.            ",
"       .XooO++OOO+.O.           ",
"       .XXooOOOOO++.+.          ",
"       .XXXoOOOOOO+.O.          ",
"       .XXXXoOOOOOO+.O.         ",
"       .XXXXXoOOOOOOo.+.        ",
"       .XoXXXXXooooOo.O.        ",
"       .XooXXXXXXXXXoo.o.       ",
"       .XoooooXXXXooo.X.        ",
"       .XoooooooooooX.X.        ",
"       .Xooooooooooo.X.         ",
"       .Xoooooooooo.X.          ",
"       .XoXXXXXXooX.X.          ",
"       .XXXXXXXXoX.X.           ",
"       .......XXX.X.            ",
"             .XXX.X.            ",
"             .XX.X.             ",
"             .X.X.              ",
"             .X.X.              ",
"             ..X.               ",
"             ...                ",
"                                ",
"                                ",
"                                "
};
