/* XPM */
static char *_00_0022_speed141697129299[] = {
/* columns rows colors chars-per-pixel */
"32 32 7 1 ",
"  c #141F0F",
". c #1C3C1A",
"X c #414D1A",
"o c #A06F1F",
"O c #CFC233",
"+ c #FFFF73",
"@ c white",
/* pixels */
"@@@@@@@@@@@@@@@@@@@@@@@@@@@@@@@@",
"@@@@@@@@@@@@@@@@@@@@@@@@@@@@@@@@",
"@@@@@@@@@@@@@     @@@@@@@@@@@@@@",
"@@@@@@@@@@@@@ XO+ @@@@@@@@@@@@@@",
"@@@@@@@@@@@@@ XoO @@@@@@@@@@@@@@",
"@@@@@@@@@@@@@ XoO @@@@@@@@@@@@@@",
"@@@@@@@@@@@@@ XoO @@@@@@@@@@@@@@",
"@@@@@@@@@@@@@ XoO @@@@@@@@@@@@@@",
"@@@@@@@@@@@@@  O  @@@@@@@@@@@@@@",
"@@@@@@@@@@@@@  O  @@@@@@@@@@@@@@",
"@@@@@@@@@@@@@  O  @@@@@@@@@@@@@@",
"@@@@@@@@@@@@@  O  @@@@@@@@@@@@@@",
"@@@@@@@@@@@@@  +  @@@@@@@@@@@@@@",
"@@@@@@@@@@@@@  +  @@@@@@@@@@@@@@",
"@@@@@@@@@@@@@  +  @@@@@@@@@@@@@@",
"@@@@@@@@@@@@@ .   @@@@@@@@@@@@@@",
"@@@@@@@@@@@@@  .  @@@@@@@@@@@@@@",
"@@@@@@@@@@@@@  .  @@@@@@@@@@@@@@",
"@@@@@@@@@@@@@  .  @@@@@@@@@@@@@@",
"@@@@@@@@@@@@@  .  @@@@@@@@@@@@@@",
"@@@@@@@@@@@@@  .  @@@@@@@@@@@@@@",
"@@@@@@@@@@@@@  X  @@@@@@@@@@@@@@",
"@@@@@@@@@@@@@  X  @@@@@@@@@@@@@@",
"@@@@@@@@@@@@@ .Xo @@@@@@@@@@@@@@",
"@@@@@@@@@@@@@ .Xo @@@@@@@@@@@@@@",
"@@@@@@@@@@@@@ .Xo @@@@@@@@@@@@@@",
"@@@@@@@@@@@@@ .XX @@@@@@@@@@@@@@",
"@@@@@@@@@@@@@ ..X @@@@@@@@@@@@@@",
"@@@@@@@@@@@@@     @@@@@@@@@@@@@@",
"@@@@@@@@@@@@@@@@@@@@@@@@@@@@@@@@",
"@@@@@@@@@@@@@@@@@@@@@@@@@@@@@@@@",
"@@@@@@@@@@@@@@@@@@@@@@@@@@@@@@@@"
};
