/* XPM */
static char *_00_0038_coin81697129302[] = {
/* columns rows colors chars-per-pixel */
"32 32 7 1 ",
"  c None",
". c #714917",
"X c #CE7211",
"o c #FEB421",
"O c #FFFF7D",
"+ c #FFFFEB",
"@ c white",
/* pixels */
"                                ",
"                                ",
"               ..               ",
"              .oO.              ",
"              .oO.              ",
"             .XoO+.             ",
"            ..XoO@..            ",
"            ..XoO@..            ",
"           .o.XoO@.@.           ",
"           .o.XoO@.@.           ",
"           .o.XoO+.@.           ",
"           .o.XoO+.@.           ",
"           .o.XoO+.+.           ",
"           .o.XoO+.+.           ",
"           .o.XoO+.+.           ",
"           .o.XoO+.O.           ",
"           .o.XoO+.O.           ",
"           .o.XoO+.O.           ",
"           .o.XoO+.o.           ",
"           .o.XoO+.o.           ",
"           .o.XooO.o.           ",
"           .o.XooO.o.           ",
"           .o.Xooo.o.           ",
"            ..Xooo..            ",
"            ..XXoo..            ",
"             .XXoX.             ",
"              .XX.              ",
"              .XX.              ",
"               ..               ",
"                                ",
"                                ",
"                                "
};
