/* XPM */
static char *_00_0002_crystal81697129297[] = {
/* columns rows colors chars-per-pixel */
"32 32 8 1 ",
"  c None",
". c #260D1F",
"X c #281330",
"o c #2C223E",
"O c #3C2E44",
"+ c #4A2E43",
"@ c #AF554E",
"# c #FFBC6D",
/* pixels */
"                                ",
"                                ",
"               .                ",
"              .O.               ",
"             .OO#.              ",
"             .OO#.              ",
"             .OO@.              ",
"            .OOO@#.             ",
"            .OOO@@.             ",
"           .OOOO@@#.            ",
"           .OOOO@@#.            ",
"           .OOOO@@@.            ",
"          .OOOO@@@@#.           ",
"          ...........           ",
"          .XXXXoooo+.           ",
"          .OXXXoooo#.           ",
"          .OOXXooo@#.           ",
"          .OOOO@@@@#.           ",
"           .OOO@@@@.            ",
"           .OOO@@@#.            ",
"           .OOO@@@#.            ",
"           .OOO@@@#.            ",
"            .OOO@@.             ",
"            .OOO@#.             ",
"            .OOO@#.             ",
"             .OO@.              ",
"             .OO#.              ",
"              .O.               ",
"               .                ",
"               .                ",
"                                ",
"                                "
};
