/* XPM */
static char *_00_0009_crystal1697129297[] = {
/* columns rows colors chars-per-pixel */
"32 32 12 1 ",
"  c None",
". c #260D1F",
"X c #250F2A",
"o c #28193A",
"O c #29223E",
"+ c #2C223E",
"@ c #33253F",
"# c #3C2E44",
"$ c #55364C",
"% c #A6484D",
"& c #AF554E",
"* c #FFBC6D",
/* pixels */
"                                ",
"                                ",
"              ...               ",
"            ..#.#..             ",
"           .##.#.##.            ",
"         ..#&.##*.#&..          ",
"        .##*.##&&*.#&*.         ",
"       .##&*.##&&*.##&*.        ",
"      .##&*.###&&&*.#&&*.       ",
"     .##&&*.##&&&&*.##&&*.      ",
"    .###&*.###&&&&&*.#&&&*.     ",
"   .###&**.##&&&&&&*.#&&&**.    ",
"   ....&**.##&&&&&&*.#&+....    ",
"   .XXX.................o@@.    ",
"   .XOXoo@.XXoooooo@.XXoo@@.    ",
"    .OOoo@.XXoooooo@.XXo$%.     ",
"    .OOO$@.XXXooooo@.OO$%%.     ",
"     .OO$$.XOO$$$$%%.OO$%.      ",
"     .OOO$.XOO$$$$%%.OO$%.      ",
"      .OOO%.OO$$$$%.OOO%.       ",
"      .XOO$.OO$$$$%.OO$%.       ",
"       .OOO.XO$$$%%.O$%.        ",
"        .OO.XO$$$%%.O$.         ",
"        .XOO.OO$$%.OO%.         ",
"         .OO.XO$%%.O$.          ",
"          .OO.O$%.OO.           ",
"           .O.O%%.O.            ",
"            .O.%.O.             ",
"             ..%..              ",
"               .                ",
"                                ",
"                                "
};
