/* XPM */
static char *_00_0062_heart41697129306[] = {
/* columns rows colors chars-per-pixel */
"32 32 29 1 ",
"  c None",
". c #230A0B",
"X c #3C221C",
"o c #5C2D21",
"O c #602F25",
"+ c #88311E",
"@ c #803226",
"# c #9A3526",
"$ c #9F3729",
"% c #A33928",
"& c #A0382B",
"* c #BF4728",
"= c #CE4C2E",
"- c #E25834",
"; c #C94643",
": c #CF4847",
"> c #CF464F",
", c #D34751",
"< c #D84D50",
"1 c #FF765B",
"2 c #FF893F",
"3 c #FFA34D",
"4 c #FFB06D",
"5 c #FFDA6F",
"6 c #FFC775",
"7 c #FFD87D",
"8 c #FFF276",
"9 c #FFF795",
"0 c white",
/* pixels */
"                                ",
"                                ",
"                                ",
"                                ",
"      .....         .....       ",
"     .OOXX*..     ..00882.      ",
"    .OOXX**28.   .44**2800.     ",
"   .OOOXX**228. .4=***40000.    ",
"   .OOXXX***280.4=***440085.    ",
"  .OOOXXX****003=**440745084.   ",
"  .OOOXXX**44==***4004*-3007.   ",
"  .OOOXXX*46==**40044--70004.   ",
"  .OOOXX#;==**40074=--700044.   ",
"  .OOO##oo***0074*--7000046=.   ",
"  .O;;:ooXX40744=-9007004===.   ",
"   .:@@XXX,,44=--0077006==:.    ",
"   .@@OO&,##$=-0047004===$O.    ",
"    .O;;;#$o++0477046=o$#O.     ",
"    .;;;:&++>>#&446==o#OOO.     ",
"     .::@@1>#&&##6oo$#OOO.      ",
"      .@@;;<&##$ooo$XOOO.       ",
"       .;<<;;;$oo$#OOOO.        ",
"        .;;;:@@o;OOOOO.         ",
"         ..@@@:;OOOO..          ",
"           ..;OOOO..            ",
"             .OOO.              ",
"              .O.               ",
"               .                ",
"                                ",
"                                ",
"                                ",
"                                "
};
