/* XPM */
static char *_00_0060_heart61697129306[] = {
/* columns rows colors chars-per-pixel */
"32 32 7 1 ",
"  c None",
". c #230A0B",
"X c #3C221C",
"o c #602F25",
"O c #BF4728",
"+ c #FF893F",
"@ c #FFF276",
/* pixels */
"                                ",
"                                ",
"                                ",
"                                ",
"         .....     ....         ",
"        .oooX+.   .++++.        ",
"       .oooXX++. .+@@@@+.       ",
"      .oooXXOO++.+@+++@@+.      ",
"      .ooXXXOOO++.++OO+@+.      ",
"     .oooXXXOOOOO++OOOO@@.      ",
"     .ooXXXXOOOOOOOOOOO+@+.     ",
"     .ooXXXXOOOOOOOOOOO+@+.     ",
"     .ooXXXXOOOOOOOOOOO+@+.     ",
"     .oooXXXOOOOOOOOOOO@+.      ",
"      .ooXXXXOOOOOOOOO+@+.      ",
"      .oooXXXOOOOOOOOO+++.      ",
"      .oooXXXXOOOOOOOO++X.      ",
"       .ooXXXXOOOOOOOO+X.       ",
"        .ooXXXXOOOOOO+XX.       ",
"        .oooXXXXOOOO+XX.        ",
"         .oooXXXOOO+XXo.        ",
"          .oooXXXo+XXo.         ",
"           .oooXXXXXo.          ",
"           .ooooXXXo.           ",
"            .oooooo.            ",
"             .ooo..             ",
"              .o.               ",
"               .                ",
"                                ",
"                                ",
"                                ",
"                                "
};
