/* XPM */
static char *_00_0064_heart21697129306[] = {
/* columns rows colors chars-per-pixel */
"32 32 11 1 ",
"  c None",
". c #230A0B",
"X c #3C221C",
"o c #602F25",
"O c #9A3526",
"+ c #BF4728",
"@ c #C94643",
"# c #FF893F",
"$ c #FFB06D",
"% c #FFF276",
"& c white",
/* pixels */
"                                ",
"                                ",
"                                ",
"                                ",
"      .....         .....       ",
"     .ooXX+..     ..&&%%#.      ",
"    .ooXX+$#%.   .$$$+#&&&.     ",
"   .oooXO$+&&&. .$$+++$&&%#.    ",
"   .ooOOX$$$&&&.$+++$$$##%#.    ",
"  .o@@XOO$$$$&&&++$$$$++#%%+.   ",
"  .@ooOOO$$$$$+++$$$++++##%+.   ",
"  .o@@OOO$$$+++$$$++++++#%#+.   ",
"  .@@@OOO@+++$$$$++++++###++.   ",
"  .@@@OOXX+$$$$++++++++##+++.   ",
"  .@@@@XXXO$$+++++++++##++++.   ",
"   .@ooXOOOX+++++++++##+++o.    ",
"   .oo@@OOXXX++++++##++++Xo.    ",
"    .@@@oXXXXX++++#+++XXXo.     ",
"    .@ooooXXXXXX+++++XXooo.     ",
"     .oooooXXXXXX+XXXXooo.      ",
"      .oooooXXXXXXXXXooo.       ",
"       .ooooooXXXXXoooo.        ",
"        .ooooooXoooooo.         ",
"         ..ooooooooo..          ",
"           ..ooooo..            ",
"             .ooo.              ",
"              .o.               ",
"               .                ",
"                                ",
"                                ",
"                                ",
"                                "
};
