/* XPM */
static char *_00_0065_heart1697129306[] = {
/* columns rows colors chars-per-pixel */
"32 32 7 1 ",
"  c None",
". c #230A0B",
"X c #3C221C",
"o c #602F25",
"O c #BF4728",
"+ c #FF893F",
"@ c #FFF276",
/* pixels */
"                                ",
"                                ",
"                                ",
"                                ",
"      .....         .....       ",
"     .ooXXO..     ..++@@+.      ",
"    .ooXXOO+@.   .OOOO+@@+.     ",
"   .oooXXOO++@. .OOOOOO+@@+.    ",
"   .ooXXXOOO+@+.OOOOOOO++@+.    ",
"  .oooXXXOOOO+++OOOOOOOO+@@O.   ",
"  .oooXXXOOOOOOOOOOOOOOO++@O.   ",
"  .oooXXXOOOOOOOOOOOOOOO+@+O.   ",
"  .oooXXXoOOOOOOOOOOOOO+++OO.   ",
"  .oooXXXXOOOOOOOOOOOOO++OOO.   ",
"  .ooooXXXXOOOOOOOOOOO++OOOO.   ",
"   .oooXXXXXOOOOOOOOO++OOOo.    ",
"   .ooooXXXXXOOOOOO++OOOOXo.    ",
"    .ooooXXXXXOOOO+OOOXXXo.     ",
"    .oooooXXXXXXOOOOOXXooo.     ",
"     .oooooXXXXXXOXXXXooo.      ",
"      .oooooXXXXXXXXXooo.       ",
"       .ooooooXXXXXoooo.        ",
"        .ooooooXoooooo.         ",
"         ..ooooooooo..          ",
"           ..ooooo..            ",
"             .ooo.              ",
"              .o.               ",
"               .                ",
"                                ",
"                                ",
"                                ",
"                                "
};
