/* XPM */
static char *_00_0051_hit_point51697129304[] = {
/* columns rows colors chars-per-pixel */
"32 32 15 1 ",
"  c None",
". c #2D0F0E",
"X c #4B2E1A",
"o c #7D3B18",
"O c #A33C12",
"+ c #BB4711",
"@ c #CE5419",
"# c #D45412",
"$ c #FC7A18",
"% c #FF8623",
"& c #FFAC38",
"* c #FFFF55",
"= c #FFFE6A",
"- c #FFFFB5",
"; c white",
/* pixels */
"                                ",
"                                ",
"            ........            ",
"           .oooX@&&=.           ",
"          .ooXX@@@&&=.          ",
"          .ooXX@@@&&=.          ",
"          .ooXX@@@&&=.          ",
"          .oXX@@@@&&=.          ",
"          .oXX@@@@&&=.          ",
"          .oXX@@@@&&&.          ",
"    ......oXX@@@@@@&&&......    ",
"   .ooooooo@@@@@@@@@&&&=====.   ",
"  .ooooo@@@@@@@@@@@@@&&&&&&&&.  ",
"  .oooX@@@@@@@@@@@@@@@@@@@@@&.  ",
"  .ooXX@@&&@@@@@@@@@@@@@@@@@&.  ",
"  .ooXXX@@@&&@@@@@@@@@@&@@@@%.  ",
"  .ooXXXXXXX@&@@@@@@@&&@@%%**.  ",
"  .oooXXXXXXX@@@@@@@&&@%**+Xo.  ",
"  .oooooXXXXXX@@@@@--**+XXXXo.  ",
"  .ooooooooXXXX@%%*;;@XXooo##.  ",
"   .ooooooooXOO***-&@@oo####.   ",
"    ......o#O++%@@&&@#......    ",
"          .$+OX@@@-%%.          ",
"          .oXXX@%%-**.          ",
"          .oXOOO%**%%.          ",
"          .##O+++%%Oo.          ",
"          .$$+OOOXXoo.          ",
"          .###OXXXooo.          ",
"           .oooooooo.           ",
"            ........            ",
"                                ",
"                                "
};
