/* XPM */
static char *_00_0048_hit_point81697129304[] = {
/* columns rows colors chars-per-pixel */
"32 32 7 1 ",
"  c None",
". c #2D0F0E",
"X c #4B2E1A",
"o c #7D3B18",
"O c #CE5419",
"+ c #FFAC38",
"@ c #FFFE6A",
/* pixels */
"                                ",
"                                ",
"               ..               ",
"              .Xo.              ",
"             .XXo@.             ",
"             .XXo+.             ",
"             .XXo+.             ",
"             .XXo+.             ",
"             .XXoO.             ",
"             .XXXX.             ",
"             ......             ",
"            .XXXoo@.            ",
"            .XXXoo@.            ",
"            .XXXoo+.            ",
"            .XXXoo+.            ",
"            .XXXoo+.            ",
"            .XXXoo+.            ",
"            .XXXoo+.            ",
"            .XXXoo+.            ",
"            .XXXooO.            ",
"            .XXXXoO.            ",
"             ......             ",
"             .XXX@.             ",
"             .XXX+.             ",
"             .XXo+.             ",
"             .XXo+.             ",
"             .XXoO.             ",
"             .XXoO.             ",
"              .XX.              ",
"               ..               ",
"                                ",
"                                "
};
