/* XPM */
static char *_00_0047_hit_point91697129303[] = {
/* columns rows colors chars-per-pixel */
"32 32 9 1 ",
"  c None",
". c #2D0F0E",
"X c #4B2E1A",
"o c #7D3B18",
"O c #CE5419",
"+ c #F97925",
"@ c #FFAC38",
"# c #FFAC39",
"$ c #FFFE6A",
/* pixels */
"                                ",
"                                ",
"             .....              ",
"            .XX.@$.             ",
"           .oXO$.+$.            ",
"           .oXO@.+$.            ",
"           .oXO@.+$.            ",
"           .oXO@.+$.            ",
"           .oXO@.+$.            ",
"           .oXO@.+$.            ",
"         ..oXOO@@......         ",
"        .ooXXOOO@@$$.@$.        ",
"       .ooXXOOOOO@@@$.+$.       ",
"       .ooXOOOOOOOO@@.+$.       ",
"       .oXXOOOOOOOOO@.+$.       ",
"       .oXXXOOOOOOOO@.+$.       ",
"       .ooXXXOOOOOOOO.+$.       ",
"       .oooXXXOOOOXXX.+$.       ",
"       .oooXXXOOXXXXo.+$.       ",
"       .ooooXXXXXXXoo.+$.       ",
"        .oooXXXXXooo.+$.        ",
"         ..ooXXXo......         ",
"           .oXXo.@@.            ",
"           .oXXo.+$.            ",
"           .ooXo.+$.            ",
"           .oooo.+$.            ",
"           .oooo.+$.            ",
"           .oooo.+$.            ",
"            .oo.+$.             ",
"             .....              ",
"                                ",
"                                "
};
