/* XPM */
static char *_00_0016_star41697129298[] = {
/* columns rows colors chars-per-pixel */
"32 32 36 1 ",
"  c None",
". c #332E1A",
"X c #B45511",
"o c #E87515",
"O c #F58517",
"+ c #FFBD23",
"@ c #FFBE26",
"# c #FFC727",
"$ c #FFCC28",
"% c #FFF43A",
"& c #FFFF47",
"* c #FFFF4A",
"= c #FFFF5C",
"- c #FFFF62",
"; c #FFFF67",
": c #FFFF6B",
"> c #FFFF7F",
", c #FFFF87",
"< c #FFFF8D",
"1 c #FFFF90",
"2 c #FFFF93",
"3 c #FFFF97",
"4 c #FFFF9B",
"5 c #FFFF9F",
"6 c #FFFFA6",
"7 c #FFFFD5",
"8 c #FFFFDC",
"9 c #FFFFE1",
"0 c #FFFFE2",
"q c #FFFFE3",
"w c #FFFFE5",
"e c #FFFFED",
"r c #FFFFEE",
"t c #FFFFF4",
"y c #FFFFF7",
"u c white",
/* pixels */
"                                ",
"                                ",
"               .                ",
"              .:.               ",
"              .:.               ",
"             .o::.              ",
"             .o:7.              ",
"             .X@7.              ",
"            .oX@:7.             ",
"            .oX@:7.             ",
"           .XX@@::7.            ",
" ..........XXX:@@46u..........  ",
"  .ooXX@@@::::@<6ut580>55et@.   ",
"   .ooXXX@@::<<utt6<<252e<$.    ",
"    .ooXXX@<<uut<==<42wu$$.     ",
"     .oooX#tut<4==4<wu6$$.      ",
"      .o-euu<3==43eu6&$,.       ",
"       .uu-*+==3eu6&&$,.        ",
"        .,$+%3eu6=<036.         ",
"       .,%;;wu6++=46u&*.        ",
"       .200u6+++*66&8:@.        ",
"       .066+++*66$O@@7@.        ",
"      .,,+++;66$$ooXo7:@.       ",
"      .2++;66$$.ooooXo:@.       ",
"      .%;66$$.. ..oooXo@.       ",
"     .0#6$o..     ..ooo@@.      ",
"     .-ooo.         .ooo@.      ",
"     .oo..           ..oo.      ",
"     ...               ...      ",
"                                ",
"                                ",
"                                "
};
