/* XPM */
static char *_00_0012_star81697129298[] = {
/* columns rows colors chars-per-pixel */
"32 32 7 1 ",
"  c None",
". c #332E1A",
"X c #B45511",
"o c #E87515",
"O c #FFBE26",
"+ c #FFFF6B",
"@ c #FFFFD5",
/* pixels */
"                                ",
"                                ",
"               .                ",
"              .+.               ",
"             .XO@.              ",
"             .XO@.              ",
"            .oXO+@.             ",
"            .oXOO+.             ",
"            .ooXO+.             ",
"            .oXXoO.             ",
"           .oXX.XO@.            ",
"           .oX.+.o+.            ",
"           .o.OO+.+.            ",
"           .oXOOO++.            ",
"           .oXOOO++.            ",
"           .oXXOOO+.            ",
"           .oXXOOO+.            ",
"           .ooXOOO+.            ",
"           .ooXOO+X.            ",
"            .oXOOX.             ",
"            .oXO+X.             ",
"            .oXOXo.             ",
"            .ooXXo.             ",
"             .oXX.              ",
"             .oXo.              ",
"             .ooo.              ",
"             .ooo.              ",
"              .o.               ",
"               .                ",
"                                ",
"                                ",
"                                "
};
