/* XPM */
static char *_00_0031_speed51697129301[] = {
/* columns rows colors chars-per-pixel */
"32 32 11 1 ",
"  c None",
". c #141F0F",
"X c #1C3C1A",
"o c #414D1A",
"O c #696112",
"+ c #A06F1F",
"@ c #A89714",
"# c #AFB917",
"$ c #C8D121",
"% c #CFC233",
"& c #FFFF73",
/* pixels */
"                                ",
"                                ",
"             .                  ",
"             ..                 ",
"             .o.                ",
"             .oo.               ",
"             .oo+.              ",
"             .oo+%.             ",
"    ..........o+++%.            ",
"    .ooooo+++++++%%&.           ",
"    .oooX+++++++%%&&&.          ",
"    .oooX+%%%%%%&&%%&%.         ",
"    .ooXX+++%%%%%+++%%%.        ",
"    .ooXX+++++++++++%%+o.       ",
"    .ooXX++++++++++%%+XXo.      ",
"    .ooXX++++++++%%XXXX@@@.     ",
"    .ooXXX+++++%%+X##OO@@.      ",
"    .ooXXXXXXXXXX##OOOoo.       ",
"    .oooXXXXXXX##OOOXoo.        ",
"    .oooooXXX##OOOXXoo.         ",
"    .ooooo@$$@@ooXXo@.          ",
"    .ooo@@$@oooooO@$.           ",
"    ..........o@O$$.            ",
"             .@$$o.             ",
"             .$oo.              ",
"             .@o.               ",
"             .o.                ",
"             ..                 ",
"             .                  ",
"                                ",
"                                ",
"                                "
};
