/* XPM */
static char *_00_0027_speed91697129300[] = {
/* columns rows colors chars-per-pixel */
"32 32 7 1 ",
"  c None",
". c #141F0F",
"X c #1C3C1A",
"o c #414D1A",
"O c #A06F1F",
"+ c #CFC233",
"@ c #FFFF73",
/* pixels */
"                                ",
"                                ",
"                ..              ",
"                .+.             ",
"               ..o+.            ",
"              .o.oO.            ",
"              .o.oO.            ",
"              .o.oo.            ",
"             .oo.....           ",
"             .oooo.O@.          ",
"             .oooo.O@.          ",
"            .Xoooo.O@.          ",
"            .Xoooo.O+.          ",
"            .XoooX.O+.          ",
"           .XXoooX.O+.          ",
"          .XXooooX.O+.          ",
"           .XXoooX.O+.          ",
"            .XooXX.O+.          ",
"            .XooXX.O+.          ",
"            .XXoXX.O+.          ",
"             .XXXX.O+.          ",
"             .XXXX.O+.          ",
"             .XX......          ",
"              .X.oo.            ",
"              .X.oo.            ",
"              .X.oo.            ",
"               ..oo.            ",
"                .o.             ",
"                 .              ",
"                                ",
"                                ",
"                                "
};
