/* XPM */
static char *_00_0026_speed101697129300[] = {
/* columns rows colors chars-per-pixel */
"32 32 7 1 ",
"  c None",
". c #141F0F",
"X c #1C3C1A",
"o c #414D1A",
"O c #A06F1F",
"+ c #CFC233",
"@ c #FFFF73",
/* pixels */
"                                ",
"                                ",
"                .               ",
"               ...              ",
"              .o.@.             ",
"              .O.+.             ",
"             .oO.O.             ",
"            .ooO.o.             ",
"            .ooO........        ",
"           .ooOOOOOOOO.@.       ",
"          .XooOOOOOOOO.@.       ",
"          .XooOOOOOOOO.@.       ",
"         .XooooOOOOOOO.+.       ",
"        .XXXooooOOOOOO.+.       ",
"        .XXXXooooOOOOo.+.       ",
"       .XXoXXXoooooOOo.+.       ",
"        .XooXXXooooooo.+.       ",
"        .XXooXXooooooo.+.       ",
"         .XXoooXoooooo.O.       ",
"          .XXoooXooOOo.O.       ",
"          .XXooooXooOO.O.       ",
"           .XXoooooooo...       ",
"            .XXo.........       ",
"            .XXX.X.             ",
"             .XX.X.             ",
"              .X.o.             ",
"              .X.o.             ",
"               ...              ",
"                .               ",
"                                ",
"                                ",
"                                "
};
