/* XPM */
static char *_00_0029_speed71697129301[] = {
/* columns rows colors chars-per-pixel */
"32 32 7 1 ",
"  c None",
". c #141F0F",
"X c #1C3C1A",
"o c #414D1A",
"O c #A06F1F",
"+ c #CFC233",
"@ c #FFFF73",
/* pixels */
"                                ",
"                                ",
"              ..                ",
"             .o.                ",
"            .Xo..               ",
"            .Xo.@.              ",
"            .Xo.+.              ",
"            .XX.+.              ",
"           .....O@.             ",
"          .Xo.oXO+.             ",
"          .Xo.oXO+.             ",
"          .Xo.oX+O@.            ",
"          .Xo.oXOO+.            ",
"          .Xo.oXOO+.            ",
"          .Xo.oXXOO+.           ",
"          .XX.oXXOOoo.          ",
"          .XX.oXXOXX.           ",
"          .XX.ooXXX.            ",
"          .XX.ooXXX.            ",
"          .XX.oooXo.            ",
"          .XX.oooo.             ",
"          .XX.oooo.             ",
"          ......oo.             ",
"            .XX.o.              ",
"            .Xo.o.              ",
"            .Xo.o.              ",
"            .Xo..               ",
"             .X.                ",
"              .                 ",
"                                ",
"                                ",
"                                "
};
