/* XPM */
static char *_00_0021_speed151697129299[] = {
/* columns rows colors chars-per-pixel */
"32 32 7 1 ",
"  c None",
". c #141F0F",
"X c #1C3C1A",
"o c #414D1A",
"O c #A06F1F",
"+ c #CFC233",
"@ c #FFFF73",
/* pixels */
"                                ",
"                                ",
"            ...                 ",
"            .+@.                ",
"            ..O+.               ",
"            .+.+@.              ",
"            .+.O+.              ",
"            .+.O+.              ",
"          ...O+.O+.             ",
"          .oOO+.O@.             ",
"          .ooOO.O+.             ",
"          .ooOO+.++.            ",
"          .XooOO.O+.            ",
"          .XooOO.O+.            ",
"          .XoooOo.O+.           ",
"          .XXooooo.oO.          ",
"          .XXoooo.Xo.           ",
"          .XXXoo.XX.            ",
"          .XXXoX.Xo.            ",
"          .XXXoX.XX.            ",
"          .XXXX.XX.             ",
"          .XXXX.XX.             ",
"          ...XX.XX.             ",
"            .X.XX.              ",
"            .X.XX.              ",
"            .X.XX.              ",
"            ..XX.               ",
"            .XX.                ",
"            ...                 ",
"                                ",
"                                ",
"                                "
};
