/* XPM */
static char *_00_0028_speed81697129300[] = {
/* columns rows colors chars-per-pixel */
"32 32 7 1 ",
"  c None",
". c #141F0F",
"X c #1C3C1A",
"o c #414D1A",
"O c #A06F1F",
"+ c #CFC233",
"@ c #FFFF73",
/* pixels */
"                                ",
"                                ",
"              ....              ",
"              .o@.              ",
"              .o+.              ",
"              .oO.              ",
"              .oO.              ",
"              .oo.              ",
"             ......             ",
"             .XXo@.             ",
"             .XXo+.             ",
"             .XXo+.             ",
"             .XXo+.             ",
"             .XXo+.             ",
"             .XXoO.             ",
"             .XXoO.             ",
"             .XXoO.             ",
"             .XXoO.             ",
"             .XXoO.             ",
"             .XXoO.             ",
"             .XXoO.             ",
"             .XXoo.             ",
"             ......             ",
"              .Xo.              ",
"              .o+.              ",
"              .oO.              ",
"              .oO.              ",
"              .oo.              ",
"              ....              ",
"                                ",
"                                ",
"                                "
};
