/* XPM */
static char *_00_0036_coin101697129302[] = {
/* columns rows colors chars-per-pixel */
"32 32 7 1 ",
"  c None",
". c #714917",
"X c #CE7211",
"o c #FEB421",
"O c #FFFF7D",
"+ c #FFFFEB",
"@ c white",
/* pixels */
"                                ",
"                                ",
"             .......            ",
"           ..ooOO..O..          ",
"         ..oX...oOO..+.         ",
"        .oo..XOO..oOO.@.        ",
"       .oo.XXXOO++.oOO.@.       ",
"      .oo.XXXXO++++.oOO.@.      ",
"      .o.XoXXOO+++++.oO.+@.     ",
"     .o.XXoXXOO++@@+.oOO.@.     ",
"     .o.XooXXOOO+@@@+.oO.+@.    ",
"    .o.XXoXXXOOO++@@@.oOO.+.    ",
"    .o.XooXXXOOOO++@@+.oO.+.    ",
"    .o.XooXXXOOOO+++++.oO.+.    ",
"    .o.XooXXXXOOOO++++.oO.+.    ",
"    .o.XooXXXXOOOOO+++.oO.+.    ",
"    .o.XooXXXXXOOOOOOO.oO.O.    ",
"    .o.XoooXXXXXOOOOOO.oO.O.    ",
"    .o.XoooXXXXXOOOOOO.oO.O.    ",
"    .o.XooooXXXXXOOOO.oOO.O.    ",
"     .o.XooooXXXXXXOO.oO.OO.    ",
"     .o.XoooooXXXXXX.oOO.O.     ",
"      .o.XoooooXXXXX.oo.OO.     ",
"      .Xo.XooooooXX.ooo.O.      ",
"       .Xo.XooooXX.ooo.o.       ",
"        .Xo..XXX..ooo.O.        ",
"         ..oo...ooo..O.         ",
"           ..oooo..O..          ",
"             .......            ",
"                                ",
"                                ",
"                                "
};
