/* XPM */
static char *_00_0042_coin41697129303[] = {
/* columns rows colors chars-per-pixel */
"32 32 14 1 ",
"  c None",
". c #714917",
"X c #C26A1B",
"o c #CE7211",
"O c #E99526",
"+ c #FEB421",
"@ c #FFFF7D",
"# c #FFFFA6",
"$ c #FFFFAA",
"% c #FFFFAB",
"& c #FFFFAC",
"* c #FFFFEA",
"= c #FFFFEB",
"- c white",
/* pixels */
"                                ",
"                                ",
"            .......             ",
"         ...@@@====...          ",
"        .@@@@+++++@===.         ",
"       .++oo.......+@--O        ",
"      .++o..@@@====.O%@=X       ",
"     .+oo.@@@@===----X+@-O      ",
"    .+oo.o@@@==-----==X%--O     ",
"   .++o.o@@@@=---------O---O    ",
"   .+o.oo@@@---===------O--O    ",
"   .+o.oo@----===-------O--O    ",
"  .+o.+oo---@@@----------O--X   ",
"  .+o.+#--@@@-----------#O--X   ",
"  .+o.%-#+@------------##X@-X   ",
"  .+#O-ooo-------------##X=-O   ",
"  .%-O++###-----------##%X--O   ",
"  O-o.%%#---#-------=###%O--O   ",
"  O++.%---#---##---#####%O-@.   ",
"   X%-O-%---###########-O@@.    ",
"   O-#O%---##########--%X@+.    ",
"   O%%-O-%%%#######--%+X@%%.    ",
"    O-%-O%%%%%%%%--%++X--+.     ",
"     O%%#O%%%%%--%+++X-@+.      ",
"      O&%#XO%--%%++XX-%+.       ",
"       X%%#-OOXXXXX%%++.        ",
"        X--%#ooo###+++.         ",
"         OOX+++%%++...          ",
"            X......             ",
"                                ",
"                                ",
"                                "
};
