/* XPM */
static char *_00_0040_coin61697129302[] = {
/* columns rows colors chars-per-pixel */
"32 32 7 1 ",
"  c None",
". c #714917",
"X c #CE7211",
"o c #FEB421",
"O c #FFFF7D",
"+ c #FFFFEB",
"@ c white",
/* pixels */
"                                ",
"                                ",
"            .......             ",
"          ..o..OO++..           ",
"         .o..Ooo...+@..         ",
"        .o.Ooo..O++..@@.        ",
"       .o.Ooo.OO+++++.@+.       ",
"      .o.OoX.XOO++@@++.@+.      ",
"     .oo.oX.XOOO++@@@++.@.      ",
"     .o.ooX.XOOO++@@@@++.+.     ",
"    .Xo.oX.XXOOO+++@@@++.+.     ",
"    .X.ooX.XXOOOO+++@++++.+.    ",
"    .X.oo.oXXOOOO++++++++.+.    ",
"    .X.oX.oXXOOOOO++++++O.+.    ",
"    .X.oX.oXXXOOOOO+++++O.+.    ",
"    .X.oX.oXXXOOOOOOO++OO.+.    ",
"    .X.oX.ooXXXOOOOOOOOOO.O.    ",
"    .X.oX.ooXXXOOOOOOOOOX.O.    ",
"    .X.oX.oooXXXOOOOOOOXX.o.    ",
"    .X.ooX.ooXXXXXXXOOXXX.o.    ",
"    .XX.oX.oooXXXXXXXXXX.o.     ",
"     .X.ooX.oooXXXXXXXXX.o.     ",
"     .XX.oX.ooooXXXXXXo.o.      ",
"      .X.ooX.ooooooXXo.oo.      ",
"       .X.ooo.ooooooo.oo.       ",
"        .X.ooo..ooo..oo.        ",
"         .X..oXX...oo..         ",
"          ..X..oooo..           ",
"            .......             ",
"                                ",
"                                ",
"                                "
};
