/* XPM */
static char *_00_0007_crystal31697129297[] = {
/* columns rows colors chars-per-pixel */
"32 32 30 1 ",
"  c None",
". c #260D1F",
"X c #250F2A",
"o c #28193A",
"O c #29223E",
"+ c #3A2F34",
"@ c #33253F",
"# c #3C2E44",
"$ c #462B4F",
"% c #55364C",
"& c #5F2F55",
"* c #7F3350",
"= c #893451",
"- c #A93953",
"; c #B53E51",
": c #BD3E51",
"> c #C13F51",
", c #A6484D",
"< c #AF554E",
"1 c #C44051",
"2 c #C24751",
"3 c #D44751",
"4 c #D74951",
"5 c #EA5B54",
"6 c #FA705A",
"7 c #FFB76F",
"8 c #FFBC6D",
"9 c #FFBE72",
"0 c #FFC373",
"q c white",
/* pixels */
"                                ",
"                                ",
"              ...               ",
"            ..#.#..             ",
"           .##.#.##.            ",
"         ..#<.##8.36++          ",
"        .##8.##990+#<8.         ",
"       .##<8+436<8.##60.        ",
"      .##<8+3;#<<<8.;660+       ",
"     .##<<q.;#<<<60+;;990.      ",
"    .##;60.###66666q+36<<8.     ",
"   .#;;608.#;666qqq0+#<<600.    ",
"   ....<88+;;7qq66<8+#6=....    ",
"   .$XX.+5555++++++.....o@@.    ",
"   .X*$&&>+$$&ooo&&-.XXoo@@.    ",
"    .**::-.$Xoo&&oo@.XXo%,.     ",
"    +*1*2-+X$$&oooo@.OO%,,.     ",
"     .**%%+$OO%%%%,,.OO%,.      ",
"     +OO*2.XOO%%%%,,.OO%,.      ",
"      +*OO,.OO%%%%,.OOO,.       ",
"      .XOO%.OO%%%%,.OO%,.       ",
"       .OOO.XO%%%,,.O%,.        ",
"        .OO.XO%%%,,.O%.         ",
"        .XOO.OO%%,.OO,.         ",
"         .OO.XO%,,.O%.          ",
"          .OO.O%,.OO.           ",
"           .O.O,,.O.            ",
"            .O.,.O.             ",
"             ..,..              ",
"               .                ",
"                                ",
"                                "
};
