/* XPM */
static char *_00_0000_crystal101697129296[] = {
/* columns rows colors chars-per-pixel */
"32 32 10 1 ",
"  c None",
". c #260D1F",
"X c #281330",
"o c #2F233A",
"O c #2C223E",
"+ c #3C2E44",
"@ c #4A2E43",
"# c #AF554E",
"$ c #B15347",
"% c #FFBC6D",
/* pixels */
"                                ",
"                                ",
"               ..               ",
"              ..+.              ",
"             .$%.%.             ",
"            .$+%.+%.            ",
"           ..$+#%.+%.           ",
"          ..$++#%.++%.          ",
"         ..$++##%.++#%.         ",
"        .+.$++###%.++#%.        ",
"       .+.$+++###%.++##%.       ",
"       ..$++++####%.++#%.       ",
"      .+.$++++####%.++##%.      ",
"      ....................      ",
"      .X.oXXXOOOOOO@.XXO@.      ",
"      .+.oXXXOOOOO@.XXXO@.      ",
"       .+.oXXOOOOO@.XX##.       ",
"       .+.$+++####%.++#%.       ",
"        ..$+++####%.+##%.       ",
"        .+.$++###%.++#%.        ",
"         ..$++###%.++%.         ",
"         .+.$++##%.+#%.         ",
"          ..$++#%.++%.          ",
"          ..$++#%.+%.           ",
"           ..$+#%.+%.           ",
"           ..$+%.+%.            ",
"            ..+%.+.             ",
"             .$%..              ",
"              ...               ",
"               .                ",
"                                ",
"                                "
};
