/* XPM */
static char *_00_0001_crystal91697129296[] = {
/* columns rows colors chars-per-pixel */
"32 32 8 1 ",
"  c None",
". c #260D1F",
"X c #281330",
"o c #2C223E",
"O c #3C2E44",
"+ c #4A2E43",
"@ c #AF554E",
"# c #FFBC6D",
/* pixels */
"                                ",
"                                ",
"               .                ",
"              ...               ",
"             .#.O.              ",
"             .#.O#.             ",
"            .#.OO@.             ",
"            .#.OOO#.            ",
"           .O#.OOO@#.           ",
"           .@#.OOO@#.           ",
"          .O@#.OOO@@#.          ",
"         .OO@#.OOO@@#.          ",
"         .OO@#.OOO@@@#.         ",
"         ..............         ",
"         .XX+.XXXXooo+.         ",
"         .OX+.XXXXoo@#.         ",
"         .OO+.XXXXo@@#.         ",
"         .OO#.OOOO@@#.          ",
"          .O#.OOOO@@#.          ",
"          .O@#.OO@@@.           ",
"          .O@#.OO@@#.           ",
"           .O#.OO@@#.           ",
"           .O#.OO@#.            ",
"            .#.OO@#.            ",
"            .O.OO@.             ",
"             .#.O#.             ",
"             .O.O.              ",
"              ..O.              ",
"              ...               ",
"               .                ",
"                                ",
"                                "
};
