/* XPM */
static char *_00_0059_heart71697129305[] = {
/* columns rows colors chars-per-pixel */
"32 32 7 1 ",
"  c None",
". c #230A0B",
"X c #3C221C",
"o c #602F25",
"O c #BF4728",
"+ c #FF893F",
"@ c #FFF276",
/* pixels */
"                                ",
"                                ",
"                                ",
"                                ",
"            ...... ..           ",
"           .ooooXX.X+.          ",
"          .ooooXXO+.@+.         ",
"         .ooooXXOOO+.@.         ",
"         .oooXXXOOO+.@+.        ",
"        .ooooXXXOOO++.+.        ",
"        .ooooXXXOOOO++@.        ",
"        .oooXXXXOOOOO+@.        ",
"        .oooXXXXOOOOO+@.        ",
"        .oooXXXXOOOOO+@.        ",
"         .oooXXXOOOOO+@.        ",
"         .oooXXXOOOOO+@.        ",
"         .oooXXXOOOO+++.        ",
"          .oooXXOOOO+@.         ",
"          .oooXXXOO++X.         ",
"           .oooXXOO+Xo.         ",
"           .oooXXO+XX.          ",
"            .oooXXXX.           ",
"            .oooXXXo.           ",
"             .oooXo.            ",
"             .oooo.             ",
"              .oo.              ",
"              .o.               ",
"               .                ",
"                                ",
"                                ",
"                                ",
"                                "
};
