/* XPM */
static char *_00_0058_heart81697129305[] = {
/* columns rows colors chars-per-pixel */
"32 32 7 1 ",
"  c None",
". c #230A0B",
"X c #3C221C",
"o c #602F25",
"O c #BF4728",
"+ c #FF893F",
"@ c #FFF276",
/* pixels */
"                                ",
"                                ",
"                                ",
"                                ",
"             ......             ",
"            .ooXX+@.            ",
"           .ooXXXO+@.           ",
"          .oooXXOO+@+.          ",
"         .oooXXXOOO+@+.         ",
"         .oooXXXOOO+@+.         ",
"         .oooXXOOOO+@+.         ",
"         .ooXXXOOOO+@+.         ",
"         .ooXXXOOOO+@+.         ",
"         .ooXXXOOOO+@+.         ",
"         .ooXXXOOOO+@+.         ",
"         .ooXXXXOOO+@+.         ",
"          .oXXXXOOO+@.          ",
"          .ooXXXOOO+@.          ",
"          .ooXXXOOO@+.          ",
"           .ooXXXO+@.           ",
"           .ooXXXO+@.           ",
"            .ooXXO@.            ",
"            .ooXX++.            ",
"             .ooX+.             ",
"             .ooXX.             ",
"              .oX.              ",
"              .oX.              ",
"               ..               ",
"                                ",
"                                ",
"                                ",
"                                "
};
