/* XPM */
static char *_00_0057_heart91697129305[] = {
/* columns rows colors chars-per-pixel */
"32 32 7 1 ",
"  c None",
". c #230A0B",
"X c #3C221C",
"o c #602F25",
"O c #BF4728",
"+ c #FF893F",
"@ c #FFF276",
/* pixels */
"                                ",
"                                ",
"                                ",
"                                ",
"           .. ......            ",
"          .XO.O+++@+.           ",
"         .XO.o++O++@+.          ",
"         .X.o++OOO+@++.         ",
"        .XX.o+OOOOO+@X.         ",
"        .X.oOOOOOOO+@Xo.        ",
"        .XXOOOOOOOO+@Xo.        ",
"        .XXOOOOOOOO@@Xo.        ",
"        .XXXOOOOOO+@+Xo.        ",
"        .XXXOOOOOO+@XXo.        ",
"        .XXXOOOOOO++XX.         ",
"        .oXXXOOOOO+XXo.         ",
"        .oXXXOOOO++XXo.         ",
"         .oXXXOOO+XXo.          ",
"         .ooXXXOO+XXo.          ",
"         .oooXXX+XXo.           ",
"          .ooXXXXXXo.           ",
"           .ooXXXXo.            ",
"           .oooXXoo.            ",
"            .ooooo.             ",
"             .oooo.             ",
"              .oo.              ",
"               .o.              ",
"                .               ",
"                                ",
"                                ",
"                                ",
"                                "
};
