/* XPM */
static char *_00_0052_hit_point41697129304[] = {
/* columns rows colors chars-per-pixel */
"32 32 32 1 ",
"  c None",
". c #2D0F0E",
"X c #4B2E1A",
"o c #7D3B18",
"O c #853616",
"+ c #A33C12",
"@ c #A73D12",
"# c #BB4711",
"$ c #BB4613",
"% c #DB590F",
"& c #C14911",
"* c #CE5419",
"= c #D45412",
"- c #DB5913",
"; c #E45E19",
": c #E76211",
"> c #FC7A18",
", c #FF891B",
"< c #FF8623",
"1 c #FF9B29",
"2 c #FFAC38",
"3 c #FFC643",
"4 c #FFFF4B",
"5 c #FFFF55",
"6 c #FFFE6A",
"7 c #FFFF7E",
"8 c #FFFF94",
"9 c #FFFFB5",
"0 c #FFFFEA",
"q c #FFFFEE",
"w c #FFFFF6",
"e c white",
/* pixels */
"                                ",
"                                ",
"            ........            ",
"           .oooX*226.           ",
"          .ooXX***226.          ",
"          .ooXX***228.          ",
"          .ooXX***338.          ",
"          .oXX**;;22e.          ",
"          .oXX;;**99e.          ",
"          .oOO**<<eee.          ",
"    ......$OX*<<001w33......    ",
"   .ooo$$oo*<<0011;;weeeeeee.   ",
"  .o$$$o**<<0011;;177eeewweee.  ",
"  .$ooX*<00711;1177771177qqqe.  ",
"  .ooX+0q3w1;117q771777qq7713.  ",
"  .o>%:@11;we7q71177qqqw11;;1.  ",
"  .>,@@@O@&&7e1777qq0ww1;;177.  ",
"  .---O@&:&&@777q011w3;11q&@-.  ",
"  .$$,,,&&&$&:q511133;1:&@OO$.  ",
"  .,,,,,,,,:%@@11;;weq&@$$$oo.  ",
"   .,,>,44>-@@@;;1ee71$$$oo=.   ",
"    ......--OOO1qqww;$......    ",
"          .$O@:q113;1.          ",
"          .4::@;;;w77.          ",
"          .-@OOO177<*.          ",
"          .$$O@&&<*Xo.          ",
"          .$-:&+XXXoo.          ",
"          .--oXXXXooo.          ",
"           .oooooooo.           ",
"            ........            ",
"                                ",
"                                "
};
