/* XPM */
static char *_00_0046_hit_point101697129304[] = {
/* columns rows colors chars-per-pixel */
"32 32 8 1 ",
"  c None",
". c #2D0F0E",
"X c #4B2E1A",
"o c #7D3B18",
"O c #C6551B",
"+ c #CE5419",
"@ c #FFAC38",
"# c #FFFE6A",
/* pixels */
"                                ",
"                                ",
"            .......             ",
"           .ooXX@#..            ",
"          .ooXX++@.#.           ",
"          .ooX+++@.#.           ",
"          .ooX+++@.@.           ",
"          .oXX+++@.@.           ",
"          .oXX+++@.@.           ",
"          .oXX+++#.@.           ",
"      ....oXX++++@@.......      ",
"     .oooooX++++++@#@@@@.#.     ",
"    .ooooXX+++++++++++@@@.#.    ",
"    .oooXXX+++++++++++++@.#.    ",
"    .ooXXX+@+++++++++##+@.#.    ",
"    .oXXXX++@++++++@@@++@.@.    ",
"    .ooXXXX+@++++@#++++++.@.    ",
"    .ooXXXXX++++@+++XXXXX.@.    ",
"    .oooXXXXX++@++XXXXXXo.@.    ",
"    .oooooXXX+@++XXXooooo.@.    ",
"     .oooooXX+@+XXXoooooo..     ",
"      ....ooXX+XXoo.......      ",
"          .oXX+XXo.O.           ",
"          .oXXXXoo.O.           ",
"          .ooXXXoo.O.           ",
"          .ooXXooo.O.           ",
"          .oooXooo.O.           ",
"          .ooooooo.O.           ",
"           .ooooo.O.            ",
"            .......             ",
"                                ",
"                                "
};
