/* XPM */
static char *_00_0014_star61697129298[] = {
/* columns rows colors chars-per-pixel */
"32 32 7 1 ",
"  c None",
". c #332E1A",
"X c #B45511",
"o c #E87515",
"O c #FFBE26",
"+ c #FFFF6B",
"@ c #FFFFD5",
/* pixels */
"                                ",
"                                ",
"                .               ",
"               .o.              ",
"               .X+.             ",
"              .oX+.             ",
"              .oX+@.            ",
"              .oXO+.            ",
"             .oX+O+@.           ",
"             .oX+O+@.           ",
"             .oX+O++.           ",
"     ........XX++OO++......     ",
"      .oXOOOO+++OOOO+++++O.     ",
"       .oXXOOOOOOOOOO++OOO.     ",
"        .ooXXOOOOOOOOOOOO.      ",
"         .ooXXOOOOOOOOOOo.      ",
"          .ooXXOOOOOOOOo.       ",
"           .ooXXOOOOOOo.        ",
"           .oXXOOOO++O.         ",
"           .oXXOOOOO+@O.        ",
"          .ooXOOOOXOO+@.        ",
"          .oXXOOXXoXOO+.        ",
"          .oXXOXX.ooXO+.        ",
"         .ooXOXo. .ooXO+.       ",
"         .ooXXo.   .oXO+.       ",
"         .oXooo.    .oX+.       ",
"         .oooo.     .ooX.       ",
"         .ooo.       .oo.       ",
"         ....         ...       ",
"                                ",
"                                ",
"                                "
};
