/* XPM */
static char *_00_0010_star101697129298[] = {
/* columns rows colors chars-per-pixel */
"32 32 7 1 ",
"  c None",
". c #332E1A",
"X c #B45511",
"o c #E87515",
"O c #FFBE26",
"+ c #FFFF6B",
"@ c #FFFFD5",
/* pixels */
"                                ",
"                                ",
"               .                ",
"              .X.               ",
"             .oX.               ",
"             .X+@.              ",
"            .oXO@.              ",
"            .oXO+.              ",
"           .oX+O+@.             ",
"           .oX+OO+.             ",
"           .X+OOO+.             ",
"     ......oXOOOOO+........     ",
"     .oooooXXOOOOO+++++++.      ",
"     .oXXXXXOOOOOOOOO+Xo.       ",
"      .oXXOOOOOOOOO++Xo.        ",
"      .ooX+OOOOOOO++Xo.         ",
"       .ooX+OOOOOO+Xo.          ",
"        .oXXOOOOOO+o.           ",
"         .XX+OOOOOO+.           ",
"        .oXXOXOOOOO+.           ",
"        .oXOXXXOOOO++.          ",
"        .oXXXooXOOOO+.          ",
"        .oXXoo.oXOOO+.          ",
"       .ooXoo. .oXOOO+.         ",
"       .oooo.   .oXOO+.         ",
"       .ooo.    .ooXO+.         ",
"       .ooo.     .oooO.         ",
"       .oo.       .ooo.         ",
"       ...         ....         ",
"                                ",
"                                ",
"                                "
};
