/* XPM */
static char *_00_0017_star31697129299[] = {
/* columns rows colors chars-per-pixel */
"32 32 18 1 ",
"  c None",
". c #332E1A",
"X c #B45511",
"o c #E87515",
"O c #FFBE26",
"+ c #FFC727",
"@ c #FFFF62",
"# c #FFFF6B",
"$ c #FFFF8D",
"% c #FFFF9B",
"& c #FFFFD5",
"* c #FFFFDA",
"= c #FFFFE3",
"- c #FFFFE6",
"; c #FFFFEE",
": c #FFFFF4",
"> c #FFFFF7",
", c white",
/* pixels */
"                                ",
"                                ",
"               .                ",
"              .#.               ",
"              .#.               ",
"             .o##.              ",
"             .o#&.              ",
"             .XO&.              ",
"            .oXO#-.             ",
"            .oX$%,.             ",
"           .XX$:;#&.            ",
" ..........XX+:OO%:-..........  ",
"  .ooXXOOO#%::OO$>%>-&%:#OOO.   ",
"   .ooXXXO:;%O$$::>%%::OOOo.    ",
"    .ooX+=OOO$:::$$%:OOOoo.     ",
"     .@;*XX$$:::O$:-OOOoo.      ",
"      .ooo+=::$$::OOOOoo.       ",
"       .@@;==O$:###OOoo.        ",
"        .;;X@::OOO#&OO.         ",
"       .@;++:OOXXOOO&OO.        ",
"       .o@+$OXXXXXOO&#O.        ",
"       .@+XXXXXoooXOO&O.        ",
"      .@oXXXXooooooXo&#O.       ",
"      .oXXXoooo.ooooXo#O.       ",
"      .oXoooo.. ..oooXoO.       ",
"     .oXooo..     ..oooOO.      ",
"     .oooo.         .oooO.      ",
"     .oo..           ..oo.      ",
"     ...               ...      ",
"                                ",
"                                ",
"                                "
};
