/* XPM */
static char *_00_0019_star11697129299[] = {
/* columns rows colors chars-per-pixel */
"32 32 7 1 ",
"  c None",
". c #332E1A",
"X c #B45511",
"o c #E87515",
"O c #FFBE26",
"+ c #FFFF6B",
"@ c #FFFFD5",
/* pixels */
"                                ",
"                                ",
"               .                ",
"              .+.               ",
"              .+.               ",
"             .o++.              ",
"             .o+@.              ",
"             .XO@.              ",
"            .oXO+@.             ",
"            .oXO+@.             ",
"           .XXOO++@.            ",
" ..........XXX+OO++@..........  ",
"  .ooXXOOO++++OOO+++@@+++OOO.   ",
"   .ooXXXOO++OOOOO+++++OOOo.    ",
"    .ooXXXOOOOOOOOO+OOOOoo.     ",
"     .oooXXOOOOOOOOOOOOoo.      ",
"      .oooXXOOOOOOOOOOoo.       ",
"       .oooXXOOO+++OOoo.        ",
"        .ooXoOOOOO+@OO.         ",
"       .ooXXOOOXXOOO@OO.        ",
"       .ooXOOXXXXXOO@+O.        ",
"       .oXXXXXXoooXOO@O.        ",
"      .ooXXXXooooooXo@+O.       ",
"      .oXXXoooo.ooooXo+O.       ",
"      .oXoooo.. ..oooXoO.       ",
"     .oXooo..     ..oooOO.      ",
"     .oooo.         .oooO.      ",
"     .oo..           ..oo.      ",
"     ...               ...      ",
"                                ",
"                                ",
"                                "
};
