/* XPM */
static char *_00_0011_star91697129298[] = {
/* columns rows colors chars-per-pixel */
"32 32 7 1 ",
"  c None",
". c #332E1A",
"X c #B45511",
"o c #E87515",
"O c #FFBE26",
"+ c #FFFF6B",
"@ c #FFFFD5",
/* pixels */
"                                ",
"                                ",
"              .                 ",
"             .o.                ",
"            .oo.                ",
"            .oX.                ",
"           .oX+.                ",
"           .oX+.                ",
"          .oX++@.               ",
"          .oX@O@.               ",
"          .oX+O+.               ",
"          .XX+O++......         ",
"         .oXX+OO+@@++.          ",
"         .oXXOOOO++X.           ",
"         .oXXOOO++Xo.           ",
"         .oXXOOO@Xo.            ",
"         .oXXOO+Xo.             ",
"         .oXXOO@Xo.             ",
"         .oXXOO+X.              ",
"         .ooXOO+o.              ",
"         .ooXXOO+.              ",
"         .oooXXO+.              ",
"         .oo.oXXO+.             ",
"         .ooo.oXO+.             ",
"         .ooo..oXO+.            ",
"         .ooo..ooXO.            ",
"         .oo.  .oXXO.           ",
"         .oo.   .oXO.           ",
"          ..     ....           ",
"                                ",
"                                ",
"                                "
};
