/* XPM */
static char *_00_0013_star71697129298[] = {
/* columns rows colors chars-per-pixel */
"32 32 7 1 ",
"  c None",
". c #332E1A",
"X c #B45511",
"o c #E87515",
"O c #FFBE26",
"+ c #FFFF6B",
"@ c #FFFFD5",
/* pixels */
"                                ",
"                                ",
"                 .              ",
"                .O.             ",
"                .X+.            ",
"                .XO.            ",
"                .XO+.           ",
"                .XO+.           ",
"               .ooXO@.          ",
"               .ooXO@.          ",
"               .ooXO@.          ",
"         ......XXXO++.          ",
"          .ooXOOO++O+@.         ",
"           .oXXOOOOO+@.         ",
"           .ooXXOOOOO+.         ",
"            .ooXXOOOO+.         ",
"             .ooXXOOO+.         ",
"             .ooXXOOO+.         ",
"              .oXXO+O+.         ",
"              .oXXOO++.         ",
"              .oXOOO++.         ",
"              .XXOOO++.         ",
"             .oXXOO.O+.         ",
"             .oXOO.oX+.         ",
"            .oXOO..oX+.         ",
"            .oXOO..oX+.         ",
"           .oXOO.  .X+.         ",
"           .oXO.   .oO.         ",
"           ....     ..          ",
"                                ",
"                                ",
"                                "
};
