/* XPM */
static char *playerx40[] = {
/* columns rows colors chars-per-pixel */
"40 40 191 2 ",
"   c #010101",
".  c #08080A",
"X  c #14060A",
"o  c #1E0F15",
"O  c #01151C",
"+  c #1B141A",
"@  c #070F19",
"#  c #230A0C",
"$  c #2C0D0B",
"%  c #310E0D",
"&  c #261201",
"*  c #3B1708",
"=  c #270D13",
"-  c #330E13",
";  c #231515",
":  c #3E1212",
">  c #3D1A1A",
",  c #092A1A",
"<  c #2A211B",
"1  c #2B2814",
"2  c #3E3A1D",
"3  c #021D25",
"4  c #1B1D21",
"5  c #101120",
"6  c #181B30",
"7  c #2F1E22",
"8  c #3A1C27",
"9  c #00222C",
"0  c #032626",
"q  c #012B34",
"w  c #002E3C",
"e  c #1D223B",
"r  c #003533",
"t  c #00313B",
"y  c #3C3122",
"u  c #282A30",
"i  c #2C2530",
"p  c #411311",
"a  c #481617",
"s  c #581A19",
"d  c #431B07",
"f  c #681F1B",
"g  c #5D201B",
"h  c #48361D",
"j  c #622E02",
"k  c #6F2613",
"l  c #77251C",
"z  c #723404",
"x  c #4D2022",
"c  c #493129",
"v  c #532430",
"b  c #503D32",
"n  c #652927",
"m  c #782324",
"M  c #6D3827",
"N  c #6B3C39",
"B  c #6C3339",
"V  c #00673E",
"C  c #504B25",
"Z  c #584231",
"A  c #514A25",
"S  c #62462A",
"D  c #724B2F",
"F  c #605A2C",
"G  c #61532C",
"H  c #604A3C",
"J  c #75403D",
"K  c #7B5837",
"L  c #70623A",
"P  c #003D44",
"I  c #232A48",
"U  c #283052",
"Y  c #263C41",
"T  c #004347",
"R  c #005F4E",
"E  c #004156",
"W  c #17435B",
"Q  c #006540",
"!  c #17526E",
"~  c #1B5776",
"^  c #2D4560",
"/  c #3C5A7D",
"(  c #5E5050",
")  c #4C484F",
"_  c #6B5142",
"`  c #7D5649",
"'  c #565766",
"]  c #404D75",
"[  c #45537C",
"{  c #6F636E",
"}  c #7C6E78",
"|  c #9B351C",
" . c #A1381B",
".. c #892825",
"X. c #832723",
"o. c #853939",
"O. c #87383C",
"+. c #9B2E29",
"@. c #A6322B",
"#. c #A9332B",
"$. c #C03F28",
"%. c #B24F08",
"&. c #8E473C",
"*. c #805935",
"=. c #8A593A",
"-. c #97423D",
";. c #83663D",
":. c #83743B",
">. c #D35F08",
",. c #C6540D",
"<. c #EA5D19",
"1. c #C44126",
"2. c #CC4724",
"3. c #D54A25",
"4. c #944045",
"5. c #9F4641",
"6. c #B0494F",
"7. c #B94F50",
"8. c #AF5D55",
"9. c #B9514B",
"0. c #806A48",
"q. c #9F6F42",
"w. c #806251",
"e. c #8D6854",
"r. c #8F7257",
"t. c #BC624D",
"y. c #B37B4A",
"u. c #8D7064",
"i. c #9F7B65",
"p. c #957566",
"a. c #857378",
"s. c #A97966",
"d. c #D86359",
"f. c #D77458",
"g. c #E4745F",
"h. c #D57567",
"j. c #C87263",
"k. c #EC6C61",
"l. c #EC7A62",
"z. c #F37663",
"x. c #8C8341",
"c. c #9F8546",
"v. c #928944",
"b. c #9F954A",
"n. c #BF864F",
"m. c #AF994F",
"M. c #BF9C54",
"N. c #A18A47",
"B. c #BFAC57",
"V. c #BFAF58",
"C. c #BFB359",
"Z. c #BF9379",
"A. c #C38850",
"S. c #CF9155",
"D. c #C39F55",
"F. c #DC8B5A",
"G. c #E3885D",
"H. c #C3A957",
"J. c #E7A15F",
"K. c #C3967B",
"L. c #F68565",
"P. c #F89170",
"I. c #DBB660",
"U. c #EFA762",
"Y. c #FCA167",
"T. c #FDAB68",
"R. c #FFB369",
"E. c #FFBA6B",
"W. c #F5B668",
"Q. c #FFC16C",
"!. c #EFD66C",
"~. c #FFD270",
"^. c #FFD871",
"/. c #FFE474",
"(. c #3C6E97",
"). c #5C6688",
"_. c #5B6B97",
"`. c #57709D",
"'. c #60719F",
"]. c #687291",
"[. c #69728B",
"{. c #978081",
"}. c #9D8483",
"|. c #BE998D",
" X c #818EB3",
".X c #DEAB8C",
"XX c #EFB897",
"oX c #FABD9C",
"OX c #FAA188",
"+X c #FFC4A1",
"@X c None",
/* pixels */
"@X@X@X@X@X@X@X@X@X@X@X@X@X@X@X@X@X@X@X@X@X@X@X@X@X@X@X@X@X@X@X@X@X@X@X@X@X@X@X@X",
"@X@X@X@X@X@X@X@X@X@X@X@X@X@X@X@X@X@X@X@X@X@X@X@X@X@X@X@X@X@X@X@X@X@X@X@X@X@X@X@X",
"@X@X@X@X@X@X@X@X@X@X@X@X@X@X@X@X@X@X@X@X@X@X@X@X@X@X@X@X@X@X@X@X@X@X@X@X@X@X@X@X",
"@X@X@X@X@X@X@X@X@X@X@X@X@X@X@X@X@X@X@X@X@X@X@X@X@X@X@X@X@X@X@X@X@X@X@X@X@X@X@X@X",
"@X@X@X@X@X@X@X@X@X@X@X@X@X@X@X@X@X@X@X@X@X@X@X@X@X@X@X@X@X@X@X@X@X@X@X@X@X@X@X@X",
"@X@X@X@X@X@X@X@X@X@X@X@X@X@X@X@X@X@X@X@X@X@X@X@X@X@X@X@X@X@X@X@X@X@X@X@X@X@X@X@X",
"@X@X@X@X@X@X@X@X@X@X@X@X@X@X@X@X@X1 G B.B.B.C.h @X@X@X@X@X@X@X@X@X@X@X@X@X@X@X@X",
"@X@X@X@X@X@X@X@X@X@X@X@X@X@X@X@X:.~.~.E.R.R.~.~.m.@X@X@X@X@X@X@X@X@X@X@X@X@X@X@X",
"@X@X@X@X@X@X@X@X@X@X@X@X@X@X@X*.W.T.E.^.n.n.M.W.E.v.@X@X@X@X@X@X@X@X@X@X@X@X@X@X",
"@X@X@X@X@X@X@X@X@X@X@X@X@X@X  o.l.L.D G i.u.( S A.I.2 @X@X@X@X@X@X@X@X@X@X@X@X@X",
"@X@X@X@X@X@X@X@X@X@X@X@X@X@Xc.H.G N p.( } }.|.+XH D.C @X@X@X@X@X@X@X@X@X@X@X@X@X",
"@X@X@X@X@X@X@X@X@X@X@X@X@X> G.E.0.w.&.b r.a.XXK ;.K x.@X@X@X@X@X@X@X@X@X@X@X@X@X",
"@X@X@X@X@X@X@X@X@X@X@X@X@X> l.S.e.u.( Z A K.w.M L b c.@X@X@X@X@X@X@X@X@X@X@X@X@X",
"@X@X@X@X@X@X@X@X@X@X@X@X@X@X5.&.s.{._ { .Xh.w..X_ s.q.& @X@X@X@X@X@X@X@X@X@X@X@X",
"@X@X@X@X@X@X@X@X@X@X@X@X@X@Xo.n N a.p.}.+Xh.w.+X|.s.h ,.& @X@X@X@X@X@X@X@X@X@X@X",
"@X@X@X@X@X@X@X@X@X@X@X@X@X@X@Xt.=.j.Z._ A S F L i.i.X.3.>.* @X@X@X@X@X@X@X@X@X@X",
"@X@X@X@X@X@X@X@X@X@X@X@X@X< < a g.=.y.J.R.R.E.!.C.y m #.<.z @X@X@X@X@X@X@X@X@X@X",
"@X@X@X@X@X@X@X@X@X@X@X@Xw.+X+X` d.Y.T.R.*.K n.E./.b.a #.2.<.j @X@X@X@X@X@X@X@X@X",
"@X@X@X@X@X@X@X@X@X@X@X< XX+X+Xi.-.k.T.R.F.f.U.R.^.:.p +.#.1.%.@X@X@X@X@X@X@X@X@X",
"@X@X@X@X@X@X@X@X@X@X@X< +X+XOX.XN o.g.Y.R.R.R.R.^.: % m #.#.3.d @X@X@X@X@X@X@X@X",
"@X@X@X@X@X@X@X@X@X@X@X< +Xs.7.+Xe.> 6.9.Y.L.S.W.F #.s = m a # @X@X@X@X@X@X@X@X@X",
"@X@X@X@X@X@X@X@X@X@X@Xg c . 4.oXoXZ.J a k.z.K c.M @.s   X -   @X@X@X@X@X@X@X@X@X",
"@X@X@X@X@X@X@X@X@X@X@Xm = @XO.P.+X+X.Xw.O.d.n k ..s , @XX X.  @X@X@X@X@X@X@X@X@X",
"@X@X@X@X@X@X@X@X$ $   | a @X` 4.8.Z.c o . a ..a = 3 V @X$ 1.  @X@X@X@X@X@X@X@X@X",
"@X@X@X@X@X@X@X@X: p p  .s p         7 U P 7 o 3 q P Q @X% 2.  @X@X@X@X@X@X@X@X@X",
"@X@X@X@X@X@X@X@X@X@X  k p # f k f f 5 ] (.3 w w w P Q @X$ l @X@X@X@X@X@X@X@X@X@X",
"@X@X@X@X@X@X@X@X@X@X@X@X@X@X0 9 9 9 @ U (.9 w w w P Q @X@X@X@X@X@X@X@X@X@X@X@X@X",
"@X@X@X@X@X@X@X@X@X@X@X@X@X@Xr w w P 9 6 (.3 w w w P Q @X@X@X@X@X@X@X@X@X@X@X@X@X",
"@X@X@X@X@X@X@X@X@X@X@X@X@X@Xq P w w 3 I ^ . 3 P w E Q @X@X@X@X@X@X@X@X@X@X@X@X@X",
"@X@X@X@X@X@X@X@X@X@X@X@X@Xi Y 3 w . 5 / P @X. 3 w Q V @X@X@X@X@X@X@X@X@X@X@X@X@X",
"@X@X@X@X@X@X@X@X@X@X@X@X@Xu ).e 5 U [ '.! @ @X. r = = @X@X@X@X@X@X@X@X@X@X@X@X@X",
"@X@X@X@X@X@X@X@X@X@X@X@X@X@X' _.).).'.'._.~ P @Xo B v @X@X@X@X@X@X@X@X@X@X@X@X@X",
"@X@X@X@X@X@X@X@X@X@X@X@X@X@XX i ' [. X X X X) @X  8 X @X@X@X@X@X@X@X@X@X@X@X@X@X",
"@X@X@X@X@X@X@X@X@X@X@X@X@X@X    @X@X4 4 4 4 @X@X@X. @X@X@X@X@X@X@X@X@X@X@X@X@X@X",
"@X@X@X@X@X@X@X@X@X@X@X@X@X@X@X@X@X@X@X@X@X@X@X@X@X@X@X@X@X@X@X@X@X@X@X@X@X@X@X@X",
"@X@X@X@X@X@X@X@X@X@X@X@X@X@X@X@X@X@X@X@X@X@X@X@X@X@X@X@X@X@X@X@X@X@X@X@X@X@X@X@X",
"@X@X@X@X@X@X@X@X@X@X@X@X@X@X@X@X@X@X@X@X@X@X@X@X@X@X@X@X@X@X@X@X@X@X@X@X@X@X@X@X",
"@X@X@X@X@X@X@X@X@X@X@X@X@X@X@X@X@X@X@X@X@X@X@X@X@X@X@X@X@X@X@X@X@X@X@X@X@X@X@X@X",
"@X@X@X@X@X@X@X@X@X@X@X@X@X@X@X@X@X@X@X@X@X@X@X@X@X@X@X@X@X@X@X@X@X@X@X@X@X@X@X@X",
"@X@X@X@X@X@X@X@X@X@X@X@X@X@X@X@X@X@X@X@X@X@X@X@X@X@X@X@X@X@X@X@X@X@X@X@X@X@X@X@X"
};
