/* XPM */
static char *playerx48[] = {
/* columns rows colors chars-per-pixel */
"48 48 178 2 ",
"   c #000000",
".  c #0D0505",
"X  c #020809",
"o  c #1C0A0C",
"O  c #13090B",
"+  c #080911",
"@  c #190B14",
"#  c #01161D",
"$  c #03151A",
"%  c #230A0D",
"&  c #2A0D0B",
"*  c #240C14",
"=  c #320E12",
"-  c #2B1116",
";  c #3B1A18",
":  c #381415",
">  c #2C130E",
",  c #002012",
"<  c #00201E",
"1  c #3F281A",
"2  c #372217",
"3  c #38351A",
"4  c #051923",
"5  c #131627",
"6  c #01232C",
"7  c #1E2025",
"8  c #002E3C",
"9  c #1B253B",
"0  c #1E3034",
"q  c #003A3A",
"w  c #21222E",
"e  c #312C31",
"r  c #3B2D25",
"t  c #401E01",
"y  c #481513",
"u  c #4C151A",
"i  c #4D1D1A",
"p  c #541916",
"a  c #5A1B18",
"s  c #661E1D",
"d  c #402D1A",
"f  c #403A1D",
"g  c #40341C",
"h  c #5F311F",
"j  c #552802",
"k  c #60220F",
"l  c #702812",
"z  c #713008",
"x  c #401C25",
"c  c #4F2025",
"v  c #582527",
"b  c #403128",
"n  c #592F33",
"m  c #652D2C",
"M  c #7C2521",
"N  c #752223",
"B  c #672C3B",
"V  c #773734",
"C  c #00403D",
"Z  c #004A2D",
"A  c #555027",
"S  c #604E2A",
"D  c #604839",
"F  c #7C4733",
"G  c #6D6633",
"H  c #756032",
"J  c #003445",
"K  c #003942",
"L  c #232B49",
"P  c #293254",
"I  c #393141",
"U  c #005D4F",
"Y  c #004649",
"T  c #006A4C",
"R  c #007A47",
"E  c #004E67",
"W  c #15506C",
"Q  c #125673",
"!  c #24516F",
"~  c #464855",
"^  c #6D5445",
"/  c #765245",
"(  c #7E5749",
")  c #7C4C41",
"_  c #47547A",
"`  c #4A4D6C",
"'  c #625D70",
"]  c #615268",
"[  c #7A6C74",
"{  c #91331C",
"}  c #8F2A28",
"|  c #962D28",
" . c #A6322B",
".. c #A03227",
"X. c #B93B29",
"o. c #C03F28",
"O. c #9F4A03",
"+. c #BF5904",
"@. c #805935",
"#. c #805B3C",
"$. c #98473E",
"%. c #806136",
"&. c #80783B",
"*. c #CE590D",
"=. c #E5561E",
"-. c #F76D0D",
";. c #C44226",
":. c #D54A25",
">. c #953E43",
",. c #98474A",
"<. c #985340",
"1. c #A04446",
"2. c #B5504A",
"3. c #80674B",
"4. c #9E6941",
"5. c #806251",
"6. c #85695D",
"7. c #9E6F5D",
"8. c #BD784D",
"9. c #9F7A64",
"0. c #917875",
"q. c #BA7161",
"w. c #C35453",
"e. c #D55B5B",
"r. c #C76651",
"t. c #DE675F",
"y. c #E3625F",
"u. c #E37260",
"i. c #E6736B",
"p. c #F47B64",
"a. c #F37363",
"s. c #EE6861",
"d. c #9D8C47",
"f. c #978D47",
"g. c #BA8151",
"h. c #BFA556",
"j. c #BFB359",
"k. c #BF9379",
"l. c #A78073",
"z. c #CF9155",
"x. c #DE975B",
"c. c #CFA059",
"v. c #CFB75D",
"b. c #CE9A7F",
"n. c #F88D65",
"m. c #F89466",
"M. c #F7917E",
"N. c #DFBA62",
"B. c #FCA067",
"V. c #FDAB69",
"C. c #FCA568",
"Z. c #EFBE67",
"A. c #FFB269",
"S. c #FFBC6B",
"D. c #FFC16C",
"F. c #FFC96E",
"G. c #FFD270",
"H. c #FFD871",
"J. c #FFE073",
"K. c #FFEF76",
"L. c #4B5A84",
"P. c #5A6585",
"I. c #486F9A",
"U. c #54709C",
"Y. c #60719F",
"T. c #7A8095",
"R. c #978081",
"E. c #B19189",
"W. c #929DBC",
"Q. c #CF9F83",
"!. c #F89782",
"~. c #DFAC8D",
"^. c #D1A693",
"/. c #EFB897",
"(. c #F8BD9D",
"). c #F0A88E",
"_. c #FFC4A1",
"`. c None",
/* pixels */
"`.`.`.`.`.`.`.`.`.`.`.`.`.`.`.`.`.`.`.`.`.`.`.`.`.`.`.`.`.`.`.`.`.`.`.`.`.`.`.`.`.`.`.`.`.`.`.`.",
"`.`.`.`.`.`.`.`.`.`.`.`.`.`.`.`.`.`.`.`.`.`.`.`.`.`.`.`.`.`.`.`.`.`.`.`.`.`.`.`.`.`.`.`.`.`.`.`.",
"`.`.`.`.`.`.`.`.`.`.`.`.`.`.`.`.`.`.`.`.`.`.`.`.`.`.`.`.`.`.`.`.`.`.`.`.`.`.`.`.`.`.`.`.`.`.`.`.",
"`.`.`.`.`.`.`.`.`.`.`.`.`.`.`.`.`.`.`.`.`.`.`.`.`.`.`.`.`.`.`.`.`.`.`.`.`.`.`.`.`.`.`.`.`.`.`.`.",
"`.`.`.`.`.`.`.`.`.`.`.`.`.`.`.`.`.`.`.`.`.`.`.`.`.`.`.`.`.`.`.`.`.`.`.`.`.`.`.`.`.`.`.`.`.`.`.`.",
"`.`.`.`.`.`.`.`.`.`.`.`.`.`.`.`.`.`.`.`.`.`.`.`.`.`.`.`.`.`.`.`.`.`.`.`.`.`.`.`.`.`.`.`.`.`.`.`.",
"`.`.`.`.`.`.`.`.`.`.`.`.`.`.`.`.`.`.`.`.`.`.`.`.`.`.`.`.`.`.`.`.`.`.`.`.`.`.`.`.`.`.`.`.`.`.`.`.",
"`.`.`.`.`.`.`.`.`.`.`.`.`.`.`.`.`.`.`.`.`.`.A &.&.&.&.G `.`.`.`.`.`.`.`.`.`.`.`.`.`.`.`.`.`.`.`.",
"`.`.`.`.`.`.`.`.`.`.`.`.`.`.`.`.`.`.`.`.f.j.N.D.D.D.J.Z.v.3 `.`.`.`.`.`.`.`.`.`.`.`.`.`.`.`.`.`.",
"`.`.`.`.`.`.`.`.`.`.`.`.`.`.`.`.`.`.`.d.S.A.F.F.A.A.A.H.A.G.3 `.`.`.`.`.`.`.`.`.`.`.`.`.`.`.`.`.",
"`.`.`.`.`.`.`.`.`.`.`.`.`.`.`.`.`.`.<.V.A.A.A.J.@.@.@.d.A.A.v.`.`.`.`.`.`.`.`.`.`.`.`.`.`.`.`.`.",
"`.`.`.`.`.`.`.`.`.`.`.`.`.`.`.`.`.  v t.n.r.d 3 k.k.~ 9.1 z.Z.G `.`.`.`.`.`.`.`.`.`.`.`.`.`.`.`.",
"`.`.`.`.`.`.`.`.`.`.`.`.`.`.`.`.`.c.v.3 V ^ k.` ' R.[ _._.b c.3.`.`.`.`.`.`.`.`.`.`.`.`.`.`.`.`.",
"`.`.`.`.`.`.`.`.`.`.`.`.`.`.`.`.c x.D.h.( ( F e l.l.^.~.( H &.&.3 `.`.`.`.`.`.`.`.`.`.`.`.`.`.`.",
"`.`.`.`.`.`.`.`.`.`.`.`.`.`.`.`.V B.A.H k.. d &.f.[ (.n g.S 2 G f `.`.`.`.`.`.`.`.`.`.`.`.`.`.`.",
"`.`.`.`.`.`.`.`.`.`.`.`.`.`.`.`.c t.r.5.^.0.9.w 3 7.b.b b 9.b.%.d `.`.`.`.`.`.`.`.`.`.`.`.`.`.`.",
"`.`.`.`.`.`.`.`.`.`.`.`.`.`.`.`.`.2.,.F ] b.( ' (.M.; _._.b k.@.3 z `.`.`.`.`.`.`.`.`.`.`.`.`.`.",
"`.`.`.`.`.`.`.`.`.`.`.`.`.`.`.`.`.,.c V l.[ l.E._.M.; _._.Q.k.> { *.`.`.`.`.`.`.`.`.`.`.`.`.`.`.",
"`.`.`.`.`.`.`.`.`.`.`.`.`.`.`.`.`.  r.4.$./.b.D 3 1 f f ( b.k.d ;.=.O.`.`.`.`.`.`.`.`.`.`.`.`.`.",
"`.`.`.`.`.`.`.`.`.`.`.`.`.`.`.`.`.`.: u.$.V H x.Z.A.F.H.j.&.D p  .=.-.t `.`.`.`.`.`.`.`.`.`.`.`.",
"`.`.`.`.`.`.`.`.`.`.`.`.`.`.  k.b.k.: s.B.z.A.A.A.A.A.A.H.K.f.& | o.=.*.  `.`.`.`.`.`.`.`.`.`.`.",
"`.`.`.`.`.`.`.`.`.`.`.`.`.`.r _._.(.k.V m.p.A.A.1 ; 1 A.A.J.j.% }  .X.:.+.`.`.`.`.`.`.`.`.`.`.`.",
"`.`.`.`.`.`.`.`.`.`.`.`.`.`.k._._._.k.v t.u.V.A.V.n.C.A.A.J.H : s  . .o.*.j `.`.`.`.`.`.`.`.`.`.",
"`.`.`.`.`.`.`.`.`.`.`.`.`.`.k._._.M././ >.m m.n.A.A.A.A.A.J.& p :  . . .;.l `.`.`.`.`.`.`.`.`.`.",
"`.`.`.`.`.`.`.`.`.`.`.`.`.`.k./.q.w._.9.V - e.w.C.n.C.z.G.3  .s = i } u = `.`.`.`.`.`.`.`.`.`.`.",
"`.`.`.`.`.`.`.`.`.`.`.`.`.: / ^   2._._.9./ ,.: a.p.C.3 c.h  .} o . % %   `.`.`.`.`.`.`.`.`.`.`.",
"`.`.`.`.`.`.`.`.`.`.`.`.`.p p   `.2.!._._./.^ . e.s.p.O h ..| :   `.o N   `.`.`.`.`.`.`.`.`.`.`.",
"`.`.`.`.`.`.`.`.`.`.`.`.`.a N   `.,.i.).(./.k.b.% ,.p ..} u - Z $ `.= ..  `.`.`.`.`.`.`.`.`.`.`.",
"`.`.`.`.`.`.`.`.`.% p p   l X.  `.^ n m ( / &     & } y % $ 6 T , `.p :.  `.`.`.`.`.`.`.`.`.`.`.",
"`.`.`.`.`.`.`.`.`.`.& & a l X.o u         . e W E 9 & 6 6 8 q T , `.p :.  `.`.`.`.`.`.`.`.`.`.`.",
"`.`.`.`.`.`.`.`.`.`.`.`.  k }   y M } N M a 5 L.I.K 6 8 8 8 K T , `.y ..  `.`.`.`.`.`.`.`.`.`.`.",
"`.`.`.`.`.`.`.`.`.`.`.`.`.`.`.`.`.< # # # $ 5 P I.J 6 8 8 8 K T , `.`.`.`.`.`.`.`.`.`.`.`.`.`.`.",
"`.`.`.`.`.`.`.`.`.`.`.`.`.`.`.`.`.C 8 8 8 8 4 L I.J 6 8 8 8 K T $ `.`.`.`.`.`.`.`.`.`.`.`.`.`.`.",
"`.`.`.`.`.`.`.`.`.`.`.`.`.`.`.`.`.C 8 8 8 8 # L _ X 4 8 8 8 K T , `.`.`.`.`.`.`.`.`.`.`.`.`.`.`.",
"`.`.`.`.`.`.`.`.`.`.`.`.`.`.`.`.`.q 8 J 8 6 $ L !   X 6 J 8 Y T , `.`.`.`.`.`.`.`.`.`.`.`.`.`.`.",
"`.`.`.`.`.`.`.`.`.`.`.`.`.`.`.`.~ 0 # K # + L L.E `.`.+ 4 8 U R , `.`.`.`.`.`.`.`.`.`.`.`.`.`.`.",
"`.`.`.`.`.`.`.`.`.`.`.`.`.`.`.`.~ P.9 + 9 P L.Y.Q # `.`.$ q @ @ X `.`.`.`.`.`.`.`.`.`.`.`.`.`.`.",
"`.`.`.`.`.`.`.`.`.`.`.`.`.`.`.`.`.T.P.` _ L.Y.Y.U.W J `.X @ B B o `.`.`.`.`.`.`.`.`.`.`.`.`.`.`.",
"`.`.`.`.`.`.`.`.`.`.`.`.`.`.`.`.`.7 ~ W.W.Y.Y.Y.Y.U.I.  `.O n x `.`.`.`.`.`.`.`.`.`.`.`.`.`.`.`.",
"`.`.`.`.`.`.`.`.`.`.`.`.`.`.`.`.`.@ @ . . Y.T.T.T.T.T.  `.  @ O `.`.`.`.`.`.`.`.`.`.`.`.`.`.`.`.",
"`.`.`.`.`.`.`.`.`.`.`.`.`.`.`.`.`.`.`.`.`.`.`.`.`.`.`.`.`.`.`.`.`.`.`.`.`.`.`.`.`.`.`.`.`.`.`.`.",
"`.`.`.`.`.`.`.`.`.`.`.`.`.`.`.`.`.`.`.`.`.`.`.`.`.`.`.`.`.`.`.`.`.`.`.`.`.`.`.`.`.`.`.`.`.`.`.`.",
"`.`.`.`.`.`.`.`.`.`.`.`.`.`.`.`.`.`.`.`.`.`.`.`.`.`.`.`.`.`.`.`.`.`.`.`.`.`.`.`.`.`.`.`.`.`.`.`.",
"`.`.`.`.`.`.`.`.`.`.`.`.`.`.`.`.`.`.`.`.`.`.`.`.`.`.`.`.`.`.`.`.`.`.`.`.`.`.`.`.`.`.`.`.`.`.`.`.",
"`.`.`.`.`.`.`.`.`.`.`.`.`.`.`.`.`.`.`.`.`.`.`.`.`.`.`.`.`.`.`.`.`.`.`.`.`.`.`.`.`.`.`.`.`.`.`.`.",
"`.`.`.`.`.`.`.`.`.`.`.`.`.`.`.`.`.`.`.`.`.`.`.`.`.`.`.`.`.`.`.`.`.`.`.`.`.`.`.`.`.`.`.`.`.`.`.`.",
"`.`.`.`.`.`.`.`.`.`.`.`.`.`.`.`.`.`.`.`.`.`.`.`.`.`.`.`.`.`.`.`.`.`.`.`.`.`.`.`.`.`.`.`.`.`.`.`.",
"`.`.`.`.`.`.`.`.`.`.`.`.`.`.`.`.`.`.`.`.`.`.`.`.`.`.`.`.`.`.`.`.`.`.`.`.`.`.`.`.`.`.`.`.`.`.`.`."
};
