/* XPM */
static char *background64_1[] = {
/* columns rows colors chars-per-pixel */
"64 64 34 1 ",
"  c #0B0B0B",
". c #120F0F",
"X c #12100F",
"o c #0F0D10",
"O c #120F10",
"+ c #151111",
"@ c #1A1515",
"# c #1D1817",
"$ c #1D1718",
"% c #1E1918",
"& c #221B1A",
"* c #26201F",
"= c #28211F",
"- c #262120",
"; c #2B2523",
": c #2F2826",
"> c #302A27",
", c #322C29",
"< c #382F2F",
"1 c #36302D",
"2 c #38302F",
"3 c #3D3433",
"4 c #3E3935",
"5 c #413736",
"6 c #423837",
"7 c #423D39",
"8 c #46423D",
"9 c #48443F",
"0 c #4A4641",
"q c #4E4B46",
"w c #504C47",
"e c #514E48",
"r c #55524C",
"t c None",
/* pixels */
"tttt          tttt        tttt              tt              tttt",
"ttttoXXX+X+++@ttttXX+X@Xo+ttttXXXX+XX@@X@+X+ttooX+++XXXX@XX@tttt",
"tt .:,48eeeeeq@  o;1eeeeee&   ->47weeeeeweeq# ;,qeew4748eeee# tt",
"ttX@1289rrrreq%X+$14rrrree-+XX>189rreeeerrrw-+>1qeew7780rree-#tt",
" o:178rrrrrr971,40errrrq8777>>48erre8770rr977777777778rrrr8744X ",
" o=>47werrrr41::44qerrrq44441>48werw1447wq744444444147werr7444o ",
"  &*:179rrrr;&&&:,40rrr0>>1>>17778r0%->1771>,,,,>>&->178rr4:>:  ",
"  %*>178rrwq;&&&;:44qwe7;;--;;1477w8&-;,44>;;;----#%;>47qq1;--X ",
"  %&:140rr87*&&&&&:<6772&&+o$&;:4774&&%*>,*&&&. ooo+&*>177=&  tt",
" o%->178rr87*&&&&&:<777<&&+o$&:57744&&&*,>*&&&X.ooo+%*>177;&  tt",
"ttoo@-148741%XX+&&:<74<;++.o++&=111,*%++@@++@+XXXXoX+@**;;#+X tt",
"tt  oX>1771;@ooX&&:<64>-oo...+$&:>,;%%XXXXXXXXXXXXoXoX&%%&@X  tt",
"tt  o@--11%+XXooO+&=<;++++O+...+&--%X++X+ *;;;:=+XXXXXX%>>;*X tt",
"tt  o@%->>@XXXXooO&&:=O+++++....%&&%XXXX++;>>>,:+++XXXo%,,,>+ tt",
"tt  oo++XX++++XXoO+O++++++++++=;:;++X+X@%%&*:>,>:;++XX#->,,,;;X ",
"tt  oooooo++++XXoOOOO+++++++++:,,;%+++X@&&&&:>,,,>++X+&*,>,,1,X ",
"tt  XXXX..++..&@O...+@&&++++@&:,,,:&.+$&&&&&;:5542++%&&*>>3553. ",
"tt  XX+++@@@O.%&@+..+@&@++++&&:>,,,=++&&&&&&:;553,++%&**,155<<. ",
"  XXX@&*::::@OO+:;........$&&&:;5555.+&&&&;:5555$+XXX@:15555&+  ",
"  XX.+&&::,>&@OO-;@@@@@@..$$&&,5555:++$&=&:,555,++oXo@;:111<#.  ",
"  .+.+&&&&>,::@+++>,:>>&....=,5555.....&,,5555+++O+XXo++++@+O+  ",
"  ...X#&&&,<<>@++@;,>>,;....:,555;+....+=;;55,@.@@@@@@@@++++..  ",
"tt  ++.@<,5555@+&&&&,,,&++.+5555@++++......+++.+:,>>>>1-++++  tt",
"tt    o@&&<5<:++&&&=<<<:++.+=:,;++#&#&@#++++++++:,,>>>>;&&@+  tt",
"tttt  ...o,6&...&&>,555:+.+++++..+:5;:,;&&++..&&>>,>,,,>::@+  tt",
"tttt  .. +,5&+..&&>1556<..+.++..+@::::,;&&@+..&&>,>,>:,,>>&+  tt",
"tttt  XXOO%&@+OO=>25555>++++..@&=;::,,,=++@&++&&&=>,,>>,>>:;+.. ",
"tttt .XXO+OO++O+>,55555;++++..&&::5;,,,=..&&+.&&&&:,>,,,>>>>&+  ",
"tt  .@;;:;;;#...+&555<&&+.+.$$&&&&::5:+@++++..&&&&&=>>,>,>>>@+  ",
"tt  X@,>,,,,&+...+255,++++.+$&&&&&5:55++++++ .&&&&&=>;,,,>>;@.  ",
"tt  %&>,>,>>;;++O+@@@+++..$$&&:=:::555.@:;;:@OX+&&:,55555555&+  ",
"tt .&*>>,>,>>>#+++++++++..$&&&,5:5555:.&,,,,#+.+&&><5555555<@.  ",
" .@&&&&=,,,:,;++++:::=+++++O;>3555@@+@#=>,55+++@=<55555555&@. tt",
" .&&&&&=,,,;5,@+++::,;@+++OO-><35;@..@&=,,<5@++@=,<55555<<@.  tt",
"  &&&&:,555555@.&&&=,:;&++++++OO..++.@:555&+++++++.@555<++. tttt",
"  &&&;,,55555;@.$$&&:55=++++++@++++.+@=;<<&+++@@@@.@<<5=++..tttt",
"  .+:5555555&...+@:,555,+++.O+;,>;++&&..+++.++;>,;++++++..... tt",
"  .+=:55555<&+++.+:555,=++@@$&;,,>$$&+..+++@@$;,,;&$+++@@@##&.tt",
"tt  +$5555@.&&++O@5555++.+;>>>>,,>,;..+..+&&;,,,,,,;+++@>>,>>>. ",
"tt  +@,,,,@+@#++++>:,;+++@&;>,,>>,>;++++..$&=;>>,,>=+++&;:>,,,. ",
"tt  ...++++.++++++++++.+&&&&;:>,,>,;+++++.$&&&>,,>,:O+&&&&;,53. ",
"tt ....++++..+++++++++.@&&&&;>,,>,,;++++++$&&&>,>,,-OO&&&&:,35. ",
"tttt .+.++&=====++$$++.+&&&&==:,555,+++@$$&&;;<<3<&#%@O%;:12&&  ",
"tttt  ++++;,,,5=++&$++.@&&&&&&:,5555++++&&&&;>555<++&%.#>>45#.  ",
"tt  ...&=;,>,,,>;=@@++.+&&&&;:<5555<++O+&&;>5555&&O+++.+&@#&. tt",
"tt  ...+,,,,>>,><;++++.+&&&&:,56555<+.O+&&;>5555@O+++.++++.+  tt",
"tt  ..&&&&;,,,>,,>;;++++OO=,<55555++++++..,555$@++.@;:;:;;#O  tt",
"tt ..+&&&&:,,:,>,>,;++++OO=;56565,..++++..>55,++++.@>,,,>,&+  tt",
"  .+&&&&&&::,>,>,,>;.+&+.+++<66655@+.+&&++@@@@++++&&>,,,,,::. tt",
"  ++&&&&@&::>,>,>,,;++&&++..,<<35,++..&&@@@@@@++.+&&:;;>,>,>+.tt",
" .&&&&&&&&&&:,,>,,,;++++..++OO++++...&>>::>>>;++.+&&&&&;>,>>::. ",
"  &&&&&&&&&&>,<,,,<;++++@@+&.....+++.@,>>:,>>>&@+ &&&&&;,><,,,  ",
"  &&&&&&&&;>5555555<++&*:>>>&.++.+&&&;,>>><>,>,:++.O&&&&,,3554O ",
"  #%&&&&=&,<555555<;X+&*;;>>&&++.+#&&&::>>>>>,>:++.+&&&;,,3564. ",
"   +&&&=,>26555555@+.+&&&&:,;:@+..&&&&&&,:>>:>,>@+.+&&,<655544O ",
"   +&&#&>,255555,:++X+@%&=,<<>@+@+&&&&&;<<<<<<;&++..@&<<555553. ",
"tt  &&&-,,265555@.....o$,>3555#O&&&&&&,5555555@.+...O%55555553O ",
"tt  %&&->,555552@+....o@>,3555+O#&&&&=:,555553&O....o%55565553O ",
"tt  +@;,526655&&+....  .@@<553@O&&&&::55555555+.. ..OO&:5555*&  ",
"tt  o$:<555555+.....    oO,553@O#&&&:,55555553@.  ..OOO&5555$.  ",
"tttt  @-5554&@.     tttt  +%##  ++;>55554554%+  tt    ++&&#&. tt",
"tttt  o%4333@.      tttt   O..  .+:>55554343+   tt    ...O.O  tt",
"tttttt  OOXX  tttttttttttt    tt   ...  oo++tttttttttt      tttt",
"tttttt        tttttttttttt    tt            tttttttttt      tttt"
};
