/* XPM */
static char *lava_tile51697129295[] = {
/* columns rows colors chars-per-pixel */
"64 64 18 1 ",
"  c None",
". c #2A271B",
"X c #343124",
"o c #3C3A2F",
"O c #46412F",
"+ c #554F3A",
"@ c #6A6349",
"# c #756D4C",
"$ c #CB1C02",
"% c #F43308",
"& c #FB5203",
"* c #FF8400",
"= c #FFE22E",
"- c #928967",
"; c #968D69",
": c #D0C086",
"> c #D6C88E",
", c #F8ECBF",
/* pixels */
"                                                                ",
"                                                                ",
"                                                                ",
"                                                                ",
"                                                                ",
"                                                                ",
"                                                                ",
"                                                                ",
"                                                                ",
"                                                                ",
"                                                                ",
"                                                                ",
"                                                                ",
"  oo                                                            ",
" o:#ooo                                                         ",
"o::#o,:o                                                        ",
"o::#o:,-oo                                                      ",
"o:-#+o::-#o                                                     ",
"o:--#+o:-##o=*===           ====           ====                 ",
"o:--#+o:--#o&*&%$==        =&*&&=       *==%$$$=     ===*       ",
"o:--#+o:--##o*&%$%&**=======%&***==   ==*&&%%$$$=   *&%&*=====  ",
"o:--##o:---##o&%%&*&&%%%%%$$%%&&&*&===%&**&&%%$$$===*&%&*&%%%%=*",
"o::--#+o:--##+o%&*&&%%%$=$$$$$%%%*&&&%%&*&**&%%$$%&*&%%&*&%%%&*&",
"o::--#+o:--##+o&&*&%=%$$$$$%%%=%%&***&&*&&&&*&%%%&&*%%=&*=%%&&*&",
"o,:--##o:---##+o&&*&%%$$%%&&&&&%&*&&&**&%%%%&*&%&&*&%%%&*&&&&&*&",
"o,::-##o::--##++o&*&%$$$%&****&&**&%%&&%%%=%%&*&&*&%%$%&*&&***&%",
"o,::--#+o:--###++o*&%%%=&*&&&&**&&*&%%%=%%$%%%*&*&%%$$%%&**&&&%$",
"o,::--##o:--###++o**&&%%%&*&%%%%%&*&%%$%$$$$%%&*&&%$$$$%&&*&&%%$",
" o::--##o:-####++o&&**&%%&*&%%%%%%&*&%%$$$$$%%&*&%%$$$$$%&*&&%%$",
" o::--##+o:###++o%%&&&*&%*&%=$$$%%%&*&%$$$$$$%&*&%=$$$$$%&*&&=%$",
"  o::-##+o-###+oO.%%%&&*&*&%$$$$%%%&*&%$$=$$$%&*&%$$$$$$$%&*&%%$",
"   o:###++o##++oOO.%%%%&*&%%$$$%=%&&*&%$$$$$%%&*&%%$$$$$$%&*&%%%",
"   o:###++o+++o;OOX.%=%&*&%$$$$%%&&*&%%$$$$%%&*&&%%$$$$$%%&*%%%%",
"    o###+++ooo;@OXX..%%%&*&%$%%&&**&%%%$$$%%%&**&&%%$$=$%&*&%%%&",
"     o#+++o;;;@OOX.;;.$%&*&%%%%&*&&%%$$$$%%&&*&&**&%%$%%&&*&%%&&",
"      o++o;>;@@OOX.;;;..&&*&=%&*&%%$$$$$%%&**&%%&&*&%%&&**&%%%&&",
"       oo;>;@@@OOXX.@>>;.&*&%%&*&%$$=$$%%&*&&%%%%%&*&&**&&$%%&&*",
"        .;>@@@@OOXX.O@;>;.*&%%&*&%%$$$%%%&*&%%$$%%%&**&&&%$%&&*&",
"        .;>@@@OOXXX.OO@;>.&%%$&&*&%$$%%&&&*&%%=$$%%&*&&%%$%%&&*&",
"        .;;@@OOOXX.;.O@@;;.%$=%&*&%%%&&****&%%$$$%%&*&&%$=%&&*&%",
"         .;@@OOOX.;>.OO@@;.%...&**&%&**&&&*&&%%$$$%&*&%$$%%&*&&%",
"         .@@OOOXX.>;;.OO@@O.;;;..&*&*&&%%%&*&&%%$$%&*&%$$%&&*&%$",
"          .OOOOX.>;;@@.OO@O.;>;;;..*&%%%%%%&**&%$=%&*&%$$%&&*&%$",
"           .XOOX.>;@@O.OOOOX.>;;;;;.%%=$$$%%&*&%%$%&*&&$$%&&*&%$",
"            .XXX.;@@@OX.OOOX.;>;;;;;.$$$$%%%%&*&%$%&*&&&%%&&*&%$",
"             .XX.O@@@OOX.OOO.;;;@@;;;..&%%%%&*&%%$%%&**&%%%&*&=$",
"              .X.OO@@OOXX.OOX.;;@@@@;;O.&&&&&*&%%$$%%&&*&%&&*%%$",
"               ..XOOOOOXX.OOO.;;@@@@@@OO.****&%%$$$$%%&*&&&*&%%$",
"                ..XXOOOX.;..OX.;;@@@@@OOX.&&&%%%$$$$=%%&***&%%%%",
"                  .XXOXX.;>;.OX.;@@@@@OOX....$$$$$$$%%%&*&&%%%%&",
"                   .XXXX.;;>>.O.;;@@@@OOX.>>>..=%$$%%%&*&&%%%&**",
"                    ..XX.;@@@@.O.;@@@@OOX.;;;>>..%%%&&&*&=%%&*&&",
"                      ...O@@@@@OX.@@@@OOXX.;@;;;>...****&%%&*&&%",
"                        .XOO@@OOX.;@@OOOOXX.@@@;;;;;..&*&&%&*&%%",
"                        .XXXOOOOOX.O@OOOOXX.O@@@@@;OOO.&..&&*%%%",
"                         ..XXOOOOXX.OOOOOOXX.O@@@@@OOXX.;;..&%$%",
"                           ..XXOOOXX.OOOOOXX.OOOO@OOX..;;>;;....",
"                             ...XXXXX.XOOOOXX.OOOOOX.@O.@;>>;;;;",
"                                ...XX.XXOOOXXX.OOOX.OO@O.@@@@@@@",
"                                   .. .XXXOOXXX..XX.OOO@.OOO@@@@",
"                                       ..XXXXXXXX.X.XXOOO.XOOOOO",
"                                         ........ . ..XXXX.XOOOX",
"                                                      ......XXXX",
"                                                            ...."
};
