/* XPM */
static char *lava_tile111697129296[] = {
/* columns rows colors chars-per-pixel */
"64 64 18 1 ",
"  c None",
". c #29271B",
"X c #343124",
"o c #3C3A2F",
"O c #46412F",
"+ c #554F3A",
"@ c #6A6349",
"# c #756D4C",
"$ c #CB1C02",
"% c #F43308",
"& c #FB5203",
"* c #FF8400",
"= c #FFE22E",
"- c #928967",
"; c #968D69",
": c #D0C086",
"> c #D6C88E",
", c #F8ECBF",
/* pixels */
"                                                                ",
"                                                                ",
"                                                                ",
"                                                                ",
"                                                                ",
"                                                                ",
"                                                                ",
"                                                                ",
"                                                                ",
"                                                                ",
"                                                                ",
"                                                                ",
"                                                                ",
" ooooo                                                    oooo  ",
"o::::#o                                                  o:,:#o ",
"o-:--##o                                                o:,:-#o ",
"o#-:-##o                        ===                     o:,:-#+o",
"o+#-:-##o             ====     =&%$==         =======  oo::-##+o",
" o+#--##o           ==$$$$=====&*&%%$=========%&*&%$$=o#o::-##+o",
" oo+#-##+o===    ===$$$$%%%%$$%%&*&%%$$%&*&&*&&&*&%%%&o#o:--##+o",
" o:o+###+o&&*=====$$$%%&&&&%%%%%%&*&%$%&*&%&&***&*&%&o:#o:--#++o",
" o::o+##++o&*&%%$$$%%&&****&&&%%&**&%=%&*&%%%&&&&&*&*o:#o:-##+o ",
" o,::o+#++o*&%%$$$%%&**&&&&***&&*&&*&$%&*&%$$$$%%%&**o:#o:-##+o ",
" o::::o+#+o*&%$$$$%&*&&%%%%&&&**&%&*&%%&*&%%$$$$$%&&*o:#o:-#++o ",
" o:--:o++++o&%$$$%&*&%%%%=%%%&&&%%&*&%%%&*&%%%$$$$%&o:-o:-##++o ",
" o:---:o+++o&%%$%&*&%%%$$$%%%%%%%%%&*&%%%&*&&%%$$$%&o,#o:-##+o  ",
" o##---:o++o*&%%%&*&%%$$$$$$$$$=%$%%&*&%%%&**&&&$$%o::#o-##++o  ",
" o+##---#o+o&*&&%*&%%$$$$$$$$$$$$$$%%&*&=%&*&***&$%o:-+o-#++o   ",
"  o++##-#+o@o&*&&*&%%$$$$$$$$$$$$$$$%&*&%%&*&&&&*&%o:-+o##++o   ",
"   oo+###++o;.&***&&%%$$$$$$$$$$$$$%%&*&%&*&%%%&&*o:-#+o#++o    ",
"   .@o+#+++o;@..&&**&%%$$$%%%%%%$$=%&*&%&*&%%=%%&*o-#++o++o     ",
"    .;o++++o;@@O.*&&*&%%$%%&&&&%%%%&*&%&*&%%$$$%%&o#++o+++o     ",
"    .;;ooooo;;@OO.&%&*%%%%&****&%%&*&%&*&%%$$$$%%.@oooo+o.      ",
"    .>;@@@@.>;@@O.%%&*&%%&*&&&&*&%*&%%&*&%$$$$$$.@@OOXXoO.      ",
"    .;>@@@O.>;@@OO.$%&*&&*&&%%%&*&*&%%&*&%%$$%%.;@OOOX.OX.      ",
"     .>;@@O.>;@@@O.$&*&&*&%%%%%%&**&%%&*&%%%&&.>@@OOX.OO.       ",
"     .;;@@O.;>@@@OO.&*&*&%%$$=$%%&*&%&**&%%&*.>;@OOX.@OX.       ",
"      .;;@OX.>;@@@O.&*&*&%$$$$$%%&*&&*&&*&&*&.>;@OO.@OO.        ",
"      .;;@OO.;;;@@OX.&*&%%$$$$%%&*&%&*&%&***.>;@OOX.@OO.        ",
"       .;OOOX.;;@@OX.&*&%%$$$%%&*&%%&*&%%&&*.>;@OO.@OOX.        ",
"        .OOOX.;;;@OX.&&*&%$$%%&*&%=$&*&%%%%&.>;@OX.@OOX.        ",
"         .OOOX.;;@OOX.&*&=%$%&*&%$$$&*&%$%%%.;@OX.@OOX.         ",
"          ..XXX.;;OOX..*&%$%%&*&%$$%&*&%$$$%.;@OX.@OXX.         ",
"            ..XX.;OOX.X.%%$%&*&%%%%%&*&%$$$$.;OXX.OOX.          ",
"            .;.X.;OOX.O.%$%&*&&&&&&&*&%$$$$.@;OX.OXXX.          ",
"            .;;.X.OXX.OX.$%&********&%%$$$$.@OXX.XXX.           ",
"             .;@..OXX.@O.$&*&&&&&&&&%%$$$$..OXX.OXX.            ",
"             .>;@@.XX.@OX.&*&%%%%%=%%$$$$.;.XX.XX..             ",
"             .>;@@.X.;@@X.&*&%%$$$$%$$$$.;;@..X..               ",
"              .>;@@..;@@XX.*&%$$$$$$$$%.>;@@OOX.                ",
"              .>;;@@.O;OOX.*&%%%%$$$$$.>;@@@OOX.                ",
"               .>;@@.XOOOXX.*&&&%%$$=.;;@@@OOX.                 ",
"               .O;;@@.XOOXX.****&%%$.;;@@@OOXX.                 ",
"                .O;;@@.XXXX.&&&&*&%%.;@@OOOXX.                  ",
"                 .OO;@O..XXX.%%&*&%%.OOOOXXX.                   ",
"                 .XOO;@OO....%%%&*&..XXXX...                    ",
"                  .XXOOOOOOX..$%&&.;.....                       ",
"                   .XXXOOOXX.;.$%.;@@OO.                        ",
"                    ..XXXXXX.;;..;@OOX.                         ",
"                      ...XXX.O@@O.OOX.                          ",
"                         ....XOOO.X..                           ",
"                             .XXX..                             ",
"                              ...                               ",
"                                                                "
};
