/* XPM */
static char *cb876440b7834865f078305e50151ce89l2MdREsmfJmXXGj[] = {
/* columns rows colors chars-per-pixel */
"64 64 5 1 ",
"  c black",
". c #070606",
"X c #0B0A0A",
"o c #0F0D0D",
"O c #131111",
/* pixels */
"                                                                ",
" .....                .......    .....    ..    ..... ......... ",
" .XXX..    ....     ..XXXXX..  ...XXXX..  .......XXX. ..XXXXXX. ",
" .XXXX. ....XX...  ..XXXXX..  ..XXXoooX.  .XXXXXXXXX.  ..XXoX.. ",
"  .XX..  ..XXXX..  ...XXX..  ..XXoooooX. ..XooooXXX..   ..XXX.  ",
"  ...  .. ..XX..     .....   .XXXoooXXX. .XXXXXXX...  .   ....  ",
" .     .X. .... ....          ..XXXXX..  ..X......  .....       ",
" .... ..XX.    ..XXX...    ..  ......     ...      ..XXXXX.  .. ",
" .XX. .XXXX.   ..XoXXX..  .....            .  ...  .XXoX... ... ",
" .X.  .XXXX.    .XXXXXX.  .XXXX..            ..X. ..XoXX.X..XX. ",
" ..X. ...XX.     ..XXX..  .XooXX..       .....XX...XXXX..X.XXX. ",
"  ..     ..  ..   .....  .XXoooXX.   ... .XXXXXXX..XXX..X..XoX. ",
"            ..X..     .  .XXXXXX.   ..X. .XoooooX...XX. .XXXoX. ",
"   ..    ....XXX..    ...........   .XX. .XXoooXX. .XX. .XoooX. ",
"  ..X...   .XoooX.    .XXXXX.      ..XX. ..XooXX.  .... .XXXXX. ",
"  .XXXX..  .XoXXX..   .XoooX.     ..XXX.. .XooX..       ..XXX.. ",
"  .XXXX..  .XX.....  ..XoOoX.    ..XooXX. .XoXX.         .....  ",
"  ....X.   .....     .XXoooX.   ..XXoooX. .XXX..                ",
"     ...       .... ..XXXXXX.   .XXoooXX. .....   .....         ",
"              ..XX.   .......   .XooooX..        ..XXXX.....    ",
"   .....     ..XXX.             .XXooXX.         .XXooXXXXX.    ",
"  ..XXX..    .XXXX.  ....  .... ..XXXX..         ..XXoooooX.    ",
"  ..XXXX... ....... ..XX. ..XX.   .....   ....    ..XXXXXXX.    ",
"   ........        ..XXX.  .XX..        ..XXX..    .........    ",
"                   .XXXX.  .....       ..XXoXX.  ...            ",
"          ....    ...XX..    ..        .XXooXX.  .....          ",
"         ..XX..  .. ....   ......     ..XoooX..  .XXXX..        ",
"   ..... .XXX..  ...      ..XXXX.     .XXoooX.   .XooXX..       ",
"   .XXX. .....   .X..     .XXooX.      XoooXX.   .XoooXXX.      ",
"  ..XoX.  .      ....     .XoooXX.   .XXoXXX.    .XoOoooX..     ",
"  .XXoX.     ...         .XXoooXX.   ..XXX..     .XoOOooXX.     ",
"  .XXoX.    ..X..  ..... .XXXXXX..    ....   ... .XooooXX..     ",
"  ..XXX..  ..XXX....XXX. .X......           ..X. .XooXXX..      ",
"   ..XXX.  .XXoX.. .XoX.  ..               ..XX. .XXXX...       ",
"    .....  .XooX.  .XXX.           .....  .XXX.. ......    ...  ",
"           .XXXX.  ..X..   ...    ..XXX. ..X...           ..X   ",
"     ...   ......    ..  ...X..  ..XXXX.   ........     ..XXX.  ",
"    ..X..                .XXXX. ..XXoX..    ..XXXX.   ...XXoX.. ",
"   ..XXX.. .....    ..   .XXXX. .XXoXX.    ..XXooX..  .XXXooXX. ",
"   .XXoXX.  .XX..  ....  ..XX.. ..XXX..    .XXoooXX.  .XoooooX. ",
"   .XXXXX.  ..XX.  .XX..  ....    ...      .XXXoooX.. .XooOOoX. ",
"    ......    ... .XXXX.        ..          ..XoooXX. .XXooooX. ",
"      ..  .....   .XXX..       .......       .XXXXXX....XXXoXX. ",
"   ..   ..XXXX..  .XX.. ....   .XXXXX.  .....   ..XXX. ...XXX.. ",
"  ....  .XXooXXX  .... ..XX.   .XXXX.. ..XXX..   .....   .....  ",
"  .XX.  .XXXXXX.      .XXXX.   ..XX.. ..XXXXX..                 ",
"  .XX.  ..X.....  ..  .XXX..   ...X.   ...XXXX. ....            ",
"  ..X.   ...     ...  .X..  ...  ...     ...XXX. .X....         ",
"   ...        ....X.  ... ..XX.   .   ...  .XX.. .XXXXX..       ",
"    .. ...... ..XXX.     ..XXXX. .. ...X..  ...  .XoooXX..      ",
"        ..XX.. .X...    ..XXooX.   ..XXXX..  .   .XoOooXX.      ",
"    ...  ...X.. ..     ..XXooXX.   .XXoXXX.      .XoOOooXX.     ",
"  ...X...  ....       ..XXooXX.    .XooX..       .XooooooX.     ",
" ..XXXXX.            ..XXXXXX..    .XoXX. .....  .XXXXooXX.     ",
"   .XXXX.            .XXX.....     .XXX.. .XXXX.. ...XXXX..     ",
"   ......           ......       .....X. .XXooXX.   ......      ",
"             ....               .... ... .XooooX.               ",
"  .....     ..XX.      ......  ..XX..   .XXoOooX.   .........   ",
" ..XXX..   ..XXX.    ...XXXXX  .XXXXX.  .XooooXX.   .XXXXXXX..  ",
" .XXoXX.  ..XXoX.   ..XXXooX.. .XXooX.. .XXXXXX.    .XoooooXX.  ",
" ..XoXX. ..XXXXX.  ..XXoXXXXX. ..XXoXX.  .......    .XoooXXXX.  ",
"  .XXX...........  ..XXXX.....  ..XXXX.            .XXXXXX....  ",
"  .....             .........    ......            ........     ",
"                                                                "
};
