/* XPM */
static char *a32c680d1ad64e33eb204fa4c0423bd9HJAC31t7FzahYKAU[] = {
/* columns rows colors chars-per-pixel */
"64 64 6 1 ",
"  c black",
". c #070606",
"X c #0B0A0A",
"o c #0F0D0D",
"O c #131111",
"+ c #171414",
/* pixels */
"      ..XXooooooXXX..         .XXXoOOoX..                       ",
" ..... ..XXXXXXXooXX. ....... ..XooOOoX.  ..    ..... ......... ",
" .XXX..X.XX....XXXXX..XXXXX..  .XoOOOoX.  .......XXX. ..XXXXXX. ",
" .XXXX.X....XX...XX..XXoXX..  ..XoOOOoX.  .XXXXXXXXX.  ..XXoX.. ",
"  .XX..XX..XXXX...X...XXX..  ..XXoOoooX. ..XooooXXX..   ..XXX.  ",
"  ...  ..X..XX..X.X. .....   .XXXoooXXX. .XXXXXXX...  .   ....  ",
" .     .X.X....X....          ..XXXXX..  ..X......  .....       ",
" .... ..XX.    ..XXX...    ..  ......     ...      ..XXXXX.  ...",
"..XX. .XXXX.   ..XoXXX..  .....            .  ...  .XXoX... ....",
"X.X.  .XXXX.    .XXXXXX.  .XXXX..            ..X. ..XoXX.X..XX.X",
"X..X. ...XX.     ..XXX..  .XooXX..       .....XX...XXXX..X.XXX.X",
"X...     ..  ..   .....  .XXoooXX.   ... .XXXXXXX..XXX..X..XoX.X",
"..          ..X..     .  .XXXXXX.   ..X. .XoooooX...XX. .XXXoX.X",
".  ..    ....XXX..    ...........   .XX. .XXoooXX. .XX. .XoooX..",
"  ..X...   .XoooX.    .XXXXX.      ..XX. ..XooXX.  .... .XXXXX..",
"  .XXXX..  .XoXXX..   .XoooX.     ..XXX.. .XooX..       ..XXX.. ",
"...XXXX..  .XX.....  ..XoOoX.    ..XooXX. .XoXX.         ..... .",
"XX....X.   .....     .XXoooX.   ..XXoooX. .XXX..             ...",
"XX.  ...       .... ..XXXXXX.   .XXoooXX. .....   .....      .XX",
"XX.           ..XX.   .......   .XooooX..        ..XXXX..... ..X",
"........     ..XXX.             .XXooXX.         .XXooXXXXX.  .X",
". ..XXX..    .XXXX.  ....  .... ..XXXX..         ..XXoooooX.  ..",
". ..XXXX... ....... ..XX. ..XX.   .....   ....    ..XXXXXXX. .XX",
".  ........        ..XXX.  .XX..        ..XXX..    ......... .XX",
"..                 .XXXX.  .....       ..XXoXX.  ...         .XX",
"X.        ....    ...XX..    ..        .XXooXX.  .....      .XXX",
"X.       ..XX..  .. ....   ......     ..XoooX..  .XXXX..   .XXoX",
".  ..... .XXX..  ...      ..XXXX.     .XXoooX.   .XooXX..  ..XoX",
".  .XXX. .....   .X..     .XXooX.      XoooXX.   .XoooXXX.  .XXX",
". ..XoX.  .      ....     .XoooXX.   .XXoXXX.    .XoOoooX.. .XX.",
"  .XXoX.     ...         .XXoooXX.   ..XXX..     .XoOOooXX. .XX.",
"  .XXoX.    ..X..  ..... .XXXXXX..    ....   ... .XooooXX..  .X.",
"  ..XXX..  ..XXX....XXX. .X......           ..X. .XooXXX..   .. ",
".  ..XXX.  .XXoX.. .XoX.  ..               ..XX. .XXXX...       ",
"X.  .....  .XooX.  .XXX.           .....  .XXX.. ......    ... .",
"XX.        .XXXX.  ..X..   ...    ..XXX. ..X...           ..X  .",
".XX. ...   ......    ..  ...X..  ..XXXX.   ........     ..XXX. .",
".X. ..X..                .XXXX. ..XXoX..    ..XXXX.   ...XXoX.. ",
".. ..XXX.. .....    ..   .XXXX. .XXoXX.    ..XXooX..  .XXXooXX. ",
"   .XXoXX.  .XX..  ....  ..XX.. ..XXX..    .XXoooXX.  .XoooooX. ",
"   .XXXXX.  ..XX.  .XX..  ....    ...      .XXXoooX.. .XooOOoX. ",
"    ......    ... .XXXX.        ..          ..XoooXX. .XXooooX. ",
"      ..  .....   .XXX..       .......       .XXXXXX....XXXoXX. ",
".. ..   ..XXXX..  .XX.. ....   .XXXXX.  .....   ..XXX. ...XXX.. ",
".X....  .XXooXXX  .... ..XX.   .XXXX.. ..XXX..   .....   .....  ",
".X.XX.  .XXXXXX.      .XXXX.   ..XX.. ..XXXXX..                 ",
".X.XX.  ..X.....  ..  .XXX..   ...X.   ...XXXX. ....          ..",
".X..X.   ...     ...  .X..  ...  ...     ...XXX. .X....    .....",
"......        ....X.  ... ..XX.   .   ...  .XX.. .XXXXX..  ..XXX",
"X.  .. ...... ..XXX.     ..XXXX. .. ...X..  ...  .XoooXX..  .XXX",
"X..     ..XX.. .X...    ..XXooX.   ..XXXX..  .   .XoOooXX.  ...X",
".X. ...  .XXX.. ..     ..XXooXX.   .XXoXXX.      .XoOOooXX.   ..",
"XX...X....X....       ..XXooXX.    .XooX..       .XooooooX.   .X",
"...XXXXX.......      ..XXXXXX..    .XoXX. .....  .XXXXooXX.   .X",
".XX.XXoX..XXX...     .XXX.....     .XXX.. .XXXX.. ...XXXX.. ....",
".XX..XoXX.XoXX...   ......       .....X. .XXooXX.   ...... ..XX.",
"..XX.XXXXXXooXX..               .... ... .XooooX.            .XX",
"X......XXoooooXX.      ......  ..XX..   .XXoOooX.   ......... .X",
"...XXX..XoOOOooX.    ...XXXXX  .XXXXX.  .XooooXX.   .XXXXXXX.. .",
" .XXoXX.XoO+OOoX.   ..XXXooX.. .XXooX.. .XXXXXX.    .XoooooXX. .",
" ..XoXX.XoO++OoX.  ..XXoXXXXX. ..XooXX.  .......    .XoooXXXX.  ",
"  .XXX..XoO++OoX.. ..XXXX.....  .XoooX..           .XXXXXX....  ",
"  .....XXoOO+OoXX.  .........   .XoooXX...         ........     ",
"      .XXooOOOooX...          ...XoOooXX..                      "
};
