/* XPM */
static char *cfb5dcc910594002f155a3cddccb4e00JVdSwbvzTwcoKmAh[] = {
/* columns rows colors chars-per-pixel */
"64 64 6 1 ",
"  c black",
". c #070606",
"X c #0B0A0A",
"o c #0F0D0D",
"O c #131111",
"+ c #171414",
/* pixels */
"      ..XXooooooXXX..               .XX..                       ",
" ..... ..XXXXXXXooXX. .......       ..X.  ..    ..... ......... ",
" .XXX..X.XX....XXXXX..XXXXX..        .X.  .......XXX. ..XXXXXX. ",
" .XXXX.X....XX...XX..XXoXX..  ...... ...  .XXXXXXXXX.  ..XXoX.. ",
"  .XX..XX..XXXX...X...XXX..  ..XXXX.   . ..XooooXXX..   ..XXX.  ",
"  ...  ..X..XX..X.X. .....   ..XXoX..  . .XXXXXXX...  .   ....  ",
" .     .X.X....X....          ..XXXX.    ..X......  .....       ",
" .... ..XX.   ... .....    ..  ......     ...      ..XXXXX.  ...",
"..XX. .XXXX.     ..XXX.   .....            .  ...  .XXoX... ....",
"X.X.  .XXXX.   ...XXX..   .XXXX..            ..X. ..XoXX.X..XX.X",
"X..X. ...XX.   ..XXXX.    .XooXX..       .....XX...XXXX..X.XXX.X",
"X...     ..  .. ...XX.   .XXoooXX.   ... .XXXXXXX..XXX..X..XoX.X",
"..          ..X.. ..X.   .XXXXXX.   ..X. .XoooooX...XX. .XXXoX.X",
".  ..    ....XXX.. ..............   .XX. .XXoooXX. .XX. .XoooX..",
"  ..X...   .XoooX.    .XXXXX.      ..XX. ..XooXX.  .... .XXXXX..",
"  .XXXX..  .XoXXX..   .XoooX.     ..XXX.. .XooX..       ..XXX.. ",
"...XXXX..  .XX.....  ..XoOoX.    ..XooXX. .XoXX.         ..... .",
"XX....X.   .....     .XXoooX.   ..XXoooX. .XXX..             ...",
"XX.  ...       .... ..XXXXXX.   .XXoooXX. .....   .....      .XX",
"XX.           ..XX.   .......   .XooooX..        ..XXXX..... ..X",
"........     ..XXX.             .XXooXX.  .....  .XXooXXXXX.  .X",
". ..XXX..    .XXXX.  ....  .... ..XXXX..  .XXX.. ..XXoooooX.  ..",
". ..XXXX... ....... ..XX. ..XX.   .....   .XoX..  ..XXXXXXX. .XX",
".  ........        ..XXX.  .XX..        ..XXoX.    ......... .XX",
"..                 .XXXX.  .....    .....XXooX.  ...         .XX",
"X.    .......     ...XX..        ....XXXXXoooX.  .....      .XXX",
"X.   ..XXXXX..   .. ....   .......XXXXoooooOoX.  .XXXX..   .XXoX",
".  ...XXoXXXX..  ...      ..XXXXXXXooooOOooooX.  .XooXX..  ..XoX",
".  .XXXooX....   .X..     .XXoooooooOOOoooXXXX.  .XoooXXX.  .XXX",
". ..XoXXXX.      ....     .XooOOOoooooooXXX....  .XoOoooX.. .XX.",
"  .XXoX....  ...         ..XoOooooXXXXXXX...     .XoOOooXX. .XX.",
"  .XXoX.    .....        .XXoooXXXX.......   ... .XooooXX..  .X.",
"  ..XXX..  ..XXX. ..     ..XXXXX....        ..X. .XooXXX..   .. ",
".  ..XXX.  .XXoX. ..      .......          ..XX. .XXXX...       ",
"X.  .....  .XooX  ..               .....  ..XX.. ......    ... .",
"XX.        .XXX  .....     ...    ..XXX. ..X...           ..X  .",
".XX. ...   .... ..XXX... ...X..  ..XXXX. ..........     ..XXX. .",
".X. ..X..       ...XXXX...XXXX. ..XXoX.. .  ..XXXX.   ...XXoX.. ",
".. ..XXX.. .....  .XooXX...XXX. .XXoXX. .. ..XXooX..  .XXXooXX. ",
"   .XXoXX.  .XX.. .XoooXX...X.. ..XXX....  .XXoooXX.  .XoooooX. ",
"   .XXXXX.  ..XX. .XoOooXX....    .....    .XXXoooX.. .XooOOoX. ",
"    ......    ... .XoOOooXXX.   ..          ..XoooXX. .XXooooX. ",
"      ..  .....   .XooOOoooX.. .......       .XXXXXX....XXXoXX. ",
".. ..   ..XXXX..  .XXoooOOoXXX..XXXXX.  .....   ..XXX. ...XXX.. ",
".X....  .XXooXXX  ..XXXoOOoooX...XXX.. ..XXX..   .....   .....  ",
".X.XX.  .XXXXXX.  ....XoOOOOoXX..XX.. ..XXXXX..                 ",
".X.XX.  ..X.....     .XoO++OooXX..X.   ...XXXX. ....          ..",
".X..X.   ...     ... .XoO++OOooX....     ...XXX. .X....    .....",
"......        ....X. .XoOO++OOoXX..   ...  .XX.. .XXXXX..  ..XXX",
"X.  .. ...... ..XXX. .XooO+++OooX.. ...X..  ...  .XoooXX..  .XXX",
"X..     ..XX.. .X... .XXoO+++OOoX....XXXX..  .   .XoOooXX.  ...X",
".X. ...  .XXX.. ..   ..XoOOOOOOoX...XXoXXX.      .XoOOooXX.   ..",
"XX...X....X....       .XooooooooX...XooX..       .XooooooX.   .X",
"...XXXXX.......      ..XXXXXXXXXX...XoXX. .....  .XXXXooXX.   .X",
".XX.XXoX..XXX...    ..XXX......... .XXX.. .XXXX.. ...XXXX.. ....",
".XX..XoXX.XoXX...   ......       .....X. .XXooXX.   ...... ..XX.",
"..XX.XXXXXXooXX..               .... ... .XooooX.            .XX",
"X......XXoooooXX.      ......  ..XX..   .XXoOooX.   ......... .X",
"...XXX..XoOOOooX.    ...XXXXX  .XXXXX.  .XooooXX.   .XXXXXXX.. .",
" .XXoXX.XoO+OOoX.   ..XXXooX.. .XXXXX.. .XXXXXX.    .XoooooXX. .",
" ..XoXX.XoO++OoX.  ..XXoXXXXX. ..XX...   .......    .XoooXXXX.  ",
"  .XXX..XoO++OoX.. ..XXXX.....  ....               .XXXXXX....  ",
"  .....XXoOO+OoXX.  .........        .....         ........     ",
"      .XXooOOOooX...                 .XX..                      "
};
