/* XPM */
static char *tile331697129293[] = {
/* columns rows colors chars-per-pixel */
"64 64 23 1 ",
"  c None",
". c #1A1812",
"X c #1F1D16",
"o c #232017",
"O c #29271B",
"+ c #2A271C",
"@ c #343124",
"# c #353124",
"$ c #3C3A2F",
"% c #403B2C",
"& c #46412F",
"* c #4B4634",
"= c #554F3A",
"- c #5A553F",
"; c #6B6447",
": c #6A6349",
"> c #756D4C",
", c #807855",
"< c #928967",
"1 c #968D69",
"2 c #D0C086",
"3 c #D6C88E",
"4 c #F8ECBF",
/* pixels */
"                                                                ",
"                                                                ",
"                                                                ",
"                                                                ",
"                                                                ",
"                                                                ",
"                                                                ",
"                                                                ",
"                                                                ",
"                                                                ",
"                                                                ",
"                                                                ",
"                                                                ",
"             $$$$$$$$$$                              $$$$$      ",
"      $$$$$$$>$224222>>$$$$$$$$$$$$$$$$      $$$$$$$$22222$$$$$$",
"    $$2$22222>$24222<>$2422>>$2244422>>$$$$$$22222>>$22444442222",
"   $222$2422<>$242<<<>$2422<>>$42222<<>$222222222<<>>$2222222222",
"    $$<<$22<<>$22<<<>>$422<<<>$2422<<<>>$244422<<<<>>=$<22222222",
"      $>>$2<<>>$22<<>=$42<<<<>=$22<<<<<>>$4222<<<<<>>$$<<2222222",
"       $>>$><<>=$2<<>=$22<<<>>=$222<<<<>>$242<<<<<<>=$>$<<<<<<22",
"        $$>$>>>>$22>>=$22<<<>>$=$22<<<>>==$22<<<<<<>=$>=$<<<<<<<",
"          $$>>>>=$>>>=$22<<<>=$=$22<<<>>=$<$2<<<<<>>$<>=$<<<<<<<",
"            $>>>=$>>>=$22<<>>$<>$22<<<>==$<$22<<<<>=$<<=$<<<<<<<",
"             $>===$>==$>2<>>=$<>=$2<<>>=$<>$22<<<>>=$<<>=$<<<<<<",
"              $===$>===$>>>>=$<>=$22<>==$<>=$2<<>>>=$<<>=$><<<<<",
"               $$$#$===$>>>=$><<>$22>>==$<>=$2<>>>==$<>>=$>><<<<",
"               O*##o$==$====$>>>>=$>>>==$>>=$>>>>>==$>>>>=$=>>>>",
"                O#&o$$$=====$>>>>=$>>==$==>>=$>>====$=>>==$==>>>",
"                 O+#O*#$$$$$$>>>===$==$======$======$======$==>>",
"                 OXOO**#oO**$======$==$======$======$======$====",
"                  O  O1#oO;*$======$$$$$$$$$$#$$$$$$=======$====",
"                      O1&+O,*$$$$$$#####o.O***###ooo$$$$$$$#$==>",
"                      O-+XO,*###oO**#####o.O*3*###oo.O*#####o$$$",
"                       O+O O,###oO;11::::&&O:31:::&&.O;*###&.O##",
"                        O  O,-::&#O311::::&XO131::&&#O31;::&#O##",
"                            O-%:&&O131::::&+XO13::&&#O13:::&@O::",
"                            O--%+&XO131::::&+O131:&&#XO31:;&@O::",
"                             O-+++XXO13:::::++O11:&&XXO31::&XO$:",
"                             O%++XXOO-11:::::+XO1:&+XO+O1:&XXO%%",
"                              O+XOO  O--::::%++O--+XO$+O3:+XOXO%",
"                               OO     O-%%%%%++XO-+XO%+O--+XO+XO",
"                                      O--%%%%+++XO+O-%+O--+XO+XX",
"                                       O-%%%++++XOXO-%+OO-+XO++X",
"                                       O-%%%+++XXXO,-%++O-XXO+++",
"                                        O%%+++XXXOO--%+++OXO-%++",
"                                         O+++XXOO  O-%++XXOO--%%",
"                                         O+XXOO    O%+++XO  O-%%",
"                                          OOO       O++XO    O%%",
"                                                    O+XO      O%",
"                                                     OO        O",
"                                                                ",
"                                                                ",
"                                                                ",
"                                                                ",
"                                                                ",
"                                                                ",
"                                                                ",
"                                                                ",
"                                                                ",
"                                                                ",
"                                                                ",
"                                                                ",
"                                                                ",
"                                                                "
};
