/* XPM */
static char *tile231697129292[] = {
/* columns rows colors chars-per-pixel */
"64 64 24 1 ",
"  c None",
". c #100E0B",
"X c #15130E",
"o c #1A1812",
"O c #1F1D16",
"+ c #201D16",
"@ c #29271B",
"# c #2A271C",
"$ c #343124",
"% c #353124",
"& c #3C3A2F",
"* c #403B2C",
"= c #46412F",
"- c #4B4634",
"; c #554F3A",
": c #5A553F",
"> c #6A6349",
", c #756D4C",
"< c #807855",
"1 c #928967",
"2 c #968D69",
"3 c #D0C086",
"4 c #D6C88E",
"5 c #F8ECBF",
/* pixels */
"               @242>>>>>>===$@22>>>==$@::::**###O@              ",
"               @242>>>>>>>==$@24>>>==$@::<:**###O@              ",
"               @222>>>>>>>===$@4>>>==$@:::***###O@@             ",
"               @222>>>>>>>===$@4>>>==$@:<:***###O@:@            ",
"               @222>>>>>>>===$@2>>>==$@2<****###O@:@            ",
"               @2222>>>>>>===$@22>>==$@2<***####O@::@           ",
"               @2222>>>>>>===$@24>===$@4:***###OO@:**@          ",
"               @2222>>>>>>===$@24>==$@242***###OO@:**@          ",
"               @2422>>>>>>===$@22===$@242***###O@::*#@          ",
"               @2422>>>>>>===$@@2===$@42>***###O@::*##@         ",
"                @422>>>>>>===$@@===$$@42>>*####O@::*##@         ",
"                @422>>>>>>===$@@===$@242>>*####O@:*###O@  @@@   ",
"                @242>>>>>>===O@$@==$@24>>>*###OO@:####O@@@<:*@  ",
"                @242>>>>>>===O@$@=$$@42>>>=###O@O@###O@$@:<:**@ ",
"                @242>>>>>>==OO@=$@$@242>>>=###O@O@###O@$@::&&&&&",
"                @242>>>>>===OO@=$@$@242>>>=###O@O@##O@=$$@&33333",
"                 @42>>>>>==$O@:@=$@2242>>===#OO@#O@#O@==$@&33555",
"                 @242>>>>==OO@:@=$@2242>>===#OO@#$@OO@==$&5&3333",
"                 @242>>>==#OO@:@==$@242>====#O@:##$@$@2==&3&3333",
"                 @242>>>==#O@ @>==$@:42>====OO@:##=O@22=&53&3333",
"                  @42>>>=#OO@ @>>==$@22====#O@::##=O@222&31&3331",
"                  @22>>>=#OO@ @*>==$@*====#OO@::##=O@222&31&3311",
"                  @222>=#OO@  @*>==$$@#===#OO@<::#=O@224&31,&311",
"                  @222>=#OO@   @>===O@#####O@:<::##O@224&1,,&311",
"                   @22=##OO@   @*>==OO@###OO@:::*##O@242&1,;&311",
"                   @2=##OO@    @*>==OO@###O@:<:**##O@242&1,;&311",
"                   @=###OO@    @**==#O@##O@:<::**##+@24>&,,;&,,,",
"                    @##OO@     @**==#OO@OO@:<:***##+@22>&,;;&,,,",
"                    @#OOO@     @**###OO@O@:<:****##O@22>$&;;&,,,",
"                    @#OO@      @**###OO@O@:<:****##O@22>$&;;&;;;",
"                     @OO@      @**####OO@:<:*****##O@22>>&;;&;;;",
"                      @@       @**####OO@:<:*****##O@24>>+&;&;;;",
"                                @*####OO@:::*****##@$24>>+X&.&;;",
"                                @*####OO@:<:*****#O@224>>*XX.@&&",
"                                @*####O@ @<:*****#O@:24>**#XOo@-",
"                                @*####O@ @:<*****#O@::4>**###O@-",
"                                @*###OO@ @:<:****#O@::4***####O@",
"                                 @###O@   @<:***##O@@::***####O@",
"                                  @##O@   @:<:**##O@@::***####O@",
"                                  @#OO@    @<::###O@@:::**####O@",
"                                  @#O@     @:::###O@@:<:**###O@#",
"                                   @O@      @:####O@ @:<**###O@#",
"                                   @@       @:###OO@ @:<:*###O@#",
"                                             @###O@  @:<:*###O@#",
"                                             @###@   @:::###O@##",
"                                              @#O@    @::###O@##",
"                                              @#@     @::##OO@@#",
"                                               @      @::##OO@@O",
"                                                      @:###O@  @",
"                                                       @##OO@   ",
"                                                       @##OO@   ",
"                                                       @##OO@   ",
"                                                       @##O@    ",
"                                                        @#O@    ",
"                                                        @OO@    ",
"                                                        @O@     ",
"                                                         @      ",
"                                                                ",
"                                                                ",
"                                                                ",
"                                                                ",
"                                                                ",
"                                                                ",
"                                                                "
};
