/* XPM */
static char *tile261697129292[] = {
/* columns rows colors chars-per-pixel */
"64 64 29 1 ",
"  c None",
". c #100E0B",
"X c #15130E",
"o c #1A1812",
"O c #1F1D16",
"+ c #201D16",
"@ c #232017",
"# c #29271B",
"$ c #2A271C",
"% c #2D2A1F",
"& c #343124",
"* c #353124",
"= c #3C3A2F",
"- c #403C2B",
"; c #403B2C",
": c #46412F",
"> c #4B4634",
", c #554F3A",
"< c #5A553F",
"1 c #6B6447",
"2 c #6A6349",
"3 c #746C4C",
"4 c #756D4C",
"5 c #807855",
"6 c #928967",
"7 c #968D69",
"8 c #D0C086",
"9 c #D6C88E",
"0 c #F8ECBF",
/* pixels */
"                                                                ",
"                                                                ",
"                                                                ",
"                                                                ",
"                                                                ",
"                                                                ",
"                                                                ",
"                                                                ",
"                                                                ",
"                                                                ",
"                                                                ",
"                                                                ",
"                                                                ",
"                                   ==                           ",
"===                  ==============88===                        ",
"88===             ===8880088888884,=8008===                     ",
"088=8=============33=8808888888883,=8888888=                    ",
"088=8888888883=88833=808888866663,=886688833=====               ",
"886=8800888833=0883,=808866666633,=86666663,,=3,,=              ",
"8664=88888863=80833,=888666666633,=36666634,,=3,,=              ",
"6664=88866633=88633,=888666666333,=3366663,,=333,,=             ",
"6664,=8666633=86633=888666666333,,=336663,,,=333,,,=            ",
"6664,=866633,=8633,=886666663333,=6=33663,,,=333,,,,=           ",
"6644,,=6633,=88633,=86666666333,,=6=3333,,,=333,,,,,=           ",
"6644,,=3333,=8633,=886666663333,,=63=333,,,=333,,,,=            ",
"6443,=3=33,,=8633,=86666633333,,=663=33,,,=333,,,,=             ",
"4433,=3,=,,=36333,=86663333333,,=663,=,,,,=333,,,,=             ",
"4433,=33,=,=3333,,=3333333333,,,=633,=,,,=3333,,,,=             ",
"443,,=333,=3333,,,=333333333,,,=633,,,=,,=334,,,,=              ",
"43,,,=333,=333,,,,=,,,,3333,,,,=333,,,=,=,=3,,,,,=              ",
",,,,,=33,,,=,,,,,,=,,,,,,,,,,,=33,,,,,,=,,=,,,,,,=              ",
",,,,,=3,,,,,=,,,,,=,,,,,,,,,,,=,,,,,,,,=,,=,,,,,,=              ",
",,,,,=,,,,,,=,=========,,,,,,=,,==;==,,====,,,,,,,=             ",
"==,,=,,,,,====*****@@oo=,,,,====&&@@@==.#%-===,,,,=             ",
">*========>********@@@o#====>&&&&&+@@#o$.#-%++==,,,=            ",
">***@@.#>1>***22222:::&o$>>1>*&&22>-:$o$O#<-++++====            ",
"72*@@X.#>1722222222:::*&#>>1722222:::&&#$#<5<;+++X.#            ",
"972:$$O#<9722222222:::&&#779722222:::&#<$O#5<;;;XX.#            ",
"4<=$$OO$<7922222222:::**#779722222:::&#<$O#<5<;;$$O#            ",
"5<:$$OO$<7922222222:::**##7792222:::&&#<$OO#5<<$$$O#            ",
"<5<$$OO#<<972222222:::&&#&#792222:::&#7<$$O#<<<$$$O#            ",
"%<$$$@#O$<572222222:::&#:&#797222:::&#77;$OO#<$$$$O#            ",
"$<#$OO##$<5<2222222:::&#::&#9722::::#792;$OO#<$$$OO#            ",
"@###OO#$@%<5722222::::&#7:&#7922:::&#792;$$O#$$$$O#             ",
"O#$OOO#<O#<5<22222:::&&#7:&#7922:::&#792;$$O#$$$$O#             ",
"OO#OO#<<O#<4<72222:::&#772:#797:::&#7792;$$OO#$$OO#             ",
"<O#O@%<<$O%<47222::::&#792:&#79:::&#7792;;$OO#$$OO#             ",
"<# #O%<4#@%<<5222:::&#7792:&#77:::&#7792;;$$O#$$OO#             ",
"<# #O#<5-$#<<572::::&#7922:&#7:::&#77772;;$$O#$OO#              ",
"#   # #5<$O#<<7:::::#77922:&&#:::&#77772;;$$OO#OO#              ",
"      #<5$@#<<7::::&#79222:&&#:::&#77972;;;$$O#OO#              ",
"       #$=# #<#::::&#7922::&&#::&#&#797;;;;$$O#O#               ",
"         #  #$$:::&#77922::&&#::&#&#797;;;;$$OO##               ",
"            #$$:::&#79222::&&#:&#:&#<75;;;;$$OO##               ",
"             #$::&#779222::&&#:&#::&#<5<;;;;$$O#                ",
"             #$::&#77922:::&#:&#7::&#<5<;;;;$$O#                ",
"              #:&#777222:::&#&#77:::#<<5<;;;$$OO#               ",
"              #:#7797222:::&#&#77:::&#<5<;;;;$OO#               ",
"              #&#7797222:::&##7772::&#<<5<;;;$$O#               ",
"               #77792222:::&#77772::&#<<5<;;;$$O#               ",
"               #779722222::&#777722::&#<<<;;;$$$O#              ",
"               #779722222::&#777722::&#<<5<;;$$$O#              ",
"               #779222222::&#777222::&#<<5<;;$$$O#              ",
"               #779222222:::&#77222::&#<<<<;;$$$O#              "
};
