/* XPM */
static char *tile211697129291[] = {
/* columns rows colors chars-per-pixel */
"64 64 22 1 ",
"  c None",
". c #1A1812",
"X c #1F1D16",
"o c #232017",
"O c #29271B",
"+ c #2A271C",
"@ c #343124",
"# c #353124",
"$ c #3C3A2F",
"% c #403B2C",
"& c #46412F",
"* c #4B4634",
"= c #554F3A",
"- c #5A553F",
"; c #6A6349",
": c #756D4C",
"> c #807855",
", c #928967",
"< c #968D69",
"1 c #D0C086",
"2 c #D6C88E",
"3 c #F8ECBF",
/* pixels */
";;;&&@@O<<;;;&@O<2<;;;;;;&&&@O<<;;;&&@O<<<<;;&&&@O              ",
";;;&&@@O<<;;;&@O<2<;;;;;;;&&@O<2;;;&&@O<<2<;;&&&@O              ",
";;;&&@@O<<;;;&@O<<<;;;;;;;&&&@O2;;;&&@O<<<;;;&&&@O              ",
";;&&&@O<2<;;&&@O<<<;;;;;;;&&&@O2;;;&&@O<2<;;;&&&@O              ",
";;&&@@O<2;;;&&@O<<<;;;;;;;&&&@O<;;;&&@O<2;;;;&&&@O              ",
";;&&@@O<2;;;&&@O<<<<;;;;;;&&&@O<<;;&&@O<2;;;&&&&@O              ",
";&&&@@O<2;;&&&@O<<<<;;;;;;&&&@O<2;&&&@O2<;;;&&&@@O              ",
";&&&@@O<<;;&&@@O<<<<;;;;;;&&&@O<2;&&@O<2<;;;&&&@@O              ",
";&&&@O<<;;&&&@@O<2<<;;;;;;&&&@O<<&&&@O<2<;;;&&&@O               ",
"&&&@@O<2;;&&&@@O<2<<;;;;;;&&&@OO<&&&@O2<;;;;&&&@O               ",
"&&&@@O<2;;&&&@O@O2<<;;;;;;&&&@OO&&&@@O2<;;;&&&&@O               ",
"&&@@O<<2;&&&&@O@O2<<;;;;;;&&&@OO&&&@O<2<;;;&&&&@O               ",
"&&@@O<2<;&&&@@O@O<2<;;;;;;&&&@O@O&&@O<2;;;;&&&@@O      O        ",
"&@@O@O<<&&&@@O&@O<2<;;;;;;&&&@O@O&@@O2<;;;&&&&@O@O    O@O  $$$$$",
"&@O@@O<&&&&@@O&@O<2<;;;;;;&&@@O&@O@O<2<;;;&&&&@O@OOO  O@O $11111",
"@@O&@@O&&&@@O<&&O<2<;;;;;&&&@@O&@O@O<2<;;;&&&&@O@O&&OO&@@O$11333",
"@O&&@@O&&&@@O<&&@O2<;;;;;&&@@O<&&@O<<2<;;&&&&@@O&@O&@O&&@$3$1111",
"O<&&&@O&&@@O<<&&@O<2<;;;;&&@@O<<&@O<<2<;;&&&&@@O&@O@@O&&@$1$1111",
"<<&&&@O&@@O<2<&&@O<2<;;;&&&@@O<<&&@O<2<;&&&&&@O<&&@O@O<&$31$1111",
"<2<&&@@O@O<<<<&&&O<2<;;;&&&@O<<;&&@O<2<;&&&&@@O<&&&@O<<&$1,$111,",
"<2;&&&@O@O<2<;;&&@O2<;;;&&@@O<<;;&&@O<<&&&&&@O<<&&&@O<<<$1,$11,,",
"2<;&&&@OO<<2<;;&&@O<<;;;&&@@O2<;;&&@O;&&&&&@@O<<&&&@O<<<$1,:$1,,",
"<;;;&&@O<<<2;;;&&@O<<<;&&@@O<2<;;&&@@O&&&&&@@O2<<&&@O<<2$,::$1,,",
"<;;;&&@O<<2<;;;&&&O<<<;&&@@O<2;;;&&&@O&&&&&@O<2<<&&@O<<2$,:=$1,,",
";;;;&&@O<<2;;;;;&&@O<<&&&@@O<2;;;;&&@@O&&&@@O<<<;&&@O<2<$,:=$1,,",
";;;;&&&@O<2;;;;;&&@O<&&&@@O<2<;;;;&&@@O&&&@O<2<;;&&@O<2<$::=$:::",
";;;;&&&@O<2;;;;;&&&O&&&&@@O<2<;;;;&&&@O&&@O<2<<;;&&@O<2;$:==$:::",
";;;;&&&@O<2;;;;;&&&@O&&@@O<<2<;;;;&&&@@O@@O<2<;;;&&@O<<;@$==$:::",
";;;;&&&@O<<;;;;;;&&@O&@@@O<<2<;;;;&&&@@O@O<2<;;;;&&@O<<;@$==$===",
";;;;&&&@O<<;;;;;;&&@O&@@O<<2<<;;;;&&&@@O@O<2<;;;;&&@O<<;;$==$===",
";;;;&&&@O<<;;;;;;;&&@O@@O<<2<;;;;;&&&&@@O<2<;;;;;&&@O<<;;@$=$===",
";;;;&&&@O<<;;;;;;;&&@@OO<<<2<;;;;;&&&&@@O<2<;;;;;&&@O<2;;@o$O$==",
";;;;&&@@O<<;;;;;;;;&&@O<<<<<<;;;;;&&&&@@O<<<;;;;;&&O@<2;;;oo.O$$",
";;;;&&@@O<<;;;;;;;;&&@@O<<<<<;;;;;&&&&@@O<2<;;;;;&@O<<2;;;&o@O**",
"<;;;&&@@O<<;;;;;;;;&&&@O<<<<<;;;;;&&&&@O@O2<;;;;;&@O<<2;;;&&@@O*",
"<;;;&&XO<2<;;;;;;;;&&&@@O<<2<;;;;;&&&&@O@O<2;;;;;&@O<<2;;;&&&@O<",
"<;;&&+XO<2<;;;;;;;;&&&@@O<<2<;;;;;&&&@@O&O<2<;;;;&@O<<2;;;&&&&@O",
"2<;&++XO-2<;;;;;;;;&&&@@O<<2<;;;;;&&&@O<&@O2<;;;&&@OO<<;;;&&&&@O",
">-%++XXO-<2;;;;;;;;&&&@@O<<2<;;;;;&&&@O<&@O<2<;;&&@OO<<;;;&&&+XO",
">-%++XXO-<2;;;;;;;;&&&@@OO<<2;;;;&&&@@O<&@XO2<<&&&XOO<<<;;&&++XO",
"->-++XXO--2<;;;;;;;&&&@@O@O<2;;;;&&&@O<<&&@O<<<&&&XOO<2<;;&++XO%",
"O-+++XOXO-><;;;;;;;&&&@O&@O<2<;;;&&&@O<<;&XXO<&&&+XOXO<2;;+++XO-",
"O-++XXO+O->-;;;;;;;&&&@O&&@O2<;;&&&&O<2;;&XXO<&&+XXOXO<2<%+++XO-",
"XO++XXO+XO-><;;;;;&&&&@O<&@O<2;;&&&@O<2;;&+XO&&++XO+XO-2-%+++XO-",
"XO+XXXO-XO->-;;;;;&&&@@O<&@O<2;;&&&@O<2;;++XO++++XO+XO---+++XO--",
"XXOXXO--XO->-<;;;;&&&@O<<;&O<2<&&&@O<<2;;++XXO++XXO++XO--+++XO--",
"-XOXXO--+XO-><;;;&&&&@O<2;&@O<2&&&@O<<2;;%+XXO++XXO++XO--++XXO--",
"-XXOXO->+XO-->;;;&&&@O<<2;&@O<<&&&@O<<2;;%++XO++XXO-+XO--++XXO--",
"-%OOXO->%+O--><;&&&&@O<2;;&@O<&&&@O<<<<;%%++XO+XXO--+XO-+++XO->-",
"OO OO OO-O O--<&&&&&O<<2;;&@@O&&&@O<<<<;%%++XXOXXOO-+O O++XXO->O",
"    O   O  O--<&&&&@O<2;;;&@@O&&&@O<<2<;%%%++XOXXO O+O O++XXO-O ",
"            O-+&&&&@O<2;;&&@@O&&@O@O<2<;%%%++XOXO   O  O++XXOO  ",
"            O++&&&@O<<2;;&&@@O&&@O@O<2<%%%%++XXOO      O++XO    ",
"            O++&&&@O<2;;;&&@@O&@O&@O<<2%%%%++XXOO       O+XO    ",
"             O+&&@O<<2;;;&&@@O&@O&&@O<2-%%%%++XO-       OXXO    ",
"             O+&&@O<<2;;&&&@O&@O<&&@O<>-%%%%++XO-       OXXO    ",
"              O&@O<<<;;;&&&@O@O<<&&&O<->-%%%++XXO        OXO    ",
"              O&O<<2<;;;&&&@O@O<<&&&@O->-%%%%+XXO         O     ",
"              O@O<<2<;;;&&&@OO<<<;&&@O-->-%%%++XO         O     ",
"               O<<<2;;;;&&&@O<<<<;&&@O-->-%%%++XO               ",
"               O<<2<;;;;;&&@O<<<<;;&&@O---%%%+++XO              ",
"       O       O<<2<;;;;;&&@O<<<<;;&&@O-->-%%+++XO              ",
"               O<<2;;;;;;&&@O<<<;;;&&@O-->-%%+++XO              ",
"               O<<2;;;;;;&&&@O<<;;;&&@O----%%+++XO              "
};
