/* XPM */
static char *tile11697129288[] = {
/* columns rows colors chars-per-pixel */
"64 64 18 1 ",
"  c None",
". c #1A1812",
"X c #232017",
"o c #29271B",
"O c #343124",
"+ c #353124",
"@ c #3C3A2F",
"# c #46412F",
"$ c #4B4634",
"% c #554F3A",
"& c #6B6447",
"* c #6A6349",
"= c #756D4C",
"- c #928967",
"; c #968D69",
": c #D0C086",
"> c #D6C88E",
", c #F8ECBF",
/* pixels */
"                                                                ",
"                                                                ",
"                                                                ",
"                                                                ",
"                                                                ",
"                                                                ",
"                                                                ",
"                                                                ",
"                                                                ",
"                                                                ",
"                                                                ",
"                                                                ",
"                      @@@@@                                     ",
"                    @@::::=@@@@@@                               ",
"                  @@:::::==@:::,:@@@@                    @@@@@@@",
"                 @::,::::=%@::,::::@:@@@@@@@@@@@@@@@@@@@@@::::@:",
"                @:,,:::--=%@:,:::::@::::::::::::::=%@::=@:,::=@:",
"               @::::----==@:,::::::@:,,,,::::::::==@:::=@:,::=@:",
"             @@::::-----=%@::::----=@::::::-----==%@=-=%@,::-=@,",
"            @::::------=%@:::------=@::::------==%@:@==@:::--@:,",
"           @::::-------=%@:--------=%@::------===%@:-@%@::--=@::",
"            @::-------=%@::--------=%@::------==%@::-@%@:---=@::",
"             @:-------=%@:--------==%@::-----==%%@:--%@::--=%@:-",
"             @:------=%@::-------==%@@::----===%%@:-=%@:--==@::-",
"             @------==%@:-------==%@--@:---===%%@:--==%@--=%@:--",
"             @----===%@:-------===%@-%@:--====%%@:-===%@-==@::--",
"             @=======@===========%@-=%@:=====%%@:-====%%@=%@:-==",
"             @======%@==========%@-==%@=====%%%@:-====%%@=%@====",
"             @%=====%@=========%%@-==%@====%%%@:-=====%%@=@=====",
"              @%===%@=====%%%%%%@-==%%@===%%%@=-=====%%%%@==%%%%",
"              @%%=%%@=%%%%%%%%%%@-==%%@==%%%%@======%%%%%@%%%%%%",
"              @%%%%%@%%%%%%%%%%%@%=%%%@%%%%%@%%%%%%%%%%%%@%%%%%%",
"              @@%%%%@%%%@@@@@@@@@@%%%%%@%%%@@@@@%%%%%%%%%%@@@@@@",
"             o+o@%%%@@@@$$$$$+++++@@%%%%@@@$++++@@%%%%%%@@XX.o$$",
"             o+++@@@XX.o$$$$$+++++oX@@@@.o&$+++++X@@%@@@++XX..o$",
"            o***+++XXX..o;;>;*****oXXX.o.o$>****+X.o@$&+++###Oo;",
"            o****++X##OOo;;>;*****#oX..o#o;>;****#.o$$&+**####Oo",
"            o******###OOo;;>;*****#o#+o;#Oo>;***##Ooo;;***####Oo",
"            o******###OOo;;>;*****#o#Oo;#Oo;>;**##Ooo;;***####Oo",
"             o*****###OOoo;;>****##oOOo;#OOo>;;###Ooo;;;**####Oo",
"             o*****###OOoOo;>****###oo;;##Oo;;;###Ooo;>;**###Oo*",
"             o*****###Oo#Oo;>;***###Oo;;*#OOo;####OoOo;>**###Oo;",
"             o*****###Oo##Oo>;**####o;>**#OOo;###OOoOo;>;*###Oo;",
"             o****####Oo;#Oo;>**###Oo;>**##Oo####Oo#Oo;>;*###Oo;",
"              o***###OOo;#Oo;>**###Oo;>**##Oo####Oo#Oo;;;###Oo;;",
"              o***###Oo;;*#o;>;###Oo;;>**##OOo##OOo##Oo;;###Oo;;",
"              o**####Oo;>*#Oo;>###Oo;;>***#OOo##OOo##Oo;;##OOo;;",
"              o**###Oo;;>*#Oo;;###Oo;;>***##Oo##OOo;#Oo;;##OOo;;",
"              o*####Oo;>**#Oo;###Oo;;;;***##Oo#OOo;;#Oo;###Oo;>;",
"              o#####o;;>**#OOo###Oo;;;;***##OOoOOo;;##Oo##OOo;>;",
"              o####Oo;>***#OOo###Oo;;>;****##OoOOo;;##Oo##OOo;>;",
"             o#####Oo;>**##OOo##OoOo;>;****##OoOo;>;*#Oo##OOo>;;",
"             o####Oo;;>**##OOo##OoOo;>;****##OOoo;>;*#Oo##Oo;>;;",
"             o####Oo;>***##OOo#Oo#Oo;;>****##OOoo;>;*##Oo#Oo;>;;",
"             o###Oo;;>***##OOo#Oo##Oo;>;****##Oo;;>;*##OoOOo;>;;",
"             o###Oo;;>**###Oo#Oo;##Oo;>;****##Oo;;;**##OoOOo>;;*",
"             o*#Oo;;;***###OoOo;;###o;;>;***##OOo;;***##OoOo>;;*",
"             o*#o;;>;***###OoOo;;###Oo;>;****#OOo;;***##OOo;>;;*",
"             o+Oo;;>;***###Ooo;;;*##Oo;;>;***##Oo;>;**##OOo;>;**",
"              oo;;;>****###Oo;;;;*##Oo;;>;***##Oo;>;**###Oo;>;**",
"              oo;;>;*****##Oo;;;;**##Oo;;;***###Oo>;**###Oo;>;**",
"               o;;>;*****##Oo;;;;**##Oo;;>;**###Oo>;**###Oo;>;**",
"               o;;>******##Oo;;;***##Oo;;>;**###Oo;;**###Oo;>***",
"               o;;>******###Oo;;***##Oo;;;;**###Oo;;**###Oo;;***"
};
