/* XPM */
static char *tile221697129292[] = {
/* columns rows colors chars-per-pixel */
"64 64 20 1 ",
"  c None",
". c #1F1D16",
"X c #232017",
"o c #29271B",
"O c #2A271C",
"+ c #343124",
"@ c #353124",
"# c #3C3A2F",
"$ c #403B2C",
"% c #46412F",
"& c #4B4634",
"* c #554F3A",
"= c #5A553F",
"- c #6A6349",
"; c #756D4C",
": c #807855",
"> c #928967",
", c #968D69",
"< c #D0C086",
"1 c #D6C88E",
/* pixels */
"               o,1,------%%%+o,,---%%+o,,,,--%%%+o,,--%%%+o,,---",
"               o,1,-------%%+o,1---%%+o,,1,--%%%+o,,--%%%+o,,---",
"               o,,,-------%%%+o1---%%+o,,,---%%%+o,,--%%%+o1,---",
"               o,,,-------%%%+o1---%%+o,1,---%%%+o,,--%%++o1----",
"               o,,,-------%%%+o,---%%+o,1----%%%+o,,--%%++o1----",
"               o,,,,------%%%+o,,--%%+o,1---%%%%+o,,--%%+o,1----",
"               o,,,,------%%%+o,1-%%%+o1,---%%%++o,--%%%+o,1----",
"               o,,,,------%%%+o,1-%%+o,1,---%%%++o,--%%++o,1----",
"               o,1,,------%%%+o,,%%%+o,1,---%%%+o,,-%%%++o,,----",
"               o,1,,------%%%+oo,%%%+o1,----%%%+o,,-%%%+o,,,----",
"              o+o1,,------%%%+oo%%%++o1,---%%%%+o,,-%%++o,,-----",
"            ooo+o1,,------%%%+oo%%%+o,1,---%%%%+o,-%%%+oo,,-----",
"          oo++o+o,1,------%%%+o+o%%+o,1----%%%++o,%%%%+oo,1,---%",
"  ###   oo%++o%+o,1,------%%%+o+o%++o1,---%%%%+o+o%%%+o+o,1,---%",
"##<<<# o%%%++o%+o,1,------%%++o%+o+o,1,---%%%%+o+o%%%+o+o,,1--%%",
"<;#<<#o%%%++o,%%o,1,-----%%%++o%+o+o,1,---%%%%+o+o%%+o%++o,1--%%",
"<;#<>#o%%%++o,%%+o1,-----%%++o,%%+o,,1,--%%%%++o%+o%+o%%+o,,,-%+",
"<;#<>;#%%++o,,%%+o,1,----%%++o,,%+o,,1,--%%%%++o%+o++o%%++o,,-%+",
">;#<>;#%++o,1,%%+o,1,---%%%++o,,%%+o,1,-%%%%%+o,%%+o+o,%%+o,,%+o",
">;#<>;#o+o,,,,%%%o,1,---%%%+o,,-%%+o,1,-%%%%++o,%%%+o,,%%%+o,%+o",
">;#<>;#o+o,1,--%%+o1,---%%++o,,--%%+o,,%%%%%+o,,%%%+o,,,%%+o,+o-",
">;#>>;#oo,,1,--%%+o,,---%%++o1,--%%+o-%%%%%++o,,%%%+o,,,%%%+o+o,",
">;#>;;#o,,,1---%%+o,,,-%%++o,1,--%%++o%%%%%++o1,,%%+o,,1-%%%+o,,",
">;#>;*#o,,1,---%%%o,,,-%%++o,1---%%%+o%%%%%+o,1,,%%+o,,1-%%%+o,,",
";;#>;*#o,,1-----%%+o,,%%%++o,1----%%++o%%%++o,,,-%%+o,1,-%%%+o,,",
";;#>*#X+o,1-----%%+o,%%%++o,1,----%%++o%%%+o,1,--%%+o,1,-%%%+o,,",
";;#;*#X+o,1-----%%%o%%%%++o,1,----%%%+o%%+o,1,,--%%+o,1---%++o,1",
";*#;*#%+o,1-----%%%+o%%++o,,1,----%%%++o++o,1,---%%+o,,---%+o,,1",
"**#*#X%+o,,------%%+o%+++o,,1,----%%%++o+o,1,----%%+o,,---%+o,,1",
"*#+#XX%+o,,------%%+o%++o,,1,,----%%%++o+o,1,----%%+o,,---%+o,,1",
"*#++X%%+o,,-------%%+o++o,,1,-----%%%%++o,1,-----%%+o,,---%+o,,1",
"*#-+%%%+o,,-------%%++oo,,,1,-----%%%%++o,1,-----%%+o,1---%%o,,1",
"#@--%%++o,,--------%%+o,,,,,,-----%%%%++o,,,-----%%o+,1---%%+o,,",
"@+--%%++o,,--------%%++o,,,,,-----%%%%++o,1,-----%+o,,1---%%+o,,",
"&---%%++o,,--------%%%+o,,,,,-----%%%%+o+o1,-----%+o,,1---%%++o,",
",---%%.o,1,--------%%%++o,,1,-----%%%%+o+o,1-----%+o,,1---%%%+o,",
",--%%O.o,1,--------%%%++o,,1,-----%%%++o%o,1,----%+o,,1---%%%%+o",
"1,-%OO.o=1,--------%%%++o,,1,-----%%%+o,%+o1,---%%+oo,,---%%%%+o",
":=$OO..o=,1--------%%%++o,,1,-----%%%+o,%+o,1,--%%+oo,,---%%%%.o",
":=$OO..o=,1--------%%%++oo,,1----%%%++o,%++o1,,%%%+oo=,,--%%%O.o",
"=:=OO..o==1,-------%%%++o+o,1----%%%+o,,%%+o=,,%%%+oo=1,--%%O.o$",
"O=OOO.o.o=:,-------%%%+o%+o,1,---%%%+o,,-%+.o=%%%%.o.o=1--%OO.o=",
"o=OO..oOo=:=-------%%%+o%%+o1,--%%%%o,1--%+.o=%%%..o.o=1,-OOO.o=",
".oOO..oO.o=:,-----%%%%+o,%+o,1--%%%+o,1--%%.oO%%O.oO.o=:,$OOO.o=",
".oO...o=.o=:=-----%%%++o,%+o,1--%%%+o,1--%O.oOOOO.oO.o===OOO.o==",
"..o..o==.o=:=,----%%%+o,,-%o,1,%%%+o,,1--%O..oOO..oOO.o==OOO.o==",
"=.o..o==O.o=:,---%%%%+o,1-%+o,1%%%+o,,1---O..oOO..oOO.o==OO..o==",
"=..o.o=:O.o==:---%%%+o,,1-%+o,,%%%+o,,1---OO.oOO..o=O.o==OO..o==",
"=$.o.o=:$Oo==:,-%%%%+o,1--%+o,%%%+o,,,,--$OO.oO..o==O.o=OOO.o=:o",
"oo.oo o:=o o==,%%%%%o,,1--%++o%%%+o,,,,--$OO..o..o==OOooOO..ooo ",
"  o    oo  o==,%%%%+o,1---%++o%%%+o,,1,--$$OO.o..oo=oo ooO..o   ",
"            o=O%%%%+o,1--%%++o%%+o+o,1,--$$OO.o.o  o     o..o   ",
"            oOO%%%+o,,1--%%++o%%+o+o,1,-$$$OO..oo         oo    ",
"            oOO%%%+o,1---%%++o%+o%+o,,1-$$$OO..oo               ",
"             oO%%+o,,1---%%++o%+o%%+o,1,$$$$OO.o=               ",
"             oO%%+o,,1--%%%+o%+o,%%+o,1=$$$$OO.o=               ",
"              o%+o,,,---%%%+o+o,,%%%o,,:=$$$OO..o               ",
"              o%o,,1,---%%%+o+o,,%%%+o,:=$$$$O..o               ",
"              o+o,,1,---%%%+oo,,,-%%+o,=:=$$$OO.o               ",
"               o,,,1----%%%+o,,,,-%%+o,=:=$$$OO.o               ",
"               o,,1,-----%%+o,,,,--%%+o===$$$OOO.o              ",
"               o,,1,-----%%+o,,,,--%%+o==:=$$OOO.o              ",
"               o,,1------%%+o,,,---%%+o==:=$$OOO.o              ",
"               o,,1------%%%+o,,---%%+o====$$OOO.o              "
};
