/* XPM */
static char *tile201697129292[] = {
/* columns rows colors chars-per-pixel */
"64 64 22 1 ",
"  c None",
". c #1A1812",
"X c #1F1D16",
"o c #232017",
"O c #29271B",
"+ c #2A271C",
"@ c #343124",
"# c #353124",
"$ c #3C3A2F",
"% c #403B2C",
"& c #46412F",
"* c #4B4634",
"= c #554F3A",
"- c #5A553F",
"; c #6A6349",
": c #756D4C",
"> c #807855",
", c #928967",
"< c #968D69",
"1 c #D0C086",
"2 c #D6C88E",
"3 c #F8ECBF",
/* pixels */
"               O<2<;;;;;;&&&@O<<;;;&&@O----%%+++XO              ",
"               O<2<;;;;;;;&&@O<2;;;&&@O-->-%%+++XO              ",
"               O<<<;;;;;;;&&&@O2;;;&&@O---%%%+++XO              ",
"               O<<<;;;;;;;&&&@O2;;;&&@O->-%%%+++XO              ",
"               O<<<;;;;;;;&&&@O<;;;&&@O<>%%%%+++XO              ",
"               O<<<<;;;;;;&&&@O<<;;&&@O<>%%%++++XOO             ",
"               O<<<<;;;;;;&&&@O<2;&&&@O2-%%%+++XXOO             ",
"               O<<<<;;;;;;&&&@O<2;&&@O<2<%%%+++XXO-O            ",
"              OO<2<<;;;;;;&&&@O<<&&&@O<2<%%%+++XO--%O    O      ",
"             O@O<2<<;;;;;;&&&@OO<&&&@O2<;%%%+++XO--%O   O-O     ",
"            O@O@O2<<;;;;;;&&&@OO&&&@@O2<;;%++++XO--%+O  O--O    ",
"           O&@O@O2<<;;;;;;&&&@OO&&&@O<2<;;%++++XO-%+++OOO--O    ",
"          O&@@O@O<2<;;;;;;&&&@O@O&&@O<2;;;%+++XXO-++++XOO->-O   ",
"  $$$    O&@@O&@O<2<;;;;;;&&&@O@O&@@O2<;;;&+++XOXO+++XO@O->$$$$$",
"$$111$   O&@@O&@O<2<;;;;;;&&@@O&@O@O<2<;;;&+++XOXO+++XO@O-$11111",
"1:$11$O&O&@@O<&&O<2<;;;;;&&&@@O&@O@O<2<;;;&+++XO@O++XO&@@O$11333",
"1:$1,$OO&&@@O<&&@O2<;;;;;&&@@O<&&@O<<2<;;&&&OXXO&@O+XO&&@$3$1111",
"1:$1,:$&&@@O<<&&@O<2<;;;;&&@@O<<&@O<<2<;;&&&+XXO&@O@XO&&@$1$1111",
",:$1,:$&@@O<2<&&@O<2<;;;&&&@@O<<&&@O<2<;&&&&+XO<&&@O@O<&$31$1111",
",:$1,:$O@O<<<<&&&O<2<;;;&&&@O<<;&&@O<2<;&&&&XXO<&&&@O<<&$1,$111,",
",:$1,:$O@O<2<;;&&@O2<;;;&&@@O<<;;&&@O<<&&&&&XO<<&&&@O<<<$1,$11,,",
",:$,,:$OO<<2<;;&&@O<<;;;&&@@O2<;;&&@O;&&&&&@XO<<&&&@O<<<$1,:$1,,",
",:$,::$O<<<2;;;&&@O<<<;&&@@O<2<;;&&@@O&&&&&@XO2<<&&@O<<2$,::$1,,",
",:$,:=$O<<2<;;;&&&O<<<;&&@@O<2;;;&&&@O&&&&&@O<2<<&&@O<<2$,:=$1,,",
"::$,:=$O<<2;;;;;&&@O<<&&&@@O<2;;;;&&@@O&&&@@O<<<;&&#O<2<$,:=$1,,",
"::$,=$o@O<2;;;;;&&@O<&&&@@O<2<;;;;&&@@O&&&@O<2<;;&&#O<2<$::=$:::",
"::$:=$o@O<2;;;;;&&&O&&&&@@O<2<;;;;&&&@O&&@O<2<<;;&&#O<2;$:==$:::",
":=$:=$&@O<2;;;;;&&&@O&&@@O<<2<;;;;&&&@@O@@O<2<;;;&&#O<<;@$==$:::",
"==$=$o&@O<<;;;;;;&&@O&@@@O<<2<;;;;&&&@@O@O<2<;;;;&&#O<<;#$==$===",
"=$@$oo&@O<<;;;;;;&&@O&@@O<<2<<;;;;&&&@@O@O<2<;;;;&&@O<<;;$==$===",
"=$@@o&&@O<<;;;;;;;&&@O@@O<<2<;;;;;&&&&@@O<2<;;;;;&&@O<<;;#$=$===",
"=$;@&&&@O<<;;;;;;;&&@@OO<<<2<;;;;;&&&&@@O<2<;;;;;&&@O<2;;#o$+$==",
"$@;;&&@@O<<;;;;;;;;&&@O<<<<<<;;;;;&&&&@@O<<<;;;;;&&O@<2;;;oo.O$$",
"@@;;&&@@O<<;;;;;;;;&&@@O<<<<<;;;;;&&&&@@O<2<;;;;;&@O<<2;;;&o@O**",
"*;;;&&@@O<<;;;;;;;;&&&@O<<<<<;;;;;&&&&@O@O2<;;;;;&@O<<2;;;&&@@O*",
"<;;;&&XO<2<;;;;;;;;&&&@@O<<2<;;;;;&&&&@O@O<2;;;;;&@O<<2;;;&&&@O<",
"<;;&&+XO<2<;;;;;;;;&&&@@O<<2<;;;;;&&&@@O&O<2<;;;;&@O<<2;;;&&&&@O",
"2<;&++XO-2<;;;;;;;;&&&@@O<<2<;;;;;&&&@O<&@O2<;;;&&@OO<<;;;&&&&@O",
">-%++XXO-<2;;;;;;;;&&&@@O<<2<;;;;;&&&@O<&@O<2<;;&&@OO<<;;;&&&&@O",
">-%++XXO-<2;;;;;;;;&&&@@OO<<2;;;;&&&@@O<&@@O2<<&&&@OO<<<;;&&&&@O",
"->-++XXO--2<;;;;;;;&&&@@O@O<2;;;;&&&@O<<&&@O<<<&&&@OO<2<;;&&&@O;",
"O-+++XOXO-><;;;;;;;&&&@O&@O<2<;;;&&&@O<<;&@@O<&&&&@O@O<2;;&&&@O<",
"O-++XXO+O->-;;;;;;;&&&@O&&@O2<;;&&&&O<2;;&@@O<&&&@@O@O<2<;&&&@O<",
"XO++XXO+XO-><;;;;;&&&&@O<&@O<2;;&&&@O<2;;&&@O&&&&@O&@O<2<;&&&@O<",
"XO+XXXO-XO->-;;;;;&&&@@O<&@O<2;;&&&@O<2;;&&@O&&&&@O&@O<<<&&&@O<<",
"XXOXXO--XO->-<;;;;&&&@O<<;&O<2<&&&@O<<2;;&&@@O&&@@O&&@O<<&&&@O<<",
"-XOXXO--+XO-><;;;&&&&@O<2;&@O<2&&&@O<<2;;;&@@O&&@@O&&@O<<&&@@O<<",
"-XXOXO->+XO-->;;;&&&@O<<2;&@O<<&&&@O<<2;;;&&@O&&@@O<&@O<<&&@@O<<",
"-OOOXO->%+O--><;&&&&@O<2;;&@O<&&&@O<<<<;;;&&@O&@@O<<&@O<&&&@O<2<",
"O  OO O>-+XO--<&&&&&O<<2;;&@@O&&&@O<<<<;;;&&@@O@@O<<&&@O&&@@O<2<",
"    O  O>+XO--<&&&&@O<2;;;&@@O&&&@O<<2<;;;;&&@O@@O<<&&@O&&@@O<2<",
"        O%O O-+&&&&@O<2;;&&@@O&&@O@O<2<;;;;&&@O@O<2<;&@O&&@@O2<<",
"         O  O++&&&@O<<2;;&&@@O&&@O@O<2<;;;;&&@@OO<2<;&@O&&@O<2<<",
"            O++&&&@O<2;;;&&@@O&@O&@O<<2;;;;&&@@OO<2<;&&@O&@O<2<<",
"             O+&&@O<<2;;;&&@@O&@O&&@O<2<;;;;&&@O<<2<;&&@O@@O<2<<",
"             O+&&@O<<2;;&&&@O&@O<&&@O<2<;;;;&&@O<<<;;&&@O@@O2<<;",
"              O&@O<<<;;;&&&@O@O<<&&&O<<2<;;;&&@@O<<;;;&&@O@O2<<;",
"              O&O<<2<;;;&&&@O@O<<&&&@O<2<;;;;&@@O<<;;;&&@@O<2<<;",
"              O@O<<2<;;;&&&@OO<<<;&&@O<<2<;;;&&@O<2<;;&&@@O<2<;;",
"               O<<<2;;;;&&&@O<<<<;&&@O<<2<;;;&&@O<2<;;&&&@O<2<;;",
"               O<<2<;;;;;&&@O<<<<;;&&@O<<<;;;&&&@O2<;;&&&@O<2<;;",
"               O<<2<;;;;;&&@O<<<<;;&&@O<<2<;;&&&@O2<;;&&&@O<2<;;",
"               O<<2;;;;;;&&@O<<<;;;&&@O<<2<;;&&&@O<<;;&&&@O<2;;;",
"               O<<2;;;;;;&&&@O<<;;;&&@O<<<<;;&&&@O<<;;&&&@O<<;;;"
};
