/* XPM */
static char *coin_5[] = {
/* columns rows colors chars-per-pixel */
"64 64 7 1 ",
"  c #714917",
". c #CE7211",
"X c #FEB421",
"o c #FFFF7D",
"O c #FFFFEB",
"+ c white",
"@ c None",
/* pixels */
"@@@@@@@@@@@@@@@@@@@@@@@@@@@@@@@@@@@@@@@@@@@@@@@@@@@@@@@@@@@@@@@@",
"@@@@@@@@@@@@@@@@@@@@@@@@@@@@@@@@@@@@@@@@@@@@@@@@@@@@@@@@@@@@@@@@",
"@@@@@@@@@@@@@@@@@@@@@@@@@@@@@@@@@@@@@@@@@@@@@@@@@@@@@@@@@@@@@@@@",
"@@@@@@@@@@@@@@@@@@@@@@@@@@@@@@@@@@@@@@@@@@@@@@@@@@@@@@@@@@@@@@@@",
"@@@@@@@@@@@@@@@@@@@@@@@@              @@@@@@@@@@@@@@@@@@@@@@@@@@",
"@@@@@@@@@@@@@@@@@@@@@@@@              @@@@@@@@@@@@@@@@@@@@@@@@@@",
"@@@@@@@@@@@@@@@@@@@@    XX    ooooOOOO    @@@@@@@@@@@@@@@@@@@@@@",
"@@@@@@@@@@@@@@@@@@@@    XX    ooooOOOO    @@@@@@@@@@@@@@@@@@@@@@",
"@@@@@@@@@@@@@@@@@@  XX    ooXXXX      OO++    @@@@@@@@@@@@@@@@@@",
"@@@@@@@@@@@@@@@@@@  XX    ooXXXX      OO++    @@@@@@@@@@@@@@@@@@",
"@@@@@@@@@@@@@@@@  XX  ooXXXX    ooOOOO    ++++  @@@@@@@@@@@@@@@@",
"@@@@@@@@@@@@@@@@  XX  ooXXXX    ooOOOO    ++++  @@@@@@@@@@@@@@@@",
"@@@@@@@@@@@@@@  XX  ooXXXX  ooooOOOOOOOOOO  ++OO  @@@@@@@@@@@@@@",
"@@@@@@@@@@@@@@  XX  ooXXXX  ooooOOOOOOOOOO  ++OO  @@@@@@@@@@@@@@",
"@@@@@@@@@@@@  XX  ooXX..  ..ooooOOOO++++OOOO  ++OO  @@@@@@@@@@@@",
"@@@@@@@@@@@@  XX  ooXX..  ..ooooOOOO++++OOOO  ++OO  @@@@@@@@@@@@",
"@@@@@@@@@@  XXXX  XX..  ..ooooooOOOO++++++OOOO  ++  @@@@@@@@@@@@",
"@@@@@@@@@@  XXXX  XX..  ..ooooooOOOO++++++OOOO  ++  @@@@@@@@@@@@",
"@@@@@@@@@@  XX  XXXX..  ..ooooooOOOO++++++++OOOO  OO  @@@@@@@@@@",
"@@@@@@@@@@  XX  XXXX..  ..ooooooOOOO++++++++OOOO  OO  @@@@@@@@@@",
"@@@@@@@@  ..XX  XX..  ....ooooooOOOOOO++++++OOOO  OO  @@@@@@@@@@",
"@@@@@@@@  ..XX  XX..  ....ooooooOOOOOO++++++OOOO  OO  @@@@@@@@@@",
"@@@@@@@@  ..  XXXX..  ....ooooooooOOOOOO++OOOOOOOO  OO  @@@@@@@@",
"@@@@@@@@  ..  XXXX..  ....ooooooooOOOOOO++OOOOOOOO  OO  @@@@@@@@",
"@@@@@@@@  ..  XXXX  XX....ooooooooOOOOOOOOOOOOOOOO  OO  @@@@@@@@",
"@@@@@@@@  ..  XXXX  XX....ooooooooOOOOOOOOOOOOOOOO  OO  @@@@@@@@",
"@@@@@@@@  ..  XX..  XX....ooooooooooOOOOOOOOOOOOoo  OO  @@@@@@@@",
"@@@@@@@@  ..  XX..  XX....ooooooooooOOOOOOOOOOOOoo  OO  @@@@@@@@",
"@@@@@@@@  ..  XX..  XX......ooooooooooOOOOOOOOOOoo  OO  @@@@@@@@",
"@@@@@@@@  ..  XX..  XX......ooooooooooOOOOOOOOOOoo  OO  @@@@@@@@",
"@@@@@@@@  ..  XX..  XX......ooooooooooooooOOOOoooo  OO  @@@@@@@@",
"@@@@@@@@  ..  XX..  XX......ooooooooooooooOOOOoooo  OO  @@@@@@@@",
"@@@@@@@@  ..  XX..  XXXX......oooooooooooooooooooo  oo  @@@@@@@@",
"@@@@@@@@  ..  XX..  XXXX......oooooooooooooooooooo  oo  @@@@@@@@",
"@@@@@@@@  ..  XX..  XXXX......oooooooooooooooooo..  oo  @@@@@@@@",
"@@@@@@@@  ..  XX..  XXXX......oooooooooooooooooo..  oo  @@@@@@@@",
"@@@@@@@@  ..  XX..  XXXXXX......oooooooooooooo....  XX  @@@@@@@@",
"@@@@@@@@  ..  XX..  XXXXXX......oooooooooooooo....  XX  @@@@@@@@",
"@@@@@@@@  ..  XXXX..  XXXX..............oooo......  XX  @@@@@@@@",
"@@@@@@@@  ..  XXXX..  XXXX..............oooo......  XX  @@@@@@@@",
"@@@@@@@@  ....  XX..  XXXXXX....................  XX  @@@@@@@@@@",
"@@@@@@@@  ....  XX..  XXXXXX....................  XX  @@@@@@@@@@",
"@@@@@@@@@@  ..  XXXX..  XXXXXX..................  XX  @@@@@@@@@@",
"@@@@@@@@@@  ..  XXXX..  XXXXXX..................  XX  @@@@@@@@@@",
"@@@@@@@@@@  ....  XX..  XXXXXXXX............XX  XX  @@@@@@@@@@@@",
"@@@@@@@@@@  ....  XX..  XXXXXXXX............XX  XX  @@@@@@@@@@@@",
"@@@@@@@@@@@@  ..  XXXX..  XXXXXXXXXXXX....XX  XXXX  @@@@@@@@@@@@",
"@@@@@@@@@@@@  ..  XXXX..  XXXXXXXXXXXX....XX  XXXX  @@@@@@@@@@@@",
"@@@@@@@@@@@@@@  ..  XXXXXX  XXXXXXXXXXXXXX  XXXX  @@@@@@@@@@@@@@",
"@@@@@@@@@@@@@@  ..  XXXXXX  XXXXXXXXXXXXXX  XXXX  @@@@@@@@@@@@@@",
"@@@@@@@@@@@@@@@@  ..  XXXXXX    XXXXXX    XXXX  @@@@@@@@@@@@@@@@",
"@@@@@@@@@@@@@@@@  ..  XXXXXX    XXXXXX    XXXX  @@@@@@@@@@@@@@@@",
"@@@@@@@@@@@@@@@@@@  ..    XX....      XXXX    @@@@@@@@@@@@@@@@@@",
"@@@@@@@@@@@@@@@@@@  ..    XX....      XXXX    @@@@@@@@@@@@@@@@@@",
"@@@@@@@@@@@@@@@@@@@@    ..    XXXXXXXX    @@@@@@@@@@@@@@@@@@@@@@",
"@@@@@@@@@@@@@@@@@@@@    ..    XXXXXXXX    @@@@@@@@@@@@@@@@@@@@@@",
"@@@@@@@@@@@@@@@@@@@@@@@@              @@@@@@@@@@@@@@@@@@@@@@@@@@",
"@@@@@@@@@@@@@@@@@@@@@@@@              @@@@@@@@@@@@@@@@@@@@@@@@@@",
"@@@@@@@@@@@@@@@@@@@@@@@@@@@@@@@@@@@@@@@@@@@@@@@@@@@@@@@@@@@@@@@@",
"@@@@@@@@@@@@@@@@@@@@@@@@@@@@@@@@@@@@@@@@@@@@@@@@@@@@@@@@@@@@@@@@",
"@@@@@@@@@@@@@@@@@@@@@@@@@@@@@@@@@@@@@@@@@@@@@@@@@@@@@@@@@@@@@@@@",
"@@@@@@@@@@@@@@@@@@@@@@@@@@@@@@@@@@@@@@@@@@@@@@@@@@@@@@@@@@@@@@@@",
"@@@@@@@@@@@@@@@@@@@@@@@@@@@@@@@@@@@@@@@@@@@@@@@@@@@@@@@@@@@@@@@@",
"@@@@@@@@@@@@@@@@@@@@@@@@@@@@@@@@@@@@@@@@@@@@@@@@@@@@@@@@@@@@@@@@"
};
