/* XPM */
static char *_00_0039_coin71697129302[] = {
/* columns rows colors chars-per-pixel */
"32 32 7 1 ",
"  c None",
". c #714917",
"X c #CE7211",
"o c #FEB421",
"O c #FFFF7D",
"+ c #FFFFEB",
"@ c white",
/* pixels */
"                                ",
"                                ",
"             ......             ",
"            .oo.oO+.            ",
"           .ooo.oO+@.           ",
"          .ooo.ooO..@.          ",
"          .ooX.oO.XO..          ",
"         .ooo.ooO.XO+.          ",
"         .ooX.ooO.XO+@.         ",
"         .ooX.oo.oXO+@.         ",
"        .ooXX.oX.oXO+@.         ",
"        .ooX.ooX.oXO++.         ",
"        .ooX.ooX.oXOO+@.        ",
"        .ooX.ooX.oXOO++.        ",
"        .XoX.ooX.oXXOO+.        ",
"        .XoX.ooX.oXXOOO.        ",
"        .XoX.ooX.oXXOOO.        ",
"        .XXX.ooX.oXXXOX.        ",
"        .XXX.ooX.oXXXXX.        ",
"        .XXX.ooX.oXXXX.         ",
"        .XXXX.oX.ooXXX.         ",
"         .XXX.oX.ooXXo.         ",
"         .XXX.oXX.oooo.         ",
"         .XXX.ooX.ooo.          ",
"          .XXX.oX.oo..          ",
"          .XXX.ooX..X.          ",
"           .XXX.ooXo.           ",
"            .XX.ooo.            ",
"             ......             ",
"                                ",
"                                ",
"                                "
};
