/* XPM */
static char *coin_6[] = {
/* columns rows colors chars-per-pixel */
"64 64 7 1 ",
"  c #714917",
". c #CE7211",
"X c #FEB421",
"o c #FFFF7D",
"O c #FFFFEB",
"+ c white",
"@ c None",
/* pixels */
"@@@@@@@@@@@@@@@@@@@@@@@@@@@@@@@@@@@@@@@@@@@@@@@@@@@@@@@@@@@@@@@@",
"@@@@@@@@@@@@@@@@@@@@@@@@@@@@@@@@@@@@@@@@@@@@@@@@@@@@@@@@@@@@@@@@",
"@@@@@@@@@@@@@@@@@@@@@@@@@@@@@@@@@@@@@@@@@@@@@@@@@@@@@@@@@@@@@@@@",
"@@@@@@@@@@@@@@@@@@@@@@@@@@@@@@@@@@@@@@@@@@@@@@@@@@@@@@@@@@@@@@@@",
"@@@@@@@@@@@@@@@@@@@@@@@@@@            @@@@@@@@@@@@@@@@@@@@@@@@@@",
"@@@@@@@@@@@@@@@@@@@@@@@@@@            @@@@@@@@@@@@@@@@@@@@@@@@@@",
"@@@@@@@@@@@@@@@@@@@@@@@@  XXXX  XXooOO  @@@@@@@@@@@@@@@@@@@@@@@@",
"@@@@@@@@@@@@@@@@@@@@@@@@  XXXX  XXooOO  @@@@@@@@@@@@@@@@@@@@@@@@",
"@@@@@@@@@@@@@@@@@@@@@@  XXXXXX  XXooOO++  @@@@@@@@@@@@@@@@@@@@@@",
"@@@@@@@@@@@@@@@@@@@@@@  XXXXXX  XXooOO++  @@@@@@@@@@@@@@@@@@@@@@",
"@@@@@@@@@@@@@@@@@@@@  XXXXXX  XXXXoo    ++  @@@@@@@@@@@@@@@@@@@@",
"@@@@@@@@@@@@@@@@@@@@  XXXXXX  XXXXoo    ++  @@@@@@@@@@@@@@@@@@@@",
"@@@@@@@@@@@@@@@@@@@@  XXXX..  XXoo  ..oo    @@@@@@@@@@@@@@@@@@@@",
"@@@@@@@@@@@@@@@@@@@@  XXXX..  XXoo  ..oo    @@@@@@@@@@@@@@@@@@@@",
"@@@@@@@@@@@@@@@@@@  XXXXXX  XXXXoo  ..ooOO  @@@@@@@@@@@@@@@@@@@@",
"@@@@@@@@@@@@@@@@@@  XXXXXX  XXXXoo  ..ooOO  @@@@@@@@@@@@@@@@@@@@",
"@@@@@@@@@@@@@@@@@@  XXXX..  XXXXoo  ..ooOO++  @@@@@@@@@@@@@@@@@@",
"@@@@@@@@@@@@@@@@@@  XXXX..  XXXXoo  ..ooOO++  @@@@@@@@@@@@@@@@@@",
"@@@@@@@@@@@@@@@@@@  XXXX..  XXXX  XX..ooOO++  @@@@@@@@@@@@@@@@@@",
"@@@@@@@@@@@@@@@@@@  XXXX..  XXXX  XX..ooOO++  @@@@@@@@@@@@@@@@@@",
"@@@@@@@@@@@@@@@@  XXXX....  XX..  XX..ooOO++  @@@@@@@@@@@@@@@@@@",
"@@@@@@@@@@@@@@@@  XXXX....  XX..  XX..ooOO++  @@@@@@@@@@@@@@@@@@",
"@@@@@@@@@@@@@@@@  XXXX..  XXXX..  XX..ooOOOO  @@@@@@@@@@@@@@@@@@",
"@@@@@@@@@@@@@@@@  XXXX..  XXXX..  XX..ooOOOO  @@@@@@@@@@@@@@@@@@",
"@@@@@@@@@@@@@@@@  XXXX..  XXXX..  XX..ooooOO++  @@@@@@@@@@@@@@@@",
"@@@@@@@@@@@@@@@@  XXXX..  XXXX..  XX..ooooOO++  @@@@@@@@@@@@@@@@",
"@@@@@@@@@@@@@@@@  XXXX..  XXXX..  XX..ooooOOOO  @@@@@@@@@@@@@@@@",
"@@@@@@@@@@@@@@@@  XXXX..  XXXX..  XX..ooooOOOO  @@@@@@@@@@@@@@@@",
"@@@@@@@@@@@@@@@@  ..XX..  XXXX..  XX....ooooOO  @@@@@@@@@@@@@@@@",
"@@@@@@@@@@@@@@@@  ..XX..  XXXX..  XX....ooooOO  @@@@@@@@@@@@@@@@",
"@@@@@@@@@@@@@@@@  ..XX..  XXXX..  XX....oooooo  @@@@@@@@@@@@@@@@",
"@@@@@@@@@@@@@@@@  ..XX..  XXXX..  XX....oooooo  @@@@@@@@@@@@@@@@",
"@@@@@@@@@@@@@@@@  ..XX..  XXXX..  XX....oooooo  @@@@@@@@@@@@@@@@",
"@@@@@@@@@@@@@@@@  ..XX..  XXXX..  XX....oooooo  @@@@@@@@@@@@@@@@",
"@@@@@@@@@@@@@@@@  ......  XXXX..  XX......oo..  @@@@@@@@@@@@@@@@",
"@@@@@@@@@@@@@@@@  ......  XXXX..  XX......oo..  @@@@@@@@@@@@@@@@",
"@@@@@@@@@@@@@@@@  ......  XXXX..  XX..........  @@@@@@@@@@@@@@@@",
"@@@@@@@@@@@@@@@@  ......  XXXX..  XX..........  @@@@@@@@@@@@@@@@",
"@@@@@@@@@@@@@@@@  ......  XXXX..  XX........  @@@@@@@@@@@@@@@@@@",
"@@@@@@@@@@@@@@@@  ......  XXXX..  XX........  @@@@@@@@@@@@@@@@@@",
"@@@@@@@@@@@@@@@@  ........  XX..  XXXX......  @@@@@@@@@@@@@@@@@@",
"@@@@@@@@@@@@@@@@  ........  XX..  XXXX......  @@@@@@@@@@@@@@@@@@",
"@@@@@@@@@@@@@@@@@@  ......  XX..  XXXX....XX  @@@@@@@@@@@@@@@@@@",
"@@@@@@@@@@@@@@@@@@  ......  XX..  XXXX....XX  @@@@@@@@@@@@@@@@@@",
"@@@@@@@@@@@@@@@@@@  ......  XX....  XXXXXXXX  @@@@@@@@@@@@@@@@@@",
"@@@@@@@@@@@@@@@@@@  ......  XX....  XXXXXXXX  @@@@@@@@@@@@@@@@@@",
"@@@@@@@@@@@@@@@@@@  ......  XXXX..  XXXXXX  @@@@@@@@@@@@@@@@@@@@",
"@@@@@@@@@@@@@@@@@@  ......  XXXX..  XXXXXX  @@@@@@@@@@@@@@@@@@@@",
"@@@@@@@@@@@@@@@@@@@@  ......  XX..  XXXX    @@@@@@@@@@@@@@@@@@@@",
"@@@@@@@@@@@@@@@@@@@@  ......  XX..  XXXX    @@@@@@@@@@@@@@@@@@@@",
"@@@@@@@@@@@@@@@@@@@@  ......  XXXX..    ..  @@@@@@@@@@@@@@@@@@@@",
"@@@@@@@@@@@@@@@@@@@@  ......  XXXX..    ..  @@@@@@@@@@@@@@@@@@@@",
"@@@@@@@@@@@@@@@@@@@@@@  ......  XXXX..XX  @@@@@@@@@@@@@@@@@@@@@@",
"@@@@@@@@@@@@@@@@@@@@@@  ......  XXXX..XX  @@@@@@@@@@@@@@@@@@@@@@",
"@@@@@@@@@@@@@@@@@@@@@@@@  ....  XXXXXX  @@@@@@@@@@@@@@@@@@@@@@@@",
"@@@@@@@@@@@@@@@@@@@@@@@@  ....  XXXXXX  @@@@@@@@@@@@@@@@@@@@@@@@",
"@@@@@@@@@@@@@@@@@@@@@@@@@@            @@@@@@@@@@@@@@@@@@@@@@@@@@",
"@@@@@@@@@@@@@@@@@@@@@@@@@@            @@@@@@@@@@@@@@@@@@@@@@@@@@",
"@@@@@@@@@@@@@@@@@@@@@@@@@@@@@@@@@@@@@@@@@@@@@@@@@@@@@@@@@@@@@@@@",
"@@@@@@@@@@@@@@@@@@@@@@@@@@@@@@@@@@@@@@@@@@@@@@@@@@@@@@@@@@@@@@@@",
"@@@@@@@@@@@@@@@@@@@@@@@@@@@@@@@@@@@@@@@@@@@@@@@@@@@@@@@@@@@@@@@@",
"@@@@@@@@@@@@@@@@@@@@@@@@@@@@@@@@@@@@@@@@@@@@@@@@@@@@@@@@@@@@@@@@",
"@@@@@@@@@@@@@@@@@@@@@@@@@@@@@@@@@@@@@@@@@@@@@@@@@@@@@@@@@@@@@@@@",
"@@@@@@@@@@@@@@@@@@@@@@@@@@@@@@@@@@@@@@@@@@@@@@@@@@@@@@@@@@@@@@@@"
};
