/* XPM */
static char *_00_0041_coin51697129303[] = {
/* columns rows colors chars-per-pixel */
"32 32 10 1 ",
"  c None",
". c #714917",
"X c #CE7211",
"o c #E99526",
"O c #FEB421",
"+ c #FFFF7D",
"@ c #FFFFA6",
"# c #FFFFAB",
"$ c #FFFFEB",
"% c white",
/* pixels */
"                                ",
"                                ",
"            .......             ",
"         ...+++$$$$...          ",
"        .++++OOOOO+$$$.         ",
"       .OOXX.......O++$.        ",
"      .OOX..+++$$$$..O+$.       ",
"     .OXX.++++$$$%%$$.O+$.      ",
"    .OXX.X+++$$$%%%%$$.O+$.     ",
"   .OOX.X++++$$$$%%%$$+.+$$.    ",
"   .OX.XX+++++$$$$%%$$$X.+$.    ",
"   .OX.XX+++++$$$$$$$$++.+$o    ",
"  .OX.OXX++++++$$$$$$+++O.$%o   ",
"  .OX.OXX+++++++$$$$++++Xo%%o   ",
"  .OX.OXXO++++++++$++++X@o%$.   ",
"  .OX.OXXX++++++++++++%@@o+$.   ",
"  .OX.OOXXX++++++++++%@@#.+$.   ",
"  .OX.OOXXXXX++++++%%@@XO.++o   ",
"  .OO.OOOXXXXXXX++%@@@XXO.%%o   ",
"   .OX.OOOXXXXXX@@@@XXXOo%%o    ",
"   .OX.OOOOXXXX@@@XXXXO#o%#.    ",
"   .OOX.OOOOX@@@@XXXO##o%##.    ",
"    .OOX.OO####OOOO###o%%O.     ",
"     .OOX.###OOOOO###o%%O.      ",
"      .O#@o.OOOO###o.%OO.       ",
"       o##XX..ooooo#OOO.        ",
"        oOOO@@@@@@@OOO.         ",
"         ..o#####OO...          ",
"            ooo....             ",
"                                ",
"                                ",
"                                "
};
