/* XPM */
static char *coin_2[] = {
/* columns rows colors chars-per-pixel */
"64 64 10 1 ",
"  c #714917",
". c #CE7211",
"X c #E99526",
"o c #FEB421",
"O c #FFFF7D",
"+ c #FFFFA6",
"@ c #FFFFAB",
"# c #FFFFEB",
"$ c white",
"% c None",
/* pixels */
"%%%%%%%%%%%%%%%%%%%%%%%%%%%%%%%%%%%%%%%%%%%%%%%%%%%%%%%%%%%%%%%%",
"%%%%%%%%%%%%%%%%%%%%%%%%%%%%%%%%%%%%%%%%%%%%%%%%%%%%%%%%%%%%%%%%",
"%%%%%%%%%%%%%%%%%%%%%%%%%%%%%%%%%%%%%%%%%%%%%%%%%%%%%%%%%%%%%%%%",
"%%%%%%%%%%%%%%%%%%%%%%%%%%%%%%%%%%%%%%%%%%%%%%%%%%%%%%%%%%%%%%%%",
"%%%%%%%%%%%%%%%%%%%%%%%%              %%%%%%%%%%%%%%%%%%%%%%%%%%",
"%%%%%%%%%%%%%%%%%%%%%%%%              %%%%%%%%%%%%%%%%%%%%%%%%%%",
"%%%%%%%%%%%%%%%%%%      OOOOOO######$$  XX  %%%%%%%%%%%%%%%%%%%%",
"%%%%%%%%%%%%%%%%%%      OOOOOO######$$  XX  %%%%%%%%%%%%%%%%%%%%",
"%%%%%%%%%%%%%%%%  OOOOOOOOoooooo@@@@$$$$####  %%%%%%%%%%%%%%%%%%",
"%%%%%%%%%%%%%%%%  OOOOOOOOoooooo@@@@$$$$####  %%%%%%%%%%%%%%%%%%",
"%%%%%%%%%%%%%%  oooo....          XX  ooOOOO##XX%%%%%%%%%%%%%%%%",
"%%%%%%%%%%%%%%  oooo....          XX  ooOOOO##XX%%%%%%%%%%%%%%%%",
"%%%%%%%%%%%%  oooo..    $$$$$$$$$$####  XXoo$$$$XX%%%%%%%%%%%%%%",
"%%%%%%%%%%%%  oooo..    $$$$$$$$$$####  XXoo$$$$XX%%%%%%%%%%%%%%",
"%%%%%%%%%%  oo....  $$$$$$$$$$####$$$$##$$XX@@$$$$XX%%%%%%%%%%%%",
"%%%%%%%%%%  oo....  $$$$$$$$$$####$$$$##$$XX@@$$$$XX%%%%%%%%%%%%",
"%%%%%%%%  oo....  ++$$$$$$$$####$$$$$$$$$$$$XX@@OO$$XX%%%%%%%%%%",
"%%%%%%%%  oo....  ++$$$$$$$$####$$$$$$$$$$$$XX@@OO$$XX%%%%%%%%%%",
"%%%%%%  oooo..  ++$$$$$$OO######$$$$$$$$$$$$OOXX$$$$$$  %%%%%%%%",
"%%%%%%  oooo..  ++$$$$$$OO######$$$$$$$$$$$$OOXX$$$$$$  %%%%%%%%",
"%%%%%%  oo..  ++++$$$$OOOOOO##$$$$$$$$$$$$$$$$++  OO##XX%%%%%%%%",
"%%%%%%  oo..  ++++$$$$OOOOOO##$$$$$$$$$$$$$$$$++  OO##XX%%%%%%%%",
"%%%%%%  oo..XX++++OOOOOOOO$$$$$$$$$$$$##$$$$$$$$  OO$$  %%%%%%%%",
"%%%%%%  oo..XX++++OOOOOOOO$$$$$$$$$$$$##$$$$$$$$  OO$$  %%%%%%%%",
"%%%%  oo..XX@@....OOOO$$$$$$$$$$$$$$$$$$$$$$OOOOooXX####  %%%%%%",
"%%%%  oo..XX@@....OOOO$$$$$$$$$$$$$$$$$$$$$$OOOOooXX####  %%%%%%",
"%%%%  oo++XXoo....$$$$$$$$$$$$$$$$$$$$$$$$OOOO$$++  ####  %%%%%%",
"%%%%  oo++XXoo....$$$$$$$$$$$$$$$$$$$$$$$$OOOO$$++  ####  %%%%%%",
"%%%%XX@@..  oo++++@@$$$$$$$$$$$$$$$$$$OOOO$$$$....  OO##  %%%%%%",
"%%%%XX@@..  oo++++@@$$$$$$$$$$$$$$$$$$OOOO$$$$....  OO##  %%%%%%",
"%%%%  oo..  @@++++++$$$$$$$$$$$$$$OOOOOO$$OOOO....  OO##  %%%%%%",
"%%%%  oo..  @@++++++$$$$$$$$$$$$$$OOOOOO$$OOOO....  OO##  %%%%%%",
"%%%%  oo++XX@@@@++++++$$$$$$$$$$OOOO$$$$OOOO....oo  OO##  %%%%%%",
"%%%%  oo++XX@@@@++++++$$$$$$$$$$OOOO$$$$OOOO....oo  OO##  %%%%%%",
"%%%%  @@++XX@@@@++++++++++$$OOOOOO$$OOOOOO......oo  OOOO  %%%%%%",
"%%%%  @@++XX@@@@++++++++++$$OOOOOO$$OOOOOO......oo  OOOO  %%%%%%",
"%%%%XX@@@@XX@@@@@@++++++++....++$$OOOO..........oo  OOOO  %%%%%%",
"%%%%XX@@@@XX@@@@@@++++++++....++$$OOOO..........oo  OOOO  %%%%%%",
"%%%%%%XX@@++XX@@@@@@++....++++................oo  OOOO  %%%%%%%%",
"%%%%%%XX@@++XX@@@@@@++....++++................oo  OOOO  %%%%%%%%",
"%%%%%%XX@@++XX@@@@oooo..++..................oooo  OOoo  %%%%%%%%",
"%%%%%%XX@@++XX@@@@oooo..++..................oooo  OOoo  %%%%%%%%",
"%%%%%%XX@@@@++XXoooo@@@@................oooooo  OOoooo  %%%%%%%%",
"%%%%%%XX@@@@++XXoooo@@@@................oooooo  OOoooo  %%%%%%%%",
"%%%%%%%%XX@@oo..  @@oooooooooooooooooooooooo  OOOOoo  %%%%%%%%%%",
"%%%%%%%%XX@@oo..  @@oooooooooooooooooooooooo  OOOOoo  %%%%%%%%%%",
"%%%%%%%%%%  @@@@..XXoooooooooooooooooooooo  OOOOoo  %%%%%%%%%%%%",
"%%%%%%%%%%  @@@@..XXoooooooooooooooooooooo  OOOOoo  %%%%%%%%%%%%",
"%%%%%%%%%%%%XXoooo..    oooooooooooooo    OOoooo  %%%%%%%%%%%%%%",
"%%%%%%%%%%%%XXoooo..    oooooooooooooo    OOoooo  %%%%%%%%%%%%%%",
"%%%%%%%%%%%%%%  oooo....              oooooooo  %%%%%%%%%%%%%%%%",
"%%%%%%%%%%%%%%  oooo....              oooooooo  %%%%%%%%%%%%%%%%",
"%%%%%%%%%%%%%%%%  oooooo..............oooooo  %%%%%%%%%%%%%%%%%%",
"%%%%%%%%%%%%%%%%  oooooo..............oooooo  %%%%%%%%%%%%%%%%%%",
"%%%%%%%%%%%%%%%%%%      oooooooooooooo      %%%%%%%%%%%%%%%%%%%%",
"%%%%%%%%%%%%%%%%%%      oooooooooooooo      %%%%%%%%%%%%%%%%%%%%",
"%%%%%%%%%%%%%%%%%%%%%%%%              %%%%%%%%%%%%%%%%%%%%%%%%%%",
"%%%%%%%%%%%%%%%%%%%%%%%%              %%%%%%%%%%%%%%%%%%%%%%%%%%",
"%%%%%%%%%%%%%%%%%%%%%%%%%%%%%%%%%%%%%%%%%%%%%%%%%%%%%%%%%%%%%%%%",
"%%%%%%%%%%%%%%%%%%%%%%%%%%%%%%%%%%%%%%%%%%%%%%%%%%%%%%%%%%%%%%%%",
"%%%%%%%%%%%%%%%%%%%%%%%%%%%%%%%%%%%%%%%%%%%%%%%%%%%%%%%%%%%%%%%%",
"%%%%%%%%%%%%%%%%%%%%%%%%%%%%%%%%%%%%%%%%%%%%%%%%%%%%%%%%%%%%%%%%",
"%%%%%%%%%%%%%%%%%%%%%%%%%%%%%%%%%%%%%%%%%%%%%%%%%%%%%%%%%%%%%%%%",
"%%%%%%%%%%%%%%%%%%%%%%%%%%%%%%%%%%%%%%%%%%%%%%%%%%%%%%%%%%%%%%%%"
};
