/* XPM */
static char *_00_0037_coin91697129302[] = {
/* columns rows colors chars-per-pixel */
"32 32 7 1 ",
"  c None",
". c #714917",
"X c #CE7211",
"o c #FEB421",
"O c #FFFF7D",
"+ c #FFFFEB",
"@ c white",
/* pixels */
"                                ",
"                                ",
"             ......             ",
"            .ooO.+@.            ",
"           .oooO.++@.           ",
"          .o..ooO.+@@.          ",
"          ..XX.oo.O+@.          ",
"          .oXX.ooO.+@@.         ",
"         .ooXO.ooO.O+@.         ",
"         .oXXO+.oO.O+@.         ",
"         .oXXO+.oO.OO+@.        ",
"         .oXXO+.ooO.O+@.        ",
"        .ooXXO+.ooO.OO@.        ",
"        .oXXXOO.ooO.OO@.        ",
"        .oXXXXO.XoO.OO+.        ",
"        .oXXXXO.XoO.OO+.        ",
"        .oXXXXO.XoO.OO+.        ",
"        .oXXXXO.XoO.OO+.        ",
"        .ooXXXX.XoO.OO+.        ",
"         .oXXXX.XoO.OO+.        ",
"         .oXXXX.Xo.OO+o.        ",
"         .ooXXX.Xo.OO+.         ",
"         .oooX.XXo.OO+.         ",
"          .ooo.XXo.OOo.         ",
"          ..oo.XX.OOo.          ",
"          .o..oXX.Ooo.          ",
"           .oooX.ooo.           ",
"            .oXX.oo.            ",
"             ......             ",
"                                ",
"                                ",
"                                "
};
