/* XPM */
static char *coin_4[] = {
/* columns rows colors chars-per-pixel */
"64 64 10 1 ",
"  c #714917",
". c #CE7211",
"X c #E99526",
"o c #FEB421",
"O c #FFFF7D",
"+ c #FFFFA6",
"@ c #FFFFAB",
"# c #FFFFEB",
"$ c white",
"% c None",
/* pixels */
"%%%%%%%%%%%%%%%%%%%%%%%%%%%%%%%%%%%%%%%%%%%%%%%%%%%%%%%%%%%%%%%%",
"%%%%%%%%%%%%%%%%%%%%%%%%%%%%%%%%%%%%%%%%%%%%%%%%%%%%%%%%%%%%%%%%",
"%%%%%%%%%%%%%%%%%%%%%%%%%%%%%%%%%%%%%%%%%%%%%%%%%%%%%%%%%%%%%%%%",
"%%%%%%%%%%%%%%%%%%%%%%%%%%%%%%%%%%%%%%%%%%%%%%%%%%%%%%%%%%%%%%%%",
"%%%%%%%%%%%%%%%%%%%%%%%%              %%%%%%%%%%%%%%%%%%%%%%%%%%",
"%%%%%%%%%%%%%%%%%%%%%%%%              %%%%%%%%%%%%%%%%%%%%%%%%%%",
"%%%%%%%%%%%%%%%%%%      OOOOOO########      %%%%%%%%%%%%%%%%%%%%",
"%%%%%%%%%%%%%%%%%%      OOOOOO########      %%%%%%%%%%%%%%%%%%%%",
"%%%%%%%%%%%%%%%%  OOOOOOOOooooooooooOO######  %%%%%%%%%%%%%%%%%%",
"%%%%%%%%%%%%%%%%  OOOOOOOOooooooooooOO######  %%%%%%%%%%%%%%%%%%",
"%%%%%%%%%%%%%%  oooo....              ooOOOO##  %%%%%%%%%%%%%%%%",
"%%%%%%%%%%%%%%  oooo....              ooOOOO##  %%%%%%%%%%%%%%%%",
"%%%%%%%%%%%%  oooo..    OOOOOO########    ooOO##  %%%%%%%%%%%%%%",
"%%%%%%%%%%%%  oooo..    OOOOOO########    ooOO##  %%%%%%%%%%%%%%",
"%%%%%%%%%%  oo....  OOOOOOOO######$$$$####  ooOO##  %%%%%%%%%%%%",
"%%%%%%%%%%  oo....  OOOOOOOO######$$$$####  ooOO##  %%%%%%%%%%%%",
"%%%%%%%%  oo....  ..OOOOOO######$$$$$$$$####  ooOO##  %%%%%%%%%%",
"%%%%%%%%  oo....  ..OOOOOO######$$$$$$$$####  ooOO##  %%%%%%%%%%",
"%%%%%%  oooo..  ..OOOOOOOO########$$$$$$####OO  OO####  %%%%%%%%",
"%%%%%%  oooo..  ..OOOOOOOO########$$$$$$####OO  OO####  %%%%%%%%",
"%%%%%%  oo..  ....OOOOOOOOOO########$$$$######..  OO##  %%%%%%%%",
"%%%%%%  oo..  ....OOOOOOOOOO########$$$$######..  OO##  %%%%%%%%",
"%%%%%%  oo..  ....OOOOOOOOOO################OOOO  OO##XX%%%%%%%%",
"%%%%%%  oo..  ....OOOOOOOOOO################OOOO  OO##XX%%%%%%%%",
"%%%%  oo..  oo....OOOOOOOOOOOO############OOOOOOoo  ##$$XX%%%%%%",
"%%%%  oo..  oo....OOOOOOOOOOOO############OOOOOOoo  ##$$XX%%%%%%",
"%%%%  oo..  oo....OOOOOOOOOOOOOO########OOOOOOOO..XX$$$$XX%%%%%%",
"%%%%  oo..  oo....OOOOOOOOOOOOOO########OOOOOOOO..XX$$$$XX%%%%%%",
"%%%%  oo..  oo....ooOOOOOOOOOOOOOOOO##OOOOOOOO..++XX$$##  %%%%%%",
"%%%%  oo..  oo....ooOOOOOOOOOOOOOOOO##OOOOOOOO..++XX$$##  %%%%%%",
"%%%%  oo..  oo......OOOOOOOOOOOOOOOOOOOOOOOO$$++++XXOO##  %%%%%%",
"%%%%  oo..  oo......OOOOOOOOOOOOOOOOOOOOOOOO$$++++XXOO##  %%%%%%",
"%%%%  oo..  oooo......OOOOOOOOOOOOOOOOOOOO$$++++@@  OO##  %%%%%%",
"%%%%  oo..  oooo......OOOOOOOOOOOOOOOOOOOO$$++++@@  OO##  %%%%%%",
"%%%%  oo..  oooo..........OOOOOOOOOOOO$$$$++++..oo  OOOOXX%%%%%%",
"%%%%  oo..  oooo..........OOOOOOOOOOOO$$$$++++..oo  OOOOXX%%%%%%",
"%%%%  oooo  oooooo..............OOOO$$++++++....oo  $$$$XX%%%%%%",
"%%%%  oooo  oooooo..............OOOO$$++++++....oo  $$$$XX%%%%%%",
"%%%%%%  oo..  oooooo............++++++++......ooXX$$$$XX%%%%%%%%",
"%%%%%%  oo..  oooooo............++++++++......ooXX$$$$XX%%%%%%%%",
"%%%%%%  oo..  oooooooo........++++++........oo@@XX$$@@  %%%%%%%%",
"%%%%%%  oo..  oooooooo........++++++........oo@@XX$$@@  %%%%%%%%",
"%%%%%%  oooo..  oooooooo..++++++++......oo@@@@XX$$@@@@  %%%%%%%%",
"%%%%%%  oooo..  oooooooo..++++++++......oo@@@@XX$$@@@@  %%%%%%%%",
"%%%%%%%%  oooo..  oooo@@@@@@@@oooooooo@@@@@@XX$$$$oo  %%%%%%%%%%",
"%%%%%%%%  oooo..  oooo@@@@@@@@oooooooo@@@@@@XX$$$$oo  %%%%%%%%%%",
"%%%%%%%%%%  oooo..  @@@@@@oooooooooo@@@@@@XX$$$$oo  %%%%%%%%%%%%",
"%%%%%%%%%%  oooo..  @@@@@@oooooooooo@@@@@@XX$$$$oo  %%%%%%%%%%%%",
"%%%%%%%%%%%%  oo@@++XX  oooooooo@@@@@@XX  $$oooo  %%%%%%%%%%%%%%",
"%%%%%%%%%%%%  oo@@++XX  oooooooo@@@@@@XX  $$oooo  %%%%%%%%%%%%%%",
"%%%%%%%%%%%%%%XX@@@@....    XXXXXXXXXX@@oooooo  %%%%%%%%%%%%%%%%",
"%%%%%%%%%%%%%%XX@@@@....    XXXXXXXXXX@@oooooo  %%%%%%%%%%%%%%%%",
"%%%%%%%%%%%%%%%%XXoooooo++++++++++++++oooooo  %%%%%%%%%%%%%%%%%%",
"%%%%%%%%%%%%%%%%XXoooooo++++++++++++++oooooo  %%%%%%%%%%%%%%%%%%",
"%%%%%%%%%%%%%%%%%%    XX@@@@@@@@@@oooo      %%%%%%%%%%%%%%%%%%%%",
"%%%%%%%%%%%%%%%%%%    XX@@@@@@@@@@oooo      %%%%%%%%%%%%%%%%%%%%",
"%%%%%%%%%%%%%%%%%%%%%%%%XXXXXX        %%%%%%%%%%%%%%%%%%%%%%%%%%",
"%%%%%%%%%%%%%%%%%%%%%%%%XXXXXX        %%%%%%%%%%%%%%%%%%%%%%%%%%",
"%%%%%%%%%%%%%%%%%%%%%%%%%%%%%%%%%%%%%%%%%%%%%%%%%%%%%%%%%%%%%%%%",
"%%%%%%%%%%%%%%%%%%%%%%%%%%%%%%%%%%%%%%%%%%%%%%%%%%%%%%%%%%%%%%%%",
"%%%%%%%%%%%%%%%%%%%%%%%%%%%%%%%%%%%%%%%%%%%%%%%%%%%%%%%%%%%%%%%%",
"%%%%%%%%%%%%%%%%%%%%%%%%%%%%%%%%%%%%%%%%%%%%%%%%%%%%%%%%%%%%%%%%",
"%%%%%%%%%%%%%%%%%%%%%%%%%%%%%%%%%%%%%%%%%%%%%%%%%%%%%%%%%%%%%%%%",
"%%%%%%%%%%%%%%%%%%%%%%%%%%%%%%%%%%%%%%%%%%%%%%%%%%%%%%%%%%%%%%%%"
};
