/* XPM */
static char *_00_0043_coin31697129303[] = {
/* columns rows colors chars-per-pixel */
"32 32 10 1 ",
"  c None",
". c #714917",
"X c #CE7211",
"o c #E99526",
"O c #FEB421",
"+ c #FFFF7D",
"@ c #FFFFA6",
"# c #FFFFAB",
"$ c #FFFFEB",
"% c white",
/* pixels */
"                                ",
"                                ",
"            .......             ",
"         ...+++$$$%.o.          ",
"        .++++OOO##%%$$.         ",
"       .OOXX.....o.O++$o        ",
"      .OOX..%%%%%$$.oO%%o       ",
"     .OXX.%%%%%$$%%$%o#%%o      ",
"    .OXX.@%%%%$$%%%%%%o#+%o     ",
"   .OOX.@%%%+$$$%%%%%%+o%%%.    ",
"   .OX.@@%%+++$%%%%%%%%@.+$o    ",
"   .OXo@@++++%%%%%%$%%%%.+%.    ",
"  .OXo#XX++%%%%%%%%%%%++Oo$$.   ",
"  .O@oOXX%%%%%%%%%%%%++%@.$$.   ",
"  o#X.O@@#%%%%%%%%%++%%XX.+$.   ",
"  .OX.#@@@%%%%%%%+++%++XX.+$.   ",
"  .O@o##@@@%%%%%++%%++XXO.+$.   ",
"  .#@o##@@@@@%+++%+++XXXO.++.   ",
"  o##o###@@@@XX@%++XXXXXO.++.   ",
"   o#@o###@XX@@XXXXXXXXO.++.    ",
"   o#@o##OOX@XXXXXXXXXOO.+O.    ",
"   o##@oOO##XXXXXXXXOOO.+OO.    ",
"    o#OX.#OOOOOOOOOOOO.++O.     ",
"     .##XoOOOOOOOOOOO.++O.      ",
"      oOOX..OOOOOOO..+OO.       ",
"       .OOXX.......OOOO.        ",
"        .OOOXXXXXXXOOO.         ",
"         ...OOOOOOO...          ",
"            .......             ",
"                                ",
"                                ",
"                                "
};
