/* XPM */
static char *tile41697129289[] = {
/* columns rows colors chars-per-pixel */
"64 64 7 1 ",
"  c None",
". c #29271B",
"X c #343124",
"o c #46412F",
"O c #6A6349",
"+ c #968D69",
"@ c #D6C88E",
/* pixels */
"               .+@+OOOOOOoooX.++OOOooX.++++OOoooX.++OOoooX.++OOO",
"               .+@+OOOOOOOooX.+@OOOooX.++@+OOoooX.++OOoooX.++OOO",
"               .+++OOOOOOOoooX.@OOOooX.+++OOOoooX.++OOoooX.@+OOO",
"              ..+++OOOOOOOoooX.@OOOooX.+@+OOOoooX.++OOooXX.@OOOO",
"              ..+++OOOOOOOoooX.+OOOooX.+@OOOOoooX.++OOooXX.@OOOO",
"              ..++++OOOOOOoooX.++OOooX.+@OOOooooX.++OOooX.+@OOOO",
"             .X.++++OOOOOOoooX.+@OoooX.@+OOOoooXX.+OOoooX.+@OOOO",
"             .X.++++OOOOOOoooX.+@OooX.+@+OOOoooXX.+OOooXX.+@OOOO",
"             .X.+@++OOOOOOoooX.++oooX.+@+OOOoooX.++OoooXX.++OOOO",
"            .XX.+@++OOOOOOoooX..+oooX.@+OOOOoooX.++OoooX.+++OOOO",
"            .XXX.@++OOOOOOoooX..oooXX.@+OOOooooX.++OooXX.++OOOOO",
"            .XoX.@++OOOOOOoooX..oooX.+@+OOOooooX.+OoooX..++OOOOO",
"           .XXoX.+@+OOOOOOoooX.X.ooX.+@OOOOoooXX.+ooooX..+@+OOOo",
"           .XooX.+@+OOOOOOoooX.X.oXX.@+OOOooooX.X.oooX.X.+@+OOOo",
"           .XOoX.+@+OOOOOOooXX.oX.X.+@+OOOooooX.X.oooX.X.++@OOoo",
"           .O+oo.+@+OOOOOoooXX.oX.X.+@+OOOooooX.X.ooX.oXX.+@OOoo",
"           .O+ooX.@+OOOOOooXX.+ooX.++@+OOooooXX.oX.oX.ooX.+++OoX",
"           .++ooX.+@+OOOOooXX.++oX.++@+OOooooXX.oX.XX.ooXX.++OoX",
"            .+ooX.+@+OOOoooXX.++ooX.+@+OoooooX.+ooX.X.+ooX.++oX.",
"            .+ooo.+@+OOOoooX.++OooX.+@+OooooXX.+oooX.++oooX.+oX.",
"            .OOooX.@+OOOooXX.++OOooX.++oooooX.++oooX.+++ooX.+X.O",
"            .OOooX.++OOOooXX.@+OOooX.OoooooXX.++oooX.+++oooX.X.+",
"            .OOooX.+++OooXX.+@+OOooXX.oooooXX.@++ooX.++@OoooX.++",
"            .OOooo.+++OooXX.+@OOOoooX.oooooX.+@++ooX.++@OoooX.++",
"            .OOOooX.++oooXX.+@OOOOooXX.oooXX.+++OooX.+@+OoooX.++",
"            .OOOooX.+oooXX.+@+OOOOooXX.oooX.+@+OOooX.+@+OoooX.++",
"             .OOooo.ooooXX.+@+OOOOoooX.ooX.+@++OOooX.+@OOOoXX.+@",
"             .OOoooX.ooXX.++@+OOOOoooXX.XX.+@+OOOooX.++OOOoX.++@",
"             .OOOooX.oXXX.++@+OOOOoooXX.X.+@+OOOOooX.++OOOoX.++@",
"              .OOooX.oXX.++@++OOOOoooXX.X.+@+OOOOooX.++OOOoX.++@",
"              .OOOooX.XX.++@+OOOOOooooXX.+@+OOOOOooX.++OOOoX.++@",
"              .OOOooXX..+++@+OOOOOooooXX.+@+OOOOOooX.+@OOOoo.++@",
"              .OOOOooX.++++++OOOOOooooXX.+++OOOOOoo.X+@OOOooX.++",
"              .OOOOooXX.+++++OOOOOooooXX.+@+OOOOOoX.++@OOOooX.++",
"              .OOOOoooX.+++++OOOOOooooX.X.@+OOOOOoX.++@OOOooXX.+",
"              .OOOOoooXX.++@+OOOOOooooX.X.+@OOOOOoX.++@OOOoooX.+",
"             .OOOOOoooXX.++@+OOOOOoooXX.o.+@+OOOOoX.++@OOOooooX.",
"             .OOOOOoooXX.++@+OOOOOoooX.+oX.@+OOOooX..++OOOooooX.",
"             .OOOOOoooXX.++@+OOOOOoooX.+oX.+@+OOooX..++OOOooooX.",
"             .OOOOOoooXX..++@OOOOoooXX.+oXX.@++oooX..+++OOooooX.",
"             .OOOOOoooXX.X.+@OOOOoooX.++ooX.+++oooX..+@+OOoooX.O",
"             .OOOOOoooX.oX.+@+OOOoooX.++OoXX.+ooooX.X.+@OOoooX.+",
"             .OOOOOoooX.ooX.@+OOoooo.+@OOoXX.+oooXX.X.+@+OoooX.+",
"              .OOOooooX.+oX.+@OOoooX.+@OOooX.ooooX.oX.+@+OoooX.+",
"              .OOOoooXX.+oX.+@OOoooX.+@OOooX.ooooX.oX.+++oooX.++",
"              .OOOoooX.++Oo.+@+oooX.++@OOooXX.ooXX.ooX.++oooX.++",
"              .OOooooX.+@OoX.+@oooX.++@OOOoXX.ooXX.ooX.++ooXX.++",
"              .OOoooX.++@OoX.++oooX.++@OOOooX.ooXX.+oX.++ooXX.++",
"              .OooooX.+@OOoX.+oooX.++++OOOooX.oXX.++oX.+oooX.+@+",
"              .ooooo.++@OOoXX.oooX.++++OOOooXX.XX.++ooX.ooXX.+@+",
"              .ooooX.+@OOOoXX.oooX.++@+OOOOooX.XX.++ooX.ooXX.+@+",
"               .oooX.+@OOooXX.ooX.X.+@+OOOOooX.X.+@+OoX.ooXX.@++",
"               .ooX.++@OOooXX.ooX.X.+@+OOOOooXX..+@+OoX.ooX.+@++",
"               .ooX.+@OOOooXX.oX.oX.++@OOOOooXX..+@+OooX.oX.+@++",
"               .oX.++@OOOooXX.oX.ooX.+@+OOOOooX.++@+OooX.XX.+@++",
"               .oX.++@OOoooX.oX.+ooX.+@+OOOOooX.+++OOooX.XX.@++O",
"                ..+++OOOoooX.X.++ooo.++@+OOOooXX.++OOOooX.X.@++O",
"                .++@+OOOoooX.X.++oooX.+@+OOOOoXX.++OOOooXX.+@++O",
"                .++@+OOOoooX..+++OooX.++@+OOOooX.+@+OOooXX.+@+OO",
"                .++@OOOOoooX.++++OooX.++@+OOOooX.+@+OOoooX.+@+OO",
"                .+@+OOOOOooX.++++OOooX.+++OOOoooX.@+OOoooX.+@+OO",
"               .++@+OOOOOooX.++++OOooX.++@+OOoooX.@+OOoooX.+@+OO",
"               .++@OOOOOOooX.+++OOOooX.++@+OOoooX.++OOoooX.+@OOO",
"               .++@OOOOOOoooX.++OOOooX.++++OOoooX.++OOoooX.++OOO"
};
