/* XPM */
static char *tile241697129292[] = {
/* columns rows colors chars-per-pixel */
"64 64 20 1 ",
"  c None",
". c #1F1D16",
"X c #232017",
"o c #29271B",
"O c #2A271C",
"+ c #343124",
"@ c #353124",
"# c #3C3A2F",
"$ c #403B2C",
"% c #46412F",
"& c #4B4634",
"* c #554F3A",
"= c #5A553F",
"- c #6A6349",
"; c #756D4C",
": c #807855",
"> c #928967",
", c #968D69",
"< c #D0C086",
"1 c #D6C88E",
/* pixels */
"               o,1,------%%%+o,,---%%+o====$$OOO.o              ",
"               o,1,-------%%+o,1---%%+o==:=$$OOO.o              ",
"               o,,,-------%%%.o1---%%+o===$$$OOO.o              ",
"               o,,,-------%%O.o1---%%+o=:=$$$OOO.o              ",
"               o,,,-------%%O.o,---%%.o=:$$$$OOO.o              ",
"              oo,,,,------%%O.o,,--%%.o=:$$$OOOO.o              ",
"             o+o,,,,------%%O.o,1-%%O.o:=$$$OOO..o              ",
"           oo++o,,,,------%%O.o,1-%%.o=:=$$$OOO..o              ",
"         oo%%++o,1,,------%%O.o,,%%O.o=:=$$$OOO.o               ",
"        o-%%%++o,1,,------%OO.oo,%%O.o:=$$$$OOO.o               ",
"       o--%%%+o+o1,,------%OO.oo%%O..o:=$$$OOOO.o               ",
"      o1-%%%%+o+o1,,------%OO.oo%%O.o=:=$$$OOOO.o               ",
"      o,-%%%++o.o,1,------%OO.o.oOO.o=:$$$$OOO..o               ",
"     o,,%%%++o%.o,1,------OOO.o.oO..o:=$$$OOOO.o                ",
"  ###o,%%%%++o%.o,1,------OO..oO.o.o=:=$$$OOOO.o                ",
"##<<<#o%%%++o,%Oo,1,-----%OO..oO.o.o=:=$$$OOOO.o                ",
"<;#<<#o%%%++o,%%.o1,-----OO..o=OO.o==:=$$OOOO..o                ",
"<;#<>#o%%++o,,%%.o,1,----OO..o==O.o==:=$$OOOO..o                ",
"<;#<>;#%++o,1,%%.o,1,---OOO..o==OO.o=:=$OOOOO.o                 ",
">;#<>;#o+o,,,,%%Oo,1,---OOO.o==$OO.o=:=$OOOO..o                 ",
">;#<>;#o+o,1,--%O.o1,--$OO..o==$$OO.o==OOOOO.o                  ",
">;#<>;#oo,,1,--%O.o,,--$OO..o:=$$OO.o$OOOOO..o                  ",
">;#>>;#o,,,1---%O.o,,,$OO..o=:=$$OOo oOOOOO..o                  ",
">;#>;;#o,,1,---%OOo=,,$OO..o=:$$$OOo oOOOOO.o                   ",
">;#>;*#o,,1-----OO.o==OOO..o=:$$$OOo  oOOO..o                   ",
";;#>;*#.o,1-----OO.o=OOO..o=:=$$$O.o  oOOO.o                    ",
";;#>*#X.o,1-----OOOoOOOO..o=:=$$$O.o  oOO.o                     ",
";;#;*#X.o,1-----OOO.oOO..o==:=$$$O.o   o..o                     ",
";*#;*#O.o,,-----$OO.oO...o==:=$$$Oo    o.o                      ",
"**#*#XO.o,,-----$OO.oO..o==:==$$OOo    o.o                      ",
"*#+#XXO.o,,----$$$OO.o..o==:=$$$O.o     o                       ",
"*#++X%O.o,,----$$$OO..oo===:=$$$O.o                             ",
"*#-+%%..o,,---$$$$OOO.o======$$$..o                             ",
"#+--%O..o,,---$$$$OOOo o=====$$O.o                              ",
"&@--%O..o,,--$$$$$OOOo o=====$$O.o                              ",
"&---%O.o=:,--$$$$$OO.o  o==:=$O.Oo                              ",
",--%%O.o=:,-$$$$$OOOo   o==:=$O.o                               ",
"1,-%OO.o=:=$$$$$$OOOo   o==:=OO.o                               ",
":,-%O..o==:$$$$$$OO.o    o=:=O..o                               ",
":=-OO..o==:$$$$$$OOo     o==OO..o                               ",
"O:=OO..o==:=$$$$OOOo      o=OO.o                                ",
"o=OOO.o o=:=$$$$OO.o      o=OO.o                                ",
"o=OO..o o=:=$$$OOOo        oO..o                                ",
".oOO..o  o=:=$$OO.o        oO.o                                 ",
".oO...o  o=:=$$OOo         o..o                                 ",
"..o..o   o=:==OO.o         o.o                                  ",
".oo..o    o=:=OOo           o                                   ",
".o o.o    o==:O.o                                               ",
"   o.o    oO=O.o                                                ",
"   oo      oO.o                                                 ",
"    o      oO.o                                                 ",
"    o       oo                                                  ",
"                                                                ",
"                                                                ",
"                                                                ",
"                                                                ",
"                                                                ",
"                                                                ",
"                                                                ",
"                                                                ",
"                                                                ",
"                                                                ",
"                                                                ",
"                                                                "
};
