/* XPM */
static char *tile81697129289[] = {
/* columns rows colors chars-per-pixel */
"64 64 12 1 ",
"  c None",
". c #1F1D16",
"X c #29271B",
"o c #2A271C",
"O c #343124",
"+ c #403B2C",
"@ c #46412F",
"# c #5A553F",
"$ c #6A6349",
"% c #807855",
"& c #968D69",
"* c #D6C88E",
/* pixels */
"$$$@@OOX&&$$$@OX&*&$$$$$$@@@OX&&$$$@@OX&&&&$$@@@OX&&$$@@@OX&&$$$",
"$$$@@OOX&&$$$@OX&*&$$$$$$$@@OX&*$$$@@OX&&*&$$@@@OX&&$$@@@OX&&$$$",
"$$$@@OOX&&$$$@OX&&&$$$$$$$@@@OX*$$$@@OX&&&$$$@@@OX&&$$@@@OX*&$$$",
"$$@@@OX&*&$$@@OX&&&$$$$$$$@@@OX*$$$@@OX&*&$$$@@@OX&&$$@@OOX*$$$$",
"$$@@OOX&*$$$@@OX&&&$$$$$$$@@@OX&$$$@@OX&*$$$$@@@OX&&$$@@OOX*$$$$",
"$$@@OOX&*$$$@@OX&&&&$$$$$$@@@OX&&$$@@OX&*$$$@@@@OX&&$$@@OX&*$$$$",
"$@@@OOX&*$$@@@OX&&&&$$$$$$@@@OX&*$@@@OX*&$$$@@@OOX&$$@@@OX&*$$$$",
"$@@@OOX&&$$@@OOX&&&&$$$$$$@@@OX&*$@@OX&*&$$$@@@OOX&$$@@OOX&*$$$$",
"$@@@OX&&$$@@@OOX&*&&$$$$$$@@@OX&&@@@OX&*&$$$@@@OX&&$@@@OOX&&$$$$",
"@@@OOX&*$$@@@OOX&*&&$$$$$$@@@OXX&@@@OX*&$$$$@@@OX&&$@@@OX&&&$$$$",
"@@@OOX&*$$@@@OXOX*&&$$$$$$@@@OXX@@@OOX*&$$$@@@@OX&&$@@OOX&&$$$$$",
"@@OOX&&*$@@@@OXOX*&&$$$$$$@@@OXX@@@OX&*&$$$@@@@OX&$@@@OXX&&$$$$$",
"@@OOX&*&$@@@OOXOX&*&$$$$$$@@@OXOX@@OX&*$$$$@@@OOX&@@@@OXX&*&$$$@",
"@OOXOX&&@@@OOX@OX&*&$$$$$$@@@OXOX@OOX*&$$$@@@@OXOX@@@OXOX&*&$$$@",
"@OXOOX&@@@@OOX@OX&*&$$$$$$@@OOX@OXOX&*&$$$@@@@OXOX@@@OXOX&&*$$@@",
"OOX@OOX@@@OOX&@@X&*&$$$$$@@@OOX@OXOX&*&$$$@@@@OXOX@@OX@OOX&*$$@@",
"OX@@OOX@@@OOX&@@OX*&$$$$$@@OOX&@@OX&&*&$$@@@@OOX@OX@OX@@OX&&&$@O",
"X&@@@OX@@OOX&&@@OX&*&$$$$@@OOX&&@OX&&*&$$@@@@OOX@OXOOX@@OOX&&$@O",
"&&@@@OX@OOX&*&@@OX&*&$$$@@@OOX&&@@OX&*&$@@@@@OX&@@OXOX&@@OX&&@OX",
"&*&@@OOXOX&&&&@@@X&*&$$$@@@OX&&$@@OX&*&$@@@@OOX&@@@OX&&@@@OX&@OX",
"&*$@@@OXOX&*&$$@@OX*&$$$@@OOX&&$$@@OX&&@@@@@OX&&@@@OX&&&@@OX&OX$",
"*&$@@@OXX&&*&$$@@OX&&$$$@@OOX*&$$@@OX$@@@@@OOX&&@@@OX&&&@@@OXOX&",
"&$$$@@.X&&&*$$$@@OX&&&$@@OOX&*&$$@@OOX@@@@@OOX*&&@@OX&&*$@@@OX&&",
"&$$$@@.X&&*&$$$@@@X&&&$@@OOX&*$$$@@@OX@@@@@OX&*&&@@OX&&*$@@@OX&&",
"$$$$@@.X&&*$$$$$@@OX&&@@@OOX&*$$$$@@O.X@@@OOX&&&$@@OX&*&$@@@OX&&",
"$$$$@@o.X&*$$$$$@@OX&@@@OOX&*&$$$$@@O.X@@@OX&*&$$@@OX&*&$@@@OX&&",
"$$$$@@o.X&*$$$$$@@@X@@@@OOX&*&$$$$@@@.X@@OX&*&&$$@@OX&*$$$@OOX&*",
"$$$$@@o.X&*$$$$$@@@.X@@OOX&&*&$$$$@@@..XOOX&*&$$$@@OX&&$$$@OX&&*",
"$$$$@@o.X&&$$$$$$@@.X@OOOX&&*&$$$$@@@..XOX&*&$$$$@@OX&&$$$@OX&&*",
"$$$$@oo.X&&$$$$$$@@.X@OOX&&*&&$$$$@@o..XOX&*&$$$$@@OX&&$$$@OX&&*",
"$$$$@oo.X&&$$$$$$$@@.XOOX&&*&$$$$$@@oo..X&*&$$$$$@@.X&&$$$@OX&&*",
"$$$$@oo.X&&$$$$$$$@@..XX&&&*&$$$$$@ooo..X&*&$$$$$@@.X&*$$$@@X&&*",
"$$$$oo..X&&$$$$$$$$@o.X&&&&&&$$$$$@ooo..X&&&$$$$$@@XO&*$$$@@.X&&",
"$$$+oo..X&&$$$$$$$$@o..X&&&&&$$$$$oooo..X&*&$$$$$@.X&&*$$$@@.X&&",
"&$$+oo..X&&$$$$$$$$@oo.X&&&&&$$$$$oooo.X.X*&$$$$$@.X&&*$$$@@..X&",
"&$++oo.X&*&$$$$$$$$ooo..X&&*&$$$$$oooo.X.X&*$$$$$o.X&&*$$$@@@.X&",
"&$+ooo.X&*&$$$$$$$$ooo..X&&*&$$$$+ooo..XoX&*&$$$$o.X&&*$$$@@@o.X",
"%#+ooo.X&*&$$$$$$$+ooo..X&&*&$$$$+ooo.X#o.X*&$$$oo.XX&&$$$@@@o.X",
"%#+oo..X#&*$$$$$$++ooo..X&&*&$$$++ooo.X#o.X&*&$+oo.XX#&$$$@@@o.X",
"%#+oo..X##*$$$$$$++ooo..XX&&*$$$+ooo..X#o..X*&&ooo.XX#&&$$@@oo.X",
"X%#oo..X##%&$$$++++ooo..X.X&*$+++ooo.X##oo.X&&#ooo.XX#%&$$oooOXo",
"X#ooo.X.X#%&$$+++++ooo.Xo.X&*#+++ooo.X##+o..X#oooo.X.X#%++ooo.Xo",
"X#oo..XoX#%#+++++++ooo.Xoo.X%#++ooooX#%++o..X#ooo..X.X#%#+ooo.Xo",
".Xoo..Xo.X#%#+++++oooo.X#o.X#%++ooo.X#%++oo.Xoooo.Xo.X#%#+ooo.Xo",
".Xo...X#.X#%#+++++ooo..X#o.X#%++ooo.X#%++oo.Xoooo.Xo.X###ooo.Xoo",
"..X..X##.X#%##++++ooo.X##+oX#%#ooo.X##%++ooX Xoo..Xoo.X##ooo.Xoo",
"o.X..X##o.X#%#+++oooo.X#%+o.X#%ooo.X##%++ooX Xoo..Xoo.X##oo..XXo",
"oX X.X#%o.X##%+++ooo.X X%+o.X##ooo.X##%++ooX Xoo..Xoo.X##oo..XX.",
"X  X.X#%ooX##%#+oooo.X X++o.X#ooo.X X##++ooX Xo..X Xo.X#ooo.X  X",
"    X X%oo.X###oooooX   X+oX Xooo.X X##++oX   X..X XoX Xoo..X   ",
"      X#ooXX###oooo.X   X+X  Xooo.X  X#+ooX   X..X  X  Xoo..X   ",
"       XoX  X#ooooo.X    X   Xoo.X   XooooX   X.X      Xoo..X   ",
"       XoX  Xooooo.X          Xo.X    XoooX    XX      Xoo.X    ",
"        X   Xooooo.X          X.X      XoX     X        Xo.X    ",
"             Xooo.X           X.X      XoX     X        X..X    ",
"             Xooo.X            X        X               X..X    ",
"              Xo.X                                       X.X    ",
"              XoX                                         X     ",
"              X.X                                         X     ",
"               X                                                ",
"                                                                ",
"                                                                ",
"                                                                ",
"                                                                "
};
