/* XPM */
static char *tile111697129290[] = {
/* columns rows colors chars-per-pixel */
"64 64 12 1 ",
"  c None",
". c #1F1D16",
"X c #29271B",
"o c #2A271C",
"O c #343124",
"+ c #403B2C",
"@ c #46412F",
"# c #5A553F",
"$ c #6A6349",
"% c #807855",
"& c #968D69",
"* c #D6C88E",
/* pixels */
"$$$@@OOX&&$$$@OX&*&$$$$$$@@@OX&&$$$@@OX&&&&$$@@@OX&&$$@@@OX&&$$$",
"$$$@@OOX&&$$$@OX&*&$$$$$$$@@OX&*$$$@@OX&&*&$$@@@OX&&$$@@@OX&&$$$",
"$$$@@OOX&&$$$@OX&&&$$$$$$$@@@OX*$$$@@OX&&&$$$@@@OX&&$$@@@OX*&$$$",
"$$@@@OX&*&$$@@OX&&&$$$$$$$@@@OX*$$$@@OX&*&$$$@@@OX&&$$@@OOX*$$$$",
"$$@@OOX&*$$$@@OX&&&$$$$$$$@@@OX&$$$@@OX&*$$$$@@@OX&&$$@@OOX*$$$$",
"$$@@OOX&*$$$@@OX&&&&$$$$$$@@@OX&&$$@@OX&*$$$@@@@OX&&$$@@OX&*$$$$",
"$@@@OOX&*$$@@@OX&&&&$$$$$$@@@OX&*$@@@OX*&$$$@@@OOX&$$@@@OX&*$$$$",
"$@@@OOX&&$$@@OOX&&&&$$$$$$@@@OX&*$@@OX&*&$$$@@@OOX&$$@@OOX&*$$$$",
"$@@@OX&&$$@@@OOX&*&&$$$$$$@@@OX&&@@@OX&*&$$$@@@OX&&$@@@OOX&&$$$$",
"@@@OOX&*$$@@@OOX&*&&$$$$$$@@@OXX&@@@OX*&$$$$@@@OX&&$@@@OX&&&$$$$",
"@@@OOX&*$$@@@OXOX*&&$$$$$$@@@OXX@@@OOX*&$$$@@@@OX&&$@@OOX&&$$$$$",
"@@OOX&&*$@@@@OXOX*&&$$$$$$@@@OXX@@@OX&*&$$$@@@@OX&$@@@OXX&&$$$$$",
"@@OOX&*&$@@@OOXOX&*&$$$$$$@@@OXOX@@OX&*$$$$@@@OOX&@@@@OXX&*&$$$@",
"@OOXOX&&@@@OOX@OX&*&$$$$$$@@@OXOX@OOX*&$$$@@@@OXOX@@@OXOX&*&$$$@",
"@OXOOX&@@@@OOX@OX&*&$$$$$$@@OOX@OXOX&*&$$$@@@@OXOX@@@OXOX&&*$$@@",
"OOX@OOX@@@OOX&@@X&*&$$$$$@@@OOX@OXOX&*&$$$@@@@OXOX@@OX@OOX&*$$@@",
"OX@@OOX@@@OOX&@@OX*&$$$$$@@OOX&@@OX&&*&$$@@@@OOX@OX@OX@@OX&&&$@O",
"X&@@@OX@@OOX&&@@OX&*&$$$$@@OOX&&@OX&&*&$$@@@@OOX@OXOOX@@OOX&&$@O",
"&&@@@OX@OOX&*&@@OX&*&$$$@@@OOX&&@@OX&*&$@@@@@OX&@@OXOX&@@OX&&@OX",
"&*&@@OOXOX&&&&@@@X&*&$$$@@@OX&&$@@OX&*&$@@@@OOX&@@@OX&&@@@OX&@OX",
"&*$@@@OXOX&*&$$@@OX*&$$$@@OOX&&$$@@OX&&@@@@@OX&&@@@OX&&&@@OX&OX$",
"*&$@@@OXX&&*&$$@@OX&&$$$@@OOX*&$$@@OX$@@@@@OOX&&@@@OX&&&@@@OXOX&",
"&$$$@@OX&&&*$$$@@OX&&&$@@OOX&*&$$@@OOX@@@@@OOX*&&@@OX&&*$@@@OX&&",
"&$$$@@OX&&*&$$$@@@X&&&$@@OOX&*$$$@@@OX@@@@@OX&*&&@@OX&&*$@@@OX&&",
"$$$$@@OX&&*$$$$$@@OX&&@@@OOX&*$$$$@@OOX@@@OOX&&&$@@OX&*&$@@@OX&&",
"$$$$@@@OX&*$$$$$@@OX&@@@OOX&*&$$$$@@OOX@@@OX&*&$$@@OX&*&$@@@OX&&",
"$$$$@@@OX&*$$$$$@@@X@@@@OOX&*&$$$$@@@OX@@OX&*&&$$@@OX&*$$$@OOX&*",
"$$$$@@@OX&*$$$$$@@@OX@@OOX&&*&$$$$@@@OOXOOX&*&$$$@@OX&&$$$@OX&&*",
"$$$$@@@OX&&$$$$$$@@OX@OOOX&&*&$$$$@@@OOXOX&*&$$$$@@OX&&$$$@OX&&*",
"$$$$@@@OX&&$$$$$$@@OX@OOX&&*&&$$$$@@@OOXOX&*&$$$$@@OX&&$$$@OX&&*",
"$$$$@@@OX&&$$$$$$$@@OXOOX&&*&$$$$$@@@@OOX&*&$$$$$@@OX&&$$$@OX&&*",
"$$$$@@@OX&&$$$$$$$@@OOXX&&&*&$$$$$@@@@OOX&*&$$$$$@@OX&*$$$@@X&&*",
"$$$$@@OOX&&$$$$$$$$@@OX&&&&&&$$$$$@@@@OOX&&&$$$$$@@XO&*$$$@@OX&&",
"$$$$@@OOX&&$$$$$$$$@@OOX&&&&&$$$$$@@@@OOX&*&$$$$$@OX&&*$$$@@OX&&",
"&$$$@@OOX&&$$$$$$$$@@@OX&&&&&$$$$$@@@@OXOX*&$$$$$@OX&&*$$$@@OOX&",
"&$$$@@.X&*&$$$$$$$$@@@OOX&&*&$$$$$@@@@OXOX&*$$$$$@OX&&*$$$@@@OX&",
"&$$@@o.X&*&$$$$$$$$@@@OOX&&*&$$$$$@@@OOX@X&*&$$$$@OX&&*$$$@@@@OX",
"*&$@oo.X#*&$$$$$$$$@@@OOX&&*&$$$$$@@@OX&@OX*&$$$@@OXX&&$$$@@@@OX",
"%#+oo..X#&*$$$$$$$$@@@OOX&&*&$$$$$@@@OX&@OX&*&$$@@OXX&&$$$@@@@OX",
"%#+oo..X#&*$$$$$$$$@@@OOXX&&*$$$$@@@OOX&@OOX*&&@@@OXX&&&$$@@@@OX",
"#%#oo..X##*&$$$$$$$@@@OOXOX&*$$$$@@@OX&&@@OX&&&@@@OXX&*&$$@@@OX$",
"X#ooo.X.X#%&$$$$$$$@@@OX@OX&*&$$$@@@OX&&$@OOX&@@@@OXOX&*$$@@@OX&",
"X#oo..XoX#%#$$$$$$$@@@OX@@OX*&$$@@@@X&*$$@OOX&@@@OOXOX&*&$@@@OX&",
".Xoo..Xo.X#%&$$$$$@@@@OX&@OX&*$$@@@OX&*$$@@OX@@@@OX@OX&*&$@@@OX&",
".Xo...X#.X#%#$$$$$@@@OOX&@OX&*$$@@@OX&*$$@@OX@@@@OX@OX&&&@@@OX&&",
"..X..X##.X#%#&$$$$@@@OX&&$@X&*&@@@OX&&*$$@@OOX@@OOX@@OX&&@@@OX&&",
"#.X..X##o.X#%&$$$@@@@OX&*$@OX&*@@@OX&&*$$$@OOX@@OOX@@OX&&@@OOX&&",
"#..X.X#%o.X##%$$$@@@OX&&*$@OX&&@@@OX&&*$$$@@OX@@OOX&@OX&&@@OOX&&",
"#+.X.X#%+oX##%&$@@@@OX&*$$@OX&@@@OX&&&&$$$@@OX@OOX&&@OX&@@@OX&*&",
"X+.XX##%XX X##&@@@@@X&&*$$@OOX@@@OX&&&&$$$@@OOXOOX&&@@OX@@OOX&*&",
" Xo.X##X   X##&@@@@OX&*$$$@OOX@@@OX&&*&$$$$@@OXOOX&&@@OX@@OOX&*&",
"  X.X#X     X#o@@@@OX&*$$@@OOX@@OXOX&*&$$$$@@OXOX&*&$@OX@@OOX*&&",
"   X X      Xoo@@@OX&&*$$@@OOX@@OXOX&*&$$$$@@OOXX&*&$@OX@@OX&*&&",
"     X      Xoo@@@OX&*$$$@@OOX@OX@OX&&*$$$$@@OOXX&*&$@@OX@OX&*&&",
"             Xo@@OX&&*$$$@@OOX@OX@@OX&*&$$$$@@OX&&*&$@@OXOOX&*&&",
"             Xo@@OX&&*$$@@@OX@OX&@@OX&*&$$$$@@OX&&&$$@@OXOOX*&&$",
"              X@OX&&&$$$@@@OXOX&&@@@X&&*&$$$@@OOX&&$$$@@OXOX*&&$",
"              X@X&&*&$$$@@@OXOX&&@@@OX&*&$$$$@OOX&&$$$@@OOX&*&&$",
"              XOX&&*&$$$@@@OXX&&&$@@OX&&*&$$$@@OX&*&$$@@OOX&*&$$",
"               X&&&*$$$$@@@OX&&&&$@@OX&&*&$$$@@OX&*&$$@@@OX&*&$$",
"               X&&*&$$$$$@@OX&&&&$$@@OX&&&$$$@@@OX*&$$@@@OX&*&$$",
"               X&&*&$$$$$@@OX&&&&$$@@OX&&*&$$@@@OX*&$$@@@OX&*&$$",
"               X&&*$$$$$$@@OX&&&$$$@@OX&&*&$$@@@OX&&$$@@@OX&*$$$",
"               X&&*$$$$$$@@@OX&&$$$@@OX&&&&$$@@@OX&&$$@@@OX&&$$$"
};
