/* XPM */
static char *tile71697129289[] = {
/* columns rows colors chars-per-pixel */
"64 64 12 1 ",
"  c None",
". c #1F1D16",
"X c #29271B",
"o c #2A271C",
"O c #343124",
"+ c #403B2C",
"@ c #46412F",
"# c #5A553F",
"$ c #6A6349",
"% c #807855",
"& c #968D69",
"* c #D6C88E",
/* pixels */
"$$$@@OOX&&$$$@OX&*&$$$$$$@@@OX&&$$$@@OX####++ooo.X              ",
"$$$@@OOX&&$$$@OX&*&$$$$$$$@@OX&*$$$@@OX##%#++ooo.X              ",
"$$$@@OOX&&$$$@OX&&&$$$$$$$@@@.X*$$$@@OX###+++ooo.X              ",
"$$@@@OX&*&$$@@OX&&&$$$$$$$@@o.X*$$$@@OX#%#+++ooo.X              ",
"$$@@OOX&*$$$@@OX&&&$$$$$$$@@o.X&$$$@@.X#%++++ooo.X              ",
"$$@@OOX&*$$$@@OX&&&&$$$$$$@@o.X&&$$@@.X#%+++oooo.X              ",
"$@@@OOX&*$$@@@OX&&&&$$$$$$@@o.X&*$@@o.X%#+++ooo..X              ",
"$@@@OOX&&$$@@OOX&&&&$$$$$$@@o.X&*$@@.X#%#+++ooo..X              ",
"$@@@OX&&$$@@@OOX&*&&$$$$$$@@o.X&&@@o.X#%#+++ooo.X               ",
"@@@OOX&*$$@@@OOX&*&&$$$$$$@oo.XX&@@o.X%#++++ooo.X               ",
"@@@OOX&*$$@@@OXOX*&&$$$$$$@oo.XX@@o..X%#+++oooo.X               ",
"@@OOX&&*$@@@@OXOX*&&$$$$$$@oo.XX@@o.X#%#+++oooo.X               ",
"@@OOX&*&$@@@OOX.X&*&$$$$$$@oo.X.Xoo.X#%++++ooo..X               ",
"@OOXOX&&@@@OOX@.X&*&$$$$$$ooo.X.Xo..X%#+++oooo.X                ",
"@OXOOX&@@@@OOX@.X&*&$$$$$$oo..Xo.X.X#%#+++oooo.X                ",
"OOX@OOX@@@OOX&@oX&*&$$$$$@oo..Xo.X.X#%#+++oooo.X                ",
"OX@@OOX@@@OOX&@@.X*&$$$$$oo..X#oo.X##%#++oooo..X                ",
"X&@@@OX@@OOX&&@@.X&*&$$$$oo..X##o.X##%#++oooo..X                ",
"&&@@@OX@OOX&*&@@.X&*&$$$ooo..X##oo.X#%#+ooooo.X                 ",
"&*&@@OOXOX&&&&@@oX&*&$$$ooo.X##+oo.X#%#+oooo..X                 ",
"&*$@@@OXOX&*&$$@o.X*&$$+oo..X##++oo.X##ooooo.X                  ",
"*&$@@@OXX&&*&$$@o.X&&$$+oo..X%#++oo.X+ooooo..X                  ",
"&$$$@@OX&&&*$$$@o.X&&&+oo..X#%#++ooX Xooooo..X                  ",
"&$$$@@OX&&*&$$$@ooX#&&+oo..X#%++oooX Xooooo.X                   ",
"$$$$@@OX&&*$$$$$oo.X##ooo..X#%++oooX  Xooo..X                   ",
"$$$$@@@.X&*$$$$$oo.X#ooo..X#%#++oooX  Xooo.X                    ",
"$$$$@@@.X&*$$$$$oooXoooo..X#%#++oooX  Xoo.X                     ",
"$$$$@@@.X&*$$$$$ooo.Xoo..X##%#++oooX   X..X                     ",
"$$$$@@o.X&&$$$$$+oo.Xo...X##%#++ooX    X.X                      ",
"$$$$@@o.X&&$$$$$+oo.Xo..X##%##++ooX    X.X                      ",
"$$$$@@o.X&&$$$$+++oo.X..X##%#+++ooX     X                       ",
"$$$$@@o.X&&$$$$+++oo..XX###%#+++ooX                             ",
"$$$$@@..X&&$$$+++++oo.X######+++ooX                             ",
"$$$$@o..X&&$$$+++++ooX X#####+++oX                              ",
"&$$$@o..X&&$$++++++ooX X#####++ooX                              ",
"&$$$@o.X#%&$$+++++oooX  X##%#++ooX                              ",
"&$$@@o.X#%&$++++++ooX   X##%#++oX                               ",
"*&$@oo.X#%#+++++++ooX   X##%#+ooX                               ",
"%&$@o..X##%++++++oooX    X#%#+ooX                               ",
"%#$oo..X##%++++++ooX     X##%+o.X                               ",
"X%#oo..X##%#+++++ooX      X#%ooX                                ",
"X#ooo.X X#%#++++oooX      X#%o.X                                ",
"X#oo..X X#%#++++ooX        Xoo.X                                ",
".Xoo..X  X#%#++oooX        Xo.X                                 ",
".Xo...X  X#%#++ooX         X..X                                 ",
"..X..X   X#%##oo.X         X.X                                  ",
".XX..X    X#%oo.X           X                                   ",
".X X.X    X##o..X                                               ",
"   X.X    Xooo.X                                                ",
"   XX      Xo.X                                                 ",
"    X      X..X                                                 ",
"    X       XX                                                  ",
"                                                                ",
"                                                                ",
"                                                                ",
"                                                                ",
"                                                                ",
"                                                                ",
"                                                                ",
"                                                                ",
"                                                                ",
"                                                                ",
"                                                                ",
"                                                                "
};
