/* XPM */
static char *tile91697129289[] = {
/* columns rows colors chars-per-pixel */
"64 64 12 1 ",
"  c None",
". c #1F1D16",
"X c #29271B",
"o c #2A271C",
"O c #343124",
"+ c #403B2C",
"@ c #46412F",
"# c #5A553F",
"$ c #6A6349",
"% c #807855",
"& c #968D69",
"* c #D6C88E",
/* pixels */
"               X&*&$$$$$$@@@OX&&$$$@@OX&&&&$$@@@OX&&$$@@@OX&&$$$",
"               X&*&$$$$$$$@@OX&*$$$@@OX&&*&$$@@@OX&&$$@@@OX&&$$$",
"               X&&&$$$$$$$@@@OX*$$$@@OX&&&$$$@@@OX&&$$@@@OX*&$$$",
"               X&&&$$$$$$$@@@OX*$$$@@OX&*&$$$@@@OX&&$$@@OOX*$$$$",
"               X&&&$$$$$$$@@@OX&$$$@@OX&*$$$$@@@OX&&$$@@OOX*$$$$",
"               X&&&&$$$$$$@@@OX&&$$@@OX&*$$$@@@@OX&&$$@@OX&*$$$$",
"               X&&&&$$$$$$@@@OX&*$@@@OX*&$$$@@@O.X&$$@@@OX&*$$$$",
"               X&&&&$$$$$$@@@OX&*$@@OX&*&$$$@@@O.X&$$@@OOX&*$$$$",
"               X&*&&$$$$$$@@@OX&&@@@OX&*&$$$@@@.X&&$@@@OOX&&$$$$",
"               X&*&&$$$$$$@@@OXX&@@@OX*&$$$$@@@.X&&$@@@OX&&&$$$$",
"                X*&&$$$$$$@@@OXX@@@OOX*&$$$@@@@.X&&$@@OOX&&$$$$$",
"                X*&&$$$$$$@@@OXX@@@OX&*&$$$@@@o.X&$@@@OXX&&$$$$$",
"                X&*&$$$$$$@@@.XOX@@OX&*$$$$@@@..X&@@@@OXX&*&$$$@",
"                X&*&$$$$$$@@@.XOX@OOX*&$$$@@@@.X.X@@@OXOX&*&$$$@",
"                X&*&$$$$$$@@..X@OXOX&*&$$$@@@@.X.X@@@OXOX&&*$$@@",
"                X&*&$$$$$@@@..X@OXOX&*&$$$@@@o.X.X@@OX@OOX&*$$@@",
"                 X*&$$$$$@@O.X#X@OX&&*&$$@@@@..Xo.X@OX@@OX&&&$@O",
"                 X&*&$$$$@@..X#X@OX&&*&$$@@@@..XoOX.OX@@OOX&&$@O",
"                 X&*&$$$@@o..X#X@@OX&*&$@@@@@.X#ooOXOX&@@OX&&@OX",
"                 X&*&$$$@@o.X X$@@OX#*&$@@@@..X#oo@.X&&@@@OX&@OX",
"                  X*&$$$@o..X X$$@@OX&&@@@@o.X##oo@.X&&&@@OX&OX$",
"                  X&&$$$@o..X X+$@@OX+@@@@o..X##oo@.X&&&@@@OXOX&",
"                  X&&&$@o..X  X+$@@OOXo@@@o..X%##o@.X&&*$@@@OX&&",
"                  X&&&$@o..X   X$@@@.Xooooo.X#%##oo.X&&*$@@@OX&&",
"                   X&&@oo..X   X+$@@..Xooo..X###+oo.X&*&$@@@OX&&",
"                   X&@oo..X    X+$@@..Xooo.X#%#++oo.X&*&$@@@OX&&",
"                   X@ooo..X    X++@@o.Xoo.X#%##++oo.X&*$$$@O.X&*",
"                    Xoo..X     X++@@o..X..X#%#+++oo.X&&$$$@.X&&*",
"                    Xo...X     X++ooo..X.X#%#++++oo.X&&$$$@.X&&*",
"                    Xo..X      X++ooo..X.X#%#++++oo.X&&$$$o.X&&*",
"                     X..X      X++oooo..X#%#+++++oo.X&&$$$o.X&&*",
"                      XX       X++oooo..X#%#+++++oo.X&*$$+ooX#&*",
"                                X+oooo..X###+++++ooXO&*$$+oo.X&&",
"                                X+oooo..X#%#+++++o.X&&*$$+oo.X&&",
"                                X+oooo.X X%#+++++o.X#&*$++oo.OX&",
"                                X+oooo.X X#%+++++o.X##*$++ooo.X&",
"                                X+ooo..X X#%#++++o.X##*+++oooo.X",
"                                 Xooo.X   X%#+++oo.XX##+++oooo.X",
"                                  Xoo.X   X#%#++oo.XX##+++oooo.X",
"                                  Xo..X    X%##ooo.XX###++oooo.X",
"                                  Xo.X     X###ooo.XX#%#++ooo.Xo",
"                                   X.X      X#oooo.X X#%++ooo.Xo",
"                                   XX       X#ooo..X X#%#+ooo.Xo",
"                                             Xooo.X  X#%#+ooo.Xo",
"                                             XoooX   X###ooo.Xoo",
"                                              Xo.X    X##ooo.Xoo",
"                                              XoX     X##oo..XXo",
"                                               X      X##oo..XXo",
"                                                      X#ooo.X  X",
"                                                       Xoo..X   ",
"                                                       Xoo..X   ",
"                                                       Xoo..X   ",
"                                                       Xoo.X    ",
"                                                        Xo.X    ",
"                                                        X..X    ",
"                                                        X.X     ",
"                                                         X      ",
"                                                                ",
"                                                                ",
"                                                                ",
"                                                                ",
"                                                                ",
"                                                                ",
"                                                                "
};
