/* XPM */
static char *tile31697129288[] = {
/* columns rows colors chars-per-pixel */
"64 64 29 1 ",
"  c None",
". c #100E0B",
"X c #15130E",
"o c #1A1812",
"O c #1F1D16",
"+ c #201D16",
"@ c #232017",
"# c #29271B",
"$ c #2A271C",
"% c #2D2A1F",
"& c #343124",
"* c #353124",
"= c #3C3A2F",
"- c #403C2B",
"; c #403B2C",
": c #46412F",
"> c #4B4634",
", c #554F3A",
"< c #5A553F",
"1 c #6B6447",
"2 c #6A6349",
"3 c #746C4C",
"4 c #756D4C",
"5 c #807855",
"6 c #928967",
"7 c #968D69",
"8 c #D0C086",
"9 c #D6C88E",
"0 c #F8ECBF",
/* pixels */
"                                                                ",
"                                                                ",
"                                                                ",
"                                                                ",
"                                                                ",
"                                                                ",
"                                                                ",
"                                                                ",
"                                                                ",
"                                                                ",
"                                                                ",
"                                                                ",
"                                                                ",
"                                   ==                           ",
"===                  ==============88===                        ",
"88===             ===8880088888884,=8008===                     ",
"088=8=============33=8808888888883,=8888888=                    ",
"088=8888888883=88833=808888866663,=886688833=====               ",
"886=8800888833=0883,=808866666633,=86666663,,=3,,=              ",
"8664=88888863=80833,=888666666633,=36666634,,=3,,=              ",
"6664=88866633=88633,=888666666333,=3366663,,=333,,=             ",
"6664,=8666633=86633=888666666333,,=336663,,,=333,,,=            ",
"6664,=866633,=8633,=886666663333,=6=33663,,,=333,,,,=           ",
"6644,,=6633,=88633,=86666666333,,=6=3333,,,=333,,,,,=           ",
"6644,,=3333,=8633,=886666663333,,=63=333,,,=333,,,,=            ",
"6443,=3=33,,=8633,=86666633333,,=663=33,,,=333,,,,=             ",
"4433,=3,=,,=36333,=86663333333,,=663,=,,,,=333,,,,=             ",
"4433,=33,=,=3333,,=3333333333,,,=633,=,,,=3333,,,,=             ",
"443,,=333,=3333,,,=333333333,,,=633,,,=,,=334,,,,=              ",
"43,,,=333,=333,,,,=,,,,3333,,,,=333,,,=,=,=3,,,,,=              ",
",,,,,=33,,,=,,,,,,=,,,,,,,,,,,=33,,,,,,=,,=,,,,,,=              ",
",,,,,=3,,,,,=,,,,,=,,,,,,,,,,,=,,,,,,,,=,,=,,,,,,=              ",
",,,,,=,,,,,,=,=========,,,,,,=,,==;==,,====,,,,,,,=             ",
"==,,=,,,,,====*****@@oo=,,,,====&&@@@==.#%-===,,,,=             ",
">*========>********@@@o#====>&&&&&+@@#.$.#-%++==,,,=            ",
">***@@o#>1>***22222:::&o$>>1>*&&22>-:$.$O#<-++++====            ",
"72*@@@o#>1722222222:::*&#>>1722222:::OO#$#<5<;+++X.#            ",
"972:::&#79722222222:::&&#779722222:::O#<$O#5<;;;XX.#            ",
"972::&&#77922222222:::**#779722222::$O#<$O#<5<;;$$O#            ",
"972::&&#77922222222:::**##7792222:::OO#<$OO#5<<$$$O#            ",
"797::&&#77972222222:::&&#&#792222:::O#<<$$O#<<<$$$O#            ",
"#7:::&#&#7972222222:::&#:&#797222::$O#<<;$OO#<$$$$O#            ",
"#7::&&#:#7972222222:::&#::&#9722:::$#<5;;$OO#<$$$OO#            ",
"&#::&&#:&#79722222::::&#7:&#7922:::O#<5;;$$O#$$$$O#             ",
"&#:&&&#7&#79722222:::&&#7:&#7922:::O#75;;$$O#$$$$O#             ",
"&&#&&#77&#79772222:::&#772:#797:::&#775;;$$OO#$$OO#             ",
"7&#&&#77:&#797222::::&#792:&#79:::O#775;;;$OO#$$OO#             ",
"7&&#&#79:&#779222:::&#7792:&#77:::O#779;;;$$O#$$OO#             ",
"72&#&#792:#77972::::&#7922:&#7:::&#7777;;;$$O#$OO#              ",
"22&##7797:&#777:::::#77922:&&#:::&#7777;;;$$OO#OO#              ",
"22:&#7779:&#777::::&#79222:&&#:::&#7797;;;;$$O#OO#              ",
"222&#77792:&#7:::::&#7922::&&#::&#&#797;;;;$$O#O#               ",
"222:&#7792:&#:::::&#77922::&&#::&#&#797;;;;$$OO##               ",
"222:&#7792:&#:::::&#79222::&&#:&#:&#779;;;;$$OO##               ",
"222::#7779::&#:::&#779222::&&#:&#::&#797;;;;$$O#                ",
"2222:&#7792:&#:::&#77922:::&#:&#7::&#797;;;;$$O#                ",
"2222:&#7792::&#:&#777222:::&#&#77:::#775<;;;$$OO#               ",
"2222:&#7792::&#:#7797222:::&#&#77:::&#75<;;;;$OO#               ",
"2222:&&#779::&#&#7797222:::&##7772::&#7<5<;;;$$O#               ",
"2222:&&#779::&&#77792222:::&#77772::&#7<5<;;;$$O#               ",
"2222:&&#7792::&#779722222::&#777722::&#<<<;;;$$$O#              ",
"2222:&&#7792::&#779722222::&#777722::&#<<5<;;$$$O#              ",
"2222:&&#7792::&#779222222::&#777222::&#<<5<;;$$$O#              ",
"2222:&&#77722:&#779222222:::&#77222::&#<<<<;;$$$O#              "
};
