/* XPM */
static char *tile321697129293[] = {
/* columns rows colors chars-per-pixel */
"64 64 26 1 ",
"  c None",
". c #100E0B",
"X c #15130E",
"o c #1A1812",
"O c #1F1D16",
"+ c #201D16",
"@ c #232017",
"# c #29271B",
"$ c #2A271C",
"% c #343124",
"& c #353124",
"* c #3C3A2F",
"= c #403C2B",
"- c #403B2C",
"; c #46412F",
": c #4B4634",
"> c #554F3A",
", c #5A553F",
"< c #6B6447",
"1 c #6A6349",
"2 c #756D4C",
"3 c #807855",
"4 c #928967",
"5 c #968D69",
"6 c #D0C086",
"7 c #D6C88E",
/* pixels */
"                                                                ",
"                                                                ",
"                                                                ",
"                                                                ",
"                                                                ",
"                                                                ",
"                                                                ",
"                                                                ",
"                                                                ",
"                                                                ",
"                                                                ",
"                                                                ",
"                                                                ",
"                                                                ",
"                                                                ",
"                                                                ",
"                                                                ",
"                                                                ",
"                                                                ",
"                                                                ",
"                                                                ",
"                                                                ",
"                                                                ",
"                                                                ",
"                                                                ",
"                                                                ",
"                                                                ",
"                            ***      ********  ****             ",
"                  **********666*****666666662**622*             ",
"                 *66666666666622>*66**666642>*4622>*            ",
"              *****244666666442>*662>*664422>*6642>*            ",
"             *66642*22444444422>*642>*66442>>*64422*            ",
"           **6664422*>22444422>*664>*664442>*664422*            ",
"           *6664422>*>>224422>>*642*664442>>*64422>*            ",
"           *6644222*4*>>2222>>*6422*644422>*664422>>*           ",
"           *644422>*44*>>>2>>>*442>*644222>*644422>>*           ",
"           *44422>*4444*>>>>>*6422*644222>>*64422>>>*           ",
"           *44422>*44444*>>>*6442>*44222>>*644422>>*            ",
"           *4422>*4444442*>>*442>*222222>>*44422>>**            ",
"           *422>>*4444442>**2222>*>2222>>*64422>>*2*            ",
"            *22>*2222442>>*2222>*>>>22>>>*22222>>*>*            ",
"            *2>>*222222>>*22222>*>>>>>>>*22222>>*>>*            ",
"            *>>>*>>222>>*>>22>>*@*>>>>>>*>222>>*2>*             ",
"            *>>*&*>>>>>>*>>>>>>*:@***>>***>>>>>*>>*             ",
"             *>*&&**>>>*:*>>>>*:5&@#:**++X*>>>*X*>*             ",
"             #*&1#@@***::&*>>*::1;@#::=++XX***XX.*#             ",
"             #&&1#@@@o&:7&@**:<51;;#5:<*=-X..#X$..#             ",
"             #&11#;;oo:571@o#:511;&#5571==$X.#$$+.#             ",
"             #51;#;;%15711;o#7511;&#5551--$$O#$O+-#             ",
"             #5;;#;;%55711;%#511;;%#5551--$$O#$O+,#             ",
"              #;;#;%%57111;%#511;%#55751---$$O#OO,#             ",
"              #;;#;%55711;;%#51;;%#55751---$$O#O-,#             ",
"              #;#;%%55711;;%#11;;%#%5751---$$O#$,,#             ",
"              #;#;%557111;;%#11;%#%#5571---$$OO#,#              ",
"              #;#%%557111;;%#1;;%#;%#575----$$O#,#              ",
"              #;#%555711;;;%#1;%#;;%#575----$$O#,#              ",
"              #;#%555111;;;%#;;%#;;;#557,---$$O#,#              ",
"              #;#5575111;;;%#;%#5;;;#557,----$O#-#              ",
"               #15575111;;;%#;%#51;;%#5,3,---$$O#               ",
"               #55571111;;;%#%%#51;;%#5,3,---$$O#               ",
"               #557511111;;%#%#5511;;#1,,,---$$$O#              ",
"               #557511111;;%%#55511;;#1,,3,--$$$O#              ",
"               #557111111;;%%#55111;;%#,,3,--$$$O#              ",
"               #557111111;;;%#55111;;%#,,,,--$$$O#              "
};
