/* XPM */
static char *tile351697129294[] = {
/* columns rows colors chars-per-pixel */
"64 64 12 1 ",
"  c None",
". c #1F1D16",
"X c #29271B",
"o c #2A271C",
"O c #343124",
"+ c #403B2C",
"@ c #46412F",
"# c #5A553F",
"$ c #6A6349",
"% c #807855",
"& c #968D69",
"* c #D6C88E",
/* pixels */
"               X&*&$$$$$$@@@OX&&$$$@@OX####++ooo.X              ",
"               X&*&$$$$$$$@@OX&*$$$@@OX##%#++ooo.X              ",
"               X&&&$$$$$$$@@@OX*$$$@@OX###+++ooo.X              ",
"               X&&&$$$$$$$@@@OX*$$$@@OX#%#+++ooo.X              ",
"               X&&&$$$$$$$@@@OX&$$$@@OX&%++++ooo.X              ",
"               X&&&&$$$$$$@@@OX&&$$@@OX&%+++oooo.X              ",
"               X&&&&$$$$$$@@@OX&*$@@@OX*#+++ooo..X              ",
"               X&&&&$$$$$$@@@OX&*$@@OX&*#+++ooo..X              ",
"               X&*&&$$$$$$@@@OX&&@@@OX&*#+++ooo.X               ",
"               X&*&&$$$$$$@@@OXX&@@@OX*&++++ooo.X               ",
"              XOX*&&$$$$$$@@@OXX@@@OOX*&+++oooo.X               ",
"              XOX*&&$$$$$$@@@OXX@@@OX&*&+++oooo.X               ",
"              XOX&*&$$$$$$@@@OXOX@@OX&*$+++ooo..X               ",
"              XOX&*&$$$$$$@@@OXOX@OOX*&$++oooo.X.X              ",
"              XOX&*&$$$$$$@@OOX@OXOX&*&+++oooo.X.X              ",
"              X@X&*&$$$$$@@@OOX@OXOX&*&+++oooo.X.X              ",
"              X@OX*&$$$$$@@OOX&@@OX&&*&++oooo..XoX              ",
"              X@OX&*&$$$$@@OOX&&@OX&&*#++oooo..XoX              ",
"             X@@OX&*&$$$@@@OOX&&@@OX&*#+ooooo.X#oX              ",
"             X@@@X&*&$$$@@@OX&&$@@OX&%#+oooo..X#oX              ",
"             X$@@OX*&$$$@@OOX&&$$@@OX##ooooo.X##oX              ",
"             X$@@OX&&$$$@@OOX*&$$@@OX+ooooo..X##oX              ",
"             X$@@OX&&&$@@OOX&*&$$@@OOXooooo..X%##X              ",
"             X$@@OX&&&$@@OOX&*$$$@@@OXooooo.X#%##oX             ",
"             X$$@OOX&&@@@OOX&*$$$$@@OOXooo..X###+oX             ",
"             X$$@OOX&@@@OOX&*&$$$$@@OOXooo.X#%#++oX             ",
"             X$$@OXX@@@@OOX&*&$$$$@@@OXoo.X#%##++oX             ",
"             X$$@OXOX@@OOX&&*&$$$$@@@O.X..X#%#+++oX             ",
"             X$$@OXOX@OOOX&&*&$$$$@@@O.X.X#%#++++oX             ",
"             X$$@OXOX@OOX&&*&&$$$$@@@O.X.X#%#++++oX             ",
"             X$$@OX@OXOOX&&*&$$$$$@@@@..X#%#+++++oX             ",
"             X$$@OX@OOXX&&&*&$$$$$@@@@..X#%#+++++oX             ",
"             X$$@X$@@OX&&&&&&$$$$$@@@o..X###+++++oX             ",
"             X$$OX$@@OOX&&&&&$$$$$@@@o..X#%#+++++oX             ",
"             X$$OX$@@@OX&&&&&$$$$$@@@o.X.X%#+++++X              ",
"             X$@OX$@@@OOX&&*&$$$$$@@oo.X.X#%+++++X              ",
"              X@X$$@@@OOX&&*&$$$$$@@o..XoX#%#++++X              ",
"              XOX$$@@@OOX&&*&$$$$$@@o.X#o.X%#+++oX              ",
"              XOX$$@@@OOX&&*&$$$$$@oo.X#o.X#%#++oX              ",
"              XOX$$@@@OOXX&&*$$$$@@o..X#o..X%##ooX              ",
"               X$$$@@@OOXOX&*$$$$@@o.X##oo.X###ooX              ",
"               X$$$@@@OX@OX&*&$$$@oo.X##+o..X#oooX              ",
"               X$$$@@@OX@@OX*&$$@@ooX&*++o..X#oooX              ",
"               X$$@@@@OX&@OX&*$$@@o.X&*++oo.XooooX              ",
"               X$$@@@OOX&@OX&*$$@@o.X&*++oo.XooooX              ",
"               X$$@@@OX&&$@X&*&@@o.X&&*++oo..Xoo.X              ",
"              X$$@@@@OX&*$@OX&*@oo.X&&*+++o..Xoo.X              ",
"              X$$@@@OX&&*$@OX&&@oo.X&&*$++oo.Xoo.X              ",
"              X$@@@@OX&*$$@OX&@@o.X&&&&$++oo.Xo..X              ",
"              X@@@@@X&&*$$@OOX@@o.X&&&&$++oo..X.X               ",
"              X@@@@OX&*$$$@OOX@oo.X&&*&$+++oo.X.X               ",
"              X@@@@OX&*$$@@OOX@o.XOX&*&$+++oo.X.X               ",
"              X@@@OX&&*$$@@OOX@o.XOX&*&$+++oo..XX               ",
"              X@@@OX&*$$$@@OOXo.X@OX&&*$+++oo..XX               ",
"              X@@OX&&*$$$@@OOXo.X@@OX&*&++++oo.X                ",
"              X@@OX&&*$$@@@OX@.X&@@.X&*&++++oo.X                ",
"              X@OX&&&$$$@@@OXOX&&@@@X&&%#+++oo..X               ",
"              X@X&&*&$$$@@@OX.X&&@@@.X&%#++++o..X               ",
"              XOX&&*&$$$@@@OXX&&&$@@.X&#%#+++oo.X               ",
"               X&&&*$$$$@@@OX&&&&$@@.X&#%#+++oo.X               ",
"               X&&*&$$$$$@@OX&&&&$$@o.X###+++ooo.X              ",
"               X&&*&$$$$$@@OX&&&&$$@o.X##%#++ooo.X              ",
"               X&&*$$$$$$@@OX&&&$$$@o.X##%#++ooo.X              ",
"               X&&*$$$$$$@@@OX&&$$$@o.X####++ooo.X              "
};
