/* XPM */
static char *tile251697129292[] = {
/* columns rows colors chars-per-pixel */
"64 64 23 1 ",
"  c None",
". c #1A1812",
"X c #1F1D16",
"o c #232017",
"O c #29271B",
"+ c #2A271C",
"@ c #343124",
"# c #353124",
"$ c #3C3A2F",
"% c #403B2C",
"& c #46412F",
"* c #4B4634",
"= c #554F3A",
"- c #5A553F",
"; c #6B6447",
": c #6A6349",
"> c #756D4C",
", c #807855",
"< c #928967",
"1 c #968D69",
"2 c #D0C086",
"3 c #D6C88E",
"4 c #F8ECBF",
/* pixels */
"                                                                ",
"                                                                ",
"                                                                ",
"                                                                ",
"                                                                ",
"                                                                ",
"                                                                ",
"                                                                ",
"                                                                ",
"                                                                ",
"                                                                ",
"                                                                ",
"                      $$$$$                                     ",
"                    $$2222>$$$$$$                               ",
"                  $$22222>>$22242$$$$                    $$$$$$$",
"                 $2242222>=$2242222$2$$$$$$$$$$$$$$$$$$$$$2222$2",
"                $244222<<>=$2422222$22222222222222>=$22>$2422>$2",
"               $2222<<<<>>$24222222$2444422222222>>$222>$2422>$2",
"             $$2222<<<<<>=$2222<<<<>$222222<<<<<>>=$><>=$422<>$4",
"            $2222<<<<<<>=$222<<<<<<>$2222<<<<<<>>=$2$>>$222<<$24",
"           $2222<<<<<<<>=$2<<<<<<<<>=$22<<<<<<>>>=$2<$=$22<<>$22",
"            $22<<<<<<<>=$22<<<<<<<<>=$22<<<<<<>>=$22<$=$2<<<>$22",
"             $2<<<<<<<>=$2<<<<<<<<>>=$22<<<<<>>==$2<<=$22<<>=$2<",
"             $2<<<<<<>=$22<<<<<<<>>=$$22<<<<>>>==$2<>=$2<<>>$22<",
"             $<<<<<<>>=$2<<<<<<<>>=$<<$2<<<>>>==$2<<>>=$<<>=$2<<",
"             $<<<<>>>=$2<<<<<<<>>>=$<=$2<<>>>>==$2<>>>=$<>>$22<<",
"             $>>>>>>>$>>>>>>>>>>>=$<>=$2>>>>>==$2<>>>>==$>=$2<>>",
"             $>>>>>>=$>>>>>>>>>>=$<>>=$>>>>>===$2<>>>>==$>=$>>>>",
"             $=>>>>>=$>>>>>>>>>==$<>>=$>>>>===$2<>>>>>==$>$>>>>>",
"              $=>>>=$>>>>>======$<>>==$>>>===$><>>>>>====$>>====",
"              $==>==$>==========$<>>==$>>====$>>>>>>=====$======",
"              $=====$===========$=>===$=====$============$======",
"              $$====$===$$$$$$$$$$=====$===$$$$$==========$$$$$$",
"             O#O$===$$$$*****#####$$====$$$*####$$======$$oo.O**",
"             O###$$$oo.O*****#####Oo$$$$.O;*#####o$$=$$$##oo..O*",
"            O:::###ooo..O1131:::::Oooo.O.O*3::::#o.O$*;###&&&@O1",
"            O::::##o&&@@O1131:::::&Oo..O&O131::::&.O**;#::&&&&@O",
"            O::::::&&&@@O1131:::::&O&#O1&#O31:::&&@OO11:::&&&&@O",
"            O::::::&&&@@O1131:::::&O&@O1&#O131;:&&@OO11:::&&&+XO",
"             O:::::&&&@@OO113::::&&O@@O1&#XO311&&&XOO111::&&+OXO",
"             O:::::&&&@@O@O13::::&&&OO11&&@O111&&&XOO131::&++XO%",
"             O:::::&&&@O&@O131:::&&&@O11:&XXO1&&&+XOXO13::+++XO-",
"             O:::::&&&@O&&@O31::&&&&O13::&XXO1&&+XXOXO131%+++XO-",
"             O::::&&&&@O1&@O13::&&&@O13::&+XO&&++XO+XO-3-%+++XO-",
"              O:::&&&@@O1&@O13::&&&@O13::++XO++++XO+XO---+++XO--",
"              O:::&&&@O11:&O131&&&@O113::++XXO++XXO++XO--+++XO--",
"              O::&&&&@O13:&@O13&&&@O113::%+XXO++XXO++XO--++XXO--",
"              O::&&&@O113:&@O11&&&@O113::$++XO++XXO-+XO--++XXO--",
"              O:&&&&@O13::&@O1&&&@O1111:%%++XO+XXO--+XO-+++XO-,-",
"              O&&&&&O113::&@@O&&&@O1111:%%++XXOXXO--++XO++XXO-OO",
"              O&&&&@O13:::&@@O&&&@O1131:%%%++XOXXO--++XO++XXOO  ",
"             O&&&&&@O13::&&@@O&&@O#O131:%%%++XOXO-,-%+XO++XXO   ",
"             O&&&&@O113::&&@@O&&@O@O131%%%%++XXOO-,-%+XO++XO    ",
"             O&&&&@O13:::&&@@O&@O&@O113%%%%++XXOO-,-%+O O+O     ",
"             O&&&@O113:::&&@@O&@O&&@O13-%%%%++XO--,-%O   O      ",
"             O&&&@O113::&&&@O&@O1&&@O1,-%%%%++XO---%O           ",
"             O:&@O111:::&&&@O@O11&&&O1->-%%%++XXO--O            ",
"             O:&O1131:::&&&@O@O11&&&@O-,-%%%%+XXO-O             ",
"             O#@O1131:::&&&@OO111:&&#+--,-%%%++XO-O             ",
"              OO1113::::&&&@O1111:&&#+--,-%%%++XO-O             ",
"              OO1131:::::&&@O1111::&*#O---%%%+++XO              ",
"               O1131:::::&&@O1111::&&#O--,-%%+++XO              ",
"               O113::::::&&@O111:::&&@O--,-%%+++XO              ",
"               O113::::::&&&@O11:::&&@O----%%+++XO              "
};
