/* XPM */
static char *result[] = {
/* columns rows colors chars-per-pixel */
"64 64 7 1 ",
"  c #6A6349",
". c #46412F",
"X c #343124",
"o c #29271B",
"O c #968D69",
"+ c #D6C88E",
"@ c white",
/* pixels */
"  ....Xo.................................................X....  ",
"  ....Xo.................................................X....  ",
"..++++....++++++++++++++++++++++++++++++++++++++++++++....++++..",
"..++++....++++++++++++++++++++++++++++++++++++++++++++....++++..",
"..++++....++++++++++++++++++++++++++++++++++++++++++++....++++..",
"..++++....++++++++++++++++++++++++++++++++++++++++++++....++++..",
" .....oO................................................Xo....  ",
" .....oO................................................Xo....  ",
" ...XoOO..++++++++++++++++++++++++++++++++++++++++++++..XoOO    ",
"...XXoO+..++++++++++++++++++++++++++++++++++++++++++++..oOOO    ",
"...XXoO+..++++++++++++++++++++++++++++++++++++++++++++..oOO     ",
"..XXoOO+..++++++++++++++++++++++++++++++++++++++++++++..oOO     ",
"..XXoO+O..++++++++++++++++++++++++++++++++++++++++++++..oO+O   .",
".XXoXoOO..++++++++++++++++++++++++++++++++++++++++++++..oO+O   .",
".XoXXoO.....++++++++++++++++++++++++++++++++++++++++..oXoOO+  ..",
"XXo.XXo.....++++++++++++++++++++++++++++++++++++++++...XXoO+  ..",
"Xo..XXo...++++++++++++++++++++++++++++++++++++++++++++..XoOOO .X",
"oO...Xo...++++++++++++++++++++++++++++++++++++++++++++..XXoOO .X",
"OO...Xo...++++++++++++++++++++++++++++++++++++++++++++...XoOO.Xo",
"O+O..XXo..++++++++++++++++++++++++++++++++++++++++++++....XoO.Xo",
"O+ ...Xo..++++++++++++++++++++++++++++++++++++++++++++....XoOXo ",
"+O ...Xo..++++++++++++++++++++++++++++++++++++++++++++.....XoXoO",
"O   ..Xo..++++++++++++++++++++++++++++++++++++++++++++.. ...XoOO",
"O   ..Xo..++++++++++++++++++++++++++++++++++++++++++++.. ...XoOO",
"    ..Xo..++++++++++++++++++++++++++++++++++++++++++++.. ...XoOO",
"    ...X..++++++++++++++++++++++++++++++++++++++++++++.. ...XoOO",
"    ...X..++++++++++++++++++++++++++++++++++++++++++++..  .XXoO+",
"    ...X..++++++++++++++++++++++++++++++++++++++++++++..  .XoOO+",
"    ...X..++++++++++++++++++++++++++++++++++++++++++++..  .XoOO+",
"    ...X..++++++++++++++++++++++++++++++++++++++++++++..  .XoOO+",
"    ...X..++++++++++++++++++++++++++++++++++++++++++++..  .XoOO+",
"    ...X..++++++++++++++++++++++++++++++++++++++++++++..  ..oOO+",
"    ..XX..++++++++++++++++++++++++++++++++++++++++++++..  ..XoOO",
"    ..XX..++++++++++++++++++++++++++++++++++++++++++++..  ..XoOO",
"O   ..XX..++++++++++++++++++++++++++++++++++++++++++++..  ..XXoO",
"O   ..Xo..++++++++++++++++++++++++++++++++++++++++++++..  ...XoO",
"O  ...Xo..++++++++++++++++++++++++++++++++++++++++++++..  ....Xo",
"+O ...Xo..++++++++++++++++++++++++++++++++++++++++++++..  ....Xo",
"+O ..XXo..++++++++++++++++++++++++++++++++++++++++++++..  ....Xo",
"+O ..XXo..++++++++++++++++++++++++++++++++++++++++++++..  ....Xo",
"O+O..XXo..++++++++++++++++++++++++++++++++++++++++++++..  ...Xo ",
"oO...XoX..++++++++++++++++++++++++++++++++++++++++++++..  ...XoO",
"oO..XXo...++++++++++++++++++++++++++++++++++++++++++..O+O ...XoO",
"Xo..XXo...++++++++++++++++++++++++++++++++++++++++++..O+O ...XoO",
"Xo.XXXoO..++++++++++++++++++++++++++++++++++++++++..XoOOO...XoOO",
"XXoXXoOO..++++++++++++++++++++++++++++++++++++++++...XoOO...XoOO",
"OXoXXoOO..++++++++++++++++++++++++++++++++++++++++++..oOO..XXoOO",
"OXXoXoO+..++++++++++++++++++++++++++++++++++++++++++..oOO..XXoOO",
"O XoXoO+ ...++++++++++++++++++++++++++++++++++++++++++.....XoO+O",
"  XooOO+O...++++++++++++++++++++++++++++++++++++++++++....XXoO+O",
"  .XoOOO..++++++++++++++++++++++++++++++++++++++++++++....XXoO+O",
"   XoOOO..++++++++++++++++++++++++++++++++++++++++++++....XXo+OO",
"   .XoOO..++++++++++++++++++++++++++++++++++++++++++++....XoO+OO",
"   .XoOO..++++++++++++++++++++++++++++++++++++++++++++..o.XoO+OO",
"   ..oOO..++++++++++++++++++++++++++++++++++++++++++++..oXXoO+OO",
"    .XoO..++++++++++++++++++++++++++++++++++++++++++++..oXXo+OO ",
"  ....oO................................................Xo....O ",
"  ....oO................................................XX....O ",
"..++++....++++++++++++++++++++++++++++++++++++++++++++....++++..",
"..++++....++++++++++++++++++++++++++++++++++++++++++++....++++..",
"..++++....++++++++++++++++++++++++++++++++++++++++++++....++++..",
"..++++....++++++++++++++++++++++++++++++++++++++++++++....++++..",
"  ....Xo.................................................X....  ",
"  ....Xo.................................................X....  "
};
