/* XPM */
static char *scroll_2_aseprite[] = {
/* columns rows colors chars-per-pixel */
"64 64 4 1 ",
"  c #46412F",
". c #D9A066",
"X c #D6C88E",
"o c None",
/* pixels */
"                                                oo    oooooooooo",
"                                                oo    oooooooooo",
"..XX..XX..XX..XX..XX..XX..XX..XX..XX..XX..XX..    XX..  oooooooo",
"..XX..XX..XX..XX..XX..XX..XX..XX..XX..XX..XX..    XX..  oooooooo",
"XX..XX..XX..XX..XX..XX..XX..XX..XX..XX..XX..XX    ..XX  oooooooo",
"XX..XX..XX..XX..XX..XX..XX..XX..XX..XX..XX..XX    ..XX  oooooooo",
"                                                oo    oooooooooo",
"                                                oo    oooooooooo",
"..XX..XX..XX..XX..XX..XX..XX..XX..XX..XX..XX..  oooooooooooooooo",
"..XX..XX..XX..XX..XX..XX..XX..XX..XX..XX..XX..  oooooooooooooooo",
"XX..XX..XX..XX..XX..XX..XX..XX..XX..XX..XX..XX  oooooooooooooooo",
"XX..XX..XX..XX..XX..XX..XX..XX..XX..XX..XX..XX  oooooooooooooooo",
"XXXXXXXXXXXXXXXXXXXXXXXXXXXXXXXXXXXXXXXXXX....  oooooooooooooooo",
"XXXXXXXXXXXXXXXXXXXXXXXXXXXXXXXXXXXXXXXXXX....  oooooooooooooooo",
"XXXXXXXXXXXXXXXXXXXXXXXXXXXXXXXXXXXXXXXXXX..  oooooooooooooooooo",
"XXXXXXXXXXXXXXXXXXXXXXXXXXXXXXXXXXXXXXXXXX..  oooooooooooooooooo",
"XXXXXXXXXXXXXXXXXXXXXXXXXXXXXXXXXXXXXXXXXX....  oooooooooooooooo",
"XXXXXXXXXXXXXXXXXXXXXXXXXXXXXXXXXXXXXXXXXX....  oooooooooooooooo",
"XXXXXXXXXXXXXXXXXXXXXXXXXXXXXXXXXXXXXXXXXXXX..  oooooooooooooooo",
"XXXXXXXXXXXXXXXXXXXXXXXXXXXXXXXXXXXXXXXXXXXX..  oooooooooooooooo",
"XXXXXXXXXXXXXXXXXXXXXXXXXXXXXXXXXXXXXXXXXXXX..  oooooooooooooooo",
"XXXXXXXXXXXXXXXXXXXXXXXXXXXXXXXXXXXXXXXXXXXX..  oooooooooooooooo",
"XXXXXXXXXXXXXXXXXXXXXXXXXXXXXXXXXXXXXXXXXXXX..  oooooooooooooooo",
"XXXXXXXXXXXXXXXXXXXXXXXXXXXXXXXXXXXXXXXXXXXX..  oooooooooooooooo",
"XXXXXXXXXXXXXXXXXXXXXXXXXXXXXXXXXXXXXXXXXXXX..  oooooooooooooooo",
"XXXXXXXXXXXXXXXXXXXXXXXXXXXXXXXXXXXXXXXXXXXX..  oooooooooooooooo",
"XXXXXXXXXXXXXXXXXXXXXXXXXXXXXXXXXXXXXXXXXXXX..  oooooooooooooooo",
"XXXXXXXXXXXXXXXXXXXXXXXXXXXXXXXXXXXXXXXXXXXX..  oooooooooooooooo",
"XXXXXXXXXXXXXXXXXXXXXXXXXXXXXXXXXXXXXXXXXXXX..  oooooooooooooooo",
"XXXXXXXXXXXXXXXXXXXXXXXXXXXXXXXXXXXXXXXXXXXX..  oooooooooooooooo",
"XXXXXXXXXXXXXXXXXXXXXXXXXXXXXXXXXXXXXXXXXXXX..  oooooooooooooooo",
"XXXXXXXXXXXXXXXXXXXXXXXXXXXXXXXXXXXXXXXXXXXX..  oooooooooooooooo",
"XXXXXXXXXXXXXXXXXXXXXXXXXXXXXXXXXXXXXXXXXXXX..  oooooooooooooooo",
"XXXXXXXXXXXXXXXXXXXXXXXXXXXXXXXXXXXXXXXXXXXX..  oooooooooooooooo",
"XXXXXXXXXXXXXXXXXXXXXXXXXXXXXXXXXXXXXXXXXXXX..  oooooooooooooooo",
"XXXXXXXXXXXXXXXXXXXXXXXXXXXXXXXXXXXXXXXXXXXX..  oooooooooooooooo",
"XXXXXXXXXXXXXXXXXXXXXXXXXXXXXXXXXXXXXXXXXXXX..  oooooooooooooooo",
"XXXXXXXXXXXXXXXXXXXXXXXXXXXXXXXXXXXXXXXXXXXX..  oooooooooooooooo",
"XXXXXXXXXXXXXXXXXXXXXXXXXXXXXXXXXXXXXXXXXXXX..  oooooooooooooooo",
"XXXXXXXXXXXXXXXXXXXXXXXXXXXXXXXXXXXXXXXXXXXX..  oooooooooooooooo",
"XXXXXXXXXXXXXXXXXXXXXXXXXXXXXXXXXXXXXXXXXXXX..  oooooooooooooooo",
"XXXXXXXXXXXXXXXXXXXXXXXXXXXXXXXXXXXXXXXXXXXX..  oooooooooooooooo",
"XXXXXXXXXXXXXXXXXXXXXXXXXXXXXXXXXXXXXXXXXX..  oooooooooooooooooo",
"XXXXXXXXXXXXXXXXXXXXXXXXXXXXXXXXXXXXXXXXXX..  oooooooooooooooooo",
"XXXXXXXXXXXXXXXXXXXXXXXXXXXXXXXXXXXXXXXX..  oooooooooooooooooooo",
"XXXXXXXXXXXXXXXXXXXXXXXXXXXXXXXXXXXXXXXX..  oooooooooooooooooooo",
"XXXXXXXXXXXXXXXXXXXXXXXXXXXXXXXXXXXXXXXXXX..  oooooooooooooooooo",
"XXXXXXXXXXXXXXXXXXXXXXXXXXXXXXXXXXXXXXXXXX..  oooooooooooooooooo",
"XXXXXXXXXXXXXXXXXXXXXXXXXXXXXXXXXXXXXXXXXXXX..  oooooooooooooooo",
"XXXXXXXXXXXXXXXXXXXXXXXXXXXXXXXXXXXXXXXXXXXX..  oooooooooooooooo",
"XXXXXXXXXXXXXXXXXXXXXXXXXXXXXXXXXXXXXXXXXXXX..  oooooooooooooooo",
"XXXXXXXXXXXXXXXXXXXXXXXXXXXXXXXXXXXXXXXXXXXX..  oooooooooooooooo",
"XX..XX..XX..XX..XX..XX..XX..XX..XX..XX..XX..XX  oooooooooooooooo",
"XX..XX..XX..XX..XX..XX..XX..XX..XX..XX..XX..XX  oooooooooooooooo",
"..XX..XX..XX..XX..XX..XX..XX..XX..XX..XX..XX..  oooooooooooooooo",
"..XX..XX..XX..XX..XX..XX..XX..XX..XX..XX..XX..  oooooooooooooooo",
"                                                oo    oooooooooo",
"                                                oo    oooooooooo",
"XX..XX..XX..XX..XX..XX..XX..XX..XX..XX..XX..XX    ..XX  oooooooo",
"XX..XX..XX..XX..XX..XX..XX..XX..XX..XX..XX..XX    ..XX  oooooooo",
"..XX..XX..XX..XX..XX..XX..XX..XX..XX..XX..XX..    XX..  oooooooo",
"..XX..XX..XX..XX..XX..XX..XX..XX..XX..XX..XX..    XX..  oooooooo",
"                                                oo    oooooooooo",
"                                                oo    oooooooooo"
};
