/* XPM */
static char *Hurt1697131261[] = {
/* columns rows colors chars-per-pixel */
"192 96 16 1 ",
"  c None",
". c black",
"X c #291D2B",
"o c #3B2027",
"O c #3D2936",
"+ c #52333F",
"@ c #7D3833",
"# c #AB5130",
"$ c #8F4D57",
"% c #BD6A62",
"& c #FFAE70",
"* c #686F99",
"= c #FFEE83",
"- c #FFC2A1",
"; c #A3A7C2",
": c #DFE0E8",
/* pixels */
"                                                                                                                                                                                                ",
"                                                                                                                                                                                                ",
"                                                                                                                                                                                                ",
"                                                                                                                                                                                                ",
"                                                                                                                                                                                                ",
"                                                                                                                                                                                                ",
"                                                                                                                                                                                                ",
"                                                                                                                                                                                                ",
"                                                                                                                                                                                                ",
"                                                                                                                                                                                                ",
"                                                                                                                                                                                                ",
"                                                                                                                                                                                                ",
"                                                                                                                                                                                                ",
"                                                                                                                                                                                                ",
"                                                                                                                                                                                                ",
"                                                                                                                                                                                                ",
"                                                                                                                                                                                                ",
"                                                                                                                                                                                                ",
"                                                                                                                                                                                                ",
"                                                                                                                                                                                                ",
"                                                                                                                                                                                                ",
"                                                                                                                                                                                                ",
"                                                                                                                                                                                                ",
"                                                                                                                                                                                                ",
"                                                                                                                                                                                                ",
"                                                                                                                                                                                                ",
"                                                                                                                                                                                                ",
"                                                                                                                                                                                                ",
"                                                                                                                                                                                                ",
"                                                                                                                                                                                                ",
"                          .                                                                                               .                                                                     ",
"                         .:.                                                                                             .:.                                                                    ",
"                         .:.                                                                                             .:.                                                                    ",
"                         .:.                                                                                             .:.                                                                    ",
"                         .:.                                                                                             .:.                                                                    ",
"                        .:::.                                                                                           .:::.                                                                   ",
"                        .:;:.                                                                                           .:;:.                                                                   ",
"                        .:.:.                                                                                           .:.:.                                                                   ",
"                       .:;.;:.                                                                                         .:;.;:.                                                                  ",
"                       .:;.;:.                                                                                         .:;.;:.                                                                  ",
"                       .:.*.:.                                                                                         .:.*.:.                                                                  ",
"                      .:;.*.;:.                                                                                       .:;.*.;:.                                                                 ",
"                      .:;.*.;:.                                                                                       .:;.*.;:.                                                                 ",
"                      .:.***.:.                                                                                       .:.***.:.                                                                 ",
"                       .;.*.;.                                                                                         .;.*.;.                                                                  ",
"                        ..*..                                                                                           ..*..                                                                   ",
"                         .*.                                                                                             .*.                                                                    ",
"                         .*.                                                                                             .*.                                                                    ",
"                         .*.                                                                                             .*.                                                                    ",
"                         .*.                                                                                             .*.                                                                    ",
"                         .*.                                                                                             .*.                                                                    ",
"                         ...              .......                                                                        ...                                                                    ",
"                         .+.           ...&&&&###..                                                                      .+.              .......                                               ",
"                         .+.          .&&##@@#&###&.                                                                     .+.           ...&&&&###..                                             ",
"                         .+.         .&..&###@@&@##&.                                                                    .+.          .&&##@@#&###&.                                            ",
"                         .+.        .&###.&##@@&@@#&#.                                                                   .+.         .&..&###@@&@##&.                                           ",
"                         .+.       .&###@@.&.......&#.                                                                   .+.        .&###.&##@@&@@#&#.                                          ",
"                         .+.       .&##@....-------.@#.                                                                  .+.       .&###@@.&.......&#.                                          ",
"                         .+.      .&##@.------------.@.                                                                  .+.       .&##@....-------.@#.                                         ",
"                         .+.      .&##@.--...---...-.@.                                                                  .+.      .&##@.------------.@.                                         ",
"                         .+.      .&#@.--.o@#.-.#@o.-.     ......                                                        .+.      .&##@.--...---...-.@.                                         ",
"                         .+.      .&#@.---.@#.-.#@.--.   ..OOOOOO..                                                      .+.      .&#@.--.o@#.-.#@o.-.     ......                               ",
"                         .+.      .#@.---%%..---..%%-....OOOOOOOOOO..                                                    .+.      .&#@.---.@#.-.#@.--.   ..OOOOOO..                             ",
"                         .+.     .=.@.--%..--%-.--..%.=.OOOOOOOOOOOOO.                                                   .+.      .#@.---%%..---..%%-....OOOOOOOOOO..                           ",
"                         .+.    .=&.@.-%-------.-----.&=.OOOOOOOOOOOOO.                                                  .+.     .=.@.--%..--%-.--..%.=.OOOOOOOOOOOOO.                          ",
"                         .+.   .=&&.#@.------.%%.----.&=.O.OOOOO..OOOO.                                                  .+.    .=&.@.-%-------.-----.&=.OOOOOOOOOOOOO.                         ",
"                         .+.   .=&&&.@.--%%.......%%-.&&=.o.XXX.oo.OOOO.                                                 .+.   .=&&.#@.------.%%.----.&=.O.OOOOO..OOOO.                         ",
"                         .+.  .=&&&&%.@.%..@@@@@@@..%.&&=.o.XXX.oo.OOOO.                                                 .+.   .=&&&.@.--%%.......%%-.&&=.o.XXX.oo.OOOO.                        ",
"                         .+.  .=&%&%&.@..#@@#...#@@o.&%&=.o.XXX.oo.OOOOO.                                                .+.  .=&&&&%.@.%..@@@@@@@..%.&&=.o.XXX.oo.OOOO.                        ",
"                         .+.  .==&$%&&.o@@@#.:::.#@o.&%$..o.XX.oo.XXOOOO.                                                .+.  .=&%&%&.@..#@@#...#@@o.&%&=.o.XXX.oo.OOOOO.                       ",
"                         .+.   ..=%$&&&.@@##.....#@o.&%$...XXX.oo.XXOOOO.                                                .+.  .==&$%&&.o@@@#.:::.#@o.&%$..o.XX.oo.XXOOOO.                       ",
"                         .+.  .%$.%$%&&.@o####@###@.&%$$.o..XX.oo.XXXOOO.                                                .+.   ..=%$&&&.@@##.....#@o.&%$...XXX.oo.XXOOOO.                       ",
"                         .+.  .%$$..$%&&.o@#######@.&$$.oo.$......XXXOOOO.                                               .+.  .%$.%$%&&.@o####@###@.&%$$.o..XX.oo.XXXOOO.                       ",
"                         .+.  .%$$.$.$&&&.o@##@##@.&%$..oo.$.@@@@@.XXOOOO.                                               .+.  .%$$..$%&&.o@#######@.&$$.oo.$......XXXOOOO.                      ",
"                         .+.  .%$$.%$.$%&&.@o#@#@@.&$.X.oo.$.@@@@@.XXXOOO.                                               .+.  .%$$.$.$&&&.o@##@##@.&%$..oo.$.@@@@@.XXOOOO.                      ",
"                         .+.  .%$$.%$$.%&&&.o@@@o.&%$.X.oo........XXXXOOO.                                               .+.  .%$$.%$.$%&&.@o#@#@@.&$.X.oo.$.@@@@@.XXXOOO.                      ",
"                         .+. .#.$. .%$.%%&&&.....&&$..X.oo.XXX.oo.XXXXOOO.                                               .+. ..%$$.%$$.%&&&.o@@@o.&%$.X.oo........XXXXOOO.                      ",
"                         ....#@.$. .%$$.$%&&&&%&&&%$..X.oo.XXX.oo.XXXXOO.                                                ....##.$. .%$.%%&&&.....&&$..X.oo.XXX.oo.XXXXOOO.                      ",
"                        ..###@@@.. .%$$.$%%&%&%&&&%.$.X.oo.XXX.oo.XXXXOO.                                               ..###@@.$. .%$$.$%&&&&%&&&%$..X.oo.XXX.oo.XXXXOO.                       ",
"                        .##@@@..   .%$$$.$%%%&%&&%$.$.XX.oo.XXX.oo.XXXOO.                                               .##@@@@@.. .%$$.$%%&%&%&&&%.$.X.oo.XXX.oo.XXXXOO.                       ",
"                        .#@@..     .......$$%%$%%$....XX.oo.XXX.oo.XXXOO.                                               .#@@@@..   .%$$$.$%%%&%&&%$.$.XX.oo.XXX.oo.XXXOO.                       ",
"                        .....      .@ooooo.$%%$%$.ooo.XX.oo.XXX.oo.XXXO.                                                ......     .......$$%%$%%$....XX.oo.XXX.oo.XXXOO.                       ",
"                         .+.       .@oooooo......oooo.XXX..XXXXX..XXXXO.                                                 .+.       .@ooooo.$%%$%$.ooo.XX.oo.XXX.oo.XXXO.                        ",
"                         .+.       ....................XXXXXXXXXXXXXXO.                                                  .+.       .@oooooo......oooo.XXX..XXXXX..XXXXO.                        ",
"                         .+.       .+++OOOOOOOOOOOOOO..XXXXXXXXXXXXXXO.                                                  .+.       ....................XXXXXXXXXXXXXXO.                         ",
"                         .+.       .++OOOOOOXXXOOOOOO. .XXXXXXXXXXXXO.                                                   .+.       .+++OOOOOOOOOOOOOO..XXXXXXXXXXXXXXO.                         ",
"                         .+.       .+OOOOOXXXXXXXOOOO.  ..XXXXXXXXX..                                                    .+.       .++OOOOOOXXXOOOOOO. .XXXXXXXXXXXXO.                          ",
"                         .+.       .+OOOXX....XXXXOOO.    ..XXXXX..                                                      .+.       .+OOOOOXXXXXXXOOOO.  ..XXXXXXXXX..                           ",
"                         .+.       .+OOXX.    ..XXXOO.      .....                                                        .+.       .+OOOXX.....XXXOOO.    ..XXXXX..                             ",
"                         .+.       .+OXX.       .XXOO.                                                                   .+.       .+OXX..     ..XXOO.      .....                               ",
"                         .+.       .....         .....                                                                   .+.       .....         .....                                          ",
"                         .+.       .@@o.         .o@@.                                                                   .+.       .@@o.         .o@@.                                          ",
"                         .+.       .@@o.         .o@@.                                                                   .+.       .@@o.         .o@@.                                          ",
"                         .+.       .@@o.         .o@@.                                                                   .+.       .@@o.         .o@@.                                          ",
"                         .+.       .@@o.          .o@.                                                                   .+.       .@@o.          .o@.                                          ",
"                         .+.        ...           ...                                                                    .+.        ...           ...                                           "
};
