/* XPM */
static char *coin_8[] = {
/* columns rows colors chars-per-pixel */
"64 64 7 1 ",
"  c #714917",
". c #CE7211",
"X c #FEB421",
"o c #FFFF7D",
"O c #FFFFEB",
"+ c white",
"@ c None",
/* pixels */
"@@@@@@@@@@@@@@@@@@@@@@@@@@@@@@@@@@@@@@@@@@@@@@@@@@@@@@@@@@@@@@@@",
"@@@@@@@@@@@@@@@@@@@@@@@@@@@@@@@@@@@@@@@@@@@@@@@@@@@@@@@@@@@@@@@@",
"@@@@@@@@@@@@@@@@@@@@@@@@@@@@@@@@@@@@@@@@@@@@@@@@@@@@@@@@@@@@@@@@",
"@@@@@@@@@@@@@@@@@@@@@@@@@@@@@@@@@@@@@@@@@@@@@@@@@@@@@@@@@@@@@@@@",
"@@@@@@@@@@@@@@@@@@@@@@@@@@            @@@@@@@@@@@@@@@@@@@@@@@@@@",
"@@@@@@@@@@@@@@@@@@@@@@@@@@            @@@@@@@@@@@@@@@@@@@@@@@@@@",
"@@@@@@@@@@@@@@@@@@@@@@@@  XXXXoo  OO++  @@@@@@@@@@@@@@@@@@@@@@@@",
"@@@@@@@@@@@@@@@@@@@@@@@@  XXXXoo  OO++  @@@@@@@@@@@@@@@@@@@@@@@@",
"@@@@@@@@@@@@@@@@@@@@@@  XXXXXXoo  OOOO++  @@@@@@@@@@@@@@@@@@@@@@",
"@@@@@@@@@@@@@@@@@@@@@@  XXXXXXoo  OOOO++  @@@@@@@@@@@@@@@@@@@@@@",
"@@@@@@@@@@@@@@@@@@@@  XX    XXXXoo  OO++++  @@@@@@@@@@@@@@@@@@@@",
"@@@@@@@@@@@@@@@@@@@@  XX    XXXXoo  OO++++  @@@@@@@@@@@@@@@@@@@@",
"@@@@@@@@@@@@@@@@@@@@    ....  XXXX  ooOO++  @@@@@@@@@@@@@@@@@@@@",
"@@@@@@@@@@@@@@@@@@@@    ....  XXXX  ooOO++  @@@@@@@@@@@@@@@@@@@@",
"@@@@@@@@@@@@@@@@@@@@  XX....  XXXXoo  OO++++  @@@@@@@@@@@@@@@@@@",
"@@@@@@@@@@@@@@@@@@@@  XX....  XXXXoo  OO++++  @@@@@@@@@@@@@@@@@@",
"@@@@@@@@@@@@@@@@@@  XXXX..oo  XXXXoo  ooOO++  @@@@@@@@@@@@@@@@@@",
"@@@@@@@@@@@@@@@@@@  XXXX..oo  XXXXoo  ooOO++  @@@@@@@@@@@@@@@@@@",
"@@@@@@@@@@@@@@@@@@  XX....ooOO  XXoo  ooOO++  @@@@@@@@@@@@@@@@@@",
"@@@@@@@@@@@@@@@@@@  XX....ooOO  XXoo  ooOO++  @@@@@@@@@@@@@@@@@@",
"@@@@@@@@@@@@@@@@@@  XX....ooOO  XXoo  ooooOO++  @@@@@@@@@@@@@@@@",
"@@@@@@@@@@@@@@@@@@  XX....ooOO  XXoo  ooooOO++  @@@@@@@@@@@@@@@@",
"@@@@@@@@@@@@@@@@@@  XX....ooOO  XXXXoo  ooOO++  @@@@@@@@@@@@@@@@",
"@@@@@@@@@@@@@@@@@@  XX....ooOO  XXXXoo  ooOO++  @@@@@@@@@@@@@@@@",
"@@@@@@@@@@@@@@@@  XXXX....ooOO  XXXXoo  oooo++  @@@@@@@@@@@@@@@@",
"@@@@@@@@@@@@@@@@  XXXX....ooOO  XXXXoo  oooo++  @@@@@@@@@@@@@@@@",
"@@@@@@@@@@@@@@@@  XX......oooo  XXXXoo  oooo++  @@@@@@@@@@@@@@@@",
"@@@@@@@@@@@@@@@@  XX......oooo  XXXXoo  oooo++  @@@@@@@@@@@@@@@@",
"@@@@@@@@@@@@@@@@  XX........oo  ..XXoo  ooooOO  @@@@@@@@@@@@@@@@",
"@@@@@@@@@@@@@@@@  XX........oo  ..XXoo  ooooOO  @@@@@@@@@@@@@@@@",
"@@@@@@@@@@@@@@@@  XX........oo  ..XXoo  ooooOO  @@@@@@@@@@@@@@@@",
"@@@@@@@@@@@@@@@@  XX........oo  ..XXoo  ooooOO  @@@@@@@@@@@@@@@@",
"@@@@@@@@@@@@@@@@  XX........oo  ..XXoo  ooooOO  @@@@@@@@@@@@@@@@",
"@@@@@@@@@@@@@@@@  XX........oo  ..XXoo  ooooOO  @@@@@@@@@@@@@@@@",
"@@@@@@@@@@@@@@@@  XX........oo  ..XXoo  ooooOO  @@@@@@@@@@@@@@@@",
"@@@@@@@@@@@@@@@@  XX........oo  ..XXoo  ooooOO  @@@@@@@@@@@@@@@@",
"@@@@@@@@@@@@@@@@  XXXX........  ..XXoo  ooooOO  @@@@@@@@@@@@@@@@",
"@@@@@@@@@@@@@@@@  XXXX........  ..XXoo  ooooOO  @@@@@@@@@@@@@@@@",
"@@@@@@@@@@@@@@@@@@  XX........  ..XXoo  ooooOO  @@@@@@@@@@@@@@@@",
"@@@@@@@@@@@@@@@@@@  XX........  ..XXoo  ooooOO  @@@@@@@@@@@@@@@@",
"@@@@@@@@@@@@@@@@@@  XX........  ..XX  ooooOOXX  @@@@@@@@@@@@@@@@",
"@@@@@@@@@@@@@@@@@@  XX........  ..XX  ooooOOXX  @@@@@@@@@@@@@@@@",
"@@@@@@@@@@@@@@@@@@  XXXX......  ..XX  ooooOO  @@@@@@@@@@@@@@@@@@",
"@@@@@@@@@@@@@@@@@@  XXXX......  ..XX  ooooOO  @@@@@@@@@@@@@@@@@@",
"@@@@@@@@@@@@@@@@@@  XXXXXX..  ....XX  ooooOO  @@@@@@@@@@@@@@@@@@",
"@@@@@@@@@@@@@@@@@@  XXXXXX..  ....XX  ooooOO  @@@@@@@@@@@@@@@@@@",
"@@@@@@@@@@@@@@@@@@@@  XXXXXX  ....XX  ooooXX  @@@@@@@@@@@@@@@@@@",
"@@@@@@@@@@@@@@@@@@@@  XXXXXX  ....XX  ooooXX  @@@@@@@@@@@@@@@@@@",
"@@@@@@@@@@@@@@@@@@@@    XXXX  ....  ooooXX  @@@@@@@@@@@@@@@@@@@@",
"@@@@@@@@@@@@@@@@@@@@    XXXX  ....  ooooXX  @@@@@@@@@@@@@@@@@@@@",
"@@@@@@@@@@@@@@@@@@@@  XX    XX....  ooXXXX  @@@@@@@@@@@@@@@@@@@@",
"@@@@@@@@@@@@@@@@@@@@  XX    XX....  ooXXXX  @@@@@@@@@@@@@@@@@@@@",
"@@@@@@@@@@@@@@@@@@@@@@  XXXXXX..  XXXXXX  @@@@@@@@@@@@@@@@@@@@@@",
"@@@@@@@@@@@@@@@@@@@@@@  XXXXXX..  XXXXXX  @@@@@@@@@@@@@@@@@@@@@@",
"@@@@@@@@@@@@@@@@@@@@@@@@  XX....  XXXX  @@@@@@@@@@@@@@@@@@@@@@@@",
"@@@@@@@@@@@@@@@@@@@@@@@@  XX....  XXXX  @@@@@@@@@@@@@@@@@@@@@@@@",
"@@@@@@@@@@@@@@@@@@@@@@@@@@            @@@@@@@@@@@@@@@@@@@@@@@@@@",
"@@@@@@@@@@@@@@@@@@@@@@@@@@            @@@@@@@@@@@@@@@@@@@@@@@@@@",
"@@@@@@@@@@@@@@@@@@@@@@@@@@@@@@@@@@@@@@@@@@@@@@@@@@@@@@@@@@@@@@@@",
"@@@@@@@@@@@@@@@@@@@@@@@@@@@@@@@@@@@@@@@@@@@@@@@@@@@@@@@@@@@@@@@@",
"@@@@@@@@@@@@@@@@@@@@@@@@@@@@@@@@@@@@@@@@@@@@@@@@@@@@@@@@@@@@@@@@",
"@@@@@@@@@@@@@@@@@@@@@@@@@@@@@@@@@@@@@@@@@@@@@@@@@@@@@@@@@@@@@@@@",
"@@@@@@@@@@@@@@@@@@@@@@@@@@@@@@@@@@@@@@@@@@@@@@@@@@@@@@@@@@@@@@@@",
"@@@@@@@@@@@@@@@@@@@@@@@@@@@@@@@@@@@@@@@@@@@@@@@@@@@@@@@@@@@@@@@@"
};
