/* XPM */
static char *coin_00[] = {
/* columns rows colors chars-per-pixel */
"64 64 7 1 ",
"  c #714917",
". c #CE7211",
"X c #FEB421",
"o c #FFFF7D",
"O c #FFFFEB",
"+ c white",
"@ c None",
/* pixels */
"@@@@@@@@@@@@@@@@@@@@@@@@@@@@@@@@@@@@@@@@@@@@@@@@@@@@@@@@@@@@@@@@",
"@@@@@@@@@@@@@@@@@@@@@@@@@@@@@@@@@@@@@@@@@@@@@@@@@@@@@@@@@@@@@@@@",
"@@@@@@@@@@@@@@@@@@@@@@@@@@@@@@@@@@@@@@@@@@@@@@@@@@@@@@@@@@@@@@@@",
"@@@@@@@@@@@@@@@@@@@@@@@@@@@@@@@@@@@@@@@@@@@@@@@@@@@@@@@@@@@@@@@@",
"@@@@@@@@@@@@@@@@@@@@@@@@              @@@@@@@@@@@@@@@@@@@@@@@@@@",
"@@@@@@@@@@@@@@@@@@@@@@@@              @@@@@@@@@@@@@@@@@@@@@@@@@@",
"@@@@@@@@@@@@@@@@@@      ooooooOOOOOOOO      @@@@@@@@@@@@@@@@@@@@",
"@@@@@@@@@@@@@@@@@@      ooooooOOOOOOOO      @@@@@@@@@@@@@@@@@@@@",
"@@@@@@@@@@@@@@@@  ooooooooXXXXXXXXXXooOOOOOO  @@@@@@@@@@@@@@@@@@",
"@@@@@@@@@@@@@@@@  ooooooooXXXXXXXXXXooOOOOOO  @@@@@@@@@@@@@@@@@@",
"@@@@@@@@@@@@@@  XXXX....              XXooooOO  @@@@@@@@@@@@@@@@",
"@@@@@@@@@@@@@@  XXXX....              XXooooOO  @@@@@@@@@@@@@@@@",
"@@@@@@@@@@@@  XXXX..    ooooooOOOOOOOO    XXooOO  @@@@@@@@@@@@@@",
"@@@@@@@@@@@@  XXXX..    ooooooOOOOOOOO    XXooOO  @@@@@@@@@@@@@@",
"@@@@@@@@@@  XX....  ooooooooOOOOOO++++OOOO  XXooOO  @@@@@@@@@@@@",
"@@@@@@@@@@  XX....  ooooooooOOOOOO++++OOOO  XXooOO  @@@@@@@@@@@@",
"@@@@@@@@  XX....  ..ooooooOOOOOO++++++++OOOO  XXooOO  @@@@@@@@@@",
"@@@@@@@@  XX....  ..ooooooOOOOOO++++++++OOOO  XXooOO  @@@@@@@@@@",
"@@@@@@  XXXX..  ..ooooooooOOOOOOOO++++++OOOOoo  ooOOOO  @@@@@@@@",
"@@@@@@  XXXX..  ..ooooooooOOOOOOOO++++++OOOOoo  ooOOOO  @@@@@@@@",
"@@@@@@  XX..  ....ooooooooooOOOOOOOO++++OOOOOO..  ooOO  @@@@@@@@",
"@@@@@@  XX..  ....ooooooooooOOOOOOOO++++OOOOOO..  ooOO  @@@@@@@@",
"@@@@@@  XX..  ....ooooooooooOOOOOOOOOOOOOOOOoooo  ooOO  @@@@@@@@",
"@@@@@@  XX..  ....ooooooooooOOOOOOOOOOOOOOOOoooo  ooOO  @@@@@@@@",
"@@@@  XX..  XX....ooooooooooooOOOOOOOOOOOOooooooXX  OOOO  @@@@@@",
"@@@@  XX..  XX....ooooooooooooOOOOOOOOOOOOooooooXX  OOOO  @@@@@@",
"@@@@  XX..  XX....ooooooooooooooOOOOOOOOoooooooo..  OOOO  @@@@@@",
"@@@@  XX..  XX....ooooooooooooooOOOOOOOOoooooooo..  OOOO  @@@@@@",
"@@@@  XX..  XX....XXooooooooooooooooOOoooooooo....  ooOO  @@@@@@",
"@@@@  XX..  XX....XXooooooooooooooooOOoooooooo....  ooOO  @@@@@@",
"@@@@  XX..  XX......oooooooooooooooooooooooooo....  ooOO  @@@@@@",
"@@@@  XX..  XX......oooooooooooooooooooooooooo....  ooOO  @@@@@@",
"@@@@  XX..  XXXX......oooooooooooooooooooooo....XX  ooOO  @@@@@@",
"@@@@  XX..  XXXX......oooooooooooooooooooooo....XX  ooOO  @@@@@@",
"@@@@  XX..  XXXX..........oooooooooooooooo......XX  oooo  @@@@@@",
"@@@@  XX..  XXXX..........oooooooooooooooo......XX  oooo  @@@@@@",
"@@@@  XXXX  XXXXXX..............oooooo..........XX  oooo  @@@@@@",
"@@@@  XXXX  XXXXXX..............oooooo..........XX  oooo  @@@@@@",
"@@@@@@  XX..  XXXXXX..........................XX  oooo  @@@@@@@@",
"@@@@@@  XX..  XXXXXX..........................XX  oooo  @@@@@@@@",
"@@@@@@  XX..  XXXXXXXX......................XXXX  ooXX  @@@@@@@@",
"@@@@@@  XX..  XXXXXXXX......................XXXX  ooXX  @@@@@@@@",
"@@@@@@  XXXX..  XXXXXXXX................XXXXXX  ooXXXX  @@@@@@@@",
"@@@@@@  XXXX..  XXXXXXXX................XXXXXX  ooXXXX  @@@@@@@@",
"@@@@@@@@  XXXX..  XXXXXXXXXXXXXXXXXXXXXXXXXX  ooooXX  @@@@@@@@@@",
"@@@@@@@@  XXXX..  XXXXXXXXXXXXXXXXXXXXXXXXXX  ooooXX  @@@@@@@@@@",
"@@@@@@@@@@  XXXX..  XXXXXXXXXXXXXXXXXXXXXX  ooooXX  @@@@@@@@@@@@",
"@@@@@@@@@@  XXXX..  XXXXXXXXXXXXXXXXXXXXXX  ooooXX  @@@@@@@@@@@@",
"@@@@@@@@@@@@  XXXX..    XXXXXXXXXXXXXX    ooXXXX  @@@@@@@@@@@@@@",
"@@@@@@@@@@@@  XXXX..    XXXXXXXXXXXXXX    ooXXXX  @@@@@@@@@@@@@@",
"@@@@@@@@@@@@@@  XXXX....              XXXXXXXX  @@@@@@@@@@@@@@@@",
"@@@@@@@@@@@@@@  XXXX....              XXXXXXXX  @@@@@@@@@@@@@@@@",
"@@@@@@@@@@@@@@@@  XXXXXX..............XXXXXX  @@@@@@@@@@@@@@@@@@",
"@@@@@@@@@@@@@@@@  XXXXXX..............XXXXXX  @@@@@@@@@@@@@@@@@@",
"@@@@@@@@@@@@@@@@@@      XXXXXXXXXXXXXX      @@@@@@@@@@@@@@@@@@@@",
"@@@@@@@@@@@@@@@@@@      XXXXXXXXXXXXXX      @@@@@@@@@@@@@@@@@@@@",
"@@@@@@@@@@@@@@@@@@@@@@@@              @@@@@@@@@@@@@@@@@@@@@@@@@@",
"@@@@@@@@@@@@@@@@@@@@@@@@              @@@@@@@@@@@@@@@@@@@@@@@@@@",
"@@@@@@@@@@@@@@@@@@@@@@@@@@@@@@@@@@@@@@@@@@@@@@@@@@@@@@@@@@@@@@@@",
"@@@@@@@@@@@@@@@@@@@@@@@@@@@@@@@@@@@@@@@@@@@@@@@@@@@@@@@@@@@@@@@@",
"@@@@@@@@@@@@@@@@@@@@@@@@@@@@@@@@@@@@@@@@@@@@@@@@@@@@@@@@@@@@@@@@",
"@@@@@@@@@@@@@@@@@@@@@@@@@@@@@@@@@@@@@@@@@@@@@@@@@@@@@@@@@@@@@@@@",
"@@@@@@@@@@@@@@@@@@@@@@@@@@@@@@@@@@@@@@@@@@@@@@@@@@@@@@@@@@@@@@@@",
"@@@@@@@@@@@@@@@@@@@@@@@@@@@@@@@@@@@@@@@@@@@@@@@@@@@@@@@@@@@@@@@@"
};
