/* XPM */
static char *coin_00[] = {
/* columns rows colors chars-per-pixel */
"64 64 10 1 ",
"  c #714917",
". c #CE7211",
"X c #E99526",
"o c #FEB421",
"O c #FFFF7D",
"+ c #FFFFA6",
"@ c #FFFFAB",
"# c #FFFFEB",
"$ c white",
"% c None",
/* pixels */
"%%%%%%%%%%%%%%%%%%%%%%%%%%%%%%%%%%%%%%%%%%%%%%%%%%%%%%%%%%%%%%%%",
"%%%%%%%%%%%%%%%%%%%%%%%%%%%%%%%%%%%%%%%%%%%%%%%%%%%%%%%%%%%%%%%%",
"%%%%%%%%%%%%%%%%%%%%%%%%%%%%%%%%%%%%%%%%%%%%%%%%%%%%%%%%%%%%%%%%",
"%%%%%%%%%%%%%%%%%%%%%%%%%%%%%%%%%%%%%%%%%%%%%%%%%%%%%%%%%%%%%%%%",
"%%%%%%%%%%%%%%%%%%%%%%%%      XXXX    %%%%%%%%%%%%%%%%%%%%%%%%%%",
"%%%%%%%%%%%%%%%%%%%%%%%%      XXXX    %%%%%%%%%%%%%%%%%%%%%%%%%%",
"%%%%%%%%%%%%%%%%%%      OO$$$$$$$$$$##XXXXXX%%%%%%%%%%%%%%%%%%%%",
"%%%%%%%%%%%%%%%%%%      OO$$$$$$$$$$##XXXXXX%%%%%%%%%%%%%%%%%%%%",
"%%%%%%%%%%%%%%%%  OOOOOO$$@@oo@@oooo$$$$$$$$  %%%%%%%%%%%%%%%%%%",
"%%%%%%%%%%%%%%%%  OOOOOO$$@@oo@@oooo$$$$$$$$  %%%%%%%%%%%%%%%%%%",
"%%%%%%%%%%%%%%  oooo++++        XXXXXX@@$$$$$$  %%%%%%%%%%%%%%%%",
"%%%%%%%%%%%%%%  oooo++++        XXXXXX@@$$$$$$  %%%%%%%%%%%%%%%%",
"%%%%%%%%%%%%  oo@@++    $$OO$$$$$$$$$$    @@OO##  %%%%%%%%%%%%%%",
"%%%%%%%%%%%%  oo@@++    $$OO$$$$$$$$$$    @@OO##  %%%%%%%%%%%%%%",
"%%%%%%%%%%  oo++++  $$OOOO$$$$$$$$$$$$$$##  ooOO##  %%%%%%%%%%%%",
"%%%%%%%%%%  oo++++  $$OOOO$$$$$$$$$$$$$$##  ooOO##  %%%%%%%%%%%%",
"%%%%%%%%  @@++++  ..OO$$$$$$$$$$$$$$$$$$####  ooOO##  %%%%%%%%%%",
"%%%%%%%%  @@++++  ..OO$$$$$$$$$$$$$$$$$$####  ooOO##  %%%%%%%%%%",
"%%%%%%  @@@@++  ..$$$$$$$$$$$$$$##$$$$$$####OO  OO####  %%%%%%%%",
"%%%%%%  @@@@++  ..$$$$$$$$$$$$$$##$$$$$$####OO  OO####  %%%%%%%%",
"%%%%%%XX@@++  ..++$$$$$$$$$$########$$$$######..  OO##  %%%%%%%%",
"%%%%%%XX@@++  ..++$$$$$$$$$$########$$$$######..  OO##  %%%%%%%%",
"%%%%%%XXoo..  ++++$$$$$$$$OO################OOOO  OO##  %%%%%%%%",
"%%%%%%XXoo..  ++++$$$$$$$$OO################OOOO  OO##  %%%%%%%%",
"%%%%XXoo..  @@++++$$$$OOOOOOOO############OOOOOOoo  ####  %%%%%%",
"%%%%XXoo..  @@++++$$$$OOOOOOOO############OOOOOOoo  ####  %%%%%%",
"%%%%XXoo++XX@@++++$$OOOOOOOOOOOO########OOOOOOOO..  ####  %%%%%%",
"%%%%XXoo++XX@@++++$$OOOOOOOOOOOO########OOOOOOOO..  ####  %%%%%%",
"%%%%  @@++XX@@++..ooOOOOOOOOOOOOOOOO##OOOOOOOO....  OO##  %%%%%%",
"%%%%  @@++XX@@++..ooOOOOOOOOOOOOOOOO##OOOOOOOO....  OO##  %%%%%%",
"%%%%XX@@++XX@@......OOOOOOOOOOOOOOOOOOOOOOOOOO....  OO##  %%%%%%",
"%%%%XX@@++XX@@......OOOOOOOOOOOOOOOOOOOOOOOOOO....  OO##  %%%%%%",
"%%%%XX@@++  oooo......OOOOOOOOOOOOOOOOOOOOOO....oo  OO##  %%%%%%",
"%%%%XX@@++  oooo......OOOOOOOOOOOOOOOOOOOOOO....oo  OO##  %%%%%%",
"%%%%XX@@..  oooo..........OOOOOOOOOOOOOOOO......oo  OOOO  %%%%%%",
"%%%%XX@@..  oooo..........OOOOOOOOOOOOOOOO......oo  OOOO  %%%%%%",
"%%%%  oooo  oooooo..............OOOOOO..........oo  OOOO  %%%%%%",
"%%%%  oooo  oooooo..............OOOOOO..........oo  OOOO  %%%%%%",
"%%%%%%  oo..  oooooo..........................oo  OOOO  %%%%%%%%",
"%%%%%%  oo..  oooooo..........................oo  OOOO  %%%%%%%%",
"%%%%%%  oo..  oooooooo......................oooo  OOoo  %%%%%%%%",
"%%%%%%  oo..  oooooooo......................oooo  OOoo  %%%%%%%%",
"%%%%%%  oooo..  oooooooo................oooooo  OOoooo  %%%%%%%%",
"%%%%%%  oooo..  oooooooo................oooooo  OOoooo  %%%%%%%%",
"%%%%%%%%  oooo..  oooooooooooooooooooooooooo  OOOOoo  %%%%%%%%%%",
"%%%%%%%%  oooo..  oooooooooooooooooooooooooo  OOOOoo  %%%%%%%%%%",
"%%%%%%%%%%  oooo..  oooooooooooooooooooooo  OOOOoo  %%%%%%%%%%%%",
"%%%%%%%%%%  oooo..  oooooooooooooooooooooo  OOOOoo  %%%%%%%%%%%%",
"%%%%%%%%%%%%  oooo..    oooooooooooooo    OOoooo  %%%%%%%%%%%%%%",
"%%%%%%%%%%%%  oooo..    oooooooooooooo    OOoooo  %%%%%%%%%%%%%%",
"%%%%%%%%%%%%%%  oooo....              oooooooo  %%%%%%%%%%%%%%%%",
"%%%%%%%%%%%%%%  oooo....              oooooooo  %%%%%%%%%%%%%%%%",
"%%%%%%%%%%%%%%%%  oooooo..............oooooo  %%%%%%%%%%%%%%%%%%",
"%%%%%%%%%%%%%%%%  oooooo..............oooooo  %%%%%%%%%%%%%%%%%%",
"%%%%%%%%%%%%%%%%%%      oooooooooooooo      %%%%%%%%%%%%%%%%%%%%",
"%%%%%%%%%%%%%%%%%%      oooooooooooooo      %%%%%%%%%%%%%%%%%%%%",
"%%%%%%%%%%%%%%%%%%%%%%%%              %%%%%%%%%%%%%%%%%%%%%%%%%%",
"%%%%%%%%%%%%%%%%%%%%%%%%              %%%%%%%%%%%%%%%%%%%%%%%%%%",
"%%%%%%%%%%%%%%%%%%%%%%%%%%%%%%%%%%%%%%%%%%%%%%%%%%%%%%%%%%%%%%%%",
"%%%%%%%%%%%%%%%%%%%%%%%%%%%%%%%%%%%%%%%%%%%%%%%%%%%%%%%%%%%%%%%%",
"%%%%%%%%%%%%%%%%%%%%%%%%%%%%%%%%%%%%%%%%%%%%%%%%%%%%%%%%%%%%%%%%",
"%%%%%%%%%%%%%%%%%%%%%%%%%%%%%%%%%%%%%%%%%%%%%%%%%%%%%%%%%%%%%%%%",
"%%%%%%%%%%%%%%%%%%%%%%%%%%%%%%%%%%%%%%%%%%%%%%%%%%%%%%%%%%%%%%%%",
"%%%%%%%%%%%%%%%%%%%%%%%%%%%%%%%%%%%%%%%%%%%%%%%%%%%%%%%%%%%%%%%%"
};
