/* XPM */
static char *coin_3[] = {
/* columns rows colors chars-per-pixel */
"64 64 12 1 ",
"  c #714917",
". c #C26A1B",
"X c #CE7211",
"o c #E99526",
"O c #FEB421",
"+ c #FFFF7D",
"@ c #FFFFA6",
"# c #FFFFAB",
"$ c #FFFFAC",
"% c #FFFFEB",
"& c white",
"* c None",
/* pixels */
"****************************************************************",
"****************************************************************",
"****************************************************************",
"****************************************************************",
"************************              **************************",
"************************              **************************",
"******************      ++++++%%%%%%%%      ********************",
"******************      ++++++%%%%%%%%      ********************",
"****************  ++++++++OOOOOOOOOO++%%%%%%  ******************",
"****************  ++++++++OOOOOOOOOO++%%%%%%  ******************",
"**************  OOOOXXXX              OO++&&&&oo****************",
"**************  OOOOXXXX              OO++&&&&oo****************",
"************  OOOOXX    ++++++%%%%%%%%  oo##++%%..**************",
"************  OOOOXX    ++++++%%%%%%%%  oo##++%%..**************",
"**********  OOXXXX  ++++++++%%%%%%&&&&&&&&..OO++&&oo************",
"**********  OOXXXX  ++++++++%%%%%%&&&&&&&&..OO++&&oo************",
"********  OOXXXX  XX++++++%%%%&&&&&&&&&&%%%%..##&&&&oo**********",
"********  OOXXXX  XX++++++%%%%&&&&&&&&&&%%%%..##&&&&oo**********",
"******  OOOOXX  XX++++++++%%&&&&&&&&&&&&&&&&&&oo&&&&&&oo********",
"******  OOOOXX  XX++++++++%%&&&&&&&&&&&&&&&&&&oo&&&&&&oo********",
"******  OOXX  XXXX++++++&&&&&&%%%%%%&&&&&&&&&&&&oo&&&&oo********",
"******  OOXX  XXXX++++++&&&&&&%%%%%%&&&&&&&&&&&&oo&&&&oo********",
"******  OOXX  XXXX++&&&&&&&&%%%%%%&&&&&&&&&&&&&&oo&&&&oo********",
"******  OOXX  XXXX++&&&&&&&&%%%%%%&&&&&&&&&&&&&&oo&&&&oo********",
"****  OOXX  OOXXXX&&&&&&++++++&&&&&&&&&&&&&&&&&&&&oo&&&&..******",
"****  OOXX  OOXXXX&&&&&&++++++&&&&&&&&&&&&&&&&&&&&oo&&&&..******",
"****  OOXX  OO@@&&&&++++++&&&&&&&&&&&&&&&&&&&&&&@@oo&&&&..******",
"****  OOXX  OO@@&&&&++++++&&&&&&&&&&&&&&&&&&&&&&@@oo&&&&..******",
"****  OOXX  ##&&@@OO++&&&&&&&&&&&&&&&&&&&&&&&&@@@@..++&&..******",
"****  OOXX  ##&&@@OO++&&&&&&&&&&&&&&&&&&&&&&&&@@@@..++&&..******",
"****  OO@@oo&&XXXXXX&&&&&&&&&&&&&&&&&&&&&&&&&&@@@@..%%&&oo******",
"****  OO@@oo&&XXXXXX&&&&&&&&&&&&&&&&&&&&&&&&&&@@@@..%%&&oo******",
"****  ##&&ooOOOO@@@@@@&&&&&&&&&&&&&&&&&&&&&&@@@@##..&&&&oo******",
"****  ##&&ooOOOO@@@@@@&&&&&&&&&&&&&&&&&&&&&&@@@@##..&&&&oo******",
"****oo&&XX  ####@@&&&&&&@@&&&&&&&&&&&&&&%%@@@@@@##oo&&&&oo******",
"****oo&&XX  ####@@&&&&&&@@&&&&&&&&&&&&&&%%@@@@@@##oo&&&&oo******",
"****ooOOOO  ##&&&&&&@@&&&&&&@@@@&&&&&&@@@@@@@@@@##oo&&++  ******",
"****ooOOOO  ##&&&&&&@@&&&&&&@@@@&&&&&&@@@@@@@@@@##oo&&++  ******",
"******..##&&oo&&##&&&&&&@@@@@@@@@@@@@@@@@@@@@@&&oo++++  ********",
"******..##&&oo&&##&&&&&&@@@@@@@@@@@@@@@@@@@@@@&&oo++++  ********",
"******oo&&@@oo##&&&&&&@@@@@@@@@@@@@@@@@@@@&&&&##..++OO  ********",
"******oo&&@@oo##&&&&&&@@@@@@@@@@@@@@@@@@@@&&&&##..++OO  ********",
"******oo####&&oo&&######@@@@@@@@@@@@@@&&&&##OO..++####  ********",
"******oo####&&oo&&######@@@@@@@@@@@@@@&&&&##OO..++####  ********",
"********oo&&##&&oo################&&&&##OOOO..&&&&OO  **********",
"********oo&&##&&oo################&&&&##OOOO..&&&&OO  **********",
"**********oo####@@oo##########&&&&##OOOOOO..&&++OO  ************",
"**********oo####@@oo##########&&&&##OOOOOO..&&++OO  ************",
"************oo$$##@@..oo##&&&&####OOOO....&&##OO  **************",
"************oo$$##@@..oo##&&&&####OOOO....&&##OO  **************",
"**************..####@@&&oooo..........####OOOO  ****************",
"**************..####@@&&oooo..........####OOOO  ****************",
"****************..&&&&##@@XXXXXX@@@@@@OOOOOO  ******************",
"****************..&&&&##@@XXXXXX@@@@@@OOOOOO  ******************",
"******************oooo..OOOOOO####OOOO      ********************",
"******************oooo..OOOOOO####OOOO      ********************",
"************************..            **************************",
"************************..            **************************",
"****************************************************************",
"****************************************************************",
"****************************************************************",
"****************************************************************",
"****************************************************************",
"****************************************************************"
};
