/* XPM */
static char * gate_7_xpm[] = {
"64 64 174 2",
"  	c #000000",
". 	c #070606",
"+ 	c #0B0A0A",
"@ 	c #0F0D0D",
"# 	c #4E4936",
"$ 	c #2B291F",
"% 	c #4B4633",
"& 	c #3F3C2F",
"* 	c #4B4734",
"= 	c #29271D",
"- 	c #534E39",
"; 	c #282424",
"> 	c #2A2A1E",
", 	c #524E3B",
"' 	c #333122",
") 	c #4E4A38",
"! 	c #1C1A12",
"~ 	c #343125",
"{ 	c #504C36",
"] 	c #3F3A2A",
"^ 	c #201E14",
"/ 	c #29281C",
"( 	c #242319",
"_ 	c #14120C",
": 	c #2E2D20",
"< 	c #1E1B12",
"[ 	c #222117",
"} 	c #19160F",
"| 	c #29281E",
"1 	c #36352E",
"2 	c #1D1B12",
"3 	c #1C1917",
"4 	c #2B2A1F",
"5 	c #211E1C",
"6 	c #17150D",
"7 	c #1C1910",
"8 	c #1B1910",
"9 	c #403B2A",
"0 	c #1F1C13",
"a 	c #14120D",
"b 	c #2C291C",
"c 	c #2B281C",
"d 	c #242117",
"e 	c #2A271C",
"f 	c #2D2A1E",
"g 	c #2A271B",
"h 	c #323024",
"i 	c #2D2C1F",
"j 	c #302D1F",
"k 	c #3F3C30",
"l 	c #343022",
"m 	c #15130E",
"n 	c #373324",
"o 	c #393526",
"p 	c #1B1810",
"q 	c #413C2B",
"r 	c #3E3A29",
"s 	c #15120D",
"t 	c #3C3828",
"u 	c #28281D",
"v 	c #15130D",
"w 	c #433E2D",
"x 	c #29291D",
"y 	c #3E3A2A",
"z 	c #3B3727",
"A 	c #998344",
"B 	c #AA904B",
"C 	c #3F3B2B",
"D 	c #333123",
"E 	c #C47C53",
"F 	c #CE9857",
"G 	c #B28159",
"H 	c #CF9D5B",
"I 	c #413D2C",
"J 	c #403C2B",
"K 	c #96633F",
"L 	c #AB8251",
"M 	c #65493D",
"N 	c #9E8376",
"O 	c #9F765B",
"P 	c #6D5E31",
"Q 	c #3D3929",
"R 	c #1A1714",
"S 	c #793434",
"T 	c #8E5C53",
"U 	c #816C6A",
"V 	c #AD7663",
"W 	c #AF876F",
"X 	c #7E573E",
"Y 	c #17140E",
"Z 	c #715748",
"` 	c #A65944",
" .	c #BE8459",
"..	c #BF8950",
"+.	c #BFA25B",
"@.	c #814030",
"#.	c #BA4B13",
"$.	c #423E2D",
"%.	c #423D2C",
"&.	c #16140E",
"*.	c #FEBE9D",
"=.	c #B06A5C",
"-.	c #E78E60",
";.	c #BE7D4E",
">.	c #FFC16C",
",.	c #5C2F21",
"'.	c #B2372A",
").	c #8A390D",
"!.	c #343123",
"~.	c #191613",
"{.	c #5C332C",
"].	c #894E45",
"^.	c #DA9E84",
"/.	c #804741",
"(.	c #F38364",
"_.	c #7F5832",
":.	c #611D1B",
"<.	c #431316",
"[.	c #131111",
"}.	c #320F0D",
"|.	c #712419",
"1.	c #2F1916",
"2.	c #75483F",
"3.	c #604E48",
"4.	c #3A2225",
"5.	c #371E23",
"6.	c #05372A",
"7.	c #76261A",
"8.	c #413C2C",
"9.	c #211B19",
"0.	c #2A2429",
"a.	c #202638",
"b.	c #184259",
"c.	c #002E3C",
"d.	c #004135",
"e.	c #464334",
"f.	c #3F3B2A",
"g.	c #171510",
"h.	c #122F31",
"i.	c #002B36",
"j.	c #16273B",
"k.	c #102835",
"l.	c #012833",
"m.	c #004837",
"n.	c #3B392B",
"o.	c #333022",
"p.	c #3B404D",
"q.	c #49506C",
"r.	c #566591",
"s.	c #305677",
"t.	c #071013",
"u.	c #35171F",
"v.	c #323022",
"w.	c #383425",
"x.	c #312F21",
"y.	c #403B2B",
"z.	c #2F2C1F",
"A.	c #1C1A17",
"B.	c #272419",
"C.	c #232016",
"D.	c #262319",
"E.	c #29271B",
"F.	c #3F3D2E",
"G.	c #242218",
"H.	c #28251A",
"I.	c #1A1810",
"J.	c #262418",
"K.	c #222016",
"L.	c #181610",
"M.	c #211F15",
"N.	c #232116",
"O.	c #2A291D",
"P.	c #222015",
"Q.	c #171511",
"            . . + + @ @ @ @ @ @ + + + . .     . + + @ + .   .           . + + . . + + + + + + . . .                             ",
"  . . . . .   . . + + + + + + + @ + + + .   . . + @ + + .               . . + . + + + . + + + + . . . . .   . . . . . . . . .   ",
"  . + + + . . + . + + . . . . + + + + + . . + + + + # $ .       % $ & & & * + . + + . . . . . . . + + + .   . . + + + + + + .   ",
"  . + + + + . + . . . . + + . . . + + . . + + @ = & & & - ; > , & ' ' ' ' & & , > . . + + + + + + + + + .     . . + + @ + . .   ",
"    . + + . . + + . . + + + + . . . + . . . ) & $ & $ % ; ! ; & & $ $ $ $ & ' $ & ; . + @ @ @ @ + + + . .       . . + + + .     ",
"    . . .     . . + . . + + . . + . + .   ~ ' & $ * # ; ! % $ ~ * * * $ $ $ $ , & $ ; + + + + + + . . .     .       . . . .     ",
"  .           . + . + . . . . + . . . . ~ & $ ~ { ] ^ ! > ] % ] ] ] ] % $ $ $ $ $ & & > . . . . . .     . . . . .               ",
"  . . . .   . . + + .       . . .   . . ^ ^ ] ^ ^ / / ( _ ( ( / / ! ; ^ ] % $ $ $ $ & $ >             . . + + + + + .     . . . ",
". . + + .   . + + + + .           . . & ~ / ; ; / : ( _ _ _ _ < < < ( / ; ] ] ^ % ~ ~ ; !   . . .     . + + @ + . . .   . . . . ",
"+ . + .     . + + + + .       . . . & , ~ ! > [ } } } _ _ _ _ _ _ _ _ [ > ; ] ] ] ] ; ! ; : . + .   . . + @ + + . + . . + + . + ",
"+ . . + .   . . . + + .       . . & $ ~ ^ > _ _ _ _ _ _ _ _ _ _ _ _ _ _ _ [ > / / / % % % ! + + . . . + + + + . . + . + + + . + ",
"+ . . .           . .     . .   ; & & | ; > _ _ _ _ _ _ _ _ _ _ _ _ _ _ _ _ } ^ ^ < $ 1 $ % = + + . . + + + . . + . . + @ + . + ",
". .                     . . + . % & * ^ ! ^ _ _ _ _ _ _ _ _ _ _ _ _ _ _ _ _ _ _ _ _ [ & , # = @ + . . . + + .   . + + + @ + . + ",
".     . .         . . . . + + + ; $ % ! > } _ _ _ _ _ _ _ _ _ _ _ _ _ _ _ _ _ _ _ _ _ ] & % ! + + .   . + + .   . + @ @ @ + . . ",
"    . . + . . .       . + @ @ @ ! ] ; > < _ _ _ _ _ _ _ _ _ _ _ _ _ _ _ _ _ _ _ _ _ _ ] $ % / + .     . . . .   . + + + + + . . ",
"    . + + + + . .     . + @ + = $ ! > _ _ _ _ _ _ _ _ _ _ _ _ _ _ _ _ _ _ _ _ _ _ _ _ _ ) ] ! . .               . . + + + . .   ",
". . . + + + + . .     . + + . ' $ 2 ( _ _ _ _ _ _ _ _ _ _ _ _ _ _ _ _ _ _ _ _ _ _ _ _ } ; ] : .                   . . . . .   . ",
"+ + . . . . + .       . . . $ ' $ ; 3 _ _ _ _ _ _ _ _ _ _ _ _ _ _ _ _ _ _ _ } } _ _ _ } ( ; : .                           . . . ",
"+ + .     . . .             $ & $ ; } _ _ _ _ _ _ _ _ _ _ _ _ _ _ _ _ _ _ < < < } _ _ 3 3 = ! >     . . . . .             . + + ",
"+ + .                     4 & $ $ ; < _ _ _ _ _ _ _ _ _ _ _ _ _ _ _ _ _ < < < < < _ _ 3 3 [ ^ ! > . . + + + + . . . . .   . . + ",
". . . . . . . .           ] & $ $ 5 > _ _ _ _ _ _ _ _ _ _ _ _ _ _ _ _ < < < < < < } _ 3 3 [ & | ! . + + @ @ + + + + + .     . + ",
".   . . + + + . .         ] & $ % 6 > _ _ _ _ _ _ _ _ _ _ _ _ _ _ _ _ < < < < < < < _ 3 3 [ & $ % > . + + @ @ @ @ @ + .     . . ",
".   . . + + + + . . .   . 7 $ $ ] 8 > _ _ _ _ _ _ _ _ _ _ _ _ _ _ _ < < < < < < < < } 3 3 [ & & # = . . + + + + + + + .   . + + ",
".     . . . . . . . .     : % % 9 0 > _ a _ _ _ _ _ _ _ _ _ _ _ _ < < < < < ^ ^ < < < 3 3 [ ' & # /     . . . . . . . .   . + + ",
". .                         : b c d > _ _ _ _ _ _ _ _ _ _ _ _ _ < < < < < < < < < < < < 3 ( & $ # / . .                   . + + ",
"+ .         . . . . . . . e % e f g ( _ _ _ _ _ _ _ _ _ _ _ _ < < < < < < < < < < ^ < } 3 [ & $ { / + .                 . + + + ",
"+ .       . . + + + + + . h & $ i > < _ _ _ _ _ _ _ _ _ _ _ _ < < < < < < < < < < < < < } [ & $ % / + .   . . .       . + + @ + ",
".     . . . + + @ + + + + { ' & j > } _ _ _ _ _ _ _ _ _ _ } < < < < < < < < < < < < < < } } { ~ ] / + . . . + . .     . . + @ + ",
".     . + + + @ @ + . . . $ k & l < m _ _ _ _ _ _ _ _ _ _ } < < < < < < < < ^ < < < < < } 3 ! - ; / . . + + + + + .     . + + + ",
".   . . + @ + + + + .   > ' k $ n ( _ _ _ _ _ _ _ _ _ _ _ ^ ^ < < < < < < < < < < < < < < 3 / | ; > . + + @ @ @ + . .   . + + . ",
"    . + + @ + . . . .   = & $ $ o > p _ _ _ _ _ _ _ _ _ _ < < < < < < < < < < < < < < < < } ^ ! ; > + + @ @ @ @ + + .   . + + . ",
"    . + + @ + .         > & & $ q r 2 _ _ _ _ _ _ _ s _ _ < < < < < < < < < < < < < < < < 3 } : > , + @ @ @ @ + + . .     . + . ",
"    . . + + + . .     . > & & $ q t u _ _ _ _ _ _ v _ _ < < < < < ^ < < < < < < < < < < < } } ( * $ ^ @ @ + + + . .       . .   ",
".     . . + + + .     . = & & $ ~ w x _ _ _ _ _ _ a _ _ < < < < < < < < < < < < < < < ^ < 3 3 3 ; & % + + + . . .               ",
"+ .     . . . . .     . , & , $ $ y z [ _ _ _ _ _ a _ _ < < < < < < < < < A B < < < < < < } 3 3 [ & ~ / . . .         . . .   . ",
"+ + .                 . , 1 $ $ % C D z ! a _ _ _ _ _ _ < < < ^ < < < < E F G H < < < < ^ } 3 3 ( & - >             . . +     . ",
". + + .   . . .       . , & $ $ I J D D ^ m _ _ _ _ _ _ < < < < < < < K L M N O P ^ < < < 3 3 3 [ & { >         . . + + + .   . ",
". + .   . . + . .     $ & $ $ $ % I Q ^ R v _ _ _ _ _ < < < < < < ^ ^ S T U V W X < < < < 3 3 3 ( & % >     . . . + + @ + . .   ",
". .   . . + + + . .   $ & $ $ { % I Q ^ Y a _ _ _ _ _ < < < < ^ < < < Z `  ...+.@.#.< < } 3 3 3 ( $ ; >     . + + + @ @ + + .   ",
"      . + + @ + + .   $ & $ $ $.%.I Q ^ &._ _ _ _ _ _ } < < < < < < < *.=.-.;.>.,.'.).< < 3 3 3 [ ; ; >     . + @ @ @ @ @ + .   ",
"      . + + + + + .   $ & $ - %.%.!.= ~.a _ _ _ _ _ _ < < < < < < < {.].^./.(._.:.<.< < < 3 3 < , > ; > .   . + @ @ [.[.@ + .   ",
"        . . . . . .   $ & $ I I I Q ^ v _ _ _ _ _ _ _ < < < < < < }.|.1.2.3.4.5.6.7.< < } 3 3 ^ & ^ ! > .   . + + @ @ @ @ + .   ",
"            . .     . ] $ # 8.J J : } v _ _ _ _ _ _ _ } < < < < < < < 9.0.a.b.c.d.< < < } 3 < $ & e.: > . . . . + + + @ + + .   ",
". .   . .       . . + + D f.8.C t = g.m _ _ _ _ _ _ _ } < < < < < < < h.i.j.k.l.m.< < < 3 3 ~ & $ n./ > + .   . . . + + + . .   ",
". + . . . .     . + + @ > o.y y o.^ a a _ _ a _ a _ _ < < < < < < < < p.q.r.s.t.u.< < < } { ' & $ $ ; . . .       . . . . .     ",
". + . + + .     . + + + $ $ v.v.: ^ a _ _ _ _ _ a _ _ } < < < < ^ < < < < < < < < < < < < 1 ' & $ $ !                           ",
". + . + + .     . . + . & & $ w.: ^ a _ _ _ _ _ _ _ _ < < < < < < < < < < < < < < < < < $ & & & $ $ ; :                     . . ",
". + . . + .       . . . ' & & { x.} _ _ _ _ _ _ _ _ _ } < < < < < < < ^ < < < < < < < < ^ 1 ' & $ $ ^ ! . . .         . . . . . ",
". . . . . .             ' & $ $ n ^ _ _ _ _ _ _ _ _ _ < < < < < < < < < < < < < < < < } ^ & & & $ $ ] ; > + + . .     . . + + + ",
"+ .     . .   . . . . . & & $ $ !.^ _ _ _ _ _ _ _ _ _ < < ^ < < < < < < < < < < < < ^ < 3 ^ & & $ $ ] ; / @ + + . .     . + + + ",
"+ . .           . . + + , & $ ~ y.z._ _ a _ a _ _ _ _ < < < < < < < < < < ^ < < < < < } 3 3 A.& $ $ ^ ; / @ @ + + .     . . . + ",
". + .   . . .     . + + , $ $ { y.c = _ _ _ _ _ _ _ _ < < < < < < < < < < < < < ^ < < 3 3 3 ^ $ $ # % ; / [.@ @ + + .       . . ",
"+ + . . . + . . . . + n.$ $ $ { f B.> _ _ _ _ _ a _ _ } < < < < < < ^ < ^ < < < < < < 3 3 3 } { $ ^ ^ ; / @ @ @ @ + .       . + ",
". . . + + + + + . . . & { * # 9 c C.x _ _ _ _ _ _ _ _ < < < < < < < < < < < < < < < ^ 3 3 3 3 ^ , % ^ ; / + @ @ + + .       . + ",
". + . . + + @ + . . $ & & D.9 9 E.D.> _ _ _ _ s _ _ s } ^ ^ < < < < < < < < < < < < < 3 3 3 3 < { ] ] ; / + + + + . .   . . . . ",
". + + . . + @ + + . $ F.$ ' G.H.H.G.> _ _ _ _ _ _ _ s } < < < < < ^ < < < < < < < < < 3 3 3 ( / ; ^ ; ; / . . . . .   . . + + . ",
". . + + . + + + + + $ $ & ' * I.J.K.> _ _ _ _ _ _ _ _ < < < < < < < < < < < < < ^ < < 3 3 ( & & & $ ; ! /                 . + + ",
"+ . . . . . . + + ; & & 1 & ' % L.M.> _ _ _ _ _ _ _ _ } < < < < < < < < < < < < < < ^ 3 ^ & F.F.& & ; ; / . . . . . . . .   . + ",
". . . + + + . . + ; & ' & & & $ N.O.; $ $ $ < _ _ _ _ < < < < < < < < < < < < ^ ^ ( } : & F.& ' & & $ ; : + + + + + + + . .   . ",
"  . + + @ + + . . , ' & & & , $ $ ] P.& $ & n.< _ _ Q.} < ^ < < < < < < ^ < < < ^ $ ; $ & k ' & & & , $ ; + @ @ @ @ @ + + .   . ",
"  . . + @ + + . & ' & & & $ $ $ $ $ - $ 1 & & e.< a v 3 ; ; [ < < / ! / ; / > ; ' $ $ $ & & & & & , $ $ ; + @ @ @ + + + + .     ",
"    . + + + . . & & & $ $ $ $ $ $ $ ~ # * $ $ $ ) v # $ & 1 n.^ ; & & & & $ | & & & n.$ 1 & & & , $ $ $ $ A.+ + + + . . . .     ",
"    . . . . . ) , $ $ $ $ $ $ $ - - - { { $ $ $ ~ | $ & $ $ $ % { $ $ $ $ $ * * $ $ ~ - $ & & , $ $ $ $ * % . . . . .           ",
"            . + # ~ ~ ~ ~ - - - - | A.| ; | | | A.+ % | | A.| A.A.| | | A.| | + A.{ ~ # # ~ $ ~ ~ ~ ~ * * - A.                  "};
