/* XPM */
static char * gate_2_xpm[] = {
"64 64 119 2",
"  	c #000000",
". 	c #070606",
"+ 	c #0B0A0A",
"@ 	c #0F0D0D",
"# 	c #4E4936",
"$ 	c #2B291F",
"% 	c #4B4633",
"& 	c #3F3C2F",
"* 	c #4B4734",
"= 	c #29271D",
"- 	c #534E39",
"; 	c #282424",
"> 	c #2A2A1E",
", 	c #524E3B",
"' 	c #333122",
") 	c #4E4A38",
"! 	c #1C1A12",
"~ 	c #343125",
"{ 	c #504C36",
"] 	c #3F3A2A",
"^ 	c #201E14",
"/ 	c #29281C",
"( 	c #242319",
"_ 	c #14120C",
": 	c #2E2D20",
"< 	c #1E1B12",
"[ 	c #222117",
"} 	c #19160F",
"| 	c #FFEF76",
"1 	c #29281E",
"2 	c #FFB269",
"3 	c #36352E",
"4 	c #F16A62",
"5 	c #B94B57",
"6 	c #FFC4A1",
"7 	c #2E3B60",
"8 	c #1D1B12",
"9 	c #1C1917",
"0 	c #2B2A1F",
"a 	c #211E1C",
"b 	c #17150D",
"c 	c #1C1910",
"d 	c #1B1910",
"e 	c #FF7705",
"f 	c #403B2A",
"g 	c #1F1C13",
"h 	c #14120D",
"i 	c #E04F23",
"j 	c #2C291C",
"k 	c #2B281C",
"l 	c #242117",
"m 	c #A7322B",
"n 	c #2A271C",
"o 	c #2D2A1E",
"p 	c #2A271B",
"q 	c #323024",
"r 	c #2D2C1F",
"s 	c #302D1F",
"t 	c #48131D",
"u 	c #3F3C30",
"v 	c #343022",
"w 	c #15130E",
"x 	c #373324",
"y 	c #393526",
"z 	c #413C2B",
"A 	c #3E3A29",
"B 	c #3C3828",
"C 	c #433E2D",
"D 	c #413D2C",
"E 	c #007F46",
"F 	c #15130D",
"G 	c #005551",
"H 	c #002E3C",
"I 	c #60719F",
"J 	c #006889",
"K 	c #423D2C",
"L 	c #131111",
"M 	c #3D3929",
"N 	c #222243",
"O 	c #413C2C",
"P 	c #403C2B",
"Q 	c #464334",
"R 	c #333123",
"S 	c #3F3B2A",
"T 	c #3F3B2B",
"U 	c #171510",
"V 	c #3B392B",
"W 	c #333022",
"X 	c #3E3A2A",
"Y 	c #061214",
"Z 	c #323022",
"` 	c #383425",
" .	c #312F21",
"..	c #A2ABC6",
"+.	c #343123",
"@.	c #672C3B",
"#.	c #403B2B",
"$.	c #2F2C1F",
"%.	c #471F30",
"&.	c #1C1A17",
"*.	c #272419",
"=.	c #2A1023",
"-.	c #232016",
";.	c #29291D",
">.	c #262319",
",.	c #29271B",
"'.	c #15120D",
").	c #3F3D2E",
"!.	c #242218",
"~.	c #28251A",
"{.	c #1A1810",
"].	c #262418",
"^.	c #222016",
"/.	c #181610",
"(.	c #211F15",
"_.	c #232116",
":.	c #2A291D",
"<.	c #222015",
"[.	c #171511",
"            . . + + @ @ @ @ @ @ + + + . .     . + + @ + .   .           . + + . . + + + + + + . . .                             ",
"  . . . . .   . . + + + + + + + @ + + + .   . . + @ + + .               . . + . + + + . + + + + . . . . .   . . . . . . . . .   ",
"  . + + + . . + . + + . . . . + + + + + . . + + + + # $ .       % $ & & & * + . + + . . . . . . . + + + .   . . + + + + + + .   ",
"  . + + + + . + . . . . + + . . . + + . . + + @ = & & & - ; > , & ' ' ' ' & & , > . . + + + + + + + + + .     . . + + @ + . .   ",
"    . + + . . + + . . + + + + . . . + . . . ) & $ & $ % ; ! ; & & $ $ $ $ & ' $ & ; . + @ @ @ @ + + + . .       . . + + + .     ",
"    . . .     . . + . . + + . . + . + .   ~ ' & $ * # ; ! % $ ~ * * * $ $ $ $ , & $ ; + + + + + + . . .     .       . . . .     ",
"  .           . + . + . . . . + . . . . ~ & $ ~ { ] ^ ! > ] % ] ] ] ] % $ $ $ $ $ & & > . . . . . .     . . . . .               ",
"  . . . .   . . + + .       . . .   . . ^ ^ ] ^ ^ / / ( _ ( ( / / ! ; ^ ] % $ $ $ $ & $ >             . . + + + + + .     . . . ",
". . + + .   . + + + + .           . . & ~ / ; ; / : ( _ _ _ _ < < < ( / ; ] ] ^ % ~ ~ ; !   . . .     . + + @ + . . .   . . . . ",
"+ . + .     . + + + + .       . . . & , ~ ! > [ } } } _ _ _               ; ] ] ] ] ; ! ; : . + .   . . + @ + + . + . . + + . + ",
"+ . . + .   . . . + + .       . . & $ ~ ^ > _ _ _ _ _       | | | | | | |     / / / % % % ! + + . . . + + + + . . + . + + + . + ",
"+ . . .           . .     . .   ; & & 1 ; > _ _ _ _   | | | 2 2 2 2 2 | 2 | |   ^ < $ 3 $ % = + + . . + + + . . + . . + @ + . + ",
". .                     . . + . % & * ^ ! ^ _ _ _   | 2 2 2 | 2 2 2 2 2 | 2 2 |   _ [ & , # = @ + . . . + + .   . + + + @ + . + ",
".     . .         . . . . + + + ; $ % ! > } _ _   | 2 2 2 2 2 | 2 2 2 2 | 2 2 2 |   _ ] & % ! + + .   . + + .   . + @ @ @ + . . ",
"    . . + . . .       . + @ @ @ ! ] ; > < _ _   4 4 2 2 2 2 2 |           2 2 2 |   _ ] $ % / + .     . . . .   . + + + + + . . ",
"    . + + + + . .     . + @ + = $ ! > _ _ _ _     5 4 4 4       6 6 6 7 6     2 2 |   _ ) ] ! . .               . . + + + . .   ",
". . . + + + + . .     . + + . ' $ 8 ( _ _ _   | |     5   6 6 7 7 7 6 7 6 6 6   2 |   } ; ] : .                   . . . . .   . ",
"+ + . . . . + .       . . . $ ' $ ; 9 _ _ _   2 2 | |   6     7 6 6 7 6 6 6 6     |   } ( ; : .                           . . . ",
"+ + .     . . .             $ & $ ; } _ _   4 2 2 2   6   4 2     6 7 6 6     2 2   |   9 = ! >     . . . . .             . + + ",
"+ + .                     0 & $ $ ; < _ _   4 2 2 2   6       2 |   6 6   4 |       |   9 [ ^ ! > . . + + + + . . . . .   . . + ",
". . . . . . . .           ] & $ $ a > _ _   5 4 2   6 6 7 6 7       6 6       6 6   2   9 [ & 1 ! . + + @ @ + + + + + .     . + ",
".   . . + + + . .         ] & $ % b > _ _ _   4 4   6 7 6   6 7 6 6 4   6 6 6   6   2     [ & $ % > . + + @ @ @ @ @ + .     . . ",
".   . . + + + + . . .   . c $ $ ] d > _ _ _   4 5   4 7 6   6 7 6 6 4   6 6 6   6   2   e   & & # = . . + + + + + + + .   . + + ",
".     . . . . . . . .     : % % f g > _ h _   5   4   6 7 6 7 6 6 6 4   6 6 6 6 6     i e   ' & # /     . . . . . . . .   . + + ",
". .                         : j k l > _ _ _ _   4 2   4 6 6 6               6 6 6   m i i e   $ # / . .                   . + + ",
"+ .         . . . . . . . n % n o p ( _ _ _ _ _   4 2   4     2 2 2 2 | | |     6   m m i e e   { / + .                 . + + + ",
"+ .       . . + + + + + . q & $ r > < _           5 4 2   2 2 2 2 2 2 2 2 | | |     m m i i e   % / + .   . . .       . + + @ + ",
".     . . . + + @ + + + + { ' & s > }   6 6 6 6   4 4 2 2 2 2 2 2 2 2 2 2 2 | | |   t m m i i e   / + . . . + . .     . . + @ + ",
".     . + + + @ @ + . . . $ u & v < w   6 6 6 6 6   4 2 4 2 2 2         2 2 2 | |   t m m m i i e   . . + + + + + .     . + + + ",
".   . . + @ + + + + .   > ' u $ x (   6 6 6 6 6 6   5 4 4 2 2 2 2 4 4 2 2 2 2 | |   t m m m m i e   . + + @ @ @ + . .   . + + . ",
"    . + + @ + . . . .   = & $ $ y >   6 6 6 6 6 6   5 4 5 2 2 2 2 2 2 2 2 2 2 |   m   t m m m m i e   + @ @ @ @ + + .   . + + . ",
"    . + + @ + .         > & & $ z A   6 6 6 6 4 6 6   5   4 2 4 2 2 2 2 2 2 2 |   m   t m m m m m i   @ @ @ @ + + . .     . + . ",
"    . . + + + . .     . > & & $ z B   6 6 6 4 5 6 6   5   5 4 4 2 2 4 2 2 2 |   m m   t t m m t t   ^ @ @ + + + . .       . .   ",
".     . . + + + .     . = & & $ ~ C   6 6     4 6 6 6     5 4   4 2 4 2   2 |   m m m     t t     & % + + + . . .               ",
"+ .     . . . . .     . , & , $ $   m     _   4 6 6 6 6 6   5   4 4 4 2   |   m m m t   <     t   & ~ / . . .         . . .   . ",
"+ + .                 . , 3 $ $ %   m t   h   4 4 6 6 6 6 6     5 4 4 4     m m m t     ^   t m   & - >             . . +     . ",
". + + .   . . .       . , & $ $ D   m t   w   5 4 6 6 6 6 6 6 6   5 4   m m m t t   E   <   t m   & { >         . . + + + .   . ",
". + .   . . + . .     $ &       %   i m   F   6 5 5 4 6 6             m m t t     G E   <   m i   & % >     . . . + + @ + . .   ",
". .   . . + + + . .   $   m m m     i m     _             m         m m       H H G E   }   m i   $ ; >     . + + + @ @ + + .   ",
"      . + + @ + + .   $ &       m   i m   m                 I J J J     H H H H H G E   <   m i   ; ; >     . + @ @ @ @ @ + .   ",
"      . + + + + + .   $ & $ - K     i m     m m m m m m m   7 I I J   H H H H H H G E   <   m i   > ; > .   . + @ @ L L @ + .   ",
"        . . . . . .   $ & $ D D D M     _ _                 N 7 I J   H H H H H H G E   } 9     & ^ ! > .   . + + @ @ @ @ + .   ",
"            . .     . ] $ # O P P : } F _ _   G H H H H H   N 7 I J   H H H H H H G E   } 9 < $ & Q : > . . . . + + + @ + + .   ",
". .   . .       . . + + R S O T B = U w _ _   G H H H H H H   7 I J   H H H H H H G E   9 9 ~ & $ V / > + .   . . . + + + . .   ",
". + . . . .     . + + @ > W X X W ^ h h _ _   G H H H H H H   7 I   Y H H H H H H G E   } { ' & $ $ ; . . .       . . . . .     ",
". + . + + .     . + + + $ $ Z Z : ^ h _ _ _   G H H H H H H   7 I     Y H H H H H G E   < 3 ' & $ $ !                           ",
". + . + + .     . . + . & & $ ` : ^ h _ _ _   G H H H H Y   N 7 J   <   Y H H H G G E   $ & & & $ $ ; :                     . . ",
". + . . + .       . . . ' & & {  .} _ _ _   ..    G H     N 7 I J   < ^   Y H H G E E   ^ 3 ' & $ $ ^ ! . . .         . . . . . ",
". . . . . .             ' & $ $ x ^ _ _ _   ..7 N     N N 7 I I J   < < <   H G         ^ & & & $ $ ] ; > + + . .     . . + + + ",
"+ .     . .   . . . . . & & $ $ +.^ _ _ _ _   ..7 N N 7 7 I I I I J     <   Y   @.@.@.  9 ^ & & $ $ ] ; / @ + + . .     . + + + ",
"+ . .           . . + + , & $ ~ #.$._ _ h _   ....I I I I I I I I I J J   ^   %.@.@.@.  9 9 &.& $ $ ^ ; / @ @ + + .     . . . + ",
". + .   . . .     . + + , $ $ { #.k = _ _ _       ......I I I I I I I I   < <   %.@.  9 9 9 ^ $ $ # % ; / L @ @ + + .       . . ",
"+ + . . . + . . . . + V $ $ $ { o *.> _ _ _   =.=.      ................  < <   =.=.  9 9 9 } { $ ^ ^ ; / @ @ @ @ + .       . + ",
". . . + + + + + . . . & { * # f k -.;._ _ _       _ _ <                 < < < <     ^ 9 9 9 9 ^ , % ^ ; / + @ @ + + .       . + ",
". + . . + + @ + . . $ & & >.f f ,.>.> _ _ _ _ '._ _ '.} ^ ^ < < < < < < < < < < < < < 9 9 9 9 < { ] ] ; / + + + + . .   . . . . ",
". + + . . + @ + + . $ ).$ ' !.~.~.!.> _ _ _ _ _ _ _ '.} < < < < < ^ < < < < < < < < < 9 9 9 ( / ; ^ ; ; / . . . . .   . . + + . ",
". . + + . + + + + + $ $ & ' * {.].^.> _ _ _ _ _ _ _ _ < < < < < < < < < < < < < ^ < < 9 9 ( & & & $ ; ! /                 . + + ",
"+ . . . . . . + + ; & & 3 & ' % /.(.> _ _ _ _ _ _ _ _ } < < < < < < < < < < < < < < ^ 9 ^ & ).).& & ; ; / . . . . . . . .   . + ",
". . . + + + . . + ; & ' & & & $ _.:.; $ $ $ < _ _ _ _ < < < < < < < < < < < < ^ ^ ( } : & ).& ' & & $ ; : + + + + + + + . .   . ",
"  . + + @ + + . . , ' & & & , $ $ ] <.& $ & V < _ _ [.} < ^ < < < < < < ^ < < < ^ $ ; $ & u ' & & & , $ ; + @ @ @ @ @ + + .   . ",
"  . . + @ + + . & ' & & & $ $ $ $ $ - $ 3 & & Q < h F 9 ; ; [ < < / ! / ; / > ; ' $ $ $ & & & & & , $ $ ; + @ @ @ + + + + .     ",
"    . + + + . . & & & $ $ $ $ $ $ $ ~ # * $ $ $ ) F # $ & 3 V ^ ; & & & & $ 1 & & & V $ 3 & & & , $ $ $ $ &.+ + + + . . . .     ",
"    . . . . . ) , $ $ $ $ $ $ $ - - - { { $ $ $ ~ 1 $ & $ $ $ % { $ $ $ $ $ * * $ $ ~ - $ & & , $ $ $ $ * % . . . . .           ",
"            . + # ~ ~ ~ ~ - - - - 1 &.1 ; 1 1 1 &.+ % 1 1 &.1 &.&.1 1 1 &.1 1 + &.{ ~ # # ~ $ ~ ~ ~ ~ * * - &.                  "};
