/* XPM */
static char * gate_1_xpm[] = {
"64 64 98 2",
"  	c #000000",
". 	c #070606",
"+ 	c #0B0A0A",
"@ 	c #0F0D0D",
"# 	c #4E4936",
"$ 	c #2B291F",
"% 	c #4B4633",
"& 	c #3F3C2F",
"* 	c #4B4734",
"= 	c #29271D",
"- 	c #534E39",
"; 	c #080805",
"> 	c #2A2A1E",
", 	c #524E3B",
"' 	c #333122",
") 	c #4E4A38",
"! 	c #1C1A12",
"~ 	c #343125",
"{ 	c #504C36",
"] 	c #3F3A2A",
"^ 	c #201E14",
"/ 	c #29281C",
"( 	c #242319",
"_ 	c #14120C",
": 	c #2E2D20",
"< 	c #1E1B12",
"[ 	c #222117",
"} 	c #19160F",
"| 	c #29281E",
"1 	c #36352E",
"2 	c #1D1B12",
"3 	c #0D0C07",
"4 	c #0A0805",
"5 	c #2B2A1F",
"6 	c #0E0C07",
"7 	c #12110A",
"8 	c #17150D",
"9 	c #1C1910",
"0 	c #1B1910",
"a 	c #403B2A",
"b 	c #1F1C13",
"c 	c #2C291C",
"d 	c #2B281C",
"e 	c #242117",
"f 	c #2A271C",
"g 	c #2D2A1E",
"h 	c #2A271B",
"i 	c #323024",
"j 	c #2D2C1F",
"k 	c #302D1F",
"l 	c #3F3C30",
"m 	c #343022",
"n 	c #373324",
"o 	c #393526",
"p 	c #413C2B",
"q 	c #3E3A29",
"r 	c #3C3828",
"s 	c #433E2D",
"t 	c #3E3A2A",
"u 	c #3B3727",
"v 	c #3F3B2B",
"w 	c #333123",
"x 	c #413D2C",
"y 	c #403C2B",
"z 	c #3D3929",
"A 	c #423E2D",
"B 	c #423D2C",
"C 	c #343123",
"D 	c #131111",
"E 	c #413C2C",
"F 	c #464334",
"G 	c #3F3B2A",
"H 	c #3B392B",
"I 	c #333022",
"J 	c #323022",
"K 	c #383425",
"L 	c #312F21",
"M 	c #403B2B",
"N 	c #2F2C1F",
"O 	c #14130E",
"P 	c #272419",
"Q 	c #232016",
"R 	c #262319",
"S 	c #29271B",
"T 	c #3F3D2E",
"U 	c #242218",
"V 	c #28251A",
"W 	c #1A1810",
"X 	c #262418",
"Y 	c #222016",
"Z 	c #0F0E08",
"` 	c #16150E",
" .	c #211F15",
"..	c #0B0A05",
"+.	c #232116",
"@.	c #2A291D",
"#.	c #0D0B06",
"$.	c #222015",
"            . . + + @ @ @ @ @ @ + + + . .     . + + @ + .   .           . + + . . + + + + + + . . .                             ",
"  . . . . .   . . + + + + + + + @ + + + .   . . + @ + + .               . . + . + + + . + + + + . . . . .   . . . . . . . . .   ",
"  . + + + . . + . + + . . . . + + + + + . . + + + # $ . .     % $ & & & * . + . + + . . . . . . . + + + .   . . + + + + + + .   ",
"  . + + + + . + . . . . + + . . . + + . . + + = & & & - ; > , & ' ' ' ' & & , > . . . + + + + + + + + + .     . . + + @ + . .   ",
"    . + + . . + + . . + + + + . . . + . . ) & $ & $ %   !   & & $ $ $ $ & ' $ &   . . + @ @ @ @ + + + . .       . . + + + .     ",
"    . . .     . . + . . + + . . + . + . ~ ' & $ * #   ! % $ ~ * * * $ $ $ $ , & $ ; + + + + + + + . . .     .       . . . .     ",
"  .           . + . + . . . . + . . . ~ & $ ~ { ] ^ ! > ] % ] ] ] ] % $ $ $ $ $ & & > + . . . . . .     . . . . .               ",
"  . . . .   . . + + .       . . .   . ^ ^ ] ^ ^ / / ( _ ( ( / / ! ; ^ ] % $ $ $ $ & $ > .             . . + + + + + .     . . . ",
". . + + .   . + + + + .           . & ~ /   ; / : ( _ _ _ _ < < < ( /   ] ] ^ % ~ ~   !     . . .     . + + @ + . . .   . . . . ",
"+ . + .     . + + + + .       . . & , ~ ! > [ } } } _ _ _ _ _ _ _ _ [ >   ] ] ] ]   ! ; : . . + .   . . + @ + + . + . . + + . + ",
"+ . . + .   . . . + + .       . & $ ~ ^ > _ _ _ _ _ _ _ _ _ _ _ _ _ _ _ [ > / / / % % % ! . + + . . . + + + + . . + . + + + . + ",
"+ . . .           . .     . .   & & |   > _ _ _ _ _ _ _ _ _ _ _ _ _ _ _ _ } ^ ^ < $ 1 $ % = + + + . . + + + . . + . . + @ + . + ",
". .                     . . + % & * ^ ! ^ _ _ _ _ _ _ _ _ _ _ _ _ _ _ _ _ _ _ _ _ [ & , # = @ @ + . . . + + .   . + + + @ + . + ",
".     . .         . . . . + +   $ % ! > } _ _ _ _ _ _ _ _ _ _ _ _ _ _ _ _ _ _ _ _ _ ] & % ! @ + + .   . + + .   . + @ @ @ + . . ",
"    . . + . . .       . + @ @ ! ]   > < _ _ _ _ _ _ _ _ _ _ _ _ _ _ _ _ _ _ _ _ _ _ ] $ % / + + .     . . . .   . + + + + + . . ",
"    . + + + + . .     . + @ = $ ! > _ _ _ _ _ _ _ _ _ _ _ _ _ _ _ _ _ _ _ _ _ _ _ _ ! ) ] ! + . .               . . + + + . .   ",
". . . + + + + . .     . + + ' $ 2 ( _ _ _ _ _ _ _ _ _ _ _ _ _ _ _ _ _ _ _ _ _ _ _ _ } ; ] : + .                   . . . . .   . ",
"+ + . . . . + .       . . $ ' $ 3 _ _ _ _ _ _ _ _ _ _ _ _ _ _ _ _ _ _ _ _ } } _ _ _ } (   : . .                           . . . ",
"+ + .     . . .           $ & $ 4 } _ _ _ _ _ _ _ _ _ _ _ _ _ _ _ _ _ _ < < < } _ _ _ _ = ! >       . . . . .             . + + ",
"+ + .                   5 & $ $ 6 < _ _ _ _ _ _ _ _ _ _ _ _ _ _ _ _ _ < < < < < _ _ _ _ [ ^ ! >   . . + + + + . . . . .   . . + ",
". . . . . . . .         ] & $ $ 7 > _ _ _ _ _ _ _ _ _ _ _ _ _ _ _ _ < < < < < < } _ _ _ [ & | !   . + + @ @ + + + + + .     . + ",
".   . . + + + . .       ] & $ % 8 > _ _ _ _ _ _ _ _ _ _ _ _ _ _ _ _ < < < < < < < _ _ _ [ & $ % > . . + + @ @ @ @ @ + .     . . ",
".   . . + + + + . . .   9 $ $ ] 0 > _ _ _ _ _ _ _ _ _ _ _ _ _ _ _ < < < < < < < < } _ _ [ & & # =   . . + + + + + + + .   . + + ",
".     . . . . . . . .   : % % a b > _ _ _ _ _ _ _ _ _ _ _ _ _ _ < < < < < ^ ^ < < < _ _ [ ' & # /       . . . . . . . .   . + + ",
". .                       : c d e > _ _ _ _ _ _ _ _ _ _ _ _ _ < < < < < < < < < < < < _ ( & $ # / . . .                   . + + ",
"+ .         . . . . . . f % f g h ( _ _ _ _ _ _ _ _ _ _ _ _ < < < < < < < < < < ^ < } _ [ & $ { / . + .                 . + + + ",
"+ .       . . + + + + + i & $ j > < _ _ _ _ _ _ _ _ _ _ _ _ < < < < < < < < < < < < < } [ & $ % / . + .   . . .       . + + @ + ",
".     . . . + + @ + + + { ' & k > } _ _ _ _ _ _ _ _ _ _ } < < < < < < < < < < < < < < } } { ~ ] / . + . . . + . .     . . + @ + ",
".     . + + + @ @ + . . $ l & m < _ _ _ _ _ _ _ _ _ _ _ } < < < < < < < < ^ < < < < < } _ ! -   / . . . + + + + + .     . + + + ",
".   . . + @ + + + + . > ' l $ n ( _ _ _ _ _ _ _ _ _ _ _ ^ ^ < < < < < < < < < < < < < < _ / |   >   . + + @ @ @ + . .   . + + . ",
"    . + + @ + . . . . = & $ $ o > < _ _ _ _ _ _ _ _ _ _ < < < < < < < < < < < < < < < < } ^ ! ; > . + + @ @ @ @ + + .   . + + . ",
"    . + + @ + .       > & & $ p q ^ _ _ _ _ _ _ _ _ _ _ < < < < < < < < < < < < < < < < _ } : > , . + @ @ @ @ + + . .     . + . ",
"    . . + + + . .     > & & $ p r > _ _ _ _ _ _ _ _ _ < < < < < ^ < < < < < < < < < < < } } ( * $ ^ + @ @ + + + . .       . .   ",
".     . . + + + .     = & & $ ~ s > _ _ _ _ _ _ _ _ _ < < < < < < < < < < < < < < < ^ < _ _ _   & % + + + + . . .               ",
"+ .     . . . . .     , & , $ $ t u ( _ _ _ _ _ _ _ _ < < < < < < < < < < < < < < < < < } _ _ [ & ~ / . . . .         . . .   . ",
"+ + .                 , 1 $ $ % v w u ^ _ _ _ _ _ _ _ < < < ^ < < < < < < < < < < < < ^ } _ _ ( & - >               . . +     . ",
". + + .   . . .       , & $ $ x y w w ^ _ _ _ _ _ _ } < < < < < < < < < < < < < ^ < < < _ _ _ [ & { >           . . + + + .   . ",
". + .   . . + . .   $ & $ $ $ % x z ^ _ _ _ _ _ _ _ < < < < < < ^ ^ ^ < < < < < < < < < _ _ _ ( & % >       . . . + + @ + . .   ",
". .   . . + + + . . $ & $ $ { % x z ^ } _ _ _ _ _ _ < < < < ^ < < < < < < < < < < < < } _ _ _ ( $   > .     . + + + @ @ + + .   ",
"      . + + @ + + . $ & $ $ A B x z ^ _ _ _ _ _ _ _ } < < < < < < < < < < < < < < < < < _ _ _ [     > .     . + @ @ @ @ @ + .   ",
"      . + + + + + . $ & $ - B B C = _ _ _ _ _ _ _ _ < < < < < < < < < < < < < < < < < < _ _ < , > ; > . .   . + @ @ D D @ + .   ",
"        . . . . . . $ & $ x x x z ^ _ _ _ _ _ _ _ _ < < < < < < < < < < < < < < < < < } _ _ ^ & ^ ! > + .   . + + @ @ @ @ + .   ",
"            . .     ] $ # E y y : } _ _ _ _ _ _ _ _ } < < < < < < < < < < < < < < < < } _ < $ & F : > + . . . . + + + @ + + .   ",
". .   . .       . . + w G E v r = _ _ _ _ _ _ _ _ _ } < < < < < < < < < < < < < < < < _ _ ~ & $ H / > + + .   . . . + + + . .   ",
". + . . . .     . + + > I t t I ^ _ _ _ _ _ _ _ _ _ < < < < < < < < ^ < ^ < < < < < < } { ' & $ $   . . . .       . . . . .     ",
". + . + + .     . + + $ $ J J : ^ _ _ _ _ _ _ _ _ _ } < < < < ^ < < < < < < < < < < < < 1 ' & $ $ !                             ",
". + . + + .     . . + & & $ K : ^ _ _ _ _ _ _ _ _ _ < < < < < < < < < < < < < < < < < $ & & & $ $   : .                     . . ",
". + . . + .       . . ' & & { L } _ _ _ _ _ _ _ _ _ } < < < < < < < ^ < < < < < < < < ^ 1 ' & $ $ ^ ! . . . .         . . . . . ",
". . . . . .           ' & $ $ n ^ _ _ _ _ _ _ _ _ _ < < < < < < < < < < < < < < < < } ^ & & & $ $ ] ; > + + + . .     . . + + + ",
"+ .     . .   . . . . & & $ $ C ^ _ _ _ _ _ _ _ _ _ < < ^ < < < < < < < < < < < < ^ < _ ^ & & $ $ ]   / @ @ + + . .     . + + + ",
"+ . .           . . + , & $ ~ M N } _ _ _ _ _ _ _ _ < < < < < < < < < < ^ < < < < < } _ _ O & $ $ ^   / D @ @ + + .     . . . + ",
". + .   . . .     . + , $ $ { M d = _ _ _ _ _ _ _ _ < < < < < < < < < < < < < ^ < < _ _ _ ^ $ $ # %   / D D @ @ + + .       . . ",
"+ + . . . + . . . . H $ $ $ { g P > _ _ _ _ _ _ _ _ } < < < < < < ^ < ^ < < < < < < _ _ _ } { $ ^ ^   / @ @ @ @ @ + .       . + ",
". . . + + + + + . . & { * # a d Q > _ _ _ _ _ _ _ _ < < < < < < < < < < < < < < < ^ _ _ _ _ ^ , % ^   / + + @ @ + + .       . + ",
". + . . + + @ + . $ & & R a a S R > _ _ _ _ _ _ _ _ } ^ ^ < < < < < < < < < < < < < _ _ _ _ < { ] ]   / . + + + + . .   . . . . ",
". + + . . + @ + + $ T $ ' U V V U > _ _ _ _ _ _ _ _ } < < < < < ^ < < < < < < < < < _ _ _ ( /   ^   ; / . . . . . .   . . + + . ",
". . + + . + + + + $ $ & ' * W X Y > _ _ _ _ _ _ _ _ < < < < < < < < < < < < < ^ < < _ _ ( & & & $   ! /                   . + + ",
"+ . . . . . . + Z & & 1 & ' % `  .> _ _ _ _ _ _ _ _ } < < < < < < < < < < < < < < ^ _ ^ & T T & &   ; / . . . . . . . . .   . + ",
". . . + + + . . ..& ' & & & $ +.@.#.$ $ $ < _ _ _ _ < < < < < < < < < < < < ^ ^ ( } : & T & ' & & $   : . + + + + + + + . .   . ",
"  . + + @ + + . , ' & & & , $ $ ] $.& $ & H < _ _ _ } < ^ < < < < < < ^ < < < ^ $ ; $ & l ' & & & , $ ; . + @ @ @ @ @ + + .   . ",
"  . . + @ + + & ' & & & $ $ $ $ $ - $ 1 & & F < _ _ _ ; ; [ < < / ! / ; / > ; ' $ $ $ & & & & & , $ $   . + @ @ @ + + + + .     ",
"    . + + + . & & & $ $ $ $ $ $ $ ~ # * $ $ $ ) O # $ & 1 H ^   & & & & $ | & & & H $ 1 & & & , $ $ $ $ O + + + + + . . . .     ",
"    . . . . ) , $ $ $ $ $ $ $ - - - { { $ $ $ ~ | $ & $ $ $ % { $ $ $ $ $ * * $ $ ~ - $ & & , $ $ $ $ * % . . . . . .           ",
"            . # ~ ~ ~ ~ - - - - | O |   | | | O . % | | O | O O | | | O | | + O { ~ # # ~ $ ~ ~ ~ ~ * * - O                     "};
