/* XPM */
static char *lava_tile131697129296[] = {
/* columns rows colors chars-per-pixel */
"64 64 18 1 ",
"  c None",
". c #2A271B",
"X c #343124",
"o c #3C3A2F",
"O c #46412F",
"+ c #554F3A",
"@ c #6A6349",
"# c #756D4C",
"$ c #CB1C02",
"% c #F43308",
"& c #FB5203",
"* c #FF8400",
"= c #FFE22E",
"- c #928967",
"; c #968D69",
": c #D0C086",
"> c #D6C88E",
", c #F8ECBF",
/* pixels */
"                                                                ",
"                                                                ",
"                                                                ",
"                                                                ",
"                                                                ",
"                                                                ",
"                                                                ",
"                                                                ",
"                                                                ",
"                                                                ",
"                                                                ",
"                                                                ",
"                                                                ",
"                                                                ",
"                                                                ",
"            ooo                                                 ",
"           o:-#o                                ooo             ",
"          o,:-#+o              ===             o,:-o            ",
"          o::-#+o    ====     =&%$==         =o,:--o            ",
"          o:--##+o ==$$$$=====&*&%%$=========o,:--#o            ",
"           o:--#+o=$$$$%%%%$$%%&*&%%$$%&*&&*&o:--#+o            ",
"            o--##o$$%%&&&&%%%%%%&*&%$%&*&%&&o:--#++o            ",
"             o-##+o%&&****&&&%%&**&%=%&*&%%%o-###+o             ",
"             o--#+o&**&&&&***&&*&&*&$%&*&%$o####++o             ",
"            o:o##++o&&%%%%&&&**&%&*&%%&*&%ooo###+o              ",
"            o:-o#++o.%%%=%%%&&&%%&*&%%%&*o:::o#+o               ",
"            o#--o++o>.$$$%%%%%%%%%&*&%%%&o:-#o+o                ",
"             o#--o+o;.$$$$$$$$=%$%%&*&%%o--#o#o                 ",
"             o##--o;@O.$$$$$$$$$$$%%&*&o-##+o+o                 ",
"              oo##+o@O.$$$$$$$$$$$$%&..##++o#+o                 ",
"                o++o@OX....$$$$$$$%%.;;oooo#+o                  ",
"                 oo.OOX.>;;.%.......>;@@OOo+o                   ",
"                    ...;;@@O.;>;@@O.;@OOO. o                    ",
"                       .OOOXX.OOOOO.@OOOX.                      ",
"                        .....XXXXX.OXX...                       ",
"                             ..... ...                          ",
"                                                                ",
"                                                                ",
"                                                                ",
"                                                                ",
"                                                                ",
"                                                                ",
"                                                                ",
"                                                                ",
"                                                                ",
"                                                                ",
"                                                                ",
"                                                                ",
"                                                                ",
"                                                                ",
"                                                                ",
"                                                                ",
"                                                                ",
"                                                                ",
"                                                                ",
"                                                                ",
"                                                                ",
"                                                                ",
"                                                                ",
"                                                                ",
"                                                                ",
"                                                                ",
"                                                                ",
"                                                                "
};
