/* XPM */
static char *lava_tile91697129295[] = {
/* columns rows colors chars-per-pixel */
"64 64 12 1 ",
"  c None",
". c #2A271B",
"X c #343124",
"o c #46412F",
"O c #6A6349",
"+ c #CB1C02",
"@ c #F43308",
"# c #FB5203",
"$ c #FF8400",
"% c #FFE22E",
"& c #968D69",
"* c #D6C88E",
/* pixels */
"                                                                ",
"                                                                ",
"                                                                ",
"                                                                ",
"                                                                ",
"                                                                ",
"                                                                ",
"                                                                ",
"                                                                ",
"                                                                ",
"                                                                ",
"                                                                ",
"                                                                ",
"                                                                ",
"                                                                ",
"                                                                ",
"                                                                ",
"                                 %%%                            ",
"                       %%%%     %#@+%%         %%%%%%%          ",
"   %%%%%%            %%++++%%%%%#$#@@+%%%%%%%%%@#$#@++%         ",
" %%#@++@#%%%%%    %%%++++@@@@++@@#$#@@++@#$##$###$#@@@#%  %%    ",
"%$#@@@@#$#$##$%%%%%+++@@####@@@@@@#$#@+@#$#@##$$$#$#@#$#%%$#%%%%",
"$$###@@$##$##$#@@+++@@##$$$$###@@#$$#@%@#$#@@@#####$#$#@@#$##$$$",
"##$$$#$#@#$#$#@@+++@@#$$####$$$##$##$#+@#$#@++++@@@#$$#@@@#$$###",
"@####$#@@@#$$#@++++@#$##@@@@###$$#@#$#@@#$#@@+++++@##$#@+@@#$#@@",
"@@@@#$#@+@#$$#@+++@#$#@@@@%@@@###@@#$#@@@#$#@@@++++@#$#@%+@@#$#@",
"@++@#$#@++@#$#@@+@#$#@@@+++@@@@@@@@@#$#@@@#$##@@+++@#$#@+++@@#$#",
"+++@#$#@++@@#$#@@@#$#@@+++++++++%@+@@#$#@@@#$$###++@#$#@+++@@#$#",
"++@@#$$#@++%@#$##@$#@@++++++++++++++@@#$#%@#$#$$$#+@#$#%++++@#$#",
"@@##$##$#@++@@#$##$#@@+++++++++++++++@#$#@@#$####$#@#$#@@+++@#$#",
"@#$$#@@#$#@+++@#$$$##@@+++++++++++++@@#$#@#$#@@@##$#@#$#@+++@#$#",
"#$##@@@#$#@@++@@###$$#@@+++@@@@@@++%@#$#@#$#@@%@@#$#@@$#@@++@#$#",
"#$#@@+@#$#@@@@@@@#$##$#@@+@@####@@@@#$#@#$#@@+++@@#$#@#$#@%@@#$#",
"$#@@+++@#$######@#$#@#$@@@@#$$$$#@@#$#@#$#@@++++@@#$#@#$#+@@##$$",
"#$#@%++@@#$$$$$$#$#@@#$#@@#$####$#@$#@@#$#@++++++@#$###$#+@#$$##",
"#$#@++++@@#$####$$#@+@#$##$##@@@#$#$#@@#$#@@++@@+%#$#$$#@+#$##@@",
"@#$#@++++@#$#@@@#$#@+#$##$#@@@@@@#$$#@@#$#@@@###@@#$$##@+@#$#@@+",
"+#$#@++++@#$#@+@#$#@+#$#$#@@++%+@@#$#@#$$#@@#$$$#@#$#@@@+#$#@@++",
"%#$#@++++@#$#++@#$#++#$#$#@+++++@@#$##$##$##$###$##$#@+++#$#@@++",
"+#$#@@++@@#$#+@#$#@++@#$#@@++++@@#$#@#$#@#$$$#@@#$$#@+++@#$#@@++",
"+#$#@@@@@@#$#@#$#@+++@#$#@@+++@@#$#@@#$#@@##$#@@#$$#@+++@#$#@+++",
"+#$#@@@####$#@#$#@+++@##$#@++@@#$#@%+#$#@@@@#$#@@#$#@%++@#$#@%++",
"+#$$####$$$#@@@#$#@++@$#$#%@+@#$#@+++#$#@+@@@#$#@#$#@+++@#$#@+++",
"@#$#$$$$##$#@+@@#$####$#$#@+@@#$#@++@#$#@+++@@#$##$#@+++@#$#++++",
"@#$######$#@+++@@#$$$$#$#@@+@#$#@@@@@#$#@++++@#$#@#$#@+@@#$@+++@",
"#$#@@@@##$#@+++@@######$#@+@#$#######$#@+++++@#$#@#$#@+@#$#@++@@",
"#$#@%@#$$#@+++@##$$$$$$#@@+@#$$$$$$$$#@@++++@@#$#@@#$#@#$##@+@##",
"$##@@#$##+++@@#$$###$##@@++#$########@@++++@@@#$@@@@#$##$#@+@#$$",
"#$$##$#@+++@##$##@@#$#@@@%@#$#@@@@@%@@++++@@#$$#@@+@@#$#$#@@#$##",
"@##$$#@@++@#$$#@++@@#$#@++@#$#@@++++@++++@@#$#@@@+++@@#$$#@#$#@@",
"@@@#$#@++@@#$#@++++@#$#@++@#$#@++++++++@@#$$#####@+++@@#$#@#$#@+",
"@@@@$#@++@#$#@@+++@#$#@@+@@#$#@@@@+++++@#$###$$$##@++%+@#$##$#@+",
"++@@#$#@+@#$#@+%+@#$#@@%@@@##$###@@++%@@##$$$###$$#@++++@#$$#@@+",
"++@@#$#@+@#$#@+++#$#@@#####$$$$$$#@@+@@#$$###@@@##$#@@@@#$$#@@++",
"++@@#$#@@@#$#@++@#$#@#$$$$#$#####$#@@@#$##@@+++@@@#$####$##@@%++",
"+@@#$#@@###$@@++@#$##$####$#@@@@#$#@@#$#@@@+++++%@@#$$$$##@@++++",
"....$###$$$#@+++@@#$$$#@@#$#@@@@@#$#@#$#@@@@+++@@@#$####@@@++++.",
"&&oo..$$###...++@@@#...@@#$#@+++@##....#@@###@......@@@@.....+.&",
"Ooo.**.#@..*&O......*&&..@.....++..&&*&...$$..*&OoXX....**&&O.OO",
"oo.&&&o..&&OOoooX.**&OOOo.&**&&..oooOOOOOo..&&OooX..&Oo.OOooo.OO",
"oX.OOoooo.ooooXX.o&OOoooo.OOOOooX.XXoooooo.&OOooX.XOOooo.XXoX.Xo",
"XX.ooooXX.XXXXX.oooooooooX.oooooXX..XXooXX.ooooX.XooooooX.XX. .X",
"..XXXXXXX...... .....XXXXXX.oXXXX.  ..XXX. .XXX. ....XXXXX..   .",
"  .......            ............     ...   ...      .....      "
};
