/* XPM */
static char *lava_tile101697129295[] = {
/* columns rows colors chars-per-pixel */
"64 64 18 1 ",
"  c None",
". c #2A271B",
"X c #343124",
"o c #3C3A2F",
"O c #46412F",
"+ c #554F3A",
"@ c #6A6349",
"# c #756D4C",
"$ c #CB1C02",
"% c #F43308",
"& c #FB5203",
"* c #FF8400",
"= c #FFE22E",
"- c #928967",
"; c #968D69",
": c #D0C086",
"> c #D6C88E",
", c #F8ECBF",
/* pixels */
"                                                                ",
"                                                                ",
"                                                                ",
"                                                                ",
"                                                                ",
"                                                                ",
"                                                                ",
"                                                                ",
"                                                                ",
"                                                                ",
"                                                                ",
"                                                                ",
"                                                                ",
"                                                            oo  ",
"                                                         ooo::o ",
"                                                        o::o,::o",
"                                                      oo::#o,:-o",
"                                 ===                 o:,:#o,:--o",
"                       ====     =&%$==         =====o:,:-o:,:-#o",
"   ======            ==$$$$=====&*&%%$=========%&*&%o,::#o,::-#o",
" ==&%$$%&=====    ===$$$$%%%%$$%%&*&%%$$%&*&&*&&&*&o,::-#o::--#o",
"=*&%%%%&*&*&&*=====$$$%%&&&&%%%%%%&*&%$%&*&%&&***&o:,:-#+o::-##o",
"**&&&%%*&&*&&*&%%$$$%%&&****&&&%%&**&%=%&*&%%%&&&o:::--#o::--##o",
"&&***&*&%&*&*&%%$$$%%&**&&&&***&&*&&*&$%&*&%$$$$%o::---#o:--###o",
"%&&&&*&%%%&**&%$$$$%&*&&%%%%&&&**&%&*&%%&*&%%$$$o:----#+o:--##+o",
"%%%%&*&%$%&**&%$$$%&*&%%%%=%%%&&&%%&*&%%%&*&%%%o:----##+o:-###+o",
"%$$%&*&%$$%&*&%%$%&*&%%%$$$%%%%%%%%%&*&%%%&*&&o-----##+o:--##++o",
"$$$%&*&%$$%%&*&%%%&*&%%$$$$$$$$$=%$%%&*&%%%&**o#---###+o:--##++o",
"$$%%&**&%$$=%&*&&%*&%%$$$$$$$$$$$$$$%%&*&=%&*&o+#####++o:-##++o ",
"%%&&*&&*&%$$%%&*&&*&%%$$$$$$$$$$$$$$$%&*&%%&*&&o+####+o:--##++o ",
"%&**&%%&*&%$$$%&***&&%%$$$$$$$$$$$$$%%&*&%&*&%.Oo+##++o--##++o  ",
"&*&&%%%&*&%%$$%%&&&**&%%$$$%%%%%%$$=%&*&%&*&%.>;o++++o:-###+o   ",
"&*&%%$%&*&%%%%%%%&*&&*&%%$%%&&&&%%%%&*&%&*&%.>;;Oo+++o####++o   ",
"*&%%$$$%&*&&&&&&%&*&%&*%%%%&****&%%&*&%&*&%..X>;@Oooo++##++o    ",
"&*&%=$$%%&******&*&%%&*&%%&*&&&&*&%*&%%&*&.OO.>;@OOOOo++++o     ",
"&*&%$$$$%%&*&&&&**&%$%&*&&*&&%%%&*&*&%%&..OOX.>;@@OOOXo++o      ",
"%&*&%$$$$%&*&%%%&*&%$&*&&*&%%%%%%&**&%%.;OOO.;;@@@OOOXXoo       ",
"$&*&%$$$$%&*&%$%&*&%$&*&*&%%$$=$%%&*&%.>;OOX.;;@@@@OOOX.        ",
"=&*&%$$$$%&*&$$%&*&$$&*&*&%$$$$$%%&*&&.;@OOX.;;;@@@OOOX.        ",
"$&*&%%$$%%&*&$%&*&%$$%&*&%%$$$$%%&*&%.;@OOX.O.;;@@@OOXX.        ",
"$&*&%%%%%%&*&%&*&%$$$%&*&%%$$$%%&...%.;@OOX.OO.;@@@OXX.         ",
"$&*&%%%&&&&*&%&*&%$$$%&&*&%$$%%..OXX.;@OOX.;OO.;@@OOXX.         ",
"$&**&&&&***&%%%&*&%$$%*&*&=%$..;;OXX.;OOX.>;@OX.@OOXX.          ",
"%&*&****&&*&%$%%&*&&&&*&*&%$.;;;OOX.;@OXX.>;OOX.OOXX.           ",
"%&*&&&&&&*&%$$$%%&****&*&%%.>;;OOOX.@OOX.>;@OOX.OXX.            ",
"&*&%%%%&&*&%$$$%%&&&&&&*&..>;;;OOXX.OOX.;;@@OOX.XX.             ",
"&*&%=%&**&%$$$%&&******&.;>;;@OOOX.OOX.;;@@OOXX.X.              ",
"*&&%%&*&&$$$%%&**&&&*&&.;>;;@@OOXX.OXX.;;@OOOXX..               ",
"&**&&*&%$$$%&&*&&%%&*&.;>;;@@OOXX.XX..O.@OOOXX..                ",
"%&&**&%%$$%&**&%$$%....;;;@@@OOX.XX.OOX.OOOXX.                  ",
"%%%&*&%$$%%&*&%$$..OOX.;;@@@OOXX.X.;OOX.OOXX.                   ",
"%%%%*&%$$%&*&%%..;;OXO.;@@@OOOX.X.;@OOX.XX..                    ",
"$$%%&*&%$%&*...>;;OOX.;@@@@OOX.;>>@OOXX...                      ",
"$$%%&*&%$%..>>;@@OOX.;;@@@@OXX.>@@OOOXX.                        ",
"$$%%&*..%.;;;;@@OOOX.;@@@@OOX.;@@OOOXXX.                        ",
"$%%&..;O.XXO@@@OOOX.;@@@@OOX.;@@OOOXX..                         ",
"....;;OOX..XOOOOOXX.;@@OOOX.@@OOXXX..                           ",
">;;;@OOX.;O.XOOXXX.;@@OOOX.OOXXX...                             ",
"@@@@@OX.;@OO.XXXX.;OOOOOXX.XX...                                ",
"@@@@OXX.@OOO.XX..OOOOOOXX. ..                                   ",
"OOOOXX.OOXXX.X.XXXXXXXX..                                       ",
"XOXXX.XXXX.. . ........                                         ",
"XXXX......                                                      ",
"....                                                            "
};
