/* XPM */
static char *bridge21697129306[] = {
/* columns rows colors chars-per-pixel */
"32 32 8 1 ",
"  c None",
". c black",
"X c #16110D",
"o c #28221E",
"O c #332E2A",
"+ c #413B36",
"@ c #585552",
"# c #7D746C",
/* pixels */
"                                ",
"                                ",
"                                ",
"                                ",
"                                ",
"                                ",
"XXXXXXXXXXXXXXXXXXXXXXXXXXXXXXXX",
"................................",
"                                ",
"                                ",
"                                ",
"                                ",
"                                ",
"                                ",
"                                ",
"                                ",
"                                ",
"                                ",
"                                ",
"                                ",
"                                ",
"                                ",
"   XXXX    XXXX    XXXX    XXXX ",
"XXX#@+OXXXX#@+OXXXX#@+OXXXX#@+OX",
"##@+OOX###@+OOX###@+OOX###@+OOX#",
"@@+OXX##@@+OXX##@@+OXX##@@+OXX##",
"++OX##@@++OX##@@++OX##@@++OX##@@",
"OOX#@@++OOX#@@++OOX#@@++OOX#@@++",
"OX#++++OOX#++++OOX#++++OOX#++++O",
"XooooooXXooooooXXooooooXXooooooX",
" XXXXXX  XXXXXX  XXXXXX  XXXXXX ",
"                                "
};
