/* XPM */
static char *bridge31697129307[] = {
/* columns rows colors chars-per-pixel */
"32 32 15 1 ",
"  c None",
". c black",
"X c #16110D",
"o c #331903",
"O c #28221E",
"+ c #332C26",
"@ c #332E2A",
"# c #522C00",
"$ c #413B36",
"% c #734F1C",
"& c #46403A",
"* c #585552",
"= c #63574D",
"- c #7D746C",
"; c #92752F",
/* pixels */
"                      ooooooooo ",
"                     o;%%%%%%##o",
"                     o;;%%%%###o",
"                      o;%%%###o ",
"                       o;%###o  ",
"                      .X;%X##o  ",
"XXXXXXXXXXXXXXXXXXXXXXX.XX.XXoXX",
".......................o..X..o..",
"                       o;X..XX  ",
"                       o;X.#... ",
"                       o;X.##o  ",
"                       o;X.##o  ",
"                       o;%X.#o  ",
"            XXXXXXXX   o;%X.#o  ",
"          XX$-------XX o%%X.#o  ",
"            X$$$****--Xo%%#.#o  ",
"             XX$$$$***+o%%###o  ",
"              X@@@+++OOo%%###o  ",
"               XXXXXOXXXX%##XXX ",
"                    X$*--XXX$--X",
"                    X+$**---X$*X",
"                   XXO$$***--XOX",
"   XXXX    XXXX XXX-*XO$$***--X ",
"XXX-*$@XXXX-*$@X----$XOO$$***--X",
"--*$@@X---*$@@X---*$X+XOO$$***-X",
"**$@XX--**$@XX--**$@X+&XXO$$$**X",
"$$@X--**$$@X--**$$@XXO$*=XXO@$$X",
"@@X-**$$@@X-**$$@@X*XO+$**=XOOOX",
"@X-$$$$@@X-$$$$@@X*$@XO+$XX#XXX ",
"XOOOOOOXXOOOOOOXX++XX XXX####o  ",
" XXXXXX  XXXXXX  XX    o#####o  ",
"                        ooooo   "
};
