/* XPM */
static char *chest1697129307[] = {
/* columns rows colors chars-per-pixel */
"64 64 9 1 ",
"  c None",
". c #331903",
"X c #522C00",
"o c #633900",
"O c #734F1C",
"+ c #92752F",
"@ c #BC960E",
"# c #ECE841",
"$ c #FFFC81",
/* pixels */
"                                                                ",
"                                                                ",
"                                                                ",
"                                                                ",
"                                                                ",
"                                                                ",
"                                                                ",
"                                                                ",
"                                                                ",
"                                                                ",
"                                                                ",
"                                                                ",
"                                                                ",
"                                                                ",
"                      ...              ...                      ",
"                ......++O..............+++......                ",
"               .O+++O.+OO.OOOO++++OOOO.++O.OOXXX.               ",
"              .O+++O.++O.XOOO+++++++OOO.+OO.OOXXX.              ",
"             .O+++OO.+OO.OOO+++++++++OO.++O.OOXXXX.             ",
"            .O+++OO.++O.XOO+++++++++++OO.+OO.OOXXXX.            ",
"            .O++OOO.+OO.XO+++++++++++++O.++O.OOXXXX.            ",
"            .OOOOO.+OO.XXOOOOOOOOOOOOOOOO.+OO.OXXXX.            ",
"            .OOOOO.+OO.XOOOOOOOOOOOOOOOOO.+OO.OXXXX.            ",
"            .XOOOO.+OO.XOOOOXXXXXXXXXOOOO.+OO.OXXXX.            ",
"            ..XXXX.+OO.XXXXXX......XXXXXX.+OO.XXXX..            ",
"            .+.....+OO.......++++++.......+OO.....X.            ",
"            .O++++ooooo++++++OooooOO+++++oooooOXXXX.            ",
"            .OOOOo@#$#@oOOOOOo@##@oOOOOOo@#$#@oXXXX.            ",
"            .....o@ooo@o.....oooooo.....o@ooo@o.....            ",
"            .OOOOo@oOo@oOOOOOOOOOOOOOOOOo@oOo@oXXXX.            ",
"            .OOOOo@ooo@oOOOOOOOOOOOOOOOOo@ooo@oXXXX.            ",
"            .O...o@#$#@o................o@#$#@o...X.            ",
"            ..XXXXoooooXXXX.XXXXXXXX.XXXXoooooOXXX..            ",
"            .XXOOX.+OO.XOOOX.+OOOOO.XOOOX.+OO.OXXXX.            ",
"            .XO+OX.+OO.XO+OOX.+OOO.XO+OOX.+OO.OXXXX.            ",
"            .O++OX.+OO.XO+OOX.+OOO.XO+OOX.+OO.OXXXX.            ",
"            .+++OX.+OO.XO++OX.+OOO.XO++OX.+OO.OXXXX.            ",
"            .+++OX.+OO.XO++OX.+OOO.XO++OX.+OO.OXXXX.            ",
"            .+++OX.+OO.XO++OX.+OOO.XO++OX.+OO.OXXXX.            ",
"            .O++OX.+OO.XO++OX.+OOO.XO++OX.+OO.OXXXX.            ",
"            .XO+OX.+OO.XO++OX.+OOO.XO+OOX.+OO.XXXXX.            ",
"            .XXOOX.+OO.XO+OOX.+OOO.XO+OOX.+OO.XXXXX.            ",
"            .XXXOX.+OO.XO+OOX.+OOO.XO+OOX.+OO.XXXXX.            ",
"            oXXXXX.OOO.XOOOOX.OOOO.XOOOOX.+OX.XXXXXo            ",
"            ooXXXX.XXX.XXXXXX.XXXX.XXXXXX.XXX.XXXXoo            ",
"            o@oXXX.XXX.XXXXXX.XXXX.XXXXXX.XXX.XXXo@o            ",
"            o@#ooo.XXX.oooooo.XXXX.oooooo.XXX.ooo#@o            ",
"             o@#$#@.XXX.@#$#@.XXXX.@#$#@.XXX.@#$#@o             ",
"              oooooo....oooooo....oooooo....oooooo              ",
"                                                                ",
"                                                                ",
"                                                                ",
"                                                                ",
"                                                                ",
"                                                                ",
"                                                                ",
"                                                                ",
"                                                                ",
"                                                                ",
"                                                                ",
"                                                                ",
"                                                                ",
"                                                                ",
"                                                                "
};
