/* XPM */
static char *hole11697129307[] = {
/* columns rows colors chars-per-pixel */
"32 32 9 1 ",
"  c None",
". c #14120C",
"X c #1E1B12",
"o c #28281C",
"O c #343124",
"+ c #46412F",
"@ c #6A6349",
"# c #968D69",
"$ c #D6C88E",
/* pixels */
"                                ",
"                 ooo            ",
"                o##@o           ",
"                o#$@+o          ",
"                o#$#@o          ",
"             ooo#$##@+o         ",
"            o++o#$##@@+o        ",
"          oo@++o#$#@@@++o       ",
"         o##@+Oo###@@@++o       ",
"         o#@++Oo##@@@@++Oo      ",
"        o$@@++o.o@@@@+++Oo      ",
"       o##@++Oo.o@@@++++Oo      ",
"       o#@++Oo...o+++++Oo+o     ",
"       o@++OOo....o++++Oo+o     ",
"       o+OOoo......oo+OOo+Oo    ",
"       oOOo..........oOo#+Oo    ",
"       oOo..........XXo#@+Oo    ",
"      o+o#o.......XXXXo#@+Oo    ",
"     o$$#@o.....XXXXXXo#@+Oo    ",
"    o###@@+o...XXXXXXoo#@+Oo    ",
"    o#@@++Oo...XXXXXo#+o@+Oo    ",
"    o++++Oo#o.XXXXXo#@+o@+Oo    ",
"     o++Oo#@o.XXXXo#@@++o+Oo    ",
"     o+OOo@+oXXXXo#@@+++OoOo    ",
"      oOo#@+ooXoo#@@@+++OOo     ",
"       o#@++o#o##@@@+++OOOo     ",
"       o#++Oo##@@@+++OOOOOo     ",
"       o+++Oo@@+++++OOOOOo      ",
"        oooOOo+++++OOoooo       ",
"           ooo++OOOoo           ",
"              ooooo             ",
"                                "
};
