/* XPM */
static char *lava_drop3_61697129311[] = {
/* columns rows colors chars-per-pixel */
"32 32 5 1 ",
"  c None",
". c #CB1C02",
"X c #F43308",
"o c #FB5203",
"O c #ECF438",
/* pixels */
"                                ",
"                                ",
"                                ",
"                                ",
"                                ",
"                                ",
"                                ",
"                                ",
"                                ",
"                                ",
"                                ",
"                                ",
"                                ",
"           OO                   ",
"          OooOOOO               ",
"          OooooooOO             ",
"          OooXX.OoOOO           ",
"           Oooo.XoooO           ",
"            OOooooOO            ",
"              OOOO              ",
"                                ",
"                                ",
"                                ",
"                                ",
"                                ",
"                                ",
"                                ",
"                                ",
"                                ",
"                                ",
"                                ",
"                                "
};
