/* XPM */
static char *lava_drop2_11697129309[] = {
/* columns rows colors chars-per-pixel */
"64 64 6 1 ",
"  c None",
". c #CB1C02",
"X c #F43308",
"o c #FB5203",
"O c #F2AE0D",
"+ c #ECF438",
/* pixels */
"                                                                ",
"                                                                ",
"                      OOO                                       ",
"                     +oooO                                      ",
"                     +oXooOO   OO     OOO                       ",
"                     +oXX+ooOOOooO   OoooO                      ",
"                     +oo..ooOoooooO  OoXo+                      ",
"                      +oX.oOooXXXooOOooXo+                      ",
"                      +oX.oOoXX.+XoOOo.oo+                      ",
"                      +oo.oOoX...XoOoo+o+                       ",
"                       +oXoOoX...XoOoXXo+                       ",
"                       +oXoOo....ooOoooo+                       ",
"                       +ooo+oo..XoOoOoo+                        ",
"                       +ooOoOo+XooOooOo+                        ",
"                        +OooOoXXoOoooOo+                        ",
"                        +oooOoXooOoXoo+                         ",
"                        +oXoOoooOo+XXo+                         ",
"                        +oXoOooOooX.Xo+                         ",
"                        +oXoOooOoX..Xo+                         ",
"                        +o.oOooOoX..oo+                         ",
"                        +o.ooOoOo...o+                          ",
"                        +o+.ooOoo...o+                          ",
"                        +oo.XooOoX.+o+                          ",
"                         +o..XoOooXo+                           ",
"                         +oo.XoOOooo+                           ",
"                          +oo+oOoOoo+                           ",
"                           +oXoOoOo+                            ",
"                           +oooOoOo+                            ",
"                           +oOOooo+                             ",
"                            +ooo.o+                             ",
"                            +oX..o+                             ",
"                            +oo+oo+                             ",
"                             +ooo+                              ",
"                              +++                               ",
"                                                                ",
"                                                                ",
"                                                                ",
"                                                                ",
"                                                                ",
"                                                                ",
"                                                                ",
"                                                                ",
"                                                                ",
"                                                                ",
"                                                                ",
"                                                                ",
"                                                                ",
"                                                                ",
"                                                                ",
"                                                                ",
"                                                                ",
"                                                                ",
"                                                                ",
"                                                                ",
"                                                                ",
"                                                                ",
"                                                                ",
"                                                                ",
"                                                                ",
"                                                                ",
"                                                                ",
"                                                                ",
"                                                                ",
"                                                                "
};
