/* XPM */
static char *lava_drop1_41697129308[] = {
/* columns rows colors chars-per-pixel */
"128 128 6 1 ",
"  c None",
". c #CB1C02",
"X c #F43308",
"o c #FB5203",
"O c #F2AE0D",
"+ c #ECF438",
/* pixels */
"                                                                                                                                ",
"                                                                                                                                ",
"                                                                                                                                ",
"                                                                                                                                ",
"                                                                                                                                ",
"                                                                                                                                ",
"                                                                                                                                ",
"                                                                                                                                ",
"                                                                                                                                ",
"                                                                                                                                ",
"                                                                                                                                ",
"                                                                                                                                ",
"                                                                                                                                ",
"                                                                                                                                ",
"                                                                                                                                ",
"                                                                                                                                ",
"                                                                                                                                ",
"                                                                                                                                ",
"                                                                                                                                ",
"                                                                                                                                ",
"                                                                                                                                ",
"                                                                                                                                ",
"                                                                                   OO                                           ",
"                                          OO                                      OooO                                          ",
"                                         OooO                           OOOOO    OooooO                                         ",
"                                        OooooO     OOO        OO       OoooooO OOooXXoO+                                        ",
"                                       +ooXXoO    OoooO      OooO     OooXXXooOoooX+Xoo+                                        ",
"                                       +oXXXooOOOOooXooO     OooO     OoXXXXXoOoXXX.Xo+                                         ",
"                                       +oX.XXoooooOooXooOO   OooO     OoXXX.ooOoXX...o+                                         ",
"                                       +oX..XXXXXooOoXXoooOOOooooOO OOooXX..oOOoX....o+                                         ",
"                                       +ooX....XXXoOooX.XooOooXXoooOoOoXX.+ooOOoX....o+                                         ",
"                                        +oXX....XXooOoo..XoOoXXXXXoooOoX...oOoOoX...oo+                                         ",
"                                        +ooX...+..XooOoX+XoOoXX..XXooOoX...oOoOoX.XXo+                                          ",
"                                         +ooX......XoOoX.XoOoX....XoOooX..ooOoOooXXoo+                                          ",
"                                          +ooX....XXoOoXXooOoX..+.XoOoX..ooOoooOoooo+                                           ",
"                                           +ooX..XXooOoXXoOooX...XooOoXX.oOooXooOOo+                                            ",
"                                            +oooXXooOooXooOooooXXooOooXXooOoXXXoooO+                                            ",
"                                             ++ooooOoOoooOoOOOooooOOoXXooOoo+.Xoo++                                             ",
"                                               +OOOoooOOOoooooOooOoo+XooOooXX.Xo+                                               ",
"                                                +oOOOoooooXXXooOOooXXooOOooX..Xo+                                               ",
"                                                +ooooOOooXXXXXoOooXXXoOooOoo...o+                                               ",
"                                                 +oooooOooX.XXooOoXXXoOoooOoo.oo+                                               ",
"                                                  +oXXooOoX..XXoOoXXooOoXooOo.o+                                                ",
"                                                  +ooXXoOoo..XXoOoXXoOooXXoOoXo+                                                ",
"                                                   +o.XooOo..XXoOoXXoOoXX.oOooo+                                                ",
"                                                   +ooXXoOo..XXoOoXooOoX.XoOoo+                                                 ",
"                                                    +ooooOo..XXoOoXoOooX.ooo++                                                  ",
"                                                     ++ooOo..XXoOoooOoX.oo++                                                    ",
"                                                      +ooOo..XooOooOoo.oo+                                                      ",
"                                                      +oOoo..XoOooOooXoo+                                                       ",
"                                                      +oOoX..XoOooOoXoo+                                                        ",
"                                                      +oOoX.+XoOoOooXo+                                                         ",
"                                                       +oo...XoOOooXoo+                                                         ",
"                                                       +oo...XoOOoXXo+                                                          ",
"                                                        +oo.XXoOooXXo+                                                          ",
"                                                         +oXXXoOoXXoo+                                                          ",
"                                                         +oooXoOoXoo+                                                           ",
"                                                          ++oooOooo+                                                            ",
"                                                            ++oooo+                                                             ",
"                                                              ++++                                                              ",
"                                                                                                                                ",
"                                                                                                                                ",
"                                                                                                                                ",
"                                                                                                                                ",
"                                                                                                                                ",
"                                                                                                                                ",
"                                                                                                                                ",
"                                                                                                                                ",
"                                                                                                                                ",
"                                                                                                                                ",
"                                                                                                                                ",
"                                                                                                                                ",
"                                                                                                                                ",
"                                                                                                                                ",
"                                                                                                                                ",
"                                                                                                                                ",
"                                                                                                                                ",
"                                                                                                                                ",
"                                                                                                                                ",
"                                                                                                                                ",
"                                                                                                                                ",
"                                                                                                                                ",
"                                                                                                                                ",
"                                                                                                                                ",
"                                                                                                                                ",
"                                                                                                                                ",
"                                                                                                                                ",
"                                                                                                                                ",
"                                                                                                                                ",
"                                                                                                                                ",
"                                                                                                                                ",
"                                                                                                                                ",
"                                                                                                                                ",
"                                                                                                                                ",
"                                                                                                                                ",
"                                                                                                                                ",
"                                                                                                                                ",
"                                                                                                                                ",
"                                                                                                                                ",
"                                                                                                                                ",
"                                                                                                                                ",
"                                                                                                                                ",
"                                                                                                                                ",
"                                                                                                                                ",
"                                                                                                                                ",
"                                                                                                                                ",
"                                                                                                                                ",
"                                                                                                                                ",
"                                                                                                                                ",
"                                                                                                                                ",
"                                                                                                                                ",
"                                                                                                                                ",
"                                                                                                                                ",
"                                                                                                                                ",
"                                                                                                                                ",
"                                                                                                                                ",
"                                                                                                                                ",
"                                                                                                                                ",
"                                                                                                                                ",
"                                                                                                                                ",
"                                                                                                                                ",
"                                                                                                                                ",
"                                                                                                                                ",
"                                                                                                                                ",
"                                                                                                                                ",
"                                                                                                                                ",
"                                                                                                                                ",
"                                                                                                                                "
};
