/* XPM */
static char *lava_drop2_31697129309[] = {
/* columns rows colors chars-per-pixel */
"64 64 6 1 ",
"  c None",
". c #CB1C02",
"X c #F43308",
"o c #FB5203",
"O c #F2AE0D",
"+ c #ECF438",
/* pixels */
"                                                                ",
"                                                                ",
"                      OOO                                       ",
"                     +oooO                                      ",
"                     +ooooOO   OO     OOO                       ",
"                      +oXoooOOOooO   OoooO                      ",
"                      +oo+ooOoooooO  OoXo+                      ",
"                       +o.oOooXXXooOOoooo+                      ",
"                       +oXoOooXXXXooO+Xo+                       ",
"                       +oooOOoX.XXooOooo+                       ",
"                        +ooOOoo..XoOooo+                        ",
"                        +ooOoOoo.ooOooo+                        ",
"                         +OoooOoooOooo+                         ",
"                          +oXooOoOooXo+                         ",
"                          +ooXooOOo.oo+                         ",
"                           +oXXoOoo.o+                          ",
"                           +oo.ooOooo+                          ",
"                            +o.XoOoo+                           ",
"                            +oo.+oOo+                           ",
"                             +o..oo+                            ",
"                             +oo.Xo+                            ",
"                              +o.Xo+                            ",
"                              +oooo+                            ",
"                               +oo+                             ",
"                               +oo+                             ",
"                                +o+                             ",
"                                +o+                             ",
"                                ++                              ",
"                                ++                              ",
"                                +                               ",
"                                +                               ",
"                                +                               ",
"                                +                               ",
"                                +                               ",
"                                +                               ",
"                                +                               ",
"                                +                               ",
"                                +                               ",
"                                ++                              ",
"                                ++                              ",
"                                ++                              ",
"                                ++                              ",
"                                ++                              ",
"                               +o+                              ",
"                               +oo+                             ",
"                               +oo+                             ",
"                              +ooo+                             ",
"                              +ooo+                             ",
"                              +Oooo+                            ",
"                             +oOo+o+                            ",
"                             +ooOoo+                            ",
"                             +ooOoo+                            ",
"                             +ooOoo+                            ",
"                             +ooOoo+                            ",
"                             +ooOoo+                            ",
"                             +ooOoo+                            ",
"                             +oOooo+                            ",
"                              +oooo+                            ",
"                              +ooo+                             ",
"                               +oo+                             ",
"                                ++                              ",
"                                                                ",
"                                                                ",
"                                                                "
};
