/* XPM */
static char *lava_drop3_41697129311[] = {
/* columns rows colors chars-per-pixel */
"64 64 6 1 ",
"  c None",
". c #CB1C02",
"X c #F43308",
"o c #FB5203",
"O c #F2AE0D",
"+ c #ECF438",
/* pixels */
"                                                                ",
"                                                                ",
"                                                                ",
"                                                                ",
"                                                                ",
"                                                                ",
"                                                                ",
"                                                                ",
"                                                                ",
"                                                                ",
"                                                                ",
"                                                                ",
"                                                                ",
"                                                                ",
"                                   OO                           ",
"                          OOO     OooO                          ",
"                         OoooO   OooooO                         ",
"                        OooXooOOOooXXooO                        ",
"                       +ooX.XoOoooX...oo+                       ",
"                       +o+.oooOoX+....Xo+                       ",
"                       +ooooOOooooo.XXoo+                       ",
"                       +oOOOooOOOOooooo+                        ",
"                        +oooooooooOoo++                         ",
"                        +oooX+.X.ooO+                           ",
"                         ++oooooooo+                            ",
"                           +++++oo+                             ",
"                                ++                              ",
"                                                                ",
"                                                                ",
"                                                                ",
"                                                                ",
"                                                                ",
"                                                                ",
"                                                                ",
"                                                                ",
"                                                                ",
"                                                                ",
"                                                                ",
"                                                                ",
"                                                                ",
"                                                                ",
"                                                                ",
"                                                                ",
"                                                                ",
"                                                                ",
"                                                                ",
"                                                                ",
"                                                                ",
"                                                                ",
"                                                                ",
"                                                                ",
"                                                                ",
"                                                                ",
"                                                                ",
"                                                                ",
"                                                                ",
"                                                                ",
"                                                                ",
"                                                                ",
"                                                                ",
"                                                                ",
"                                                                ",
"                                                                ",
"                                                                "
};
