/* XPM */
static char *lava_drop3_11697129310[] = {
/* columns rows colors chars-per-pixel */
"64 64 6 1 ",
"  c None",
". c #CB1C02",
"X c #F43308",
"o c #FB5203",
"O c #F2AE0D",
"+ c #ECF438",
/* pixels */
"                                                                ",
"                                                                ",
"                                                                ",
"                                                                ",
"                                                                ",
"                                                                ",
"                                                                ",
"                                                                ",
"                                                                ",
"                                                                ",
"                                                                ",
"                                                                ",
"                                                                ",
"                                                                ",
"                                   OO                           ",
"                          OOO     OooO                          ",
"                         OoooO   Ooo+oO                         ",
"                        OooXooOOOOoo.ooO                        ",
"                       +ooXXXoOoooOoo.oo+                       ",
"                       +oXX..oOoXooOooo+                        ",
"                       +oX+..oOoXXooOoo+                        ",
"                       +oo..XoOo..XoOo+                         ",
"                        +o.oooOoo.XoOo+                         ",
"                        +oooOOoOooXoO+                          ",
"                        +oOOooooOooo+                           ",
"                         +oooXXooOoo+                           ",
"                          +ooXX.oOoo+                           ",
"                           +o+..ooOo+                           ",
"                            +oo.XoO+                            ",
"                             +o+Xo+                             ",
"                             +o.Xo+                             ",
"                             +oooo+                             ",
"                              +oo+                              ",
"                              +oo+                              ",
"                               ++                               ",
"                                                                ",
"                                                                ",
"                                                                ",
"                                                                ",
"                                                                ",
"                                                                ",
"                                                                ",
"                                                                ",
"                                                                ",
"                                                                ",
"                                                                ",
"                                                                ",
"                                                                ",
"                                                                ",
"                                                                ",
"                                                                ",
"                                                                ",
"                                                                ",
"                                                                ",
"                                                                ",
"                                                                ",
"                                                                ",
"                                                                ",
"                                                                ",
"                                                                ",
"                                                                ",
"                                                                ",
"                                                                ",
"                                                                "
};
