/* XPM */
static char *marker_statue21697129312[] = {
/* columns rows colors chars-per-pixel */
"64 64 12 1 ",
"  c None",
". c #6D370A",
"X c #575744",
"o c #75755C",
"O c #B66A11",
"+ c #D38114",
"@ c #E9B216",
"# c #E9E916",
"$ c #8D8D74",
"% c #B1B19C",
"& c #D2D2B1",
"* c #F6F6DB",
/* pixels */
"                                                                ",
"                                                                ",
"                    XXXXXXXXXXXXXXXXXXXXXXX                     ",
"                   X******************&&%$$X                    ",
"                  X*************&&&&&&&&%$$oX                   ",
"                  X********&&&%.&&&&&&&&%$$oX                   ",
"                  X*****&&&&&%.+.&&&&&&&%$$oX                   ",
"                  X***&&&&&&%%.@.$&&&&&&%$$oX                   ",
"                  X**&&&&&%%%.+@#.$%&&&&%$$oX                   ",
"                  X*&&&&.....++@@#.....&%$$oX                   ",
"                  X*&&&&%.OO++@@@@###.&%%$$oX                   ",
"                  X*&&&&&%.+@@@@@@@#.%&%%$$oX                   ",
"                  X&&&&&&&%.+@@@@@#.%&&%%$$oX                   ",
"                  X&&&&&&%%.+@+++@#.%&&%%$$oX                   ",
"                  X%&&&&&%.O+++.++@#.&%%%$$oX                   ",
"                  X%%%&&%%.O+O.$.++@.%%%%$$oX                   ",
"                  X%%%%%%.OO..$$$..+@.%%$$$oX                   ",
"                  X$$$$%%...$$%%%$$...%$$$$oX                   ",
"                  Xo$$$$$$%%%%%%%%%$$$$$$$ooX                   ",
"                 X*Xoooo$$$$$$$$$$$$$$$$oooX%X                  ",
"                X&&XooXXoooooooooooooooXXooX%$X                 ",
"                X&%%XX%%XXXXXXXXXXXXXXX&&XX%$$X                 ",
"                X%%%%%$$X$XX*&&%%$$XX$X%%%%$$$X                 ",
"                 XX$$$$$XX**&&%%%%$$$XX$$$$$XX                  ",
"                   XXooXX*&&&%%%%%%%$oXX$$XX                    ",
"                   XXXXX*&&%%%%%%%%%$$oXXXXX                    ",
"                   X%o$X&&%%%XXXXX%%%$oX%$$X                    ",
"                   X%oX&&%XXX&&&%%XXX%$oX%$X                    ",
"                  X%$oX&%X*&&%%%%%%%%X$oX%$oX                   ",
"                  X%$oX&X*&%%%%%%%%%%%X$X%$oX                   ",
"                  X%$oX&X*&&&&X%X&&&%%X$X%$oX                   ",
"                  X%$oX&X&XXXX&%$XXXX%X$X%$oX                   ",
"                  X%$oX&X&%XX%&%$$XX%%X$X%$oX                   ",
"                  X%$oX&X&&%%%&%$$%&&%X$X%$oX                   ",
"                  X%$oX%X&%%$X%$$X$%%$X$X%$oX                   ",
"                  X&%$X%X&%$X&XXX%X$$$X$X%$oX                   ",
"                  X&%$X%X$XX&&%%%%%XX$X$X$$oX                   ",
"                   X%%$XXX&&%%%%%%%%%XXX%$oX                    ",
"                   X&%$X$X&%%X&%%X%%$X$X%$oX                    ",
"                    X%$X$XX&%X&%%X%$XX%X%oX                     ",
"                    X%$X$X$X%X%X%X$X$X%X$oX                     ",
"                     X%$X%$X$X$X$X$X$$X%$X                      ",
"                     X%%X&%$XXXXXXX$$oX$$X                      ",
"                     X%X*%%%$$$$$$$$%$oX$X                      ",
"                     X&X*&%%%$$$$$%%%$oXoX                      ",
"                     XXX*&%%%%%%%%%%%$oXXX                      ",
"                     X*X*&%%%%%%%%%%%$oXoX                      ",
"                     X*X*&&&&%%%%%%%$$oXoX                      ",
"                     X*X*&&&&&&%%%%$$$oXoX                      ",
"                     X&X*&&&&&%%%%$$$ooXoX                      ",
"                     X&X*&&&&%%%%$$$oooXoX                      ",
"                     X&X$$$$$$$$$$oooooXoX                      ",
"                     X%XXXXXX$ooooXXXXXXoX                      ",
"                     X%X**&&&&&&%$%%%$$X$X                      ",
"                    X%%X*&&&&%%%%%%%$$oXooX                     ",
"                    X%X&%%%%%%%%%%%%$oooXoX                     ",
"                    X$X$$$$%%%%%%%$$$oooXoX                     ",
"                    XXXXXXX$$$$$$$ooXXXXXXX                     ",
"                    X**&&&%X$$$ooooX%&%%$$X                     ",
"                   X&*&%%%%%XXXXXXX%&%%%%$$X                    ",
"                   X&%%$$$$$$X   X$$$$$$$$$X                    ",
"                   XXXXXXXXXXX   XXXXXXXXXXX                    ",
"                                                                ",
"                                                                "
};
