/* XPM */
static char *mushrum21697129312[] = {
/* columns rows colors chars-per-pixel */
"32 32 10 1 ",
"  c None",
". c #826417",
"X c #A7873E",
"o c #F2BF52",
"O c #C7A660",
"+ c #E6D18D",
"@ c #FFEB80",
"# c #FFEBAA",
"$ c #FFFFBB",
"% c #FFFFE2",
/* pixels */
"                                ",
"                                ",
"                                ",
"                                ",
"                                ",
"                                ",
"               ....             ",
"              .#@@o.            ",
"            ..#++@OX.           ",
"           .%%$$+OOX.           ",
"          .$$@@$OOOXX.          ",
"          .@@@@@OO@@o.          ",
"         .XooooXXX@@oX.         ",
"        .XXXXXXXXoo@oXX.        ",
"         ........XoooXX.        ",
"            .XXXX.XXXXX.        ",
"            .+XX. .....         ",
"            .+OXX.              ",
"            .+OXX.              ",
"           .++OOX.              ",
"           .++OOX.              ",
"          .#+OOOX.              ",
"          .+OOOOX.              ",
"           .OOOOX.              ",
"            .....               ",
"                                ",
"                                ",
"                                ",
"                                ",
"                                ",
"                                ",
"                                "
};
