/* XPM */
static char *mushrum71697129313[] = {
/* columns rows colors chars-per-pixel */
"64 64 10 1 ",
"  c None",
". c #826417",
"X c #A7873E",
"o c #F2BF52",
"O c #C7A660",
"+ c #E6D18D",
"@ c #FFEB80",
"# c #FFEBAA",
"$ c #FFFFBB",
"% c #FFFFE2",
/* pixels */
"                                                                ",
"                          .....                                 ",
"                        ..oooXX..                               ",
"                      ..@@@oooXXo..                             ",
"                     .@@@@@@@oXXooo.                            ",
"                     .@$$$@@@@Xooooo.                           ",
"                    .$$$$$$@@OO@oooo.                           ",
"                    .%$$$$$@@OO@ooooo.                          ",
"                    .%%$$$$$OOOOoooooX.                         ",
"                   .%%%$$$$$+OOOOoooXX.                         ",
"                  .%%%%$$$$++OOOOXXXXXX.                        ",
"                  .#%%%$$++++OOOOXXXXXXX.                       ",
"                  .####++++++OOOOXooXXXX.                       ",
"                  .####++++++OOOOoooooXXX..                     ",
"                 .####+++++++OOO@ooooooXXXX..                   ",
"                 .####++++++OOOOoooooooXXXXXo..                 ",
"                 .###+++++++OOOOooooooooXXXXooo.                ",
"                .%%%$++++++OOOOXooooooooXXXXoooo..              ",
"                .%%%$$++OOOOOOXXooooooooXXXXXooooo..            ",
"               .%%%$$$+OOOOOOOXXXooooooXXXXXXXXooooo.           ",
"               .%%$$$$OOOOOOOXXXXXooo........XXXXooXX..         ",
"              .%$%$$$@OOOOOXXXXXXX...XXXXXXXX..XXXXXXXX.        ",
"              .%%$$@@OOOOOXXXXXX..XXXXXXX.XXXXX..XXXXXX.        ",
"             .%%$$@@OOOOXXXXX...XXXXXXXX.XOXXXXXX.XXXXXX.       ",
"            .%%$@@@OOXXXXXX...XXXXOOOXXX.OOOXXXXXX..XXXX.       ",
"           .%%$@@@OOXXXXXX.XXX.XXOOOOOXX.+OOXXXXXXXX..X.        ",
"          .%%$$@OOOXXXXX..XXXX.XO++OOXX.++OXXX.OOXXXXX.         ",
"         .##++OOOOXXXXX.XXXXXXX.+++OOXX.++OXX.+OOXXXX.          ",
"        .##++OOOOOXXXX.XXXXXXXXX.++OXXX.++XXX.+OXXXXX.          ",
"       .##+++OOOOXXXX.XXXOOOXXXX.++OXX.+OXXX.+OOXXXX.           ",
"       .#+++OOOOXXXX.XXXOOOOXXXX.++XX..OX...+OOXXX..            ",
"       .##+OOO@oooX.XXXOO+OOOXXX..XX.....XO+OXXX..              ",
"       .##+OO@oooo.XXXOO+++OOXXX.X..XXXX..XXX...                ",
"       .##+O@oooo.X..OOO++++OXX.XXXXXXXXXX...                   ",
"       .#++O@oooo.XXX..XXX++XXX.XXXXXXXXXX.                     ",
"        .++Ooooo.oXXXXX........XXXXXXXXXXX.                     ",
"         .OOooooo.XOOOOOOOXXX.XXXXXXXOXXXX.                     ",
"          ..OoooXX....++++OX.XXXXXXXXOOXXX.                     ",
"            .......   ......XXOOXXXXXOOXXX.                     ",
"                           .OXOOOXXXXOOXXX.                     ",
"                            .OOOOOXXXOOXXX.                     ",
"                            .++OOOXXXOOOXX.                     ",
"                            .+++OOOXXOOOXX.                     ",
"                            .++++OOXXO+OXX.                     ",
"                            .++#+OOXXO+OXXX.                    ",
"                            .++#+OOXXO+OOXX.                    ",
"                            .++#+OOXOO+OOXXX.                   ",
"                            .+#++OOXOO+OOXXX.                   ",
"                           .++#++OOOOO+OOXXXX.                  ",
"                           .+##++OOOO++OXXXXX.                  ",
"                          .++##++OOO+++OXXXXXX.                 ",
"                          .++##++OOO+#+OXXXXXX.                 ",
"                         ..+###++OO+#++OXXXXXX.                 ",
"                         .O+##+++++#+++OXXXXXXX.                ",
"                          .++#+++++#+++XXXXXXXX.                ",
"                          .O+##+++#+++OXXXXXXXX.                ",
"                          .O+##++#+++OOXXXXXXXX.                ",
"                           .+####+++OOXXXXXXXXX.                ",
"                           .O+##+++OOXXXXXXXXX.                 ",
"                            .+O+O+OXXXXXXXXXX.                  ",
"                             ...XXXXX........                   ",
"                                .....                           ",
"                                                                ",
"                                                                "
};
