/* XPM */
static char *stalagmite21697129315[] = {
/* columns rows colors chars-per-pixel */
"64 64 13 1 ",
"  c None",
". c #28281C",
"X c #343124",
"o c #3B3B30",
"O c #46412F",
"+ c #554F3A",
"@ c #6A6349",
"# c #756D4C",
"$ c #928967",
"% c #968D69",
"& c #D0C086",
"* c #D6C88E",
"= c #F8ECBF",
/* pixels */
"                                                                ",
"                                                                ",
"                                                                ",
"                                                                ",
"                                                                ",
"                                                                ",
"                                                                ",
"                                                                ",
"                                   .                            ",
"                                  .O.                           ",
"                                  .O.                           ",
"                                 .%O.                           ",
"                                 .%O.                           ",
"                                 .%O.                           ",
"                                 .*O.                           ",
"                                .%*O.                           ",
"                               .%*%O.                           ",
"                               .%*%O.                           ",
"                               .*%@O.                           ",
"                               .*%@O.                           ",
"                              .%*%@O.                           ",
"                              .%*@@O.                           ",
"                              .*%@@O.                           ",
"                              .%%@@O.                           ",
"                              .%%@@OO.                          ",
"                              .%%@@OO.                          ",
"                              .%%@@OO.                          ",
"                              .%%@@OO.                          ",
"                             .X.%@@OOX.                         ",
"                             .X.%@@OOX.                         ",
"                             .X.%%@OOX.                         ",
"                             .X.%%@OOX.                         ",
"                            .OX.%%@OOX.                         ",
"                            .OXX.%OOOX.                         ",
"                            .OXX.%OOOX.                         ",
"                           .%OXX.%OOOXX.                        ",
"                           .*@OXX.OOOXX.                        ",
"                          .*%@OXX.OOXXX.                        ",
"                          .*%@OXX.OOXXX.                        ",
"                          .%@@OXX.OOXXX.                        ",
"                         .%%@@OXX.OXXXX.                        ",
"                         .%@@OOXXoOXXXX.                        ",
"                        .%%@@OOOXX.XXXoo                        ",
"                        .oooOOOOXX.XXo=&o                       ",
"                       o&=&&oOOOXX.Xo&=&o                       ",
"                      o==&$$$oOOXX.Xo=&$$o                      ",
"                     o&&$$$$#ooOXX.o=&$$##o                     ",
"                    o$$$$$$#+o=oOXo&&&$###o                     ",
"                   o##$$$##+o&=&oXo&&$$###o                     ",
"                  o+######++o=&$oXo&$$$###+o                    ",
"                  o++####++o&&$$$oo&$$###++o                    ",
"                  o+++#+++o&$$$###o$$###++++o                   ",
"                   o+++++o########+o###+++++o                   ",
"                    ooo+oo+++###+++o#+++oooo                    ",
"                       o  oo+++++++o+ooo                        ",
"                            ooooooooo                           ",
"                                                                ",
"                                                                ",
"                                                                ",
"                                                                ",
"                                                                ",
"                                                                ",
"                                                                ",
"                                                                "
};
