/* XPM */
static char *stalactite21697129314[] = {
/* columns rows colors chars-per-pixel */
"64 64 7 1 ",
"  c None",
". c #28281C",
"X c #343124",
"o c #46412F",
"O c #6A6349",
"+ c #968D69",
"@ c #D6C88E",
/* pixels */
"                                                                ",
"                                                                ",
"                                                                ",
"                                                                ",
"                                                                ",
"                                                                ",
"                                                                ",
"                                                                ",
"                                 .                              ",
"                                .o.                             ",
"                              ..+oX.                            ",
"                             .+++oX.                            ",
"                            .+@+OoX.                            ",
"                            .+@OOoX.                            ",
"                           .+@+OooX.                            ",
"                           .@++OooX.                            ",
"                           .@+OOooX.                            ",
"                           .@+OOooX.                            ",
"                           .@+OOooX.                            ",
"                           .@+OOooX.                            ",
"                           .@+OOooX.                            ",
"                           .@+OOooX.                            ",
"                           .++OOooX.                            ",
"                           .++OOooX.                            ",
"                           .++OoooX.                            ",
"                           .++OoooX.                            ",
"                           .++OoooX.                            ",
"                            .+OooXX.                            ",
"                            .+OooXX.                            ",
"                            .+OooXX.                            ",
"                            .+OooXX.                            ",
"                            .+OooXX.                            ",
"                            .+OooXX.                            ",
"                            .+OooXX.                            ",
"                            .+OooXX.                            ",
"                            .+OooX.                             ",
"                             .OooX.                             ",
"                             .OooX.                             ",
"                             .OooX.                             ",
"                             .OooX.                             ",
"                             .OooX.                             ",
"                             .OoXX.                             ",
"                             .OoXX.                             ",
"                             .OoX.                              ",
"                             .OoX.                              ",
"                             .OoX.                              ",
"                             .OoX.                              ",
"                              .oX.                              ",
"                              .XX.                              ",
"                              .X.                               ",
"                              .X.                               ",
"                              .X.                               ",
"                              .X.                               ",
"                              .X.                               ",
"                              .X.                               ",
"                               .                                ",
"                                                                ",
"                                                                ",
"                                                                ",
"                                                                ",
"                                                                ",
"                                                                ",
"                                                                ",
"                                                                "
};
