/* XPM */
static char *stalagmite31697129315[] = {
/* columns rows colors chars-per-pixel */
"64 64 13 1 ",
"  c None",
". c #28281C",
"X c #343124",
"o c #3B3B30",
"O c #46412F",
"+ c #554F3A",
"@ c #6A6349",
"# c #756D4C",
"$ c #928967",
"% c #968D69",
"& c #D0C086",
"* c #D6C88E",
"= c #F8ECBF",
/* pixels */
"                                  .                             ",
"                                 .%.                            ",
"                                 .%.                            ",
"                                 .%.                            ",
"                                .*%O.                           ",
"                                .*%O.                           ",
"                                .*%O.                           ",
"                                .*%O.                           ",
"                                .*@O.                           ",
"                                .*@O.                           ",
"                                .%@O.                           ",
"                                .%@OX.                          ",
"                                .%@OX.                          ",
"                                .%@OX.                          ",
"                                .@@OO.                          ",
"                               .%.@OO.                          ",
"                               .%.@OO.                          ",
"                              .%%.@OO.                          ",
"                              .%%.@OO.                          ",
"                              .*%@.OOX.                         ",
"                              .*%@.OOX.                         ",
"                              .*%@.XOX.                         ",
"                              .*%@O.OX.                         ",
"                              .*%@O.XX.                         ",
"                              .*%@O.XX.                         ",
"                              .*%@.O.X.                         ",
"                              .*%@.O.X.                         ",
"                              .%%@.O%..                         ",
"                              .%%O.%%O.                         ",
"                              .%@O.%@OX.                        ",
"                              .%@O.%@OO.                        ",
"                              .%@O.*@OO.                        ",
"                              .%@O.*@OO.                        ",
"                              .%@O.*@OOX.                       ",
"                              .%@O.*@OOX.                       ",
"                             .%%OX.%@OOXX.                      ",
"                             .%@OX.%@OOXX.                      ",
"                             .%@OX.%@OOXX.                      ",
"                             .%@OX.@@OXXX.                      ",
"                             .%OX.%@@OOXX.                      ",
"                            .%@OX.%@OOOXX.                      ",
"                            .%@OX.%@OOXXX.                      ",
"                            .%@O.%@@OOXXX.                      ",
"                           .%@OO.%@OOOXXX.                      ",
"                           .%@OX.%@OOOXXX.                      ",
"                           .@OOXo%@OOOXXX.                      ",
"                          .%@OOX.%OOOXXXX.                      ",
"                          .%OOOX.@OOOXXXX.                      ",
"                         .%oOOXX.@OOOXXXXX.                     ",
"                         .o=oOXX.OOOOXXXXo.                     ",
"                        o==&oXXX.OOOXXXXoo.                     ",
"                       o=&&#ooXX.OOXXXXo&#.                     ",
"                      o=&$$#o&oX.OOXXoo=&#o                     ",
"                     o&&$$##o=oX.OXXo#o&$#+o                    ",
"                    o&&$$$#+o&&o.OXo&#+o$##+o                   ",
"                   o&$$$$##+o&$$oXXo&#+o$##+o                   ",
"                  o&$$$$###+o$$#ooo&$#++o###+o                  ",
"                 o$$######++o$$#o=&$$##+o###+o                  ",
"                o#######+++o$$#o&&$$$##+o###++o                 ",
"               o++++++++++o$$##o&$$$###++o###++o                ",
"                oo++++++oo#####o$$#####++o####++o               ",
"                  ooooooo+++++o$######+++o##++++o               ",
"                         ooooo+++++++++++o+++++o                ",
"                              oooooooooooooooooo                "
};
