/* XPM */
static char *stalagmite51697129315[] = {
/* columns rows colors chars-per-pixel */
"128 128 13 1 ",
"  c None",
". c #28281C",
"X c #343124",
"o c #3B3B30",
"O c #46412F",
"+ c #554F3A",
"@ c #6A6349",
"# c #756D4C",
"$ c #928967",
"% c #968D69",
"& c #D0C086",
"* c #D6C88E",
"= c #F8ECBF",
/* pixels */
"                                                                                                                                ",
"                                                                                                                                ",
"                                                                                                                                ",
"                                                                                                                                ",
"                                                                                                                                ",
"                                                                                                                                ",
"                                                                                                                                ",
"                                                                                                                                ",
"                                                                                                                                ",
"                                                                                                                                ",
"                                                                   .                                                            ",
"                                                                  ..                                                            ",
"                                                                  .O.                                                           ",
"                                                                 .%O.                                                           ",
"                                                                 .%O.                                                           ",
"                                                                 .%O.                                                           ",
"                                                                .*%O.                                                           ",
"                                                                .*%O.                                                           ",
"                                                                .*%O.                                                           ",
"                                                                .*%O.                                                           ",
"                                                                .%%O.                                                           ",
"                                                                .%%O.                                                           ",
"                                                                .%%O.                                                           ",
"                                                                .%@OX.                                                          ",
"                                                                .%@OX.                                                          ",
"                                                                .%@OX.                                                          ",
"                                                                .%@OX.                                                          ",
"                                                                .%@OX.                                                          ",
"                                                                .%@OX.                                                          ",
"                                                               .%@@OX.                                                          ",
"                                                               .%@@OX.                                                          ",
"                                                               .%@@OX.                                                          ",
"                                                               .%@OOX.                                                          ",
"                                                              .%%@OO.X.                                                         ",
"                                                              .%%@OX.X.                                                         ",
"                                                             .O.@OO.OX.                                                         ",
"                                                            .%O.@OO.OX.                                                         ",
"                                                            .%O.@OX.OX.                                                         ",
"                                                           .%%O.OOX.OX.                                                         ",
"                                                           .%@O.OX.%OO.                                                         ",
"                                                          .*%OO.OX.%OOX.                                                        ",
"                                                         .*%@OO.X.%%OOX.                                                        ",
"                                                         .*%@OO.X.%@OOX.                                                        ",
"                                                        .%*%@OX..%%@OOX.                                                        ",
"                                                        .*%%@OX..*@@OOO.                                                        ",
"                                                        .*%@@OX.*%@OOOOX.                                                       ",
"                                                        .*%@@OX.*%@OOOOX.                                                       ",
"                                                        .%%@@OX.*@@OOOOX.                                                       ",
"                                                        .%%@@OX.%@@OOOOX.                                                       ",
"                                                        .%%@@OX.%@@OOOOX.                                                       ",
"                                                        .%%@OOX.%@@OOOOXX.                                                      ",
"                                                        .%%@OX.O.%@OOOOXX.                                                      ",
"                                                        .%%OOX.O.%@@OOOXX.                                                      ",
"                                                        .%%OX.%O.%%@OOOXX.                                                      ",
"                                                        .%%OX.%OX.%@OOOXX.                                                      ",
"                                                        .%OXX.%OX.%@OOOXX.                                                      ",
"                                                        .%OX.%%OOX.%OOXXXX.                                                     ",
"                                                        .OOX.%%OOX.%OOXXXX.                                                     ",
"                                                        .OX.%%@OOXX.XOXXXX.                                                     ",
"                                                        .OX.%%@OOXXX.XXXXX.                                                     ",
"                                                        .XX.%%@OOXXX.XXXXX.                                                     ",
"                                                        .X.%%%@OOXX.%.XXXX.                                                     ",
"                                                       .XX.%*@@OOXX.%@.XXX.                                                     ",
"                                                       .X.%*%@@OOXX.%@@.XX.                                                     ",
"                                                       .X.%*%@@OOXX.%%@.XX.                                                     ",
"                                                       ..%%*%@@OOOX.*%@O.X.                                                     ",
"                                                       ..%%*%@@@OOX.*%@O.X.                                                     ",
"                                                      ..X.%*@@@@OOXX.*@@O..                                                     ",
"                                                      .OX.*%@@@@OOXX.*@@O..                                                     ",
"                                                      .OX.*%@@@@OOXX.*@@OXX.                                                    ",
"                                                     .%OX.*%@@@@OOOX.*%@OOX.                                                    ",
"                                                    .%%@X.%%@@@@OOOX.%*@OOXX.                                                   ",
"                                                    .%%@O.%%@@@@OOOX.%*@OOOX.                                                   ",
"                                                   .%%%@OX.%%@@@OOOX.%*@OOOX.                                                   ",
"                                                   .*%%@OX.%%@@@OOOX.%*@@OOXX.                                                  ",
"                                                   .*%%@OX.%%@@@OOOOX.*%@OOOX.                                                  ",
"                                                   .*%@@OOX.%@@@OOOOX.%%@OOOX.                                                  ",
"                                                   .*%@@OOX.%@@@OOOOX.%%@OOOX.                                                  ",
"                                                   .*%@@@OX.%@@@OOOOXX.%@OOOX.                                                  ",
"                                                   .*%@@@OX.%%@@OOOOXX.%@OOOXX.                                                 ",
"                                                   .*%@@@OXX.%@@OOOOXX.%@OOOXX.                                                 ",
"                                                   .*%@@@OOX.%@@OOOXXX.%@OOOXX.                                                 ",
"                                                   .*%@@@OOX.%@@OOOXXX.%@OOOXX.                                                 ",
"                                                   .*%@@@OOX.%@@OOOXXX.%@OOOXX.                                                 ",
"                                                   .*%@@@@OX.%%@OOOXXX.%@OOOXX.                                                 ",
"                                                  .%%@@@@@OXX.%@OOOXXX.%@OOOXX.                                                 ",
"                                                  .%%@@@@@OXX.%@OOOXXX.%OOOOXX.                                                 ",
"                                                  .%%@@@@@OXX.%%OOOXX.%@OOOXXX.                                                 ",
"                                                  .%%@@@@OOOX.%%OOOXX.%@OOOXXX.                                                 ",
"                                                  .%%@@@@OOOX.%%OOOX.%@OOOXXXX.                                                 ",
"                                                  .%%@@@OOOOX.%%OOXX.%@OOOXXXX.                                                 ",
"                                                  .%%@@@OOOOXX.%OOXX.@OOOXXXXX.                                                 ",
"                                                  .OO@OOOOOOXX.OOOXX.@OOXXXXXX.                                                 ",
"                                                  oooOOOOOOOXX.OOOXX.OOXXooXXX.                                                 ",
"                                                 o=&#oOOOOOXXX.OOOXX.OOXo&#ooo.                                                 ",
"                                                o&=$#oXOOOXXXX.OOOXX.OXXo&#o=&$o                                                ",
"                                                o=&$#oXXXXXXXX.OOOXX.OXo=$#o&&$o                                                ",
"                                               oo=&$##oooXXXXX.OOXXX.XXo&$#o&&$#o                                               ",
"                                              o#o=$$##o&=oXXXX.OOXXX.XXo&$#o&$$##o                                              ",
"                                              o#o&$##+o&=&oXXX.OOXXXXooo&##o&$$##o                                              ",
"                                             o#o=&$##+o=&&$ooX.OXXXOo&+o$##o&$###+o                                             ",
"                                            o&#o&$$##+o=&$$$#oOOXXXo=&++o#+o&$###+o                                             ",
"                                            o$+o&$$##+o&&$$$#oOOXXo&=$$+o#+o&$###+o                                             ",
"                                           o&#+o&$$##+o&$$$$##oXXXo=&$$++o+o$###+o#o                                            ",
"                                           o$#+o&$$##+o&$$$###oXXo&=$$$#+o+o$###+o#o                                            ",
"                                          o&$#+o$$$#++o&$$$###oXXo&&$$$#+o+o###++o#o                                            ",
"                                          o&$#+o$$##++o&$$$##+oXXo&&$$$#++o####++o#o                                            ",
"                                          o$##o&$$##++o&$$###+oXo$o&$$$##+o###+++o#o                                            ",
"                                          o$#+o&$$##++o$$$##++oo&#o&$$$##++o#+++o$##o                                           ",
"                                         o&$#+o$$###++o$$###++o&$#o&$$$##++o+++o&$##o                                           ",
"                                         o$##+o$####++o####+++o$$#o&$$####++o+o&$$$##o                                          ",
"                                         o$##o#####+++o####++o$$##o&$#####++o+o&$$##+o                                          ",
"                                         o##+o####++++o###+++o###+o&#####+++oo&$$###+o                                          ",
"                                         o#++o###+++++o##++++o###+o######+++o$$$###++o                                          ",
"                                          o++o##++++++o+++++o###+++o####++++o#####+++o                                          ",
"                                           oo+++++++++oo++++o+++++++o+++++++o++++++++o                                          ",
"                                             oooooo+++o oooo oo+++++o++++++o oooooooo                                           ",
"                                                   ooo         ooooo oooooo                                                     ",
"                                                                                                                                ",
"                                                                                                                                ",
"                                                                                                                                ",
"                                                                                                                                ",
"                                                                                                                                ",
"                                                                                                                                ",
"                                                                                                                                ",
"                                                                                                                                ",
"                                                                                                                                ",
"                                                                                                                                "
};
