/* XPM */
static char *trap11697129318[] = {
/* columns rows colors chars-per-pixel */
"128 128 11 1 ",
"  c None",
". c #14120C",
"X c #1E1B12",
"o c #28281C",
"O c #7E8D93",
"+ c #85888F",
"@ c #9AAAAF",
"# c #A6B3B8",
"$ c #B4BFC4",
"% c #DBE6EA",
"& c #EDF3F5",
/* pixels */
"                                                                                                                                ",
"                                                                                                                                ",
"                                                                                                                                ",
"                                                                                                                                ",
"                                                                                                                                ",
"                                                                                                                                ",
"                                                                                                                                ",
"                                                                                                                                ",
"                                                                                                                                ",
"                                                                                                                                ",
"                                                                                                                                ",
"                                                                                                                                ",
"                                                                                                                                ",
"                                                                                                                                ",
"                                                                                                                                ",
"                                                                                                                                ",
"                                                                                                                                ",
"                                                                                                                                ",
"                                                                                                                                ",
"                                                                                                                                ",
"                                                                                                                                ",
"                                                                                                                                ",
"                                                                                                                                ",
"                                                                                                                                ",
"                                                                                                                                ",
"                                                                                                                                ",
"                                                                                                                                ",
"                                                                                                                                ",
"                                                                                                                                ",
"                                                                                                                                ",
"                                                                                                                                ",
"                                                                                                                                ",
"                                                                                                                                ",
"                                                                                                                                ",
"                                                                                                                                ",
"                                              oooooo  oooo                                                                      ",
"                                            oo......oo....ooo                                                                   ",
"                                    oooo  oo.................o     ooooooooo  ooooo                                             ",
"                                  oo....oo....................o  oo.........oo.....oo                                           ",
"                                 o.............................oo....................oo                                         ",
"                                o......................................................ooooo      oo                            ",
"                               o............................................................oooooo..o                           ",
"                             oo......................................................................o                          ",
"                            o...................XXXXX.................................................o                         ",
"                            o..................XXXXXXXXXX...............XXXXX..........................o                        ",
"                           o..................XXXXXXXXXXXXXXXXXXXXXXXXXXXXXXXXXXXXXX...................o                        ",
"                           o.................XXXXXXXXXXXXXXXXXXXXXXXXXXXXXXXXXXXXXXXXXXXXXXXX..........o                        ",
"                          o.................XXXXXXXXXXXXXXXXXXXXXXXXXXXXXXXXXXXXXXXXXXXXXXXXXX.........o                        ",
"                         o..................XXXXXXXXXXXXXXXXXXXXXXXXXXXXXXXXXXXXXXXXXXXXXXXXXX.........o                        ",
"                         o.................XXXXXXXXXXXXXXXXXXXXXXXXXXXXXXXXXXXXXXXXXXXXXXXXXXX.........o                        ",
"                        o..................XXXXXXXXXXXXXXXXXXXXXXXXXXXXXXXXXXXXXXXXXXXXXXXXXXX.........o                        ",
"                        o.................XXXXXXXXXXXXXXXXXXXXXXXXXXXXXXXXXXXXXXXXXXXXXXXXXXX.........o                         ",
"                        o.................XXXXXXXXXXXXXXXXXXXXXXXXXXXXXXXXXXXXXXXXXXXXXXXXXXX.........o                         ",
"                        oo................XXXXXXXXXXXXXXXXXXXXXXXXXXXXXXXXXXXXXXXXXXXXXXXXXXX........o                          ",
"                         o.................XXXXXXXXXXXXXXXXXXXXXXXXXXXXXXXXXXXXXXXXXXXXXXXXXX........o                          ",
"                          o.................XXXXXXXXXXXXXXXXXXXXXXXXXXXXXXXXXXXXXXXXXXXXXXXX........o                           ",
"                          o..................XXXXXXXXXXXXXXXXXXXXXXXXXXXXXXXXXXXXXXXXXXXXXXX........o                           ",
"                           o..................XXXXXXXXXXXXXXXXXXXXXXXXXXXXXXXXXXXXXXXXXXXXX.........o                           ",
"                            o..................XXXXXXXXXXXXXXXXXXXXXXXXXXXXXXXXXXXXXXXXXXXX........o                            ",
"                            o...................XXXXXXXXXXXXXXXXXXXXXXXXXXXXXXXXXXXXXXXXXX.........o                            ",
"                            o....................XXXXXXXXXXXXXXXXXXXXXXXXXXXXXXXXXXXXXXXX..........o                            ",
"                            o.....+...............XX+XXXXXXXXX+XXXXXXXXX+XXXXXXXXXXXXXXX...........o                            ",
"                            o.....+.......+........X+XXXXXXXXX+XXXXXXXXX+XXXXXXXXXX+XXX....+......o                             ",
"                            o.....+.......+.........+XXXXXXXX+%+XXXXXXX++XXXXXXXXXX+XX.....+.....o                              ",
"                            o.....++......++.......++XXXXXXXX+%+XXXXXXX+%+XXXXXXXXX++......++....o                              ",
"                            o.....++......++.......+$+XXXXXXX+%+XXXXXXX+%+XXXXXXXXX++......++...o                               ",
"                            o....+$+.....+$+.......+$+...XXXX+%+XXXXXXX+%+XXXXXXXX.++......+&+..o                               ",
"                             o...+$+.....+$+.......+$+.......+%+XXXXXXX+%+XXXXXXX.+%+......+&+.o                                ",
"                             o...+$+.....+$+......+$$+.......+%%+......+%$+X......+%+......+&+.o                                ",
"                              o..+$+.....+$%+.....+$$%+......+%%+......+%$+.......+%$+.....+&+.o                                ",
"                              o.+$$+.....+$%+.....+$$%+......+%%+......+%&+.......+%&+.....+%$o                                 ",
"                               o+$$%+....+$%+.....+$&%+.....+$%&+......+%&$+......+%&+.....+$@o                                 ",
"                               o+O%&+....+$%+.....+$&%+.....+$%&+......+%&$+......+%&+....+%Oo                                  ",
"                               o+O@&+...+$%%+.....+$&%+.....+$&%+......+%&$+.....+$%&+....+Oo                                   ",
"                                oO@#+...+$%&+.....+$&%+.....+$&%$+.....+%&$+.....+$%&+.....o                                    ",
"                                oO@#+...+$%&+.....+$&%+.....+$&%$+.....+%&$+.....+$%&+....o                                     ",
"                                 o@#+...+$%&+.....+$&%+.....+$%&$+.....+%&%+.....+$%&+....o                                     ",
"                                 o@#+...+$%&+.....+$&%+.....+%%&$+....+$%&%+.....+$%&+...o                                      ",
"                                  o#+..+OO@&+.....+$&%+.....+%%&$+....+$%&%+.....+$%&$+..o                                      ",
"                                   o+..+OO@#%+....+$&%$+....+%%&$+....+$%&%+.....+$&%O+.o                                       ",
"                                    oo.+OO@#@+....+$&%$+...+$%%&$+....+$%&%+.....+$&@O+o                                        ",
"                                      o+OO@#@+....+$&%$+...+$%%&$$+...+$&%%+.....+O@@O+o                                        ",
"                                        oO@#@+...+$$%&$+...+$%%&$$+...+$&%%$+....+O@OOo                                         ",
"                                         o@#@+...+$$%&$+...+$%%&$$+...+$%&%$+....+@@Oo                                          ",
"                                          o#@+...+$$%$$+...+$%%&$$+...+$%&%O+....+Ooo                                           ",
"                                           oooo..+O$%$$+...+$%%&$$+...+$%@OO+....+o                                             ",
"                                               oo+OOOOO+...+$%%&$$+...+O@@OO+..oo                                               ",
"                                                 ooOOOO+...+O@@&$O+...+OO@OO+.o                                                 ",
"                                                   oOOO+...+O@@#OO+...+OOOOO+o                                                  ",
"                                                    ooO+...+OO@#OO+...ooooooo                                                   ",
"                                                      ooooooooOOOOoooo                                                          ",
"                                                              oooo                                                              ",
"                                                                                                                                ",
"                                                                                                                                ",
"                                                                                                                                ",
"                                                                                                                                ",
"                                                                                                                                ",
"                                                                                                                                ",
"                                                                                                                                ",
"                                                                                                                                ",
"                                                                                                                                ",
"                                                                                                                                ",
"                                                                                                                                ",
"                                                                                                                                ",
"                                                                                                                                ",
"                                                                                                                                ",
"                                                                                                                                ",
"                                                                                                                                ",
"                                                                                                                                ",
"                                                                                                                                ",
"                                                                                                                                ",
"                                                                                                                                ",
"                                                                                                                                ",
"                                                                                                                                ",
"                                                                                                                                ",
"                                                                                                                                ",
"                                                                                                                                ",
"                                                                                                                                ",
"                                                                                                                                ",
"                                                                                                                                ",
"                                                                                                                                ",
"                                                                                                                                ",
"                                                                                                                                ",
"                                                                                                                                ",
"                                                                                                                                ",
"                                                                                                                                ",
"                                                                                                                                ",
"                                                                                                                                "
};
