/* XPM */
static char *Protect1697129321[] = {
/* columns rows colors chars-per-pixel */
"192 96 21 1 ",
"  c None",
". c black",
"X c #21181B",
"o c #1B1F21",
"O c #14182E",
"+ c #3B2027",
"@ c #7D3833",
"# c #2B2B45",
"$ c #2C354D",
"% c #4F1D4C",
"& c #781D4F",
"* c #AB5130",
"= c #AD2F45",
"- c #8F4D57",
"; c #BD6A62",
": c #FF8933",
"> c #686F99",
", c #FFEE83",
"< c #A3A7C2",
"1 c #DFE0E8",
"2 c white",
/* pixels */
"                                                                                                                                                                                                ",
"                                                                                                                                                                                                ",
"                                                                                                                                                                                                ",
"                                                                                                                                                                                                ",
"                                                                                                                                                                                                ",
"                                                                                                                                                                                                ",
"                                                                                                                                                                                                ",
"                                                                                                                                                                                                ",
"                                                                                                                                                                                                ",
"                                                                                                                                                                                                ",
"                                                                                                                                                                                                ",
"                                                                                                                                                                                                ",
"                                                                                                                                                                                                ",
"                                                                                                                                                                                                ",
"                                                                                                                                                                                                ",
"                                                                                                                                                                                                ",
"                                                                                                                                                                                                ",
"                                                                                                                                                                                                ",
"                                                                                                                                                                                                ",
"                                                                                                                                                                                                ",
"                                                                                                                                                                                                ",
"                                                                                                                                                                                                ",
"                                                                                                                                                                                                ",
"                                                                                                                                                                                                ",
"                                                                                                                                                                                                ",
"                                                                                                                                                                                                ",
"                                                                                                                                                                                                ",
"                                                                                                                                                                                                ",
"                                                                                                                                                                                                ",
"                                                                                                                                                                                                ",
"                                                                                                                                                                                                ",
"                                                                                                                                                                                                ",
"                                                                                                                                                                                                ",
"                                                                                                                                                                                                ",
"                                                                                                                                                                                                ",
"                                                                                                                                                                                                ",
"                                                                                                                                                                                                ",
"                                                                                                                                                                                                ",
"                                                                                                                                                                                                ",
"                                                                                                                                                                                                ",
"                                                                                                                                                                                                ",
"                                                                                                                                                                                                ",
"                                                                                                                                                                                                ",
"                                                                                                                                                                                                ",
"                                                                                                                                                                                                ",
"                                                                                                                                                                                                ",
"                                                                                                                                                                                                ",
"                                                                                                                                                                                                ",
"                                                                                                                                                                                                ",
"                                           ......                                                                                         ......                                                ",
"                                         ..**,.>>..                                                                                     ..**,.>>..                                              ",
"                                        .##..*,.#>>.                                                                                   .##..*,.#>>.                                             ",
"                                       .#####.*,.##>.                                                                                 .#####.*,.##>.                                            ",
"                                      .#######.*.###>.                                                                               .#######.*.###>.                                           ",
"                                      .#######.*,.##>.                                                                               .#######.*,.##>.                                           ",
"                                     .#########.,.###>.                                                                             .#########.,.###>.                                          ",
"                                     .o########.*.###>.                                                                             .o########.*.###>.                                          ",
"                                     .oo#######.*.####>.                                                                            .oo#######.*.####>.                                         ",
"                                    .ooooo#####.*.###>>.                                                                           .ooooo#####.*.###>>.                                         ",
"                                    .oooooooooo.*.>>>>>.                                                                           .oooooooooo.*.>>>>>.                                         ",
"                                    ...........**:......                                                                           ...........**:......                                         ",
"                                    .*:::::::::**:::::,.                                                                           .*:::::::::**:::::,.                                         ",
"                                    .*::::.....**:...:,.                                                                           .*::::.....**:...:,.                                         ",
"                                    .**::.;;.XX.*.X........                                                                        .**::.;;.XX.*.X........                                      ",
"                                    .***:.;;;...*..********..                                                                      .***:.;;;...*..********..                                    ",
"                                    ....*:.;;.;..**::::::::**.                                                                     ....*:.;;.;..**::::::::**.                                   ",
"                                    .OOO.*:..;.**::********::*.                                                                    .OOO.*:..;.**::********::*.                                  ",
"                                    .O$OO.**:.*::************:*.                                                                   .O$OO.**:.*::************:*.                                 ",
"                                   .>O$$OO...*:***************:@                                                                  .>O$$OO...*:***************:@                                 ",
"                                 ..>$O$$OO.-.*:**************-@*.                                                               ..>$O$$OO.-.*:**************-@*.                                ",
"                                .==.$OO$$O..*:***************-@@.                                                              .==.$OO$$O..*:***************-@@.                                ",
"                                .=&.$OO$$OO.*:***************-@@+.                                                             .=&.$OO$$OO.*:***************-@@+.                               ",
"                                .=&%.$OO$$.*:****************-@@+.                                                             .=&%.$OO$$.*:****************-@@+.                               ",
"                               .=&&%.$$O$$.*:****************-@@+.                                                            .=&&%.$$O$$.*:****************-@@+.                               ",
"                               .=&%%%.$OO$.*:***************-@@@@+.                                                           .=&%%%.$OO$.*:***************-@@@@+.                              ",
"                              .==&%..&.$O.*:****************-@@@@+.                                                          .==&%..&.$O.*:****************-@@@@+.                              ",
"                              .=&%. .&=.$.*:****************-@@@@+.                                                          .=&%. .&=.$.*:****************-@@@@+.                              ",
"                             ..&%.  .&==..*:***************-@@@@@+.                                                         ..&%.  .&==..*:***************-@@@@@+.                              ",
"                             .+.%.  .%&==.*:**************--@@@@@+.                                                         .+.%.  .%&==.*:**************--@@@@@+.                              ",
"                         .  .+++.   .%&&=.*:**************-@@@@@@+.                                                     .  .+++.   .%&&=.*:**************-@@@@@@+.                              ",
"                        .>. .++.    .%%&&.*:************--@@@@@@@+.                                                    .>. .++.    .%%&&.*:************--@@@@@@@+.                              ",
"        .................>..++.      .....*:**********--@@@@@@@@@+.                                    .................>..++.      .....*:**********--@@@@@@@@@+.                              ",
"       .2222222222222222.>.+++...    .@@@.*:********---@@@@@@@@@@.                                    .2222222222222222.>.+++...    .@@@.*:********---@@@@@@@@@@.                               ",
"      .11111111111111111.>.++.---.   .@@@@.*:-------@@@@@@@@@@@@+.                                   .11111111111111111.>.++.---.   .@@@@.*:-------@@@@@@@@@@@@+.                               ",
"       .<<<<<<<<<<<<<<<<.>.++.....  .=.....@*@@@@@@@@@@@@@@@@@@@+.                                    .<<<<<<<<<<<<<<<<.>.++.....  .=.....@*@@@@@@@@@@@@@@@@@@@+.                               ",
"        .................>...       .==&&&.@*@@@@@@@@@@@@@@@@@@+.                                      .................>...       .==&&&.@*@@@@@@@@@@@@@@@@@@+.                                ",
"                        .>.         .======.@*@@@@@@@@@@@@@@@@@+.                                                      .>.         .======.@*@@@@@@@@@@@@@@@@@+.                                ",
"                         .          .======.+@*@@@@@@@@@@@@@@@+.                                                        .          .======.+@*@@@@@@@@@@@@@@@+.                                 ",
"                                    .&&&====.+*@@@@@@@@@@@@@@++.                                                                   .&&&====.+*@@@@@@@@@@@@@@++.                                 ",
"                                    ....&&&=.+@++@@@@@@@@@@+++.                                                                    ....&&&=.+@++@@@@@@@@@@+++.                                  ",
"                                    .@++..&&&.+@@++++++++++++.                                                                     .@++..&&&.+@@++++++++++++.                                   ",
"                                    .@++XX.....++@@@@@@@@@++.                                                                      .@++XX.....++@@@@@@@@@++.                                    ",
"                                    .@+XX.     ..+++++++++..                                                                       .@+XX.     ..+++++++++..                                     ",
"                                    .+XX.        .........                                                                         .+XX.        .........                                       ",
"                                    .+X.             .X+.                                                                           .+X.             .X+.                                       ",
"                                    ...               ..                                                                            ...               ..                                        "
};
