/* XPM */
static char *warrior_1_idle1697132826[] = {
/* columns rows colors chars-per-pixel */
"64 64 23 1 ",
"  c None",
". c black",
"X c #061214",
"o c #2A1023",
"O c #002E3C",
"+ c #48131D",
"@ c #471F30",
"# c #672C3B",
"$ c #222243",
"% c #2E3B60",
"& c #005551",
"* c #007F46",
"= c #A7322B",
"- c #FF7705",
"; c #E04F23",
": c #B94B57",
"> c #F16A62",
", c #FFB269",
"< c #FFEF76",
"1 c #006889",
"2 c #60719F",
"3 c #FFC4A1",
"4 c #A2ABC6",
/* pixels */
"                                                                ",
"                                                                ",
"                                                                ",
"                                                                ",
"                                                                ",
"                                                                ",
"                                                                ",
"                                                                ",
"                                                                ",
"                              .......                           ",
"                           ...<<<<<<<..                         ",
"                          .<<<,,,,,<,<<.                        ",
"                         .<,,,<,,,,,<,,<.                       ",
"                        .<,,,,,<,,,,<,,,<.                      ",
"                       .>>,,,,,<.....,,,<.                      ",
"                       ..:>>>...333%3..,,<.                     ",
"                      .<<..:.33%%%3%333.,<.                     ",
"                      .,,<<.3..%33%3333..<.                     ",
"                     .>,,,.3.>,..3%33..,,.<.                    ",
"                     .>,,,.3...,<.33.><...<.                    ",
"                     .:>,.33%3%...33...33.,.                    ",
"                      .>>.3%3.3%33>.333.3.,..                   ",
"                      .>:.>%3.3%33>.333.3.,.-.                  ",
"                      .:.>.3%3%333>.33333..;-.                  ",
"                       .>,.>333.......333.=;;-.                 ",
"                        .>,.>..,,,,<<<..3.==;--.                ",
"                    .....:>,.,,,,,,,,<<<..==;;-.                ",
"                   .3333.>>,,,,,,,,,,,<<<.+==;;-.               ",
"                   .33333.>,>,,,....,,,<<.+===;;-.              ",
"                  .333333.:>>,,,,>>,,,,<<.+====;-.              ",
"                  .333333.:>:,,,,,,,,,,<.=.+====;-.             ",
"                  .3333>33.:.>,>,,,,,,,<.=.+=====;.             ",
"                  .333>:33.:.:>>,,>,,,<.==.++==++.              ",
"                  .33..>333..:>.>,>,.,<.===..++..               ",
"                 .=.. .>33333.:.>>>,.<.===+. ..+.               ",
"                 .=+. .>>33333..:>>>..===+.. .+=.               ",
"                 .=+. .:>3333333.:>.===++.*. .+=.               ",
"             ... .;=. .3::>33......==++..&*. .=;.               ",
"            .===..;=.. ......=....==...OO&*. .=;.               ",
"             ...=.;=.=........2111..OOOOO&*. .=;.               ",
"                ..;=..=======.%221.OOOOOO&*. .=;.               ",
"                  ..  ........$%21.OOOOOO&*.  ..                ",
"                      .&OOOOO.$%21.OOOOOO&*.                    ",
"                      .&OOOOOO.%21.OOOOOO&*.                    ",
"                      .&OOOOOO.%2.XOOOOOO&*.                    ",
"                      .&OOOOOO.%2..XOOOOO&*.                    ",
"                      .&OOOOX.$%1. .XOOO&&*.                    ",
"                     .4..&O..$%21.  .XOO&**.                    ",
"                     .4%$..$$%221.   .O&....                    ",
"                      .4%$$%%22221.. .X.###.                    ",
"                      .4422222222211. .@###.                    ",
"                      ...44422222222.  .@#.                     ",
"                      .oo...44444444.  .oo.                     ",
"                      ...   ........    ..                      ",
"                                                                ",
"                                                                ",
"                                                                ",
"                                                                ",
"                                                                ",
"                                                                ",
"                                                                ",
"                                                                ",
"                                                                ",
"                                                                "
};
