/* XPM */
static char *playerx58[] = {
/* columns rows colors chars-per-pixel */
"58 58 214 2 ",
"   c #010101",
".  c #0C0505",
"X  c #080804",
"o  c #000B0C",
"O  c #0C090B",
"+  c #130605",
"@  c #1B0807",
"#  c #120D08",
"$  c #190808",
"%  c #1A160D",
"&  c #000D11",
"*  c #0A0E18",
"=  c #041418",
"-  c #18161B",
";  c #1C0C10",
":  c #230B0C",
">  c #2A0D0A",
",  c #25100F",
"<  c #3A110F",
"1  c #371409",
"2  c #250D19",
"3  c #360F13",
"4  c #281F19",
"5  c #231615",
"6  c #3A1415",
"7  c #032C19",
"8  c #282412",
"9  c #222010",
"0  c #34251B",
"q  c #001D26",
"w  c #0A1722",
"e  c #161726",
"r  c #1C1D38",
"t  c #3A1825",
"y  c #2E1C23",
"u  c #012429",
"i  c #003D23",
"p  c #012935",
"a  c #002E3C",
"s  c #002733",
"d  c #102A38",
"f  c #282730",
"g  c #44121B",
"h  c #431317",
"j  c #571919",
"k  c #471A0A",
"l  c #651E1A",
"z  c #492201",
"x  c #562802",
"c  c #403C1E",
"v  c #702812",
"b  c #73231E",
"n  c #64280B",
"m  c #531D20",
"M  c #631C21",
"N  c #552327",
"B  c #4B3727",
"V  c #583D24",
"C  c #502F2E",
"Z  c #6A2728",
"A  c #7D2521",
"S  c #762C26",
"D  c #662C37",
"F  c #793738",
"G  c #723030",
"H  c #5C4527",
"J  c #595229",
"K  c #565128",
"L  c #574439",
"P  c #604327",
"I  c #68592E",
"U  c #604A3D",
"Y  c #6A463C",
"T  c #7B4432",
"R  c #725532",
"E  c #6B6131",
"W  c #776E37",
"Q  c #023744",
"!  c #222745",
"~  c #2A3558",
"^  c #363D5A",
"/  c #004D4D",
"(  c #004747",
")  c #02465C",
"_  c #00514F",
"`  c #38434B",
"'  c #007944",
"]  c #007642",
"[  c #00634D",
"{  c #00556F",
"}  c #005E7C",
"|  c #004A62",
" . c #324363",
".. c #4A4D5E",
"X. c #695142",
"o. c #775848",
"O. c #664E40",
"+. c #7E614F",
"@. c #414E77",
"#. c #4E5069",
"$. c #646475",
"%. c #7B6C75",
"&. c #9A3618",
"*. c #852C1B",
"=. c #862824",
"-. c #962D28",
";. c #83383A",
":. c #A7322B",
">. c #AC342A",
",. c #B93B29",
"<. c #974703",
"1. c #8C463B",
"2. c #845B3C",
"3. c #976A3E",
"4. c #837A3D",
"5. c #8F643B",
"6. c #C95909",
"7. c #D85D0E",
"8. c #E5551E",
"9. c #F36711",
"0. c #CA4525",
"q. c #E35320",
"w. c #9C4540",
"e. c #875D4E",
"r. c #89555F",
"t. c #AB4B47",
"y. c #B25649",
"u. c #876949",
"i. c #9D6A41",
"p. c #876955",
"a. c #836452",
"s. c #916F5C",
"d. c #B7684B",
"f. c #AF7A48",
"g. c #AE7147",
"h. c #B4794A",
"j. c #9C7862",
"k. c #87757C",
"l. c #977B7D",
"z. c #A97E68",
"x. c #D65C5B",
"c. c #D85F58",
"v. c #C8555A",
"b. c #DD615A",
"n. c #E2615F",
"m. c #E06A5F",
"M. c #D6706C",
"N. c #F16C62",
"B. c #E77561",
"V. c #F47965",
"C. c #E76460",
"Z. c #978B45",
"A. c #8F8041",
"S. c #AE904D",
"D. c #B4A854",
"F. c #A7816A",
"G. c #AB836C",
"H. c #BA8A73",
"J. c #BE937B",
"K. c #AC8A7D",
"L. c #C38B53",
"P. c #DB995A",
"I. c #CDB15C",
"U. c #E7A15F",
"Y. c #C6987D",
"T. c #D8816F",
"R. c #F99366",
"E. c #FB9C67",
"W. c #F58575",
"Q. c #F28D64",
"!. c #DBB660",
"~. c #FCA568",
"^. c #F7AA66",
"/. c #FFB269",
"(. c #FFBD6C",
"). c #E7A861",
"_. c #FFCB6E",
"`. c #FFC26C",
"'. c #EFDF6E",
"]. c #E7D76B",
"[. c #FFD470",
"{. c #FFDA71",
"}. c #E4C065",
"|. c #FFE474",
" X c #FFEE76",
".X c #37678D",
"XX c #4E5A85",
"oX c #466D98",
"OX c #5A6C99",
"+X c #5A709E",
"@X c #50608B",
"#X c #646C86",
"$X c #60719F",
"%X c #6D789A",
"&X c #7382AA",
"*X c #978081",
"=X c #A88B86",
"-X c #AF9088",
";X c #949EBD",
":X c #8C95AF",
">X c #99A2BE",
",X c #CA9E87",
"<X c #EA9281",
"1X c #DFAC8D",
"2X c #D8AB95",
"3X c #CAA190",
"4X c #E5AE8F",
"5X c #E8B293",
"6X c #F6BD9B",
"7X c #FCB395",
"8X c #F6AF91",
"9X c #FFC4A1",
"0X c #9AA4C1",
"qX c None",
/* pixels */
"qXqXqXqXqXqXqXqXqXqXqXqXqXqXqXqXqXqXqXqXqXqXqXqXqXqXqXqXqXqXqXqXqXqXqXqXqXqXqXqXqXqXqXqXqXqXqXqXqXqXqXqXqXqXqXqXqXqX",
"qXqXqXqXqXqXqXqXqXqXqXqXqXqXqXqXqXqXqXqXqXqXqXqXqXqXqXqXqXqXqXqXqXqXqXqXqXqXqXqXqXqXqXqXqXqXqXqXqXqXqXqXqXqXqXqXqXqX",
"qXqXqXqXqXqXqXqXqXqXqXqXqXqXqXqXqXqXqXqXqXqXqXqXqXqXqXqXqXqXqXqXqXqXqXqXqXqXqXqXqXqXqXqXqXqXqXqXqXqXqXqXqXqXqXqXqXqX",
"qXqXqXqXqXqXqXqXqXqXqXqXqXqXqXqXqXqXqXqXqXqXqXqXqXqXqXqXqXqXqXqXqXqXqXqXqXqXqXqXqXqXqXqXqXqXqXqXqXqXqXqXqXqXqXqXqXqX",
"qXqXqXqXqXqXqXqXqXqXqXqXqXqXqXqXqXqXqXqXqXqXqXqXqXqXqXqXqXqXqXqXqXqXqXqXqXqXqXqXqXqXqXqXqXqXqXqXqXqXqXqXqXqXqXqXqXqX",
"qXqXqXqXqXqXqXqXqXqXqXqXqXqXqXqXqXqXqXqXqXqXqXqXqXqXqXqXqXqXqXqXqXqXqXqXqXqXqXqXqXqXqXqXqXqXqXqXqXqXqXqXqXqXqXqXqXqX",
"qXqXqXqXqXqXqXqXqXqXqXqXqXqXqXqXqXqXqXqXqXqXqXqXqXqXqXqXqXqXqXqXqXqXqXqXqXqXqXqXqXqXqXqXqXqXqXqXqXqXqXqXqXqXqXqXqXqX",
"qXqXqXqXqXqXqXqXqXqXqXqXqXqXqXqXqXqXqXqXqXqXqXqXqXqXqXqXqXqXqXqXqXqXqXqXqXqXqXqXqXqXqXqXqXqXqXqXqXqXqXqXqXqXqXqXqXqX",
"qXqXqXqXqXqXqXqXqXqXqXqXqXqXqXqXqXqXqXqXqXqXqXqXqXqXqX            qXqXqXqXqXqXqXqXqXqXqXqXqXqXqXqXqXqXqXqXqXqXqXqXqX",
"qXqXqXqXqXqXqXqXqXqXqXqXqXqXqXqXqXqXqXqXqXqXqXqXX X X I.'.'.'.'.'.4.X qXqXqXqXqXqXqXqXqXqXqXqXqXqXqXqXqXqXqXqXqXqXqX",
"qXqXqXqXqXqXqXqXqXqXqXqXqXqXqXqXqXqXqXqXqXqXqX% Z.|.|.`./././.`.{._. XE qXqXqXqXqXqXqXqXqXqXqXqXqXqXqXqXqXqXqXqXqXqX",
"qXqXqXqXqXqXqXqXqXqXqXqXqXqXqXqXqXqXqXqXqXqXqXA._././.{.`./././._._./._.E qXqXqXqXqXqXqXqXqXqXqXqXqXqXqXqXqXqXqXqXqX",
"qXqXqXqXqXqXqXqXqXqXqXqXqXqXqXqXqXqXqXqXqXqX2.(././././. Xf.f.f.S.!././. X8 qXqXqXqXqXqXqXqXqXqXqXqXqXqXqXqXqXqXqXqX",
"qXqXqXqXqXqXqXqXqXqXqXqXqXqXqXqXqXqXqXqXqX5 t.B.R.R.h.3.Z.O.X.C f o.3.P._.W qXqXqXqXqXqXqXqXqXqXqXqXqXqXqXqXqXqXqXqX",
"qXqXqXqXqXqXqXqXqXqXqXqXqXqXqXqXqXqXqXqX9 W R Z t.1.o.a.r *X-X3X%.Y.a.R U.|.# qXqXqXqXqXqXqXqXqXqXqXqXqXqXqXqXqXqXqX",
"qXqXqXqXqXqXqXqXqXqXqXqXqXqXqXqXqXqXqXqX8 _.!.Z.R e.+.U  .=X=Xk.3X9X9XL B ].# qXqXqXqXqXqXqXqXqXqXqXqXqXqXqXqXqXqXqX",
"qXqXqXqXqXqXqXqXqXqXqXqXqXqXqXqXqXqXqX+ y./.(.S.u.o.1.g.e U 2X$.9XG.B u.f.J S.  qXqXqXqXqXqXqXqXqXqXqXqXqXqXqXqXqXqX",
"qXqXqXqXqXqXqXqXqXqXqXqXqXqXqXqXqXqXqX+ N././.5.p.L , 0 L.D.C 4XH.T L.E 0 . ].  qXqXqXqXqXqXqXqXqXqXqXqXqXqXqXqXqXqX",
"qXqXqXqXqXqXqXqXqXqXqXqXqXqXqXqXqXqXqXO v.Q.f.o.6X%.K...4 % 0 9XF.X % F.4X5 ).  qXqXqXqXqXqXqXqXqXqXqXqXqXqXqXqXqXqX",
"qXqXqXqXqXqXqXqXqXqXqXqXqXqXqXqXqXqXqXqX5 N.w.X.*X-XB ,X .6X7Xy.L 6X6XL Y.4 U.  # qXqXqXqXqXqXqXqXqXqXqXqXqXqXqXqXqX",
"qXqXqXqXqXqXqXqXqXqXqXqXqXqXqXqXqXqXqXqX, x.G G r.=XL J.$.9X7Xt.L 9X9Xo.Y.4 L.1 6.  qXqXqXqXqXqXqXqXqXqXqXqXqXqXqXqX",
"qXqXqXqXqXqXqXqXqXqXqXqXqXqXqXqXqXqXqXqX$ F F 1.e.l.2X%.H.J.H.;.B J.4X9X9X4 > 8.6.1 qXqXqXqXqXqXqXqXqXqXqXqXqXqXqXqX",
"qXqXqXqXqXqXqXqXqXqXqXqXqXqXqXqXqXqXqXqXqX6 d.g.T T.Y.z.H V V H K K u.F.5X8 :.0.9.6.z qXqXqXqXqXqXqXqXqXqXqXqXqXqXqX",
"qXqXqXqXqXqXqXqXqXqXqXqXqXqXqXqXqXqXqXqXqX  m B.g.1.T P ^././.(.[.|.D.W p.; -.>.8.9.<.qXqXqXqXqXqXqXqXqXqXqXqXqXqXqX",
"qXqXqXqXqXqXqXqXqXqXqXqXqXqXqXqXqXqX+.p.p.O.N n.Q.h.P././././././.`.|. XS.# b :.0.q.6.x qXqXqXqXqXqXqXqXqXqXqXqXqXqX",
"qXqXqXqXqXqXqXqXqXqXqXqXqXqXqXqXqX  2X9X9X4Xe.w.R.R.~././.P P P 3./.(.|. X8 h :.>.0.q.6.x qXqXqXqXqXqXqXqXqXqXqXqXqX",
"qXqXqXqXqXqXqXqXqXqXqXqXqXqXqXqXqXj.6X9X9X9Xz.N m.N.E././.h.t.y.P././.{. X9 h :.:.>.0.9.n qXqXqXqXqXqXqXqXqXqXqXqXqX",
"qXqXqXqXqXqXqXqXqXqXqXqXqXqXqXqX  Y.9X9X9X9Xz.N x.x.U./././.~.~./././.{.E S # Z :.:.>.0.7.z qXqXqXqXqXqXqXqXqXqXqXqX",
"qXqXqXqXqXqXqXqXqXqXqXqXqXqXqXqX  Y.9X9X6XW.6Xp.D N y.~.V././././././.{.c =.. j :.:.:.>.0.k qXqXqXqXqXqXqXqXqXqXqXqX",
"qXqXqXqXqXqXqXqXqXqXqXqXqXqXqXqX  Y.9X4Xx.M.9Xj.D g ;.C.b./.~.V.^.^.[.J A :.$ g m -.A g $ qXqXqXqXqXqXqXqXqXqXqXqXqX",
"qXqXqXqXqXqXqXqXqXqXqXqXqXqXqXqX@ z.,X. 5 V.9X9Xs.0 F x.# N.E.V.i.R !.H =.:.-.  + 3 2 . qXqXqXqXqXqXqXqXqXqXqXqXqXqX",
"qXqXqXqXqXqXqXqXqXqXqXqXqXqXqX  b <   qX5 V.7X9X9X9X+.F + n.N.V.i.J I A :.-.3   qX  3 3 qXqXqXqXqXqXqXqXqXqXqXqXqXqX",
"qXqXqXqXqXqXqXqXqXqXqXqXqXqXqX  b j . qX, n.W.9X9X9X9X+.U F n.x.G < b -.=.3 7   qX$ b j qXqXqXqXqXqXqXqXqXqXqXqXqXqX",
"qXqXqXqXqXqXqXqXqXqXqXqXqXqXqX  *.=.+ qX5 M.M.<X7X9XF.p.p.. D S b -.A h > u '   qX: -.l qXqXqXqXqXqXqXqXqXqXqXqXqXqX",
"qXqXqXqXqXqXqXqXqXqXqX@ l j <   &.>.$   4 Y N N Y o.Z .     . A =.3 @ * q ( '   qX1 ,.v qXqXqXqXqXqXqXqXqXqXqXqXqXqX",
"qXqXqXqXqXqXqXqXqXqXqXqX< < j > &.,.+ l             > ` ) ) Q < 5 q q p a / '   qX3 ,.v qXqXqXqXqXqXqXqXqXqXqXqXqXqX",
"qXqXqXqXqXqXqXqXqXqXqXqXqXqX: + &.,.+ > *.b =.b A A : ~ oXoX{ o p Q a a a / '   qX1 ,.v qXqXqXqXqXqXqXqXqXqXqXqXqXqX",
"qXqXqXqXqXqXqXqXqXqXqXqXqXqXqXqX: @ qXqX$ @ @ @ @ @ . r  .+X{ & a a a a Q / '   qXqX: @ qXqXqXqXqXqXqXqXqXqXqXqXqXqX",
"qXqXqXqXqXqXqXqXqXqXqXqXqXqXqXqXqXqXqXqX& ( a a p p & r ~ +X{ & a a a a p / '   qXqXqXqXqXqXqXqXqXqXqXqXqXqXqXqXqXqX",
"qXqXqXqXqXqXqXqXqXqXqXqXqXqXqXqXqXqXqXqXo / a a a a a o ~ +X| & a a a a a / '   qXqXqXqXqXqXqXqXqXqXqXqXqXqXqXqXqXqX",
"qXqXqXqXqXqXqXqXqXqXqXqXqXqXqXqXqXqXqXqX& / a a a a a o ~ @X  = a a a a Q _ '   qXqXqXqXqXqXqXqXqXqXqXqXqXqXqXqXqXqX",
"qXqXqXqXqXqXqXqXqXqXqXqXqXqXqXqXqXqXqXqXo / a a a p q * ~ .X  o = p a a Q _ '   qXqXqXqXqXqXqXqXqXqXqXqXqXqXqXqXqXqX",
"qXqXqXqXqXqXqXqXqXqXqXqXqXqXqXqXqXqXqXqX` p s a s * * ! @.}   qXX = p a ( [ '   qXqXqXqXqXqXqXqXqXqXqXqXqXqXqXqXqXqX",
"qXqXqXqXqXqXqXqXqXqXqXqXqXqXqXqXqXqXqXO :Xe w u w w ! @.$X}   qXqXo q Q s i i   qXqXqXqXqXqXqXqXqXqXqXqXqXqXqXqXqXqX",
"qXqXqXqXqXqXqXqXqXqXqXqXqXqXqXqXqXqXqXqX..#X! e r ~ @.OX$X.XQ   qXqX& u y t t   qXqXqXqXqXqXqXqXqXqXqXqXqXqXqXqXqXqX",
"qXqXqXqXqXqXqXqXqXqXqXqXqXqXqXqXqXqXqXqXe ;X%XXX@X@XOX$X$X$X.X| Q     2 C D D   qXqXqXqXqXqXqXqXqXqXqXqXqXqXqXqXqXqX",
"qXqXqXqXqXqXqXqXqXqXqXqXqXqXqXqXqXqXqXqXX f ..0X0X%X$X$X$X$X+XoX .  qXO t D ; qXqXqXqXqXqXqXqXqXqXqXqXqXqXqXqXqXqXqX",
"qXqXqXqXqXqXqXqXqXqXqXqXqXqXqXqXqXqXqXqX  2 2 - - #X0X0X0X0X0X0X$.  qX  2 t   qXqXqXqXqXqXqXqXqXqXqXqXqXqXqXqXqXqXqX",
"qXqXqXqXqXqXqXqXqXqXqXqXqXqXqXqXqXqXqXqX      qXqXX X X o . X X X qXqXqX    qXqXqXqXqXqXqXqXqXqXqXqXqXqXqXqXqXqXqXqX",
"qXqXqXqXqXqXqXqXqXqXqXqXqXqXqXqXqXqXqXqXqXqXqXqXqXqXqXqXqXqXqXqXqXqXqXqXqXqXqXqXqXqXqXqXqXqXqXqXqXqXqXqXqXqXqXqXqXqX",
"qXqXqXqXqXqXqXqXqXqXqXqXqXqXqXqXqXqXqXqXqXqXqXqXqXqXqXqXqXqXqXqXqXqXqXqXqXqXqXqXqXqXqXqXqXqXqXqXqXqXqXqXqXqXqXqXqXqX",
"qXqXqXqXqXqXqXqXqXqXqXqXqXqXqXqXqXqXqXqXqXqXqXqXqXqXqXqXqXqXqXqXqXqXqXqXqXqXqXqXqXqXqXqXqXqXqXqXqXqXqXqXqXqXqXqXqXqX",
"qXqXqXqXqXqXqXqXqXqXqXqXqXqXqXqXqXqXqXqXqXqXqXqXqXqXqXqXqXqXqXqXqXqXqXqXqXqXqXqXqXqXqXqXqXqXqXqXqXqXqXqXqXqXqXqXqXqX",
"qXqXqXqXqXqXqXqXqXqXqXqXqXqXqXqXqXqXqXqXqXqXqXqXqXqXqXqXqXqXqXqXqXqXqXqXqXqXqXqXqXqXqXqXqXqXqXqXqXqXqXqXqXqXqXqXqXqX",
"qXqXqXqXqXqXqXqXqXqXqXqXqXqXqXqXqXqXqXqXqXqXqXqXqXqXqXqXqXqXqXqXqXqXqXqXqXqXqXqXqXqXqXqXqXqXqXqXqXqXqXqXqXqXqXqXqXqX",
"qXqXqXqXqXqXqXqXqXqXqXqXqXqXqXqXqXqXqXqXqXqXqXqXqXqXqXqXqXqXqXqXqXqXqXqXqXqXqXqXqXqXqXqXqXqXqXqXqXqXqXqXqXqXqXqXqXqX",
"qXqXqXqXqXqXqXqXqXqXqXqXqXqXqXqXqXqXqXqXqXqXqXqXqXqXqXqXqXqXqXqXqXqXqXqXqXqXqXqXqXqXqXqXqXqXqXqXqXqXqXqXqXqXqXqXqXqX",
"qXqXqXqXqXqXqXqXqXqXqXqXqXqXqXqXqXqXqXqXqXqXqXqXqXqXqXqXqXqXqXqXqXqXqXqXqXqXqXqXqXqXqXqXqXqXqXqXqXqXqXqXqXqXqXqXqXqX"
};
