/* XPM */
static char *playerx16[] = {
/* columns rows colors chars-per-pixel */
"16 16 69 1 ",
"  c #071013",
". c #320F0D",
"X c #2F1916",
"o c #211B19",
"O c #35171F",
"+ c #371E23",
"@ c #05372A",
"# c #012833",
"$ c #002B36",
"% c #002E3C",
"& c #122F31",
"* c #102835",
"= c #16273B",
"- c #2A2429",
"; c #3A2225",
": c #202638",
"> c #431316",
", c #611D1B",
"< c #712419",
"1 c #76261A",
"2 c #5C2F21",
"3 c #5C332C",
"4 c #793434",
"5 c #004135",
"6 c #004837",
"7 c #65493D",
"8 c #75483F",
"9 c #6D5E31",
"0 c #7F5832",
"q c #7E573E",
"w c #184259",
"e c #3B404D",
"r c #305677",
"t c #604E48",
"y c #715748",
"u c #49506C",
"i c #8A390D",
"p c #B2372A",
"a c #BA4B13",
"s c #814030",
"d c #96633F",
"f c #804741",
"g c #894E45",
"h c #8E5C53",
"j c #A65944",
"k c #9F765B",
"l c #BE7D4E",
"z c #B06A5C",
"x c #816C6A",
"c c #AD7663",
"v c #C47C53",
"b c #998344",
"n c #AA904B",
"m c #AB8251",
"M c #BF8950",
"N c #B28159",
"B c #BE8459",
"V c #BFA25B",
"C c #9E8376",
"Z c #AF876F",
"A c #CE9857",
"S c #CF9D5B",
"D c #E78E60",
"F c #F38364",
"G c #FFC16C",
"H c #566591",
"J c #DA9E84",
"K c #FEBE9D",
"L c None",
/* pixels */
"LLLLLLLLLLLLLLLL",
"LLLLLLLLLLLLLLLL",
"LLLLLLLbnLLLLLLL",
"LLLLLLvANSLLLLLL",
"LLLLLdm7Ck9LLLLL",
"LLLLL4hxcZqLLLLL",
"LLLLLyjBMVsaLLLL",
"LLLLLKzDlG2piLLL",
"LLLL3gJfF0,>LLLL",
"LLL.<X8t;+@1LLLL",
"LLLLLo-:w%5LLLLL",
"LLLLL&$=*#6LLLLL",
"LLLLLeuHr OLLLLL",
"LLLLLLLLLLLLLLLL",
"LLLLLLLLLLLLLLLL",
"LLLLLLLLLLLLLLLL"
};
