/* XPM */
static char *playerx24[] = {
/* columns rows colors chars-per-pixel */
"24 24 149 2 ",
"   c #020D08",
".  c #140508",
"X  c #00190E",
"o  c #120E13",
"O  c #021115",
"+  c #001D10",
"@  c #08191D",
"#  c #3C130E",
"$  c #2E0D10",
"%  c #321516",
"&  c #391012",
"*  c #3F1310",
"=  c #381A17",
"-  c #371A1B",
";  c #321D18",
":  c #3F1E1F",
">  c #3A3019",
",  c #021A23",
"<  c #0B1B23",
"1  c #331521",
"2  c #002B29",
"3  c #10222B",
"4  c #1D232E",
"5  c #012834",
"6  c #002835",
"7  c #002D37",
"8  c #012B38",
"9  c #002D3B",
"0  c #002E3C",
"q  c #132234",
"w  c #1B3438",
"e  c #3E2620",
"r  c #3F2A23",
"t  c #461511",
"y  c #491518",
"u  c #411C1C",
"i  c #541C11",
"p  c #581E10",
"a  c #591A19",
"s  c #5D2B02",
"d  c #4B2619",
"f  c #7F3C0F",
"g  c #662017",
"h  c #401C25",
"j  c #6E2F2F",
"k  c #7A2423",
"l  c #762822",
"z  c #7C352C",
"x  c #6F3533",
"c  c #793A36",
"v  c #5A542A",
"b  c #69542E",
"n  c #605A2D",
"m  c #6F463F",
"M  c #644B3F",
"N  c #714438",
"B  c #66602F",
"V  c #7C613F",
"C  c #0B3142",
"Z  c #272E4A",
"A  c #27314E",
"S  c #313752",
"D  c #004D41",
"F  c #005146",
"G  c #254057",
"H  c #3A485B",
"J  c #00624B",
"K  c #374065",
"L  c #23506E",
"P  c #24516F",
"I  c #40404F",
"U  c #755042",
"Y  c #7E5F42",
"T  c #705651",
"R  c #505668",
"E  c #9C3D12",
"W  c #93301D",
"Q  c #912B26",
"!  c #A33229",
"~  c #AC352A",
"^  c #8D4005",
"/  c #92693E",
"(  c #D24E1D",
")  c #CE4823",
"_  c #9A4242",
"`  c #964944",
"'  c #955148",
"]  c #805F50",
"[  c #A14545",
"{  c #A05542",
"}  c #AA5647",
"|  c #B1514C",
" . c #81674B",
".. c #87654D",
"X. c #82684C",
"o. c #9E6A41",
"O. c #9F6F42",
"+. c #977840",
"@. c #937C41",
"#. c #9F7E45",
"$. c #9F734F",
"%. c #8F6D55",
"&. c #9E6F5D",
"*. c #9F7657",
"=. c #92715C",
"-. c #97705D",
";. c #A7644F",
":. c #B4654C",
">. c #AF794F",
",. c #886C62",
"<. c #89726F",
"1. c #8C7675",
"2. c #907472",
"3. c #A07161",
"4. c #A67D67",
"5. c #9F8546",
"6. c #9C8846",
"7. c #9F8956",
"8. c #B3944F",
"9. c #C18150",
"0. c #C38850",
"q. c #CF9055",
"w. c #C4A156",
"e. c #D7AD5D",
"r. c #C3967B",
"t. c #ED8F61",
"y. c #F78865",
"u. c #EE9262",
"i. c #FCA167",
"p. c #FDA768",
"a. c #FFB069",
"s. c #FFB269",
"d. c #FFBA6B",
"f. c #F7C36B",
"g. c #FFC96E",
"h. c #FBCD6E",
"j. c #FFD671",
"k. c #5B6C99",
"l. c #616A84",
"z. c #6A7899",
"x. c #6D799A",
"c. c #F49D86",
"v. c #C9A08E",
"b. c #DFAC8D",
"n. c #FCAE91",
"m. c #E7B292",
"M. c #FDB798",
"N. c #F7BC9B",
"B. c None",
/* pixels */
"B.B.B.B.B.B.B.B.B.B.B.B.B.B.B.B.B.B.B.B.B.B.B.B.",
"B.B.B.B.B.B.B.B.B.B.B.B.B.B.B.B.B.B.B.B.B.B.B.B.",
"B.B.B.B.B.B.B.B.B.B.B.B.B.B.B.B.B.B.B.B.B.B.B.B.",
"B.B.B.B.B.B.B.B.B.B.B.v B n B.B.B.B.B.B.B.B.B.B.",
"B.B.B.B.B.B.B.B.B.B.e.f.d.h.w.B.B.B.B.B.B.B.B.B.",
"B.B.B.B.B.B.B.B.B.:.u.#.*.X.0.6.B.B.B.B.B.B.B.B.",
"B.B.B.B.B.B.B.B./ 8.U T 1.v.%.@.B.B.B.B.B.B.B.B.",
"B.B.B.B.B.B.B.B.} >.,.M  .-.Y V > B.B.B.B.B.B.B.",
"B.B.B.B.B.B.B.B.j c 2.<.n.&.r...f B.B.B.B.B.B.B.",
"B.B.B.B.B.B.B.B.B.{ ;.$.O.5.7.N ) ^ B.B.B.B.B.B.",
"B.B.B.B.B.B.B.=.b.' t.s.o.q.j.b ! ( s B.B.B.B.B.",
"B.B.B.B.B.B.B.b.M.3.| i.p.s.g.d k ~ E B.B.B.B.B.",
"B.B.B.B.B.B.B.4.` b.U _ y.9.+.Q $ y . B.B.B.B.B.",
"B.B.B.B.B.B.t & x c.N.] [ z l e   a B.B.B.B.B.B.",
"B.B.B.B.B.* p g ; % r 4 3 u < D X W B.B.B.B.B.B.",
"B.B.B.B.B.B.B.# = h - Z P 6 9 F + i B.B.B.B.B.B.",
"B.B.B.B.B.B.B.B.2 9 9 q G 5 9 F B.B.B.B.B.B.B.B.",
"B.B.B.B.B.B.B.B.w 7 , A C O 8 J B.B.B.B.B.B.B.B.",
"B.B.B.B.B.B.B.B.R S K k.L B.@ h B.B.B.B.B.B.B.B.",
"B.B.B.B.B.B.B.B.o I l.x.z.H B.1 B.B.B.B.B.B.B.B.",
"B.B.B.B.B.B.B.B.B.B.B.B.B.B.B.B.B.B.B.B.B.B.B.B.",
"B.B.B.B.B.B.B.B.B.B.B.B.B.B.B.B.B.B.B.B.B.B.B.B.",
"B.B.B.B.B.B.B.B.B.B.B.B.B.B.B.B.B.B.B.B.B.B.B.B.",
"B.B.B.B.B.B.B.B.B.B.B.B.B.B.B.B.B.B.B.B.B.B.B.B."
};
