/* XPM */
static char *hole21697129307[] = {
/* columns rows colors chars-per-pixel */
"64 64 9 1 ",
"  c None",
". c #14120C",
"X c #1E1B12",
"o c #28281C",
"O c #343124",
"+ c #46412F",
"@ c #6A6349",
"# c #968D69",
"$ c #D6C88E",
/* pixels */
"                                                                ",
"                                                                ",
"                                                                ",
"                                                                ",
"                                                                ",
"                                                                ",
"                                                                ",
"                                                                ",
"                                                                ",
"                                                                ",
"                                   ooo                          ",
"                                ooo#++o                         ",
"                               o####@+Oo                        ",
"                            oooo#$##@+Oo                        ",
"                           o##+o#$#@@@OOo                       ",
"                          o$##+oO$#@@@+Oo                       ",
"                         o$#@++oO$#@@@@Oo                       ",
"                         o#@@++oO$#@@@@OOo                      ",
"                        o$@@+++oO$#@@@@+Oo                      ",
"                        o#@@+++o#$#@@@@+OOo                     ",
"                       o#@@+++Oo###@@@@++Oo                     ",
"                       o#@@+++o.o##@@@@++Oo                     ",
"                      o++@+++Oo.o+##@@+++OOo                    ",
"                      o+++++Oo..o++#++++OOo                     ",
"                     oOo++OOo....o++++++OOo                     ",
"                    o$#oOOOo.....o+++++OOo+o                    ",
"                   o#$@oOOo.......ooOOOOOo+o                    ",
"                   o$#@oOo.........XoOOOo#+o                    ",
"                   o$#@oOo.........XXoOo#@++o                   ",
"                  o#$#@+o.........XXXXo$#@++o                   ",
"                  o$##@+o.........XXXXo$#@+Oo                   ",
"                  o$#@#+o.........XXXXo$#@+Oo                   ",
"                  o$#@@+o.........XXXXo$@@+Oo                   ",
"                  o$@@++o........XXXXXo#@++Oo                   ",
"                  o$@@+Oo........XXXXXo#@++Oo                   ",
"                  o#@++Oo........XXXXXo@++Oo                    ",
"                   o@+Oo$o.......XXXXXo++OOo                    ",
"                   o++Oo$o.......XXXXXo+OOOo                    ",
"                    oOOo#$o......XXXXXoOOoo                     ",
"                    oOo##$o......XXXXXoOo+o                     ",
"                     o+@##o......XXXXXoo#+o                     ",
"                     o+@@##o.....XXXXXo#@+o                     ",
"                     o++@@##oo...XXXXo$#@+o                     ",
"                     oO++@@@##oo.XXXXo#@++o                     ",
"                      oO+@@@@@##oXXXo##@+Oo                     ",
"                      oO++@@@@@++oXo##@++Oo                     ",
"                       oO++@@@+++Oo#@@@+OOo                     ",
"                        oOO++++++Oo@@@+OOo                      ",
"                         oOO+++OOOo@@++Oo                       ",
"                          oOOOOOOOo++OOOo                       ",
"                           oOOOOOOoOOOOo                        ",
"                            ooOOOOooooo                         ",
"                              oooo                              ",
"                                                                ",
"                                                                ",
"                                                                ",
"                                                                ",
"                                                                ",
"                                                                ",
"                                                                ",
"                                                                ",
"                                                                ",
"                                                                ",
"                                                                "
};
