/* XPM */
static char *lava_drop1_61697129308[] = {
/* columns rows colors chars-per-pixel */
"64 64 6 1 ",
"  c None",
". c #CB1C02",
"X c #F43308",
"o c #FB5203",
"O c #F2AE0D",
"+ c #ECF438",
/* pixels */
"                                                                ",
"                                                                ",
"                                                                ",
"                                                                ",
"                                                                ",
"                                                                ",
"                                                                ",
"                                                                ",
"                                                                ",
"                                                                ",
"                                                                ",
"                                                                ",
"                                                                ",
"                                                                ",
"                                                                ",
"                                                                ",
"                                                                ",
"                                                                ",
"                                                                ",
"                                                                ",
"                                                                ",
"                                                                ",
"                                                                ",
"                                                                ",
"                                                                ",
"                            +++++                               ",
"                           +ooOoo+                              ",
"                          +oooOooo+                             ",
"                         +ooXooOooo+                            ",
"                         +oXXXoOoo+o+                           ",
"                       ++ooX..ooOoooo+                          ",
"                      +ooo....ooOOOOo++++                       ",
"                     +ooXX.+.XoOooooOoooo+                      ",
"                     +oXXX..oooOoXXooOooo+                      ",
"                     +oooooooOOooX+XoOoo+                       ",
"                      +ooOOOOoooX.XXooO+                        ",
"                       ++oooooooooooo++                         ",
"                         ++++++++++++                           ",
"                                                                ",
"                                                                ",
"                                                                ",
"                                                                ",
"                                                                ",
"                                                                ",
"                                                                ",
"                                                                ",
"                                                                ",
"                                                                ",
"                                                                ",
"                                                                ",
"                                                                ",
"                                                                ",
"                                                                ",
"                                                                ",
"                                                                ",
"                                                                ",
"                                                                ",
"                                                                ",
"                                                                ",
"                                                                ",
"                                                                ",
"                                                                ",
"                                                                ",
"                                                                "
};
