/* XPM */
static char *lava_drop1_21697129308[] = {
/* columns rows colors chars-per-pixel */
"128 128 6 1 ",
"  c None",
". c #CB1C02",
"X c #F43308",
"o c #FB5203",
"O c #F2AE0D",
"+ c #ECF438",
/* pixels */
"                                                                                                                                ",
"                                                                                                                                ",
"                                                                                                                                ",
"                                                                                                                                ",
"                                                                                                                                ",
"                                                                                                                                ",
"                                                                                                                                ",
"                                                                                                                                ",
"                                                                                                                                ",
"                                                                                                                                ",
"                                                                                                                                ",
"                                                                                                                                ",
"                                                                                                                                ",
"                                                                                                                                ",
"                                                                                                                                ",
"                                                                                                                                ",
"                                                                                                                                ",
"                                                                                                                                ",
"                                                                                                                                ",
"                                                                                                                                ",
"                                                                                                                                ",
"                                                                                                                                ",
"                                                                                   OO                                           ",
"                                          OO                                      OooO                                          ",
"                                         OooO                           OOOOO    OooooO                                         ",
"                                        OooooO     OOO        OO       OoooooO OOooX.oO+                                        ",
"                                       +ooXXoO    OoooO      OooO     OooXXXooOoooX.Xoo+                                        ",
"                                        +oXXooOOOOooXooO     OooO     OoXXXXXoOoXX..Xoo+                                        ",
"                                        +oXXXoooOooXXXooOO   OooO     OoXXXXXoOoXX.+oo+                                         ",
"                                        +oXXXXXoOoXXX..oooOOOooooOO OOooX.X+ooOoX...o+                                          ",
"                                        +ooX.XXoOoXX...XXoOoooXXoooOoooX..XXoOooX..Xo+                                          ",
"                                         +o...XoOoXX.+..XooOoXX..XoOoXXX..XooOOoX.Xoo+                                          ",
"                                         +oX...oOoXX.....XoOoXX..XoOoXX...XoOoOooXXo+                                           ",
"                                         +oX...oOooXX....XoOoo...XoOoX+...ooOooOoooo+                                           ",
"                                         +oo+..ooOooX....XooOo..+XoOoX...ooOooooOoo+                                            ",
"                                          +oo...ooOooo....XoOoX...oOoX..ooOooXXoOo+                                             ",
"                                           +o....ooOOoo...XoOoX...oOoX..oOooXXXoO+                                              ",
"                                           +ooo...oooOoo..XoOoXX..oOo...oOoX.Xoo+                                               ",
"                                            ++ooo.XXooOooXooOooXXXoOo...oOo+.Xo+                                                ",
"                                              ++o.XooOoOoooOOOoooooOo..XoOo..oo+                                                ",
"                                               +ooXoOoooOoOoooOOooOoo.+XoOo..o+                                                 ",
"                                                +oooOoXoOOooXoooOOooX..ooOo.Xo+                                                 ",
"                                                +ooOooXooOoXXXXoOooXX.XoOooXXo+                                                 ",
"                                                +ooOoXXoOooX..XoOooXXXXoOo+XXo+                                                 ",
"                                                +ooOoXXoOoXX.+.ooOo+XXXoOOoooo+                                                 ",
"                                                +ooOoXXoOoXXX..XoOoooXXoOoOoo+                                                  ",
"                                                 +Ooo.XoOoXooooXooOOooooOooOo+                                                  ",
"                                                  +oo.+oOoooOOooXoooOOoOoooOo+                                                  ",
"                                                   +oX.ooOOOooOooXXoooOooXoo+                                                   ",
"                                                   +oo.XooOooooOoooooOoo.oo+                                                    ",
"                                                    +o..XooOoooOoOOOOOoX.o+                                                     ",
"                                                    +oo..XooOoooOooooOo+.o+                                                     ",
"                                                     +o..XXooOooOooXoOooXo+                                                     ",
"                                                     +oo.+XXoOoooOoXooOoXo+                                                     ",
"                                                      +o..XXoOoXoOoo+oOooo+                                                     ",
"                                                      +ooXXXoOoXooOoXoOoo+                                                      ",
"                                                       +ooXXoOoXXoOoooOoo+                                                      ",
"                                                        +oXXoOoXXooOooOoo+                                                      ",
"                                                        +ooXoOo..XooOooO+                                                       ",
"                                                         +oXoOo...XoOooo+                                                       ",
"                                                         +oooOoX..XooOoo+                                                       ",
"                                                          +ooOoo+.XXoOo+                                                        ",
"                                                          +oooOoX.XXoO+                                                         ",
"                                                           +ooOooXXXo+                                                          ",
"                                                           +oooOoXXoo+                                                          ",
"                                                            +ooOoooo+                                                           ",
"                                                            +oooOoo+                                                            ",
"                                                             +ooOoo+                                                            ",
"                                                             +ooOoo+                                                            ",
"                                                             +ooOooo+                                                           ",
"                                                            +ooOooXo+                                                           ",
"                                                            +ooOoXXoo+                                                          ",
"                                                           +oooOooXXo+                                                          ",
"                                                           +ooOoOo.Xo+                                                          ",
"                                                          +ooOooOo..o+                                                          ",
"                                                          +ooOooOo+.o+                                                          ",
"                                                          +oOooooOo.o+                                                          ",
"                                                          +OooXXoOooo+                                                          ",
"                                                           +oXXXooOoo+                                                          ",
"                                                           +oo+..oOo+                                                           ",
"                                                            +ooXXoO+                                                            ",
"                                                             +oooo+                                                             ",
"                                                              ++++                                                              ",
"                                                                                                                                ",
"                                                                                                                                ",
"                                                                                                                                ",
"                                                                                                                                ",
"                                                                                                                                ",
"                                                                                                                                ",
"                                                                                                                                ",
"                                                                                                                                ",
"                                                                                                                                ",
"                                                                                                                                ",
"                                                                                                                                ",
"                                                                                                                                ",
"                                                                                                                                ",
"                                                                                                                                ",
"                                                                                                                                ",
"                                                                                                                                ",
"                                                                                                                                ",
"                                                                                                                                ",
"                                                                                                                                ",
"                                                                                                                                ",
"                                                                                                                                ",
"                                                                                                                                ",
"                                                                                                                                ",
"                                                                                                                                ",
"                                                                                                                                ",
"                                                                                                                                ",
"                                                                                                                                ",
"                                                                                                                                ",
"                                                                                                                                ",
"                                                                                                                                ",
"                                                                                                                                ",
"                                                                                                                                ",
"                                                                                                                                ",
"                                                                                                                                ",
"                                                                                                                                ",
"                                                                                                                                ",
"                                                                                                                                ",
"                                                                                                                                ",
"                                                                                                                                ",
"                                                                                                                                ",
"                                                                                                                                ",
"                                                                                                                                ",
"                                                                                                                                ",
"                                                                                                                                ",
"                                                                                                                                "
};
