/* XPM */
static char *lava_drop2_51697129309[] = {
/* columns rows colors chars-per-pixel */
"32 32 6 1 ",
"  c None",
". c #CB1C02",
"X c #F43308",
"o c #FB5203",
"O c #F2AE0D",
"+ c #ECF438",
/* pixels */
"                                ",
"                                ",
"                                ",
"                                ",
"                                ",
"                                ",
"               +                ",
"               +                ",
"              +o+               ",
"              +oo+              ",
"             +ooo+              ",
"             +ooo+              ",
"            +oooOo+             ",
"            +oXoOo+             ",
"            +oXoOo+             ",
"           +oo+oOoo+            ",
"           +oXoOooo+            ",
"           +oooOoXo+            ",
"           +ooOooXo+            ",
"           +ooOoX.o+            ",
"           +OOoo+.o+            ",
"           +oooX.oo+            ",
"           +ooX.oo+             ",
"            +oooo+              ",
"             ++++               ",
"                                ",
"                                ",
"                                ",
"                                ",
"                                ",
"                                ",
"                                "
};
