/* XPM */
static char *lava_drop2_21697129309[] = {
/* columns rows colors chars-per-pixel */
"64 64 6 1 ",
"  c None",
". c #CB1C02",
"X c #F43308",
"o c #FB5203",
"O c #F2AE0D",
"+ c #ECF438",
/* pixels */
"                                                                ",
"                                                                ",
"                      OOO                                       ",
"                     +oooO                                      ",
"                     +oXooOO   OO     OOO                       ",
"                     +oXXoooOOOooO   OoooO                      ",
"                     +oXXXXooOooooO  OoXo+                      ",
"                     +oo..XXoOoXXooOOoo+o+                      ",
"                      +oo.+.oOoXXXooOo.oo+                      ",
"                       +o..XoO+XX.XoOoXo+                       ",
"                       +oo.XoOoX..XoOooo+                       ",
"                        +ooooOooX.XoOoo+                        ",
"                         +ooOoOo..XoOoo+                        ",
"                         +ooOoOo..ooOoo+                        ",
"                          +OooOoX+oOoOo+                        ",
"                          +oooOooXoOoOo+                        ",
"                          +ooooOoooOoo+                         ",
"                           +oXoOooOooo+                         ",
"                           +oXoOooOoXo+                         ",
"                           +o+ooOOo+oo+                         ",
"                           +ooXoOOoXo+                          ",
"                            +oXoOoooo+                          ",
"                            +oooOooo+                           ",
"                             +oooOoo+                           ",
"                             +oooOo+                            ",
"                              +ooOo+                            ",
"                              +ooO+                             ",
"                              +ooO+                             ",
"                              +ooO+                             ",
"                             +oooO+                             ",
"                             +ooOo+                             ",
"                             +ooOo+                             ",
"                             +ooOo+                             ",
"                            +ooOoo+                             ",
"                            +ooOoo+                             ",
"                            +OOooo+                             ",
"                            +oo+Xo+                             ",
"                             +oooo+                             ",
"                              +oo+                              ",
"                               ++                               ",
"                                                                ",
"                                                                ",
"                                                                ",
"                                                                ",
"                                                                ",
"                                                                ",
"                                                                ",
"                                                                ",
"                                                                ",
"                                                                ",
"                                                                ",
"                                                                ",
"                                                                ",
"                                                                ",
"                                                                ",
"                                                                ",
"                                                                ",
"                                                                ",
"                                                                ",
"                                                                ",
"                                                                ",
"                                                                ",
"                                                                ",
"                                                                "
};
