/* XPM */
static char *lava_drop1_31697129308[] = {
/* columns rows colors chars-per-pixel */
"128 128 6 1 ",
"  c None",
". c #CB1C02",
"X c #F43308",
"o c #FB5203",
"O c #F2AE0D",
"+ c #ECF438",
/* pixels */
"                                                                                                                                ",
"                                                                                                                                ",
"                                                                                                                                ",
"                                                                                                                                ",
"                                                                                                                                ",
"                                                                                                                                ",
"                                                                                                                                ",
"                                                                                                                                ",
"                                                                                                                                ",
"                                                                                                                                ",
"                                                                                                                                ",
"                                                                                                                                ",
"                                                                                                                                ",
"                                                                                                                                ",
"                                                                                                                                ",
"                                                                                                                                ",
"                                                                                                                                ",
"                                                                                                                                ",
"                                                                                                                                ",
"                                                                                                                                ",
"                                                                                                                                ",
"                                                                                                                                ",
"                                                                                   OO                                           ",
"                                          OO                                      OooO                                          ",
"                                         OooO                           OOOOO    OooooO                                         ",
"                                        OooooO     OOO        OO       OoooooO OOooXXoO+                                        ",
"                                       +ooXXoO    OoooO      OooO     OooXXooOOoooXXXoo+                                        ",
"                                        +oXXooOOOOooXooO     OooO     OoXXXoOoOooXX..Xo+                                        ",
"                                        +ooXXooooOoXXXooOO   OooO     OoX.ooOoOOoX...oo+                                        ",
"                                         +oXXXXXoOooXXXoooOOOooooOO OOoo+.oOoooOoX+.Xo+                                         ",
"                                         +ooX.+XooOoooXXXoooOoXXoooOoooX.ooOoXoOoooXoo+                                         ",
"                                          +oXX.XXooOOoo..XXoOoXXXoOooXX.ooOooXooOOooo+                                          ",
"                                          +ooX...XoooOoo..XoOoX.XoOoXX.ooOooXXXoooOo+                                           ",
"                                           +oX....XXooOo..XoOoX.XoOoX..oOooXX.XXXooO                                            ",
"                                           +oo.....XXoOoo..oOo..XoOoXXooOoXX..XXoo+                                             ",
"                                            +oo...XXXooOoXXoOo..XoOoXXoOooX..+Xoo+                                              ",
"                                             +oo...XXXoOoXooOo+.ooOoXooOoX...Xoo+                                               ",
"                                              +o...XXXoOoXoOooX.oOooXoOooX...oo+                                                ",
"                                              +oo..XXooOoooOooXooOoXooOoX...Xo+                                                 ",
"                                               +ooXXXoOoOOOOOoooOooXoOooXX..oo+                                                 ",
"                                                +ooXooOoooooOooOooX.oOoooX.Xo+                                                  ",
"                                                 +oooOOooXXooOOooX+.oOOOooXoo+                                                  ",
"                                                  +ooOOOooXXoOooX...oOooOooo+                                                   ",
"                                                   +OoooOooooOooX...oOoooOoo+                                                   ",
"                                                    +ooooOOoooOooo.XoOoXoOo+                                                    ",
"                                                     +oooooOoooOOooXoOoXooO+                                                    ",
"                                                      +ooXooOooooOoooOoXXo+                                                     ",
"                                                       +oXXooOoXooOOoOoXoo+                                                     ",
"                                                       +oo.XoOooXoooOooXo+                                                      ",
"                                                        +oo+ooOoX.XoOoXXo+                                                      ",
"                                                         +o.XoOo..ooOoXoo+                                                      ",
"                                                         +o..oOo.ooOoo.o+                                                       ",
"                                                         +ooXoOo.oOoo+oo+                                                       ",
"                                                          +oXoOoXoOoX.o+                                                        ",
"                                                          +oooOoooOo.oo+                                                        ",
"                                                           +ooOooOoo.o+                                                         ",
"                                                            +oOooOoXXo+                                                         ",
"                                                            +OoooOoXoo+                                                         ",
"                                                            +OooOooXo+                                                          ",
"                                                             +ooOo+oo+                                                          ",
"                                                             +ooOoXo+                                                           ",
"                                                              +oOooo+                                                           ",
"                                                              +oOoo+                                                            ",
"                                                               +ooo+                                                            ",
"                                                               +oo+                                                             ",
"                                                               +oo+                                                             ",
"                                                               +o+                                                              ",
"                                                                ++                                                              ",
"                                                                ++                                                              ",
"                                                                ++                                                              ",
"                                                                +                                                               ",
"                                                                +                                                               ",
"                                                                +                                                               ",
"                                                                +                                                               ",
"                                                                +                                                               ",
"                                                                +                                                               ",
"                                                                +                                                               ",
"                                                               +o+                                                              ",
"                                                               +o+                                                              ",
"                                                               +o+                                                              ",
"                                                              +oo+                                                              ",
"                                                              +oo+                                                              ",
"                                                              +oo+                                                              ",
"                                                             +oooO+                                                             ",
"                                                             +oXoO+                                                             ",
"                                                             +oooO+                                                             ",
"                                                            +oooOo+                                                             ",
"                                                            +oXoOoo+                                                            ",
"                                                            +oXoOoo+                                                            ",
"                                                           +ooXoOoo+                                                            ",
"                                                           +oX.oOoo+                                                            ",
"                                                           +o..oOoo+                                                            ",
"                                                           +o+.oOooo+                                                           ",
"                                                           +o.XoOooo+                                                           ",
"                                                           +o..oOOoo+                                                           ",
"                                                           +o.ooOoOo+                                                           ",
"                                                           +oXoOooOo+                                                           ",
"                                                           +oXoOoooO+                                                           ",
"                                                           +oooOoXoO+                                                           ",
"                                                            +oOooXoo+                                                           ",
"                                                            +oOo+Xoo+                                                           ",
"                                                            +Ooo..o+                                                            ",
"                                                             +ooXoo+                                                            ",
"                                                              +ooo+                                                             ",
"                                                               +++                                                              ",
"                                                                                                                                ",
"                                                                                                                                ",
"                                                                                                                                ",
"                                                                                                                                ",
"                                                                                                                                ",
"                                                                                                                                ",
"                                                                                                                                ",
"                                                                                                                                ",
"                                                                                                                                ",
"                                                                                                                                ",
"                                                                                                                                ",
"                                                                                                                                ",
"                                                                                                                                ",
"                                                                                                                                ",
"                                                                                                                                ",
"                                                                                                                                ",
"                                                                                                                                ",
"                                                                                                                                ",
"                                                                                                                                ",
"                                                                                                                                ",
"                                                                                                                                ",
"                                                                                                                                ",
"                                                                                                                                "
};
