/* XPM */
static char *lava_drop2_41697129309[] = {
/* columns rows colors chars-per-pixel */
"64 64 6 1 ",
"  c None",
". c #CB1C02",
"X c #F43308",
"o c #FB5203",
"O c #F2AE0D",
"+ c #ECF438",
/* pixels */
"                                                                ",
"                                                                ",
"                      OOO                                       ",
"                     +oooO                                      ",
"                     +oXooOO   OO     OOO                       ",
"                     +o+XooOOOOooO   OoooO                      ",
"                     +oXXoOoooooooO  OoXo++                     ",
"                     +o.ooOoXXXXXooOOooXoo+                     ",
"                     +o.oOooXX..XXooOoXXoo+                     ",
"                     +o.oOoXX....XooOo..o+                      ",
"                     +oXoOooX....XoOoo+Xo+                      ",
"                     +oooOOoo....XoOo.Xoo+                      ",
"                      +oOooOoo..+XoOo.Xo+                       ",
"                      +OooooOoooXooOoooo+                       ",
"                       +oXXooOOoooOooo++                        ",
"                       +oo..oooOOOooo+                          ",
"                        +oo..XooOooo+                           ",
"                         +oo+XooOooo+                           ",
"                          +oo.oOooo+                            ",
"                           +oooOoXo+                            ",
"                            +ooOooo+                            ",
"                            +oOooo+                             ",
"                             ++oo+                              ",
"                               ++                               ",
"                                                                ",
"                                                                ",
"                                                                ",
"                                                                ",
"                                                                ",
"                                                                ",
"                                                                ",
"                                                                ",
"                                                                ",
"                                                                ",
"                                                                ",
"                                                                ",
"                                                                ",
"                                                                ",
"                                                                ",
"                                                                ",
"                                                                ",
"                                                                ",
"                                                                ",
"                                                                ",
"                                                                ",
"                                                                ",
"                                                                ",
"                                                                ",
"                                                                ",
"                                                                ",
"                                                                ",
"                                                                ",
"                                                                ",
"                                                                ",
"                                                                ",
"                                                                ",
"                                                                ",
"                                                                ",
"                                                                ",
"                                                                ",
"                                                                ",
"                                                                ",
"                                                                ",
"                                                                "
};
