/* XPM */
static char *lava_drop1_11697129307[] = {
/* columns rows colors chars-per-pixel */
"128 128 6 1 ",
"  c None",
". c #CB1C02",
"X c #F43308",
"o c #FB5203",
"O c #F2AE0D",
"+ c #ECF438",
/* pixels */
"                                                                                                                                ",
"                                                                                                                                ",
"                                                                                                                                ",
"                                                                                                                                ",
"                                                                                                                                ",
"                                                                                                                                ",
"                                                                                                                                ",
"                                                                                                                                ",
"                                                                                                                                ",
"                                                                                                                                ",
"                                                                                                                                ",
"                                                                                                                                ",
"                                                                                                                                ",
"                                                                                                                                ",
"                                                                                                                                ",
"                                                                                                                                ",
"                                                                                                                                ",
"                                                                                                                                ",
"                                                                                                                                ",
"                                                                                                                                ",
"                                                                                                                                ",
"                                                                                                                                ",
"                                                                                   OO                                           ",
"                                          OO                                      OooO                                          ",
"                                         OooO                           OOOOO    OooooO                                         ",
"                                        OooooO     OOO        OO       OoooooO OOooXXoO+                                        ",
"                                       +ooXXoO    OoooO      OooO     OooXX+ooOoooX.Xoo+                                        ",
"                                        +oXXooOOOOooXooO     OooO     OoXXXXXoOoXX...o+                                         ",
"                                        +oo.XooOoooX+XooOO   OooO     OoX...XoOooo..Xo+                                         ",
"                                         +o..XoOooXX...oooOOOooooOO OOoo....ooOOOoo.oo+                                         ",
"                                         +oX..ooOoXXX...XoOoooXXoooOooo+...XoOoooOo.o+                                          ",
"                                         +oX..XoOoooooo.XooOoX..XXoOoXX....XoOoXoOoXo+                                          ",
"                                         +oo.+.ooOOOOOoo.XoOoX.+.XoOooX..XXooOoXoOoXo+                                          ",
"                                          +oX.XXoOooooOoXXoOooX...ooOoooXXXoOooXoOoXo+                                          ",
"                                          +oXXXooOoXXoOooXoOOooo..XoOoOoooooOoXXoOooo+                                          ",
"                                          +oooooOo+XXooOoooOoOOooXXoOOoOOOOOoo..oOoo+                                           ",
"                                           +++ooOoX.XXoOOOOooooOoXooOoooooOo+..Xooo+                                            ",
"                                              ++ooX..XoOooooXXoOoooOooXXXoOoX.Xoo++                                             ",
"                                               +oX..XooOoXXXXXooOoOooXX+XoOo..oo+                                               ",
"                                               +oo.oooOooXX..XXoOOooXX.XXoOo..o+                                                ",
"                                                +o.oOOoOoX+...XoOooXX..XooOo.Xo+                                                ",
"                                                +oXoOooOoXX...XoOooX+..XoOoo.Xo+                                                ",
"                                                +oXo+ooOooX...XooOoX.XXooOoX.Xo+                                                ",
"                                                +oXo++ooOooo.XXXoOooooooOOoX+oo+                                                ",
"                                                +ooo++oooOOooXXXooOOOooOoOooXo+                                                 ",
"                                                 +oo++oXoooOoooXXooooOoOooOooo+                                                 ",
"                                                  ++ +oXXXoOoOo+XXXXoOoOooOoo+                                                  ",
"                                                     +oX.XoOOoOooXXXooOoooOoo+                                                  ",
"                                                     +oXoooOoooOoX.XooOoXoOo+                                                   ",
"                                                     +oooOOooXoOoX.XoOoo+oo+                                                    ",
"                                                     +ooOoooXXoOoXXooOOoooo+                                                    ",
"                                                     +ooOoXX.XoOooooOooOoo+                                                     ",
"                                                      +oOoX...ooOoOOoooOoo+                                                     ",
"                                                      +oOoo...XooOoooXooOo+                                                     ",
"                                                      +ooOoo+.XoOooXXXXoOo+                                                     ",
"                                                      +oooOoX.XoOoXX.XooOo+                                                     ",
"                                                      +oXoOoo.XoOo.+..oOoo+                                                     ",
"                                                      +oXooOooXoOo...XoOo+                                                      ",
"                                                      +oX.ooOoXoOo...XoOo+                                                      ",
"                                                      +oo.XoOoXoOoo.XXoo+                                                       ",
"                                                       +oX.oOoXooOoo.Xoo+                                                       ",
"                                                       +ooXoOoXXooOoo+o+                                                        ",
"                                                        +oooOoX.XooOoo+                                                         ",
"                                                        ++oOooX.XXoOoo+                                                         ",
"                                                          +ooXX+.XooOo+                                                         ",
"                                                          +ooX...XXoO+                                                          ",
"                                                           +oX...XooO+                                                          ",
"                                                           +oX...XoOo+                                                          ",
"                                                           +oX...XoO+                                                           ",
"                                                           +ooX..Xo+                                                            ",
"                                                            +oX+Xoo+                                                            ",
"                                                            +oooXo+                                                             ",
"                                                             ++ooo+                                                             ",
"                                                               +++                                                              ",
"                                                                                                                                ",
"                                                                                                                                ",
"                                                                                                                                ",
"                                                                                                                                ",
"                                                                                                                                ",
"                                                                                                                                ",
"                                                                                                                                ",
"                                                                                                                                ",
"                                                                                                                                ",
"                                                                                                                                ",
"                                                                                                                                ",
"                                                                                                                                ",
"                                                                                                                                ",
"                                                                                                                                ",
"                                                                                                                                ",
"                                                                                                                                ",
"                                                                                                                                ",
"                                                                                                                                ",
"                                                                                                                                ",
"                                                                                                                                ",
"                                                                                                                                ",
"                                                                                                                                ",
"                                                                                                                                ",
"                                                                                                                                ",
"                                                                                                                                ",
"                                                                                                                                ",
"                                                                                                                                ",
"                                                                                                                                ",
"                                                                                                                                ",
"                                                                                                                                ",
"                                                                                                                                ",
"                                                                                                                                ",
"                                                                                                                                ",
"                                                                                                                                ",
"                                                                                                                                ",
"                                                                                                                                ",
"                                                                                                                                ",
"                                                                                                                                ",
"                                                                                                                                ",
"                                                                                                                                ",
"                                                                                                                                ",
"                                                                                                                                ",
"                                                                                                                                ",
"                                                                                                                                ",
"                                                                                                                                ",
"                                                                                                                                ",
"                                                                                                                                ",
"                                                                                                                                ",
"                                                                                                                                ",
"                                                                                                                                ",
"                                                                                                                                ",
"                                                                                                                                ",
"                                                                                                                                ",
"                                                                                                                                "
};
