/* XPM */
static char *lava_drop3_31697129310[] = {
/* columns rows colors chars-per-pixel */
"64 64 6 1 ",
"  c None",
". c #CB1C02",
"X c #F43308",
"o c #FB5203",
"O c #F2AE0D",
"+ c #ECF438",
/* pixels */
"                                                                ",
"                                                                ",
"                                                                ",
"                                                                ",
"                                                                ",
"                                                                ",
"                                                                ",
"                                                                ",
"                                                                ",
"                                                                ",
"                                                                ",
"                                                                ",
"                                                                ",
"                                                                ",
"                                   OO                           ",
"                          OOO     OooO                          ",
"                         OoooO   OooooO                         ",
"                        OooXooOOOooX.ooO                        ",
"                       +ooX+XooOooX.+Xoo+                       ",
"                        +oX.XoOoooooXoo++                       ",
"                        +ooXooOOOOOooo+                         ",
"                         +oooOoooooOo+                          ",
"                          +oOooX.Xoo+                           ",
"                          +oOoX.+Xoo+                           ",
"                           +ooX.Xoo+                            ",
"                            +ooXoo+                             ",
"                             +ooo+                              ",
"                              +oo+                              ",
"                              +o+                               ",
"                               ++                               ",
"                               +                                ",
"                               +                                ",
"                               +                                ",
"                               +                                ",
"                               +                                ",
"                               +                                ",
"                               +                                ",
"                               +                                ",
"                               ++                               ",
"                              +o+                               ",
"                              +oo+                              ",
"                              +oo+                              ",
"                              +oo+                              ",
"                             +ooo+                              ",
"                             +o+o+                              ",
"                             +o.o+                              ",
"                             +ooo+                              ",
"                             +oo+                               ",
"                              ++                                ",
"                                                                ",
"                                                                ",
"                                                                ",
"                                                                ",
"                                                                ",
"                                                                ",
"                                                                ",
"                                                                ",
"                                                                ",
"                                                                ",
"                                                                ",
"                                                                ",
"                                                                ",
"                                                                ",
"                                                                "
};
