/* XPM */
static char *lava_drop1_51697129308[] = {
/* columns rows colors chars-per-pixel */
"32 32 6 1 ",
"  c None",
". c #CB1C02",
"X c #F43308",
"o c #FB5203",
"O c #F2AE0D",
"+ c #ECF438",
/* pixels */
"                                ",
"                                ",
"                                ",
"                                ",
"                +               ",
"               +o+              ",
"              +oo+              ",
"              +oOo+             ",
"             +ooOo+             ",
"             +ooOoo+            ",
"            +oooOoo+            ",
"            +oXoOooo+           ",
"           +ooXoOoXo+           ",
"           +oXXoOoXo+           ",
"          +ooX.oOo+oo+          ",
"          +oX.ooOooXo+          ",
"          +o..oOoOooo+          ",
"          +o+XoOooOoo+          ",
"          +oXooOoooOo+          ",
"          +oooOooXoOo+          ",
"          +ooOooX.oOo+          ",
"          +ooOoX+.oOo+          ",
"          +oOooX.Xoo+           ",
"           +ooXX.Xoo+           ",
"            +ooXXoo+            ",
"             +oooo+             ",
"              ++++              ",
"                                ",
"                                ",
"                                ",
"                                ",
"                                "
};
