/* XPM */
static char *mushrum11697129312[] = {
/* columns rows colors chars-per-pixel */
"32 32 10 1 ",
"  c None",
". c #826417",
"X c #A7873E",
"o c #F2BF52",
"O c #C7A660",
"+ c #E6D18D",
"@ c #FFEB80",
"# c #FFEBAA",
"$ c #FFFFBB",
"% c #FFFFE2",
/* pixels */
"                                ",
"                                ",
"                                ",
"               ....             ",
"             ..$$@@.            ",
"            .%%$$@@O.           ",
"           .%%$$$$@OX.          ",
"          .#%$%$$$+OOX.         ",
"         .##%%$$$++OOXX.        ",
"         .###$$+++OOOXXX.       ",
"         .#++++OOOOOOoooo.      ",
"        .%#++OOOOOOO@ooooo.     ",
"       .%%+OOOOOOOOOoooooo.     ",
"      .%%$OOOOOOXXXXooooooX.    ",
"     .$%$@OOOXXXXXXXooooooX.    ",
"    .$%$@OOXXXXXX...XooooX.     ",
"    .$$@OOXXXX...XXX......      ",
"    .$OOXXXXX.XXXXXX.           ",
"    ..OXXX...XXXXXXX.           ",
"      ....   .XOOOXX.           ",
"             .OOOOOX.           ",
"              .+OOOXX.          ",
"              .#+OOOX.          ",
"              .#+OOOX.          ",
"            ..++OOOOX.          ",
"            .+++OOOOX.          ",
"             .+OOO...           ",
"              ....              ",
"                                ",
"                                ",
"                                ",
"                                "
};
