/* XPM */
static char *mushrum51697129313[] = {
/* columns rows colors chars-per-pixel */
"64 64 10 1 ",
"  c None",
". c #826417",
"X c #A7873E",
"o c #F2BF52",
"O c #C7A660",
"+ c #E6D18D",
"@ c #FFEB80",
"# c #FFEBAA",
"$ c #FFFFBB",
"% c #FFFFE2",
/* pixels */
"                                                                ",
"                                                                ",
"                                                                ",
"                                                                ",
"                                                                ",
"                                                                ",
"                                                                ",
"                                                                ",
"                                                                ",
"                                                                ",
"                                ....                            ",
"                             ...oooo.                           ",
"                            .OO@@@oXX.                          ",
"                           .++OOOOOXXX.                         ",
"                          .#++OOOOOOXXX.                        ",
"                          .##++@@@@OOXX.                        ",
"                         .###+$$@@@@@XXX.                       ",
"                        .####+$$@@@@@OXX.                       ",
"                       .####++$$@@@@@OXXX.                      ",
"                       .####++$$$@@@OOXXX.                      ",
"                      .######+$$$$@@OOOXXX.                     ",
"                     .########+$$$+OOOOXXoo.                    ",
"                     .#########+++++OOOXooo.                    ",
"                    .%##########+++++OO@ooo.                    ",
"                   .%%###########++++OO@oooo.                   ",
"                  .%%%##+++##%%%%+++++O@@oooo.                  ",
"                 .%%%++++++$$$%%%$$+++O@@ooooo.                 ",
"                .%%%++++++$$$$$$$$$++++@@@ooooo.                ",
"               .@%++++OOO@@@@@@$$$$+++++@@ooooX.                ",
"               .+++OOOOOO@@@@@@@@$++++++O@@oooX.                ",
"              .O++OOOXXXXoooooo@@OOO+++OOO@@XXXX.               ",
"              .OOOXXXXXXXoooooooXXOOOOOOOOOOXXXX.               ",
"              .OOXXXXXXXXXoooooXXXXOOOOOOOOOXXXX.               ",
"               .XXXXX.......XXXXXXXXXXXOOOOXXXXX.               ",
"                .....   .XXX.......XXXXXXXXXXXXX.               ",
"                         .OOXXXXX. ..XXXXXXXXX..                ",
"                          .OOOXXX.   .........                  ",
"                          .OOOXXX.                              ",
"                          .+OOOXX.                              ",
"                          .#+OOXX.                              ",
"                          .#+OOOX.                              ",
"                          .#++OOXX.                             ",
"                          .#++OOXX.                             ",
"                          .#++OOXX.                             ",
"                          .#++OOOXX.                            ",
"                          .#+OOOOXX.                            ",
"                          .++OOOOXX.                            ",
"                         .+++OOOOXX.                            ",
"                         .++OOOOOXX.                            ",
"                         .OOOOOOXXX.                            ",
"                          .XOOXXXXX.                            ",
"                           .XXXXXX.                             ",
"                            ......                              ",
"                                                                ",
"                                                                ",
"                                                                ",
"                                                                ",
"                                                                ",
"                                                                ",
"                                                                ",
"                                                                ",
"                                                                ",
"                                                                ",
"                                                                "
};
