/* XPM */
static char *mushrum31697129313[] = {
/* columns rows colors chars-per-pixel */
"32 32 10 1 ",
"  c None",
". c #826417",
"X c #A7873E",
"o c #F2BF52",
"O c #C7A660",
"+ c #E6D18D",
"@ c #FFEB80",
"# c #FFEBAA",
"$ c #FFFFBB",
"% c #FFFFE2",
/* pixels */
"                                ",
"                                ",
"                                ",
"                                ",
"                                ",
"                                ",
"                                ",
"              .....             ",
"            ..$$@@X.            ",
"           .+$%%@@XX.           ",
"          .+#%$$$@OXX.          ",
"          .++@@$@@OOXo.         ",
"         .OOO@@@@OOOOoo.        ",
"        ..XXXXXXOOOO@oo.        ",
"       .XXXX..XXXOOXoooo.       ",
"        ....XX...XXXXo..        ",
"            .OOXX.....          ",
"            .+OOXXX.            ",
"            .+OOXXX.            ",
"            .#+OOXXX.           ",
"            .++OOOXX.           ",
"             .OOOOXXX.          ",
"             .OXXXXXX.          ",
"              .......           ",
"                                ",
"                                ",
"                                ",
"                                ",
"                                ",
"                                ",
"                                ",
"                                "
};
