/* XPM */
static char *mushrum61697129313[] = {
/* columns rows colors chars-per-pixel */
"64 64 10 1 ",
"  c None",
". c #826417",
"X c #A7873E",
"o c #F2BF52",
"O c #C7A660",
"+ c #E6D18D",
"@ c #FFEB80",
"# c #FFEBAA",
"$ c #FFFFBB",
"% c #FFFFE2",
/* pixels */
"                                                                ",
"                                                                ",
"                                                                ",
"                                 ......                         ",
"                              ...OO@ooo.                        ",
"                            ..++OOO@@ooo.                       ",
"                           .+++++OO@@@ooo.                      ",
"                          .$%$$$++O@@@oooo.                     ",
"                          .%%$$$$+OO@@@ooo.                     ",
"                         .%%%$$$$++OO@@oooX.                    ",
"                        .%%%%%$$$++OOOOXXXX.                    ",
"                        .%%%%%$$$++OOOOOXXX.                    ",
"                       .%%%%%$$$$++OOOOOOXXX.                   ",
"                      .%%%%%%$$$$++OOOOOOXXX.                   ",
"                      .%%%%%$$$$++OOOOOOOXXXX.                  ",
"                     .#%%%%%$$$+++OOO@@@@XXXX.                  ",
"                     .##%%%$$+++++OO@@@@@oXXX.                  ",
"                    .#####+++++++OO@@@@@@ooXX.                  ",
"                   .#####++++++++OO@@@@@ooooXX.                 ",
"                 ..#####+++++++++OO@@@@@ooooXX.                 ",
"                .######+++++++++OOO@@@@@ooooXXX.                ",
"               .######++++++$++OOOO@@@@@ooooXXX.                ",
"             ..###++++++$$$$$@@OOOO@@@@oooooXXXX.               ",
"            .###++++++$$$$@@@@@OOOOO@@ooooooXXXXo.              ",
"           .##++++OOOO@@@@@@@@@OOOOO@ooooooXXXXXo.              ",
"          .#++++OOOOO@@@@@@oooXXXXXXXoooooXXXXXXoo.             ",
"         .%$++OOOOOOOOooooooooXXXXXXXXXXXXXXXXXXoo.             ",
"        .$$$+OOOOOXXXXooooooXXXXXXXXXXXXXXXXXXXXooo..           ",
"       .$$$$OOOOXXXXXXXooooXX...XXXXXXXXXXXXXXXXXoooo..         ",
"       .$$@@OOXXXXX..........XXX......XXXXXXXXXXXoooooo.        ",
"      .$$$@OOXXX...X.XXXXXXX.XXXXXXXXX.....XXXXXXXooooo.        ",
"      .$@@@OXXX.XXXXX.XXXXXX.XXOOXXXXX.XXXX.XXXXXXXooooo.       ",
"      .@@@XXX..XXXXXXX...+OOX.XXXXXX..XXXXXX..XXXXXXXXXX.       ",
"       .OXXX.XXXXOOOOXXXX....X......XXOOOXXXXX..XXXXXXXX.       ",
"        .XX.XXOOO++OOXXX.XXXXXXXXXX.XXXXXXX..XXX.....XXX.       ",
"         .........++XX..XXXX.XXXXXXX.......XXXOOOXXXX...        ",
"                  ....  .XXX.XOOXXXXXXX. .XOOOXXXXX..           ",
"                         .OXX.OOXXXXXXX.  .........             ",
"                         .+XX.O+OXXXXXX.                        ",
"                         .+OXX.+OXXXXXXX.                       ",
"                          .OOX.O+XXXXXXX.                       ",
"                          .+OX.O+XXXXXXX.                       ",
"                          .+OO.O+OXX.XXX.                       ",
"                          .+OO.O+OXX.XXX.                       ",
"                          .++O.++OXX.XXX.                       ",
"                         .#++OO++OXX.XXX.                       ",
"                         .#++OO++OXX.XXX.                       ",
"                        .O##++++OXXX.XXX.                       ",
"                        .O##++++OXXX.XXX.                       ",
"                       .+###++++OXX.OXXX.                       ",
"                      .+###++#+OOXX.OXXX.                       ",
"                     .O++####++OOXX.OXXX.                       ",
"                     .O++++##+OOXX.OOXXX.                       ",
"                    .OO+++##++OOX.OOOXXX.                       ",
"                    .OOO+++++OOXX.OOXXXX.                       ",
"                    .OOOO+++OOOX.OOOXXXX.                       ",
"                   .XXXOOOOOOOXXOOOXXXX.                        ",
"                   .XXXXOOOOOOOOOOXXXXX.                        ",
"                    .XXXXOOOOOOOXXXXXX.                         ",
"                     ...XXXXXXXXX.....                          ",
"                        .........                               ",
"                                                                ",
"                                                                ",
"                                                                "
};
