/* XPM */
static char *stair11697129313[] = {
/* columns rows colors chars-per-pixel */
"32 32 14 1 ",
"  c None",
". c black",
"X c #16110D",
"o c #191512",
"O c #331803",
"+ c #331903",
"@ c #201B17",
"# c #2B2723",
"$ c #332E2A",
"% c #522C00",
"& c #413B36",
"* c #734F1C",
"= c #585552",
"- c #92752F",
/* pixels */
" OOOOOOO                OOOOOOO ",
"O-***%%%O              O------%O",
"O-***%%%O              O-****%%O",
" O-*%%%O                O-**%%O ",
"  O-%%O                  O*%%O  ",
"  O-%%O                  O-%%O  ",
"  O-%%O                  O-%%O  ",
"  XXXXX                  O-XXX  ",
" X====&X                 XX===X ",
" X==&&$$X               X==&&&X ",
" X&&$$XXX               X=&$$$X ",
"  XXXX&=X              X=XXXXX  ",
" X==&X$&=X             X=X=&&X  ",
" X&$X=X$=X            X=&X$$X=X ",
"  XX=&X$XX             XX&XX=&X ",
" X=&$$XX                 X=&&$X ",
" +++++++++++++++OOOO+++++++++++ ",
"+*.******---------------*****.*+",
"+%.%%%%%%%%%%%%%%%%%%%%%%%%%%.%+",
" ++++++++++++++++++O+++++++++++ ",
" X#@oX                   X#@oX  ",
" X&$X=X                  X&$X=X ",
"  XX=&X                   XX=&X ",
" X=&&$X                  X=&&$X ",
" ++++++++++++++++++++++++++++++ ",
"+*.******--------------******.*+",
"+%.%%%%%%%%%%%%%%%%%%%%%%%%%%.%+",
" ++++++++++++++++++++++++++++++ ",
" X#@oX                   X#@oX  ",
" X&$X=X                  X&$X=X ",
"  XX=&X                   XX=&X ",
" X=&&$X                  X=&&$X "
};
