/* XPM */
static char *stalagmite41697129315[] = {
/* columns rows colors chars-per-pixel */
"128 128 13 1 ",
"  c None",
". c #28281C",
"X c #343124",
"o c #3B3B30",
"O c #46412F",
"+ c #554F3A",
"@ c #6A6349",
"# c #756D4C",
"$ c #928967",
"% c #968D69",
"& c #D0C086",
"* c #D6C88E",
"= c #F8ECBF",
/* pixels */
"                                                                                                                                ",
"                                                                                                                                ",
"                                                                                                                                ",
"                                                                                                                                ",
"                                                                                                                                ",
"                                                                                                                                ",
"                                                                                                                                ",
"                                                                                                                                ",
"                                                                                                                                ",
"                                                                                                                                ",
"                                                                                                                                ",
"                                                                                                                                ",
"                                                                                                                                ",
"                                                                                                                                ",
"                                                                                                                                ",
"                                                                                                                                ",
"                                                                                                                                ",
"                                                                                                                                ",
"                                                                                                                                ",
"                                                                                                                                ",
"                                                                                                                                ",
"                                                                                                                                ",
"                                                                    .                                                           ",
"                                                                   .O.                                                          ",
"                                                                   .O.                                                          ",
"                                                                  .%OX.                                                         ",
"                                                                  .%OX.                                                         ",
"                                                                  .%OX.                                                         ",
"                                                                 .%%OX.                                                         ",
"                                                                 .%%OX.                                                         ",
"                                                                 .%%OX.                                                         ",
"                                                                 .%@OX.                                                         ",
"                                                                .%%@OX.                                                         ",
"                                                                .%%@OX.                                                         ",
"                                                               .%*%@OX.                                                         ",
"                                                               .%*@@OX.                                                         ",
"                                                              .%*%@@OX.                                                         ",
"                                                              .%*%@@OX.                                                         ",
"                                                              .*%%@@OX.                                                         ",
"                                                              .*%%@OOX.                                                         ",
"                                                             .%*%@@OOX.                                                         ",
"                                                             .*%%@@OOX.                                                         ",
"                                                             .*%%@@OOX.                                                         ",
"                                                             .*%%@@OOX.                                                         ",
"                                                             .*%%@@OOX.                                                         ",
"                                                             .%%@@@OOX.                                                         ",
"                                                             .%%@@OOXX.                                                         ",
"                                                             .%%@@OOXX.                                                         ",
"                                                             .%%@@OOXX.                                                         ",
"                                                             .%@@@OOXX.                                                         ",
"                                                             .%@@OOOX.X.                                                        ",
"                                                             .%@@OOOX.X.                                                        ",
"                                                             .%@@OOOX.X.                                                        ",
"                                                             .%@@OOXX.X.                                                        ",
"                                                             .%@OOOXX.XX.                                                       ",
"                                                             .%@OOOXX.OX.                                                       ",
"                                                             .@@OOOXX.%X.                                                       ",
"                                                             .@OOOOXX.%X.                                                       ",
"                                                            .O.OOOXXX.%OX.                                                      ",
"                                                            .O.XOOXX.%%OX.                                                      ",
"                                                           .%O.XOXXX.%%OXX.                                                     ",
"                                                           .%%.XXXXX.*%@OX.                                                     ",
"                                                           .%%O.XXX.%*%@OXX.                                                    ",
"                                                           .%%@.XXX.*%%@OXX.                                                    ",
"                                                          .%*%@O.XX.*%@@OXX.                                                    ",
"                                                          .%*%@O.X.%*%@@OXX.                                                    ",
"                                                          .%*%@O.X.*%%@@OXX.                                                    ",
"                                                          .%*%@@X.%*%%@@OXX.                                                    ",
"                                                          .*%%@@O.%*%@@@OOXX.                                                   ",
"                                                          .*%%@@O.%*%@@@OOXX.                                                   ",
"                                                          .*%%@@OX.*%@@@OOXX.                                                   ",
"                                                         .%*%%@@@O.*%@@@OOXX.                                                   ",
"                                                         .%*%@@@@OX.%@@@OOXX.                                                   ",
"                                                         .%*%@@@@OX.%%@@OOXX.                                                   ",
"                                                         .%*%@@@@OXX.%@OOOXX.                                                   ",
"                                                        .%*%%@@@OOOX.%@OOOXX.                                                   ",
"                                                        .%*%@@@@OOOX.%@OOOXX.                                                   ",
"                                                        .*%%@@@@OOOX.%@OOOXX.                                                   ",
"                                                       .%*%@@@@@OOOX.%OOOOXX.                                                   ",
"                                                       .%%%@@@@OOOOXX.OOOOXX.                                                   ",
"                                                       .%%@@@@@OOOOOX.OOOXXX.                                                   ",
"                                                      .%%@@@@@@OOOOOX.OOOXXX.                                                   ",
"                                                      .%@@@@@@OOOOOOXX.OOXXX.                                                   ",
"                                                      .OO@@@@OOOOOOOXX.OXXXX.                                                   ",
"                                                     .oXXO@@OOOOOOOOXX.OXXXo.                                                   ",
"                                                    o=#ooXXOOOOOOOOOXXoOXXo#+o                                                  ",
"                                                    o&#o=oXXOOOOOOOOXX.XXXo#++o                                                 ",
"                                                   o&$+o=oXXXXOOOOOOXX.XXo&$#++o                                                ",
"                                                  o=$#+o&oXXXXXOOOOXXXX.Xo=$##+o                                                ",
"                                                 o=&$#+o&$oooXXXXOOXXXX.Xo&$$##+o                                               ",
"                                                 o&$$#+o$#o=&ooXXXXXXXX.o+o&$##+o                                               ",
"                                                o=$$##+o$#o=&&&oXXXXXXo&$+o&$###+o                                              ",
"                                               o=$$$##+o$#o=&&$$oXXXXo=&$#o&$$##+o                                              ",
"                                               o&$$###+o$#o=&$$$#oXXo=&$$#+o&$###o                                              ",
"                                              o&$$###++o$##o&$$##oXXo=$$$#+o&$$##+o                                             ",
"                                             o&$$$###++o$#+o&$$#+oXo=&$$$#++o&$##+o                                             ",
"                                             o$$$###+++o$#+o&$##+oXo&$$$$#++o&$##++o                                            ",
"                                            o$$$####+++o##+o&$##+oXo&$$$###++o####+o                                            ",
"                                           o&$#####+++o$##+o$###++o&$$$####++o####+o                                            ",
"                                           o#####+++++o##++o####++o########+++o##+++o                                           ",
"                                           o###+++++oo###+o####+++o########+++o+++++o                                           ",
"                                           o++++++oo++++++o####+++o+++++#++++o oo+++o                                           ",
"                                            oooooo  oooooo o++++++ooo+++++ooo    ooo                                            ",
"                                                            ooo+++o  ooooo                                                      ",
"                                                               ooo                                                              ",
"                                                                                                                                ",
"                                                                                                                                ",
"                                                                                                                                ",
"                                                                                                                                ",
"                                                                                                                                ",
"                                                                                                                                ",
"                                                                                                                                ",
"                                                                                                                                ",
"                                                                                                                                ",
"                                                                                                                                ",
"                                                                                                                                ",
"                                                                                                                                ",
"                                                                                                                                ",
"                                                                                                                                ",
"                                                                                                                                ",
"                                                                                                                                ",
"                                                                                                                                ",
"                                                                                                                                ",
"                                                                                                                                ",
"                                                                                                                                ",
"                                                                                                                                ",
"                                                                                                                                ",
"                                                                                                                                "
};
