/* XPM */
static char *stalactite41697129314[] = {
/* columns rows colors chars-per-pixel */
"128 128 7 1 ",
"  c None",
". c #28281C",
"X c #343124",
"o c #46412F",
"O c #6A6349",
"+ c #968D69",
"@ c #D6C88E",
/* pixels */
"                                                                                                                                ",
"                                                                                                                                ",
"                                                                                                                                ",
"                                                                                                                                ",
"                                                                                                                                ",
"                                                                                                                                ",
"                                                                                                                                ",
"                                                                                                                                ",
"                                                                                                                                ",
"                                                                                                                                ",
"                                                                                                                                ",
"                                                                                                                                ",
"                                                                                                                                ",
"                                                                                                                                ",
"                                                                                                                                ",
"                                                                                                                                ",
"                                                                                                                                ",
"                                                                                                                                ",
"                                                                                                                                ",
"                                                                                                                                ",
"                                                                                                                                ",
"                                                                .....                                                           ",
"                                                           .....+oooX..                                                         ",
"                                                         ..X.++++oooXXX.                                                        ",
"                                                        .+oX.+@++OoooXXX.                                                       ",
"                                                      ..++oX.+@++OooooXXX.                                                      ",
"                                                     .+@@OoX.+@++OooooXXXX.                                                     ",
"                                                    .++@+OoX.+@++OOooooXXX.                                                     ",
"                                                    .++@+OoX.+@++OOooooXXX.                                                     ",
"                                                    .+@++OoX.+@+OOOooooXXX.                                                     ",
"                                                    .+@+OOoX.+@+OOOooooXXX.                                                     ",
"                                                    .+@+OOoX.+@+OOOooooXXX.                                                     ",
"                                                    .+@+OOoX.+@+OOOooooXXX.                                                     ",
"                                                    .+@+OOoo.+@+OOOooooXXX.                                                     ",
"                                                    .+@+OOoo.+@+OOOooooXXX.                                                     ",
"                                                    .@++OOooX.@+OOOOoooXXX.                                                     ",
"                                                    .@++OOooX.@+OOOOoooXXX.                                                     ",
"                                                    .@+OOOooX.@++OOOoooXXX.                                                     ",
"                                                    .@+OOOooX.@++OOOoooXXX.                                                     ",
"                                                    .@+OOOooX.@++OOOoooXXX.                                                     ",
"                                                    .@+OOOooX.@++OOOoooXX.                                                      ",
"                                                    .@+OOOoXX.@++OOOoooXX.                                                      ",
"                                                    .@+OOOoXX.+++OOOoooXX.                                                      ",
"                                                    .++OOooXX.+++OOOoooXX.                                                      ",
"                                                    .++OOooXX.+++OOOoooXX.                                                      ",
"                                                    .++OOooXX.+++OOOooXXX.                                                      ",
"                                                    .++OOooXX.+++OOOooXXX.                                                      ",
"                                                    .++OOooXX.++++OOooXXX.                                                      ",
"                                                    .++OOooXX.++++OOooXXX.                                                      ",
"                                                    .++OOooX.X.+++OoooXXX.                                                      ",
"                                                    .++OOoXX.X.+++OoooXX.                                                       ",
"                                                    .++OOoXX.XX.++OoooXX.                                                       ",
"                                                    .++OooXX.XX.++OoooXX.                                                       ",
"                                                    .++OooXX.XX.++OooXXX.                                                       ",
"                                                    .++OooXX.XX.++OooXXX.                                                       ",
"                                                    .++OooXX.oXX.+OooXX.                                                        ",
"                                                    .++OoXX.+oXX.+oooXX.                                                        ",
"                                                    .++ooXX.+ooX.+ooXXX.                                                        ",
"                                                     .+ooXX.+ooX.+ooXXX.                                                        ",
"                                                     .OooXX.+ooX.+ooXX.                                                         ",
"                                                      .oXX.++ooX.+ooXX.                                                         ",
"                                                      .oXX.++OoX.+ooXX.                                                         ",
"                                                      .oXX.@OOoX.+oXXX.                                                         ",
"                                                      .oX.+@OOoX.OoXX.                                                          ",
"                                                       .X.+@OOoXX.oXX.                                                          ",
"                                                       .X.+@OOooX.oXX.                                                          ",
"                                                       .X.+@+OooX.oXX.                                                          ",
"                                                       .X.+@+OooX.oX.                                                           ",
"                                                       .X.+@+OooX.XX.                                                           ",
"                                                        . .@+OOooX.X.                                                           ",
"                                                          .+@OOooX.X.                                                           ",
"                                                           .@+OooX.X.                                                           ",
"                                                           .@+OooXXX.                                                           ",
"                                                           .@+OooXX.                                                            ",
"                                                           .+@OooXX.                                                            ",
"                                                            .+OooXX.                                                            ",
"                                                            .+OOoXX.                                                            ",
"                                                            .++OoXX.                                                            ",
"                                                            .++OoXX.                                                            ",
"                                                             .+OoXX.                                                            ",
"                                                             .+OoX.                                                             ",
"                                                             .+OoX.                                                             ",
"                                                             .+ooX.                                                             ",
"                                                             .+ooX.                                                             ",
"                                                             .+ooX.                                                             ",
"                                                             .+ooX.                                                             ",
"                                                             .+ooX.                                                             ",
"                                                             .+ooX.                                                             ",
"                                                             .+ooX.                                                             ",
"                                                             .+ooX.                                                             ",
"                                                             .+ooX.                                                             ",
"                                                             .+oo.                                                              ",
"                                                             .+oX.                                                              ",
"                                                             .+oX.                                                              ",
"                                                             .+oX.                                                              ",
"                                                             .+oX.                                                              ",
"                                                             .+oX.                                                              ",
"                                                             .+oX.                                                              ",
"                                                             .+oX.                                                              ",
"                                                             .+oX.                                                              ",
"                                                             .+o.                                                               ",
"                                                              .o.                                                               ",
"                                                              .o.                                                               ",
"                                                              .X.                                                               ",
"                                                              .X.                                                               ",
"                                                              .X.                                                               ",
"                                                               .                                                                ",
"                                                                                                                                ",
"                                                                                                                                ",
"                                                                                                                                ",
"                                                                                                                                ",
"                                                                                                                                ",
"                                                                                                                                ",
"                                                                                                                                ",
"                                                                                                                                ",
"                                                                                                                                ",
"                                                                                                                                ",
"                                                                                                                                ",
"                                                                                                                                ",
"                                                                                                                                ",
"                                                                                                                                ",
"                                                                                                                                ",
"                                                                                                                                ",
"                                                                                                                                ",
"                                                                                                                                ",
"                                                                                                                                ",
"                                                                                                                                ",
"                                                                                                                                "
};
