/* XPM */
static char *stalactite51697129314[] = {
/* columns rows colors chars-per-pixel */
"128 128 7 1 ",
"  c None",
". c #28281C",
"X c #343124",
"o c #46412F",
"O c #6A6349",
"+ c #968D69",
"@ c #D6C88E",
/* pixels */
"                                                                                                                                ",
"                                                                                                                                ",
"                                                                                                                                ",
"                                                                                                                                ",
"                                                                                                                                ",
"                                                                                                                                ",
"                                                                                                                                ",
"                                                                                                                                ",
"                                                                                                                                ",
"                                                            ..                                                                  ",
"                                                          ..oX.                                                                 ",
"                                                         .++oX..........                                                        ",
"                                                        .+++oX.++@@++Ooo.                                                       ",
"                                                      ..++++oX.+@+++OOooX.                                                      ",
"                                                     .+@@++OoX.+@++OOoooX.                                                      ",
"                                                    .++@++OOoX.@++OOOooXX.                                                      ",
"                                                   .++@++OOOoX.@++OOOooXX.                                                      ",
"                                                   .+@++OOOOoX.@++OOoooXX.                                                      ",
"                                                  .++@++OOOooX.@++OOoooXXX.                                                     ",
"                                                 .++@++OOOOooX.@++OOooXXX..                                                     ",
"                                                 .++@+OOOOOooX.@++OOooXX.oX.                                                    ",
"                                                 .+@++OOOOOooX.@+OOoooXX.oX.                                                    ",
"                                                 .+@++OOOOOooX.@+OOoooXX.oXX.                                                   ",
"                                                 .+@++OOOOOooX.++OOooXX.+ooXo.                                                  ",
"                                                 .+@++OOOOOooX.++OOooXX.+ooXX.                                                  ",
"                                                 .+@++OOOOOooX.++OoooXX.+ooXXX.                                                 ",
"                                                  .@++OOOOoooX.+OOoooXX.+ooXXX.                                                 ",
"                                                  .@++OOOOoooX.+OOoooX.@+oooXX.                                                 ",
"                                                  .+++OOOOooXX.+OOoooX.@+oooXX.                                                 ",
"                                                   .++OOOOooXX.+OOooXX.@+oooXX.                                                 ",
"                                                   .++OOOOooXX.+OOooXX.@+oooXX.                                                 ",
"                                                   .++OOOOooX.@+OOooXX.@+oooXX.                                                 ",
"                                                    .+OOOOooX.@+OOooXX.@+oooXX.                                                 ",
"                                                    .+OOOOooX.@+OoooXX.@+oooXX.                                                 ",
"                                                    .++OOoooX.@+OoooXX.@+oooXX.                                                 ",
"                                                    .++OOooXX.@+OoooXX.@+oooXX.                                                 ",
"                                                     .++OooXX.@+OoooXX.++oooXX.                                                 ",
"                                                     .++OooXX.@+OoooXX.++oooXX.                                                 ",
"                                                     .++OooXX.@+OooXXX.++oooXX.                                                 ",
"                                                     .++OooXX.++OooXXX.++oooXX.                                                 ",
"                                                      .+OooXX.++OooXX.X.+oooXX.                                                 ",
"                                                      .+OooXX.++OooXX.X.+oooXX.                                                 ",
"                                                      .++ooXX.+OOooXX.X.+oooXX.                                                 ",
"                                                      .++ooXX.+OOooXX.X.+OooXX.                                                 ",
"                                                      .++ooXX.+OOooX.oX.+OooXX.                                                 ",
"                                                      .++ooXX.+OOoX.OoX.+OooXX.                                                 ",
"                                                       .+ooXX.+OooX.OoX.+OoooX.                                                 ",
"                                                       .+ooXX.+OooX.OoX.+OoooX.                                                 ",
"                                                       .+ooXX.+OooX.OoX.+OoooX.                                                 ",
"                                                       .+ooXX.+OooX.OoX.+OoooX.                                                 ",
"                                                       .+ooX.++OooX.OoX.+OoooX.                                                 ",
"                                                       .+ooX.++OooX.OoX.+OoooX.                                                 ",
"                                                       .+oXX.++OooX.OoX.++OooX.                                                 ",
"                                                       .+oXX.++OooX.OoX.++Ooo.                                                  ",
"                                                       .ooXX.++OooX.OoX.++Ooo.                                                  ",
"                                                       .ooXX.++OooX.Ooo.+OOoo.                                                  ",
"                                                       .ooXX.+OOooX.OooX.OOoo.                                                  ",
"                                                       .oXXX.+OOooX.OooX.OOoo.                                                  ",
"                                                       .XXXX.+OoooX.OooXX.Ooo.                                                  ",
"                                                        .XXX.+OoooX.OooXX.Ooo.                                                  ",
"                                                        .XXX.+OoooX.OooXX.Ooo.                                                  ",
"                                                         .XX.+OoooX.OoooX.OoX.                                                  ",
"                                                         .XX.+OoooX.OoooX.OoX.                                                  ",
"                                                          .X.+OoooX.OOooX.OoX.                                                  ",
"                                                          ..++OooXX.OOooXX.oX.                                                  ",
"                                                           .++oooXX.OOooXX.oXX.                                                 ",
"                                                           .++oooXX.OOooXX.oXX.                                                 ",
"                                                           .++oooXX.OOooXX.XXX.                                                 ",
"                                                           .++oooX.OOOooXX.XXX.                                                 ",
"                                                           .++oooX.OOOooXX.XXX.                                                 ",
"                                                           .o+ooXX.OOOooXX.XX.                                                  ",
"                                                           .ooooXX.OOOooXX.XX.                                                  ",
"                                                           .ooooXX.OOoooXX.XX.                                                  ",
"                                                            .ooXX.OOOoooXX.XX.                                                  ",
"                                                            .XoXX.OOOooXXX.X.                                                   ",
"                                                             .XXX.OOOooXXX.X.                                                   ",
"                                                             .XXX.OOoooXXX.X.                                                   ",
"                                                             .XXX.OOoooXXX.X.                                                   ",
"                                                              .XX.OOoooXXX.X.                                                   ",
"                                                               .X.OOoooXXX..                                                    ",
"                                                               .X.OOoooXXX.                                                     ",
"                                                                .OOOoooXXX.                                                     ",
"                                                                .OOoooXXXX.                                                     ",
"                                                                .OOoooXXXX.                                                     ",
"                                                                .OOoooXXXX.                                                     ",
"                                                                .OOoooXXX.                                                      ",
"                                                                .OOoooXXX.                                                      ",
"                                                                .OOoooXXX.                                                      ",
"                                                                .OOoooXXX.                                                      ",
"                                                                .OOoooXXX.                                                      ",
"                                                                .OOoooXXX.                                                      ",
"                                                                 .OoooXXX.                                                      ",
"                                                                 .OoooXXX.                                                      ",
"                                                                 .OoooXX.                                                       ",
"                                                                 .OoooXX.                                                       ",
"                                                                 .OooXXX.                                                       ",
"                                                                 .OooXXX.                                                       ",
"                                                                 .OooXXX.                                                       ",
"                                                                 .OooXX.                                                        ",
"                                                                .OOooXX.                                                        ",
"                                                                .OOooXX.                                                        ",
"                                                                .OOooXX.                                                        ",
"                                                                 .OooXX.                                                        ",
"                                                                 .OooXX.                                                        ",
"                                                                 .OooXX.                                                        ",
"                                                                 .OooXX.                                                        ",
"                                                                 .OooXX.                                                        ",
"                                                                 .OooXX.                                                        ",
"                                                                 .OooXX.                                                        ",
"                                                                 .OooXX.                                                        ",
"                                                                 .OoXX.                                                         ",
"                                                                  .oXX.                                                         ",
"                                                                  .oXX.                                                         ",
"                                                                   .XX.                                                         ",
"                                                                   .XX.                                                         ",
"                                                                   .X.                                                          ",
"                                                                   .X.                                                          ",
"                                                                    .                                                           ",
"                                                                                                                                ",
"                                                                                                                                ",
"                                                                                                                                ",
"                                                                                                                                ",
"                                                                                                                                ",
"                                                                                                                                ",
"                                                                                                                                ",
"                                                                                                                                ",
"                                                                                                                                ",
"                                                                                                                                "
};
