/* XPM */
static char *stalactite11697129314[] = {
/* columns rows colors chars-per-pixel */
"32 32 7 1 ",
"  c None",
". c #28281C",
"X c #343124",
"o c #46412F",
"O c #6A6349",
"+ c #968D69",
"@ c #D6C88E",
/* pixels */
"                                ",
"                                ",
"                                ",
"                                ",
"                                ",
"                                ",
"                ..              ",
"              ..oX.             ",
"             .++oX.             ",
"            .+@+oX.             ",
"            .+@OoX.             ",
"            .+@OoX.             ",
"            .++OoX.             ",
"            .+OOoX.             ",
"            .+OooX.             ",
"             .OooX.             ",
"             .OooX.             ",
"             .OoX.              ",
"             .OoX.              ",
"              .oX.              ",
"              .X.               ",
"              .X.               ",
"              .X.               ",
"               .                ",
"               .                ",
"               .                ",
"                                ",
"                                ",
"                                ",
"                                ",
"                                ",
"                                "
};
