/* XPM */
static char *torch1_31697129316[] = {
/* columns rows colors chars-per-pixel */
"64 64 18 1 ",
"  c None",
". c #28281C",
"X c #343124",
"o c #3B3B30",
"O c #46412F",
"+ c #554F3A",
"@ c #6A6349",
"# c #756D4C",
"$ c #805F1D",
"% c #C6810A",
"& c #EA9B00",
"* c #FFCA00",
"= c #928967",
"- c #968D69",
"; c #FFEA48",
": c #D0C086",
"> c #D6C88E",
", c #F8ECBF",
/* pixels */
"                                                                ",
"                                                                ",
"                                                                ",
"                                                                ",
"                                                                ",
"                                                                ",
"                                                                ",
"                                                                ",
"                                                                ",
"                                                                ",
"                                                                ",
"                            %                                   ",
"                                                                ",
"                        %       %       %                       ",
"                        %%     %%      %&%                      ",
"                        %*%    %%      %*%                      ",
"                       %&;%   %*%  %   %*%                      ",
"                       %&*;%   %   %%   %                       ",
"                       %&*;%   %  %&&%  %                       ",
"                       %&&*% %    %&&&% %                       ",
"                        %&*% %%   %&&&%                         ",
"                        %&% %&%  %&&&&&%                        ",
"                     %  %&% %&&% %&*&&&%                        ",
"                     %%  %  %&&&%&&**&&%                        ",
"                     %%    %&&*&&&*;*&&%                        ",
"                     %&%%  %&***&&*;**&%                        ",
"                     %&&&%%&&*;**&*;;*&&%                       ",
"                     %&&&&&&**;*****;**&&%                      ",
"                      %&&*&&***;***;;;*&&%                      ",
"                       %*;**&*;;;**;;;*&&%                      ",
"                      $$$$$***;;;;;;;$$$$$$                     ",
"                     o=,::#$$$$$$$$$$::#$:=o                    ",
"                     o####$:,=$:#$:=#$=#o=+o                    ",
"                      oo+o:==##oo:==#o##+oo                     ",
"                        o+####+o######o+o                       ",
"                         oo++++o++++++oo                        ",
"                           ooooooooooo                          ",
"                            .->-O.@O.                           ",
"                             .@OX.O.                            ",
"                             .OX.@O.                            ",
"                             ...@OX.                            ",
"                             .-O.OX.                            ",
"                             .>OX.X.                            ",
"                             .@O.@..                            ",
"                             .@X.@X.                            ",
"                            .OO.@.OX.                           ",
"                            ...@O.OO.                           ",
"                           .@@O.OX.OX.                          ",
"                          .OOOX.OOX.XX.                         ",
"                           ...........                          ",
"                                                                ",
"                                                                ",
"                                                                ",
"                                                                ",
"                                                                ",
"                                                                ",
"                                                                ",
"                                                                ",
"                                                                ",
"                                                                ",
"                                                                ",
"                                                                ",
"                                                                ",
"                                                                "
};
