/* XPM */
static char *torch2_21697129316[] = {
/* columns rows colors chars-per-pixel */
"64 64 18 1 ",
"  c None",
". c #28281C",
"X c #343124",
"o c #3B3B30",
"O c #46412F",
"+ c #554F3A",
"@ c #6A6349",
"# c #756D4C",
"$ c #805F1D",
"% c #C6810A",
"& c #EA9B00",
"* c #FFCA00",
"= c #928967",
"- c #968D69",
"; c #FFEA48",
": c #D0C086",
"> c #D6C88E",
", c #F8ECBF",
/* pixels */
"                                                                ",
"                                                                ",
"                                                                ",
"                                                                ",
"                                                                ",
"                                                                ",
"                                                                ",
"                                                                ",
"                                                                ",
"                                                                ",
"                                                                ",
"                          %                                     ",
"                     %    %           %                         ",
"                     %   %&%          %                         ",
"                    %*%  %&%     %   %*%                        ",
"                     %  %&&&%    %   %&%                        ",
"                        %&*&%         %                         ",
"                        %&**%       %                           ",
"                   %    %&;*%      %&%   %                      ",
"                   %%   %&;*%      %&%   %                      ",
"                  %&&%  %&*% %    %&&%  %%                      ",
"                  %&*%   %&% %    %&&%  %*%                     ",
"                  %&*%    %  %    %&&%  %&%                     ",
"                  %&;*%     %&%   %&&%  %&%                     ",
"                  %&*% %    %&%   %&&&%  %                      ",
"                   %&% %    %&%   %&&&%  %                      ",
"                   %&% %%   %&%  %&&*&&%                        ",
"                    %  %&% %&&&% %&**&&%                        ",
"                 %    %&&% %&&*&%&&***&% %                      ",
"                 %%   %&&&%&&**&%&&*;*&&%&%                     ",
"                 %&%  %&*&&&&**&%&&*;*&&%&%                     ",
"                 %&&%%&&**&&*;*&&&**;**&&&%                     ",
"                 %&&&%&&**&&*;*&&&**;**&*&&%                    ",
"                  %*&&&**;*&*;**&**;;;*&**&%                    ",
"                $$$$$&&*;;**;;;***;;;;**$$$$$                   ",
"               o:::,:$$$$$$$$$$$$$$$$$$$:::$=o                  ",
"               o==::=###$:::$:,:::::$:==##o==o                  ",
"               o##==#+oo==##o=::=##o===#+o=##o                  ",
"                o###+o==o++o====##o=o+++o###o                   ",
"                 o++o####oo######+o##oooo#+o                    ",
"                  oo+++++++o+++++o++++++ooo                     ",
"                    ooooooooooooooooooooo                       ",
"                       .>-@@OO.>-@@OX.                          ",
"                        .@@OOX.@@OOX.                           ",
"                         .OOX.OOOOX.                            ",
"                          .X.O.XOX.                             ",
"                           .>OO.X.                              ",
"                           .-O.@..                              ",
"                           .@O.@O.                              ",
"                           .@O.>O.                              ",
"                           .OX.@O.                              ",
"                           .X.@OX.                              ",
"                           ...OOX.                              ",
"                           .-@.X..                              ",
"                          .>@OO.OO.                             ",
"                         .-OOX..@OX.                            ",
"                        .OOXX.@O.@OX.                           ",
"                      ..@.X..@OX.@@XX..                         ",
"                     .OOOX.OOOXXX.XXXXX.                        ",
"                      .................                         ",
"                                                                ",
"                                                                ",
"                                                                ",
"                                                                "
};
