/* XPM */
static char *torch3_11697129317[] = {
/* columns rows colors chars-per-pixel */
"128 128 18 1 ",
"  c None",
". c #28281C",
"X c #343124",
"o c #3B3B30",
"O c #46412F",
"+ c #554F3A",
"@ c #6A6349",
"# c #756D4C",
"$ c #805F1D",
"% c #C6810A",
"& c #EA9B00",
"* c #FFCA00",
"= c #928967",
"- c #968D69",
"; c #FFEA48",
": c #D0C086",
"> c #D6C88E",
", c #F8ECBF",
/* pixels */
"                                                                                                                                ",
"                                                                                                                                ",
"                                                                                                                                ",
"                                                                                                                                ",
"                                                                                                                                ",
"                                                                                                                                ",
"                                                                                                                                ",
"                                                                                                                                ",
"                                                                                                                                ",
"                                                                                                                                ",
"                                                                                                                                ",
"                                                                                                                                ",
"                                                                                                                                ",
"                                                                                                                                ",
"                                                                                                                                ",
"                                                                                                                                ",
"                                                                                                                                ",
"                                                                                                                                ",
"                                                                                                                                ",
"                                                                                                                                ",
"                                                                                                                                ",
"                                                                                                                                ",
"                                                                                                                                ",
"                                                                                                                                ",
"                                                                                                                                ",
"                                                                                                                                ",
"                                                                                                                                ",
"                                                                                                                                ",
"                                                                                                                                ",
"                                                                                                                                ",
"                                                                                                                                ",
"                                                                                                                                ",
"                                                                                                                                ",
"                                                                                                                                ",
"                                                                                                                                ",
"                                                                                                                                ",
"                                                                                                                                ",
"                                                                                                                                ",
"                                                                                                                                ",
"                                                                                                                                ",
"                                                                      %                                                         ",
"                                                               %     %%                                                         ",
"                                                                %   %&&%                                                        ",
"                                                    %           %%  %&*%                                                        ",
"                                                    %           %%  %&*;%                                                       ",
"                                                   %*%          %&%  %&;%   %                                                   ",
"                                                   %*%          %&%  %&%    %%                                                  ",
"                                                  %&;%    %    %&&%  %&%   %&%                                                  ",
"                                                   %;*%   %   %&&&&% %*%   %*;%                                                 ",
"                                                   %&*%   %   %&&&&%  %   %&&;%                                                 ",
"                                                   %&*%  %&% %&&*&&%       %&*%                                                 ",
"                                                %   %*% %&&% %&&*&&%       %&*%                                                 ",
"                                                %    %  %&&% %&**&&%     % %&%                                                  ",
"                                                %%      %&&% %&**&&%     %  %                                                   ",
"                                                %%      %&&&%&&**&&&%   %%  %                                                   ",
"                                                %&%     %&*&%&****&&%  %&%     %                                                ",
"                                                %&&%    %&*&%&**;*&&&% %&&%    %                                                ",
"                                                %&&&%  %&&**&&**;**&&&%&&&%   %&%                                               ",
"                                               %&&&&% %&&*;*&***;***&&%&*&%  %&&%                                               ",
"                                              %&&&*&&%&&**;*&**;;****&%&*&% %&&*&%                                              ",
"                                              %&&&**&%***;;****;;;***&%&*&&%&&**&%                                              ",
"                                              %&&**;****;;;;**;;;;***&&&**&&&&;**&%                                             ",
"                                              %&$$$$;**;;;;;;*;;;;;**&&*;*&&$$$$**%                                             ",
"                                              $$::=#$$$$;;;;;;;;;;;;;&&*$$$$::,:$$                                              ",
"                                             $::=#$$::,:$$$$$$$$$$$$$$$$::$======#$                                             ",
"                                            o:==#o:=o=====##$::::,::==##$$###===#$=o                                            ",
"                                            o#=#o:===o==###o========##o$::oo####=o#o                                            ",
"                                            o#+o:====o###oo###==###++o::====oo##o#+o                                            ",
"                                            o+o####==o#oo==oo#+++++oo:====###+oo#++o                                            ",
"                                             o+#####+oo======oooooo#:##########+o+o                                             ",
"                                              oo+++++o############+o########++++oo                                              ",
"                                                ooooo+++++++++++++++o++++++ooooo                                                ",
"                                                  .>-oooooooooooooooooooooo@O.                                                  ",
"                                                   .@>--@@OX.OO->-@@OOOX.@OX.                                                   ",
"                                                    .@@@OOO.-.OOOOOOOXX.@OX.                                                    ",
"                                                     .OOOO.>>@.....XXX.@OX.                                                     ",
"                                                      .OOX.-@OOOXXX...XOX.                                                      ",
"                                                       .X.-@OOOX...@@O.X.                                                       ",
"                                                        ..@OOOX.>O.@OX..                                                        ",
"                                                          .OOX.>-O.@O.                                                          ",
"                                                           .X.>-@O.O.                                                           ",
"                                                           .X.-@@O.O.                                                           ",
"                                                           ..O.@OO.X.                                                           ",
"                                                           .-O.@OX.X.                                                           ",
"                                                           .-O.@OX.X.                                                           ",
"                                                           .@O.XX.-..                                                           ",
"                                                          .@OO...@@XX.                                                          ",
"                                                         .@OO.>-@@OOXX.                                                         ",
"                                                         .OOO.OOOOOOXX.                                                         ",
"                                                        .@.O.-....XOX.O.                                                        ",
"                                                       .-@O.>--@@@.XX.-O.                                                       ",
"                                                      .>@OX.-@@@OOO.X.@OO.                                                      ",
"                                                     .-OOX.@@@OOOOOX.-@@OX.                                                     ",
"                                                   ..OOOX.OOOOOOOXXXX.OOOOX..                                                   ",
"                                                  .XXXXX.XXXXXXXXXXXX.XXXXXXX.                                                  ",
"                                                   ..........................                                                   ",
"                                                                                                                                ",
"                                                                                                                                ",
"                                                                                                                                ",
"                                                                                                                                ",
"                                                                                                                                ",
"                                                                                                                                ",
"                                                                                                                                ",
"                                                                                                                                ",
"                                                                                                                                ",
"                                                                                                                                ",
"                                                                                                                                ",
"                                                                                                                                ",
"                                                                                                                                ",
"                                                                                                                                ",
"                                                                                                                                ",
"                                                                                                                                ",
"                                                                                                                                ",
"                                                                                                                                ",
"                                                                                                                                ",
"                                                                                                                                ",
"                                                                                                                                ",
"                                                                                                                                ",
"                                                                                                                                ",
"                                                                                                                                ",
"                                                                                                                                ",
"                                                                                                                                ",
"                                                                                                                                ",
"                                                                                                                                ",
"                                                                                                                                ",
"                                                                                                                                ",
"                                                                                                                                ",
"                                                                                                                                "
};
