/* XPM */
static char *trap31697129318[] = {
/* columns rows colors chars-per-pixel */
"128 128 12 1 ",
"  c None",
". c #28281C",
"X c #343124",
"o c #3B3B30",
"O c #46412F",
"+ c #554F3A",
"@ c #6A6349",
"# c #756D4C",
"$ c #928967",
"% c #968D69",
"& c #D0C086",
"* c #F8ECBF",
/* pixels */
"                                                                                                                                ",
"                                                                                                                                ",
"                                                                                                                                ",
"                                                                                                                                ",
"                                                                                                                                ",
"                                                                                                                                ",
"                                                                                                                                ",
"                                                                                                                                ",
"                                                                                                                                ",
"                                                                                                                                ",
"                                                                                                                                ",
"                                                                                                                                ",
"                                                                                                                                ",
"                                                                                                                                ",
"                                                                                                                                ",
"                                                                                                                                ",
"                                                                                                                                ",
"                                                                                                                                ",
"                                                                                                                                ",
"                                                                                                                                ",
"                                                                                                                                ",
"                                                                                                                                ",
"                                                                                                                                ",
"                                                                                                                                ",
"                                                                                                                                ",
"                                                                                                                                ",
"                                                                                                                                ",
"                                                                                                                                ",
"                                                                                                                                ",
"                                                                                                                                ",
"                                                                                                                                ",
"                                                                                                                                ",
"                                                                                                                                ",
"                                                                                                                                ",
"                                                                                                                                ",
"                                                                       o                                                        ",
"                                                                    ooo&o                                                       ",
"                                                oooo                o*&$$o                                                      ",
"                                               o&**&o    oo        o&&$##o     oooo                                             ",
"                                              o&&$$$$o  o$$o      oo$$##+o    o****oo                                           ",
"                                       ooo    o#$$$$#o  o##o   o   o###+o    o&&&&&&&o                                          ",
"                                     oo**&oo  o#####+o  o#o   o*o  ooooo    o##$$$$$#o                                          ",
"                                    o**&&$$o  oo++++o   ooo  o*&$o          o+##$$$##+o                                         ",
"                                   o&&&&$##o    oooo        oo&$$#o          o+######+o     oooo                                ",
"                                   o&&$$$##o                oo&###o    ooooo o++#####+o   oo*&&&o     oo                        ",
"                         oo        o&$$$##+o                o$###+o   o**&$#o o++###+o    o&&$$#o    o*&o                       ",
"                       oo&&oo      o###+++o                  o++++o oo*&&$##o  oo+++oo   oo&$###+o  o&&$$o                      ",
"                     oo*&$$$$o     o++++oo                    oooo  o#&$###+o    ooo     o$###++o  o&&$$##o                     ",
"                     o&&$$$$#o      oooo                             o####++o             o#+++oo  o$$###+o                     ",
"                     o&$$$###o             oo                         oo#+oo               oooo    o####++o                     ",
"                     o$$####+o           oo&$o        oooooo            oo                          o++++oo                     ",
"                      oo++++o           o&&$$$o      o&***&&oo                 ooo      oo           oooo                       ",
"                        oooo            o&$$##o     o**&&&&$$#o              oo*&$o    o&&o                                     ",
"                                       o$$####+o   o*&&$$$$##+o             o*&&###o  o&&$o                                     ",
"                             oo        o#####++o   o&&$$$###++o     ooo     o&$###+o  o&$#o                                     ",
"                           oo&$o       o++++++o    o&$$$###++o    oo&*$o    o####+o   o$##o                                     ",
"                          o&&&&$o       oooooo      o#####++o    o*&$$##o   o##+++o   o$#+o                                     ",
"                         o&&$$##o                    o++++oo     o&$###+o   o+++oo    o#++o                                     ",
"                         o$####o                      oooo       o####+o     ooo       ooo                                      ",
"                         o++++oo    ooooo                        o##+++o                         ....                           ",
"                          oooo     o$$$$#o                      oo+++oo                ooo      .%%@@.                          ",
"                                  o$$$$##o    ooooo       o     o++oo      ooooo      o$$#o    .%%@@OO.                         ",
"                                 o$$$###+o  oo$$$$#o     o$o     oo       o$$$$$o    o$$###o  .%@@@OOX.                         ",
"                                  o$##+++o  o$$$###o    o$$o       oo     o$####o   o$$###+o  .OOOOOXX.                         ",
"                                  o##+++o   o####++o   o$##o     oo$$o     o#++o    o$##++o   .OOOOXXX.                         ",
"                                   oo+oo    o+++++oo   o#++o    o$$$#o      ooo     o#+++oo   .XXXXX..                          ",
"                                     o       ooooo     oooo     o$$##o               oooo      .....                            ",
"                                                                o$##+o                                                          ",
"                            ....      .....                     o#+oo                                                           ",
"                           .%%@O.    .%%%@O.                     oo            .                                                ",
"                           .@@OO.    .%%@@OO.         ....                   ..%.     ..       .                                ",
"                          .OOOOX.   .%@@@OOX.       ..%%@O.                 .%%@O.   .%%.    ..%.                               ",
"                           .XXXX.   .@@OOXXX.      .%%%@@O.        ...      .%@OO.  .%%@O.  .%%@@.                              ",
"                            ....    ..XXXXX.       .%@@@OO.       .%%.      .@OOX. ..@@OO.  .%@@O.                              ",
"                                      .....       .@@@@OOX.      .%%@@.     .OOXX.  .@OOX.  .@@OXX.                             ",
"                                                  .OOOOOXX.     .%%@@O.     .OXX.   .OOX.   .@OOX.                              ",
"                                                  ..OXXXXX.    .@@@@OX. ...  ...     ...    .@OXX.                              ",
"                                 ...               .XXXXX.     .OOOOXX. .%@.                .OXX.                               ",
"                                .%@O.               .....       .XXXX. .%@O.                 ...                                ",
"                                .@@O.                            ....  .@@OO.                                                   ",
"                                .@OO.                                  .@OOX.         ....                                      ",
"                                .OOX.                                  .OXX.         .%%@O.                                     ",
"                                .OX.      ..                   ..       ...          .%@OO.                                     ",
"                                 ..      .%%.                 .%@.                   .@@OX.                                     ",
"                                        .%%@O.               .%@@O.                  .OOX.                                      ",
"                                       .%%@OX.              .@@@OO.                  .XX.                                       ",
"                                       .%@OXX.    ....      ..OOX.        .....       ..                                        ",
"                                       .@OOX.    .%%@@.      .XXX.       .%%%@.                                                 ",
"                                       .OOXX.    .%@@O.       ...        .%%@@O.                                                ",
"                                       .OX..    ..@@OOX.                .%@@@OO.                                                ",
"                                        ..      .@@OOXX.                .@@OOO.                                                 ",
"                                                .OOOXX.      ....       .OOXXX.                                                 ",
"                                                 .OXX..    ..%%@O.      ..XXX.                                                  ",
"                                                  ...      .%%@@O.       ....                                                   ",
"                                                          ..@@@OO.                                                              ",
"                                                            .OOXX.                                                              ",
"                                                            .XXX.                                                               ",
"                                                             ...                                                                ",
"                                                                                                                                ",
"                                                                                                                                ",
"                                                                                                                                ",
"                                                                                                                                ",
"                                                                                                                                ",
"                                                                                                                                ",
"                                                                                                                                ",
"                                                                                                                                ",
"                                                                                                                                ",
"                                                                                                                                ",
"                                                                                                                                ",
"                                                                                                                                ",
"                                                                                                                                ",
"                                                                                                                                ",
"                                                                                                                                ",
"                                                                                                                                ",
"                                                                                                                                ",
"                                                                                                                                ",
"                                                                                                                                ",
"                                                                                                                                ",
"                                                                                                                                ",
"                                                                                                                                ",
"                                                                                                                                ",
"                                                                                                                                ",
"                                                                                                                                ",
"                                                                                                                                ",
"                                                                                                                                ",
"                                                                                                                                ",
"                                                                                                                                ",
"                                                                                                                                "
};
